<?xml version="1.0" encoding="UTF-8" standalone="no"?>
<svg
   xmlns:dc="http://purl.org/dc/elements/1.1/"
   xmlns:cc="http://creativecommons.org/ns#"
   xmlns:rdf="http://www.w3.org/1999/02/22-rdf-syntax-ns#"
   xmlns:svg="http://www.w3.org/2000/svg"
   xmlns="http://www.w3.org/2000/svg"
   viewBox="0 0 377.95358 283.83173"
   height="283.83173"
   width="377.95358"
   xml:space="preserve"
   id="svg9693"
   version="1.1"><metadata
     id="metadata9699"><rdf:RDF><cc:Work
         rdf:about=""><dc:format>image/svg+xml</dc:format><dc:type
           rdf:resource="http://purl.org/dc/dcmitype/StillImage" /><dc:title></dc:title></cc:Work></rdf:RDF></metadata><defs
     id="defs9697" /><g
     transform="matrix(1.3333333,0,0,-1.3333333,0,283.83173)"
     id="g9701"><g
       id="g9703"><path
         id="path9705"
         style="fill:#ffffff;fill-opacity:1;fill-rule:nonzero;stroke:none"
         d="m 7.656,212.87 c -5.105,-188.973 -2.551,-94.488 0,0 z m 268.551,-0.754 c 3.695,-0.133 6.59,-3.203 6.504,-6.898 0.004,-89.516 -0.004,-108.454 -0.004,-197.961 -0.137,-3.692 -3.203,-6.59 -6.902,-6.504 H 7.656 C 3.957,0.667 0.891,3.565 0.758,7.257 c -0.016,89.632 0,108.75 0,198.359 0.133,3.691 3.199,6.586 6.898,6.504 94.289,0.023 186.227,-0.004 268.551,-0.004 z" /><path
         id="path9707"
         style="fill:#2b2a29;fill-opacity:1;fill-rule:evenodd;stroke:none"
         d="M 7.355,209.663 H 7.312 c -2.238,-0.078 -4.011,-1.879 -4.093,-4.09 H 3.207 V 7.303 H 3.219 C 3.301,5.093 5.074,3.292 7.312,3.214 H 7.355 V 3.21 h 268.809 v 0.004 c 2.231,0.086 4,1.882 4.082,4.089 h 0.008 v 198.27 h -0.008 c -0.082,2.207 -1.851,4.004 -4.082,4.086 v 0.004 z m 7.157,-11.301 H 268.953 V 14.514 H 14.512 Z" /><path
         id="path9709"
         style="fill:#000000;fill-opacity:1;fill-rule:nonzero;stroke:none"
         d="m 7.656,212.87 c -4.097,0.082 -7.511,-3.145 -7.652,-7.242 -0.008,-88.305 0,-104.782 0,-198.383 0.141,-4.098 3.555,-7.328 7.652,-7.242 h 268.153 c 4.093,-0.086 7.507,3.144 7.648,7.242 0.012,87.695 0.008,107.285 0.008,197.973 h -0.004 c 0.086,4.097 -3.145,7.507 -7.238,7.648 -93.262,0.012 -188.645,0.004 -268.567,0.004 z m 268.551,-0.754 c 3.695,-0.133 6.59,-3.203 6.504,-6.898 0.004,-89.516 -0.004,-108.454 -0.004,-197.961 -0.137,-3.692 -3.203,-6.59 -6.902,-6.504 H 7.656 C 3.957,0.667 0.891,3.565 0.758,7.257 c -0.016,89.632 0,108.75 0,198.359 0.133,3.691 3.199,6.586 6.898,6.504 94.289,0.023 186.227,-0.004 268.551,-0.004 z" /><path
         id="path9711"
         style="fill:#000000;fill-opacity:1;fill-rule:evenodd;stroke:none"
         d="M 103.961,26.475 V 50.8 h -2.91 v 4.722 h 2.91 v 4.367 l 0.019,0.375 0.016,0.352 0.055,0.375 0.054,0.355 0.086,0.356 0.09,0.336 0.125,0.336 0.125,0.34 0.141,0.32 0.16,0.316 0.18,0.305 0.195,0.285 0.195,0.281 0.211,0.286 0.231,0.265 0.25,0.25 0.246,0.231 0.269,0.23 0.266,0.215 0.285,0.211 0.301,0.195 0.301,0.16 0.64,0.321 0.321,0.125 0.336,0.105 0.355,0.106 0.356,0.07 0.355,0.074 0.355,0.051 0.372,0.02 0.375,0.015 h 4.367 v -5.449 h -3.996 l -0.196,-0.02 -0.175,-0.015 -0.18,-0.055 -0.16,-0.055 -0.16,-0.07 -0.161,-0.105 -0.14,-0.09 -0.125,-0.125 -0.106,-0.121 -0.105,-0.145 -0.18,-0.32 -0.051,-0.156 -0.054,-0.18 -0.02,-0.176 -0.015,-0.18 v -4.367 h 5.824 V 50.8 H 109.77 V 26.475 Z m 18.168,0 v 29.047 h 5.805 v -3.285 l 0.355,0.426 0.391,0.41 0.39,0.371 0.426,0.336 0.426,0.34 0.461,0.285 0.465,0.281 0.496,0.25 0.48,0.211 0.516,0.196 0.512,0.16 0.535,0.144 0.531,0.106 0.531,0.07 0.551,0.055 0.57,0.015 0.407,-0.015 0.429,-0.02 0.406,-0.051 0.411,-0.054 0.406,-0.09 0.41,-0.086 0.406,-0.125 0.391,-0.125 0.391,-0.141 0.375,-0.179 0.39,-0.176 0.356,-0.195 0.371,-0.215 0.34,-0.211 0.351,-0.25 0.32,-0.266 -4.117,-5.078 -0.215,0.16 -0.195,0.16 -0.23,0.157 -0.215,0.144 -0.231,0.125 -0.23,0.121 -0.246,0.11 -0.231,0.105 -0.25,0.09 -0.25,0.07 -0.265,0.07 -0.25,0.055 -0.532,0.07 -0.265,0.016 h -0.57 l -0.282,-0.016 -0.304,-0.035 -0.282,-0.054 -0.285,-0.071 -0.265,-0.07 -0.266,-0.105 -0.27,-0.09 -0.265,-0.125 -0.246,-0.125 -0.235,-0.141 -0.246,-0.16 -0.23,-0.16 -0.215,-0.16 -0.211,-0.196 -0.391,-0.39 -0.179,-0.211 -0.176,-0.215 -0.32,-0.461 -0.145,-0.25 -0.121,-0.246 -0.109,-0.27 -0.106,-0.246 -0.09,-0.285 -0.086,-0.266 -0.109,-0.57 -0.035,-0.301 -0.035,-0.285 v -18.09 z m 46.488,12.34 h -18.168 v -0.73 l 0.02,-0.461 0.051,-0.461 0.089,-0.461 0.125,-0.445 0.141,-0.426 0.195,-0.41 0.196,-0.407 0.25,-0.39 0.265,-0.356 0.301,-0.355 0.32,-0.32 0.34,-0.301 0.371,-0.266 0.375,-0.25 0.426,-0.23 0.426,-0.196 0.355,-0.125 0.371,-0.125 0.375,-0.086 0.371,-0.089 0.391,-0.071 0.375,-0.035 0.391,-0.035 h 0.832 l 0.445,0.035 0.852,0.141 0.425,0.105 0.426,0.125 0.41,0.16 0.391,0.161 0.391,0.195 0.371,0.215 0.375,0.23 0.355,0.266 0.336,0.265 0.336,0.286 0.32,0.32 0.286,0.316 4.421,-3.781 -0.25,-0.285 -0.265,-0.281 -0.266,-0.266 -0.265,-0.27 -0.286,-0.246 -0.285,-0.25 -0.285,-0.23 -0.301,-0.231 -0.3,-0.214 -0.301,-0.211 -0.321,-0.215 -0.32,-0.196 -0.32,-0.175 -0.336,-0.18 -0.32,-0.176 -0.336,-0.16 -0.34,-0.141 -0.356,-0.144 -0.355,-0.141 -0.336,-0.125 -0.356,-0.105 -0.371,-0.106 -0.355,-0.109 -0.356,-0.07 -0.375,-0.09 -0.371,-0.051 -0.375,-0.055 -0.371,-0.05 -0.375,-0.039 -0.371,-0.036 h -0.391 l -0.371,-0.015 -0.675,0.015 -0.657,0.055 -0.66,0.07 -0.656,0.125 -0.637,0.125 -0.64,0.176 -0.641,0.195 -0.621,0.25 -0.426,0.176 -0.406,0.18 -0.391,0.211 -0.41,0.23 -0.371,0.235 -0.375,0.246 -0.355,0.25 -0.356,0.285 -0.336,0.281 -0.34,0.305 -0.316,0.301 -0.305,0.32 -0.281,0.336 -0.285,0.336 -0.266,0.355 -0.25,0.356 -0.25,0.375 -0.211,0.371 -0.215,0.391 -0.39,0.781 -0.16,0.41 -0.157,0.426 -0.144,0.406 -0.125,0.426 -0.106,0.445 -0.09,0.426 -0.07,0.445 -0.07,0.442 -0.035,0.464 -0.035,0.442 v 6.285 l 0.015,0.605 0.035,0.622 0.09,0.585 0.106,0.602 0.125,0.57 0.16,0.567 0.195,0.57 0.215,0.531 0.23,0.535 0.266,0.512 0.301,0.516 0.305,0.48 0.335,0.461 0.356,0.461 0.371,0.426 0.41,0.426 0.406,0.39 0.446,0.375 0.445,0.356 0.477,0.336 0.48,0.32 0.496,0.285 0.516,0.266 0.535,0.25 0.551,0.211 0.547,0.179 0.57,0.157 0.586,0.144 0.586,0.106 0.605,0.07 0.602,0.055 0.621,0.015 0.621,-0.015 0.605,-0.055 0.602,-0.07 0.586,-0.106 0.586,-0.144 0.57,-0.157 0.551,-0.179 0.551,-0.211 0.531,-0.25 0.516,-0.266 0.496,-0.285 0.48,-0.32 0.481,-0.336 0.441,-0.356 0.445,-0.375 0.411,-0.39 0.406,-0.426 0.375,-0.426 0.351,-0.461 0.34,-0.461 0.301,-0.48 0.285,-0.516 0.266,-0.512 0.25,-0.535 0.211,-0.531 0.195,-0.57 0.16,-0.567 0.125,-0.57 0.106,-0.602 0.07,-0.585 0.055,-0.622 0.019,-0.605 z m -18.168,5.094 h 12.36 l -0.016,0.301 -0.02,0.32 -0.035,0.32 -0.054,0.301 -0.071,0.285 -0.09,0.301 -0.085,0.285 -0.126,0.285 -0.25,0.532 -0.16,0.265 -0.32,0.5 -0.195,0.231 -0.196,0.211 -0.195,0.215 -0.211,0.21 -0.23,0.196 -0.231,0.179 -0.25,0.176 -0.25,0.16 -0.246,0.145 -0.266,0.141 -0.285,0.125 -0.57,0.21 -0.281,0.071 -0.305,0.074 -0.301,0.051 -0.32,0.054 -0.301,0.016 h -0.64 l -0.317,-0.016 -0.304,-0.054 -0.301,-0.051 -0.301,-0.074 -0.285,-0.071 -0.301,-0.105 -0.27,-0.105 -0.281,-0.125 -0.265,-0.141 -0.25,-0.145 -0.25,-0.16 -0.246,-0.176 -0.231,-0.179 -0.234,-0.196 -0.211,-0.21 -0.196,-0.215 -0.195,-0.211 -0.195,-0.231 -0.321,-0.5 -0.16,-0.265 -0.125,-0.266 -0.121,-0.266 -0.125,-0.285 -0.09,-0.285 -0.089,-0.301 -0.071,-0.285 -0.054,-0.301 -0.036,-0.32 -0.015,-0.32 z m 26.156,-17.434 v 29.047 h 5.809 V 26.475 Z m 0,34.852 v 5.824 h 5.809 v -5.824 z" /><path
         id="path9713"
         style="fill:#000000;fill-opacity:1;fill-rule:evenodd;stroke:none"
         d="m 219.375,186.913 c -0.711,0 -1.309,-0.356 -1.391,-0.828 h -0.011 v -11.516 h -3.551 v -11.976 c 0.008,-4.399 3.101,-8.223 7.516,-9.297 0.007,-0.258 0.007,-0.52 0.007,-0.785 0,-2.391 -0.769,-4.008 -1.976,-5.141 -1.199,-1.125 -2.93,-1.789 -5.043,-1.789 h -0.383 c -3.652,0 -7.008,-1.34 -9.391,-3.785 -2.386,-2.453 -3.757,-5.957 -3.757,-10.012 v -7.688 c 0,-1.636 -0.68,-2.613 -1.762,-3.414 -1.071,-0.793 -2.594,-1.211 -3.52,-1.211 h -1.633 v 12.25 c 0,1.625 -0.523,3.215 -1.503,4.52 l -1.508,2.008 c -1.055,1.41 -1.942,2.929 -2.645,4.547 l -9.933,22.832 c -0.996,2.289 -3.262,3.769 -5.762,3.769 h -62.797 c -2.496,0 -4.758,-1.48 -5.758,-3.769 l -9.937,-22.832 c -0.703,-1.618 -1.59,-3.137 -2.653,-4.547 l -1.504,-2.008 c -0.976,-1.305 -1.5,-2.895 -1.5,-4.52 v -16.328 c 0,-3.472 2.809,-6.281 6.282,-6.281 h 92.937 c 3.367,0 6.11,2.652 6.266,5.981 h 1.648 c 1.989,0 4.199,0.64 6.133,2.082 1.938,1.433 3.535,3.867 3.535,6.921 v 7.688 c 0,3.09 0.981,5.387 2.504,6.957 1.527,1.57 3.653,2.461 6.258,2.461 h 0.383 c 3.051,0 5.933,0.996 8.043,2.976 2.109,1.985 3.355,4.922 3.355,8.333 0,0.23 0,0.457 0,0.679 4.633,0.906 7.961,4.84 7.961,9.403 v 11.976 h -3.547 v 11.516 h -0.011 c -0.09,0.472 -0.684,0.828 -1.395,0.828 -0.711,0 -1.309,-0.356 -1.394,-0.828 h -0.008 v -11.516 h -7.153 v 11.516 h -0.007 c -0.086,0.472 -0.688,0.828 -1.391,0.828 z M 111.848,163.116 h 59.761 c 1,0 1.914,-0.582 2.313,-1.504 l 8.621,-19.848 H 100.91 l 8.633,19.848 c 0.406,0.922 1.309,1.504 2.305,1.504 z m -9.055,-27.633 c 4.168,0 7.539,-3.371 7.539,-7.535 0,-4.16 -3.371,-7.523 -7.539,-7.523 -4.16,0 -7.531,3.363 -7.531,7.523 0,4.164 3.371,7.535 7.531,7.535 z m 77.871,0 c 4.168,0 7.535,-3.371 7.535,-7.535 0,-4.16 -3.367,-7.523 -7.535,-7.523 -4.156,0 -7.535,3.363 -7.535,7.523 0,4.164 3.379,7.535 7.535,7.535 z M 95.262,106.6 V 92.784 c 0,-2.09 1.683,-3.766 3.761,-3.766 h 7.536 c 2.086,0 3.773,1.676 3.773,3.766 V 106.6 Z m 77.867,0 V 92.784 c 0,-2.09 1.691,-3.766 3.773,-3.766 h 7.536 c 2.085,0 3.761,1.676 3.761,3.766 V 106.6 Z" /></g></g></svg>