<?xml version="1.0" encoding="UTF-8" standalone="no"?>
<svg
   xmlns:dc="http://purl.org/dc/elements/1.1/"
   xmlns:cc="http://creativecommons.org/ns#"
   xmlns:rdf="http://www.w3.org/1999/02/22-rdf-syntax-ns#"
   xmlns:svg="http://www.w3.org/2000/svg"
   xmlns="http://www.w3.org/2000/svg"
   viewBox="0 0 377.95483 377.95486"
   height="377.95486"
   width="377.95483"
   xml:space="preserve"
   id="svg4913"
   version="1.1"><metadata
     id="metadata4919"><rdf:RDF><cc:Work
         rdf:about=""><dc:format>image/svg+xml</dc:format><dc:type
           rdf:resource="http://purl.org/dc/dcmitype/StillImage" /><dc:title></dc:title></cc:Work></rdf:RDF></metadata><defs
     id="defs4917" /><g
     transform="matrix(1.3333333,0,0,-1.3333333,0,377.95487)"
     id="g4921"><g
       id="g4923"><path
         id="path4925"
         style="fill:#ffffff;fill-opacity:1;fill-rule:nonzero;stroke:none"
         d="m 7.656,283.462 c -5.105,-188.976 -2.551,-94.488 0,0 z m 268.551,-0.754 c 3.695,-0.136 6.59,-3.203 6.504,-6.898 0.004,-89.516 -0.004,-179.047 -0.004,-268.555 -0.137,-3.691 -3.203,-6.59 -6.902,-6.504 H 7.656 C 3.957,0.665 0.891,3.564 0.758,7.255 c -0.016,89.633 0,179.344 0,268.953 0.133,3.692 3.199,6.586 6.898,6.504 94.289,0.024 186.227,-0.004 268.551,-0.004 z" /><path
         id="path4927"
         style="fill:#000000;fill-opacity:1;fill-rule:evenodd;stroke:none"
         d="m 7.355,280.255 c -0.015,0 -0.027,0 -0.043,0 -2.238,-0.078 -4.011,-1.879 -4.093,-4.09 H 3.207 c 0,-89.621 0,-179.242 0,-268.863 H 3.219 C 3.301,5.091 5.074,3.29 7.312,3.212 c 0.016,0 0.028,0 0.043,0 V 3.208 h 268.809 v 0.004 c 2.231,0.086 4,1.883 4.082,4.09 h 0.008 c 0,89.621 0,179.242 0,268.863 h -0.008 c -0.082,2.207 -1.851,4.004 -4.082,4.086 v 0.004 z m 7.157,-11.301 h 254.441 c 0,-84.816 0,-169.628 0,-254.441 H 14.512 c 0,84.813 0,169.625 0,254.441 z" /><path
         id="path4929"
         style="fill:#000000;fill-opacity:1;fill-rule:evenodd;stroke:none"
         d="m 53.098,254.814 0.015,0.34 0.02,0.316 0.035,0.32 0.07,0.301 0.071,0.32 0.07,0.301 0.109,0.301 0.106,0.281 0.14,0.285 0.141,0.266 0.145,0.266 0.175,0.265 0.176,0.246 0.18,0.231 0.211,0.25 0.195,0.211 0.231,0.215 0.46,0.39 0.266,0.176 0.246,0.16 0.266,0.16 0.285,0.141 0.285,0.125 0.281,0.105 0.301,0.106 0.301,0.09 0.301,0.07 0.32,0.051 0.32,0.035 0.317,0.039 h 0.656 l 0.32,-0.039 0.317,-0.035 0.32,-0.051 0.301,-0.07 0.301,-0.09 0.3,-0.106 0.286,-0.105 0.285,-0.125 0.265,-0.141 0.532,-0.32 0.246,-0.176 0.25,-0.195 0.23,-0.195 0.211,-0.215 0.211,-0.211 0.195,-0.25 0.196,-0.231 0.179,-0.246 0.157,-0.265 0.16,-0.266 0.14,-0.266 0.125,-0.285 0.125,-0.281 0.09,-0.301 0.086,-0.301 0.07,-0.32 0.055,-0.301 0.055,-0.32 0.015,-0.316 v -0.657 l -0.015,-0.336 -0.055,-0.32 -0.055,-0.301 -0.07,-0.32 -0.086,-0.301 -0.09,-0.281 -0.125,-0.305 -0.125,-0.281 -0.14,-0.266 -0.16,-0.265 -0.157,-0.266 -0.179,-0.25 -0.391,-0.461 -0.211,-0.23 -0.211,-0.211 -0.23,-0.195 -0.25,-0.196 -0.246,-0.176 -0.532,-0.32 -0.265,-0.14 -0.285,-0.125 -0.286,-0.106 -0.3,-0.105 -0.301,-0.09 -0.301,-0.071 -0.32,-0.054 -0.317,-0.035 -0.32,-0.016 -0.336,-0.02 -0.32,0.02 -0.317,0.016 -0.32,0.035 -0.32,0.054 -0.301,0.071 -0.301,0.09 -0.301,0.105 -0.281,0.106 -0.285,0.125 -0.285,0.14 -0.266,0.16 -0.246,0.16 -0.266,0.176 -0.46,0.391 -0.231,0.211 -0.195,0.23 -0.211,0.231 -0.18,0.23 -0.176,0.25 -0.175,0.266 -0.145,0.265 -0.141,0.266 -0.14,0.281 -0.106,0.305 -0.109,0.281 -0.07,0.301 -0.071,0.32 -0.07,0.301 -0.035,0.32 -0.02,0.336 z" /><path
         id="path4931"
         style="fill:#000000;fill-opacity:1;fill-rule:evenodd;stroke:none"
         d="m 59.492,205.99 -15.234,-0.036 0.086,0.547 0.09,0.551 0.105,0.531 0.125,0.551 0.125,0.531 0.121,0.532 0.16,0.531 0.145,0.531 0.156,0.512 0.18,0.531 0.176,0.516 0.195,0.515 0.195,0.512 0.211,0.496 0.215,0.516 0.461,0.992 0.246,0.477 0.25,0.496 0.266,0.476 0.265,0.481 0.281,0.476 0.286,0.461 0.902,1.383 0.32,0.441 0.336,0.446 0.336,0.425 0.336,0.442 0.356,0.426 0.371,0.406 -0.086,-0.051 -0.321,0.371 -0.3,0.391 -0.301,0.406 -0.25,0.406 -0.246,0.426 -0.231,0.442 -0.215,0.445 -0.175,0.441 -0.16,0.461 -0.141,0.481 -0.125,0.461 -0.106,0.476 -0.07,0.496 -0.07,0.477 -0.02,0.496 -0.015,0.496 v 6.219 l 0.015,0.551 0.035,0.55 0.071,0.532 0.09,0.531 0.125,0.531 0.14,0.496 0.176,0.512 0.195,0.48 0.215,0.477 0.231,0.461 0.265,0.441 0.266,0.446 0.301,0.425 0.316,0.407 0.34,0.39 0.371,0.371 0.371,0.356 0.391,0.336 0.39,0.32 0.422,0.301 0.446,0.281 0.441,0.25 0.461,0.246 0.48,0.215 0.496,0.195 0.497,0.157 0.511,0.144 0.516,0.121 0.531,0.09 0.531,0.07 0.547,0.055 h 1.117 l 0.532,-0.055 0.55,-0.07 0.512,-0.09 0.531,-0.121 0.516,-0.144 0.496,-0.157 0.477,-0.195 0.48,-0.215 0.461,-0.246 0.461,-0.25 0.422,-0.281 0.426,-0.301 0.41,-0.32 0.387,-0.336 0.375,-0.356 0.351,-0.371 0.34,-0.39 0.316,-0.407 0.301,-0.425 0.285,-0.426 0.246,-0.461 0.25,-0.461 0.211,-0.477 0.196,-0.48 0.16,-0.512 0.16,-0.496 0.211,-1.062 0.07,-0.532 0.035,-0.55 0.02,-0.551 v -6.219 l -0.02,-0.496 -0.035,-0.496 -0.051,-0.477 -0.089,-0.496 -0.09,-0.476 -0.121,-0.461 -0.145,-0.481 -0.156,-0.461 -0.195,-0.441 -0.196,-0.445 -0.23,-0.442 -0.25,-0.426 -0.266,-0.406 -0.281,-0.406 -0.301,-0.391 -0.32,-0.371 -0.09,0.051 0.355,-0.406 0.356,-0.426 0.352,-0.442 0.339,-0.425 0.317,-0.446 0.32,-0.441 0.32,-0.461 0.602,-0.922 0.281,-0.461 0.266,-0.476 0.285,-0.481 0.246,-0.476 0.266,-0.496 0.23,-0.477 0.25,-0.496 0.211,-0.496 0.231,-0.516 0.195,-0.496 0.215,-0.512 0.351,-1.031 0.18,-0.531 0.156,-0.512 0.16,-0.531 0.145,-0.531 0.141,-0.532 0.125,-0.531 0.105,-0.551 0.105,-0.531 0.106,-0.551 0.09,-0.547 z" /><path
         id="path4933"
         style="fill:#000000;fill-opacity:1;fill-rule:evenodd;stroke:none"
         d="m 58.73,204.466 0.02,-20.605 v -0.231 l -0.035,-0.23 -0.055,-0.211 -0.09,-0.215 -0.086,-0.191 -0.109,-0.196 -0.141,-0.16 -0.14,-0.18 -0.16,-0.14 -0.176,-0.125 -0.18,-0.121 -0.211,-0.09 -0.195,-0.07 -0.231,-0.055 -0.211,-0.035 -0.23,-0.016 -0.23,0.016 -0.231,0.035 -0.215,0.055 -0.211,0.07 -0.195,0.09 -0.195,0.121 -0.161,0.125 -0.175,0.14 -0.141,0.18 -0.125,0.16 -0.125,0.196 -0.09,0.191 -0.07,0.215 -0.051,0.211 -0.035,0.23 -0.02,0.231 -0.07,20.605 z" /><path
         id="path4935"
         style="fill:#000000;fill-opacity:1;fill-rule:evenodd;stroke:none"
         d="M 64.844,204.466 V 188.38 l -0.02,-0.23 -0.035,-0.231 -0.051,-0.215 -0.09,-0.211 -0.089,-0.195 -0.106,-0.176 -0.141,-0.179 -0.144,-0.157 -0.156,-0.144 -0.18,-0.141 -0.176,-0.105 -0.195,-0.106 -0.211,-0.074 -0.215,-0.051 -0.23,-0.035 -0.231,-0.019 -0.23,0.019 -0.231,0.035 -0.211,0.051 -0.214,0.074 -0.192,0.106 -0.195,0.105 -0.16,0.125 -0.161,0.16 -0.16,0.157 -0.125,0.179 -0.105,0.176 -0.106,0.195 -0.07,0.211 -0.055,0.215 -0.035,0.231 -0.015,0.23 -0.036,16.086 z" /><path
         id="path4937"
         style="fill:#fefefe;fill-opacity:1;fill-rule:evenodd;stroke:none"
         d="m 53.398,223.669 0.125,13.625 0.016,0.141 0.035,0.125 0.071,0.125 0.089,0.105 0.106,0.09 0.125,0.051 0.125,0.055 0.14,0.015 0.141,-0.015 0.145,-0.055 0.105,-0.051 0.106,-0.09 0.089,-0.105 0.071,-0.125 0.035,-0.125 0.016,-0.141 v -11.605 l -0.036,-0.16 -0.035,-0.141 -0.051,-0.141 -0.07,-0.14 -0.074,-0.145 -0.086,-0.121 -0.106,-0.109 z" /><path
         id="path4939"
         style="fill:#fefefe;fill-opacity:1;fill-rule:evenodd;stroke:none"
         d="m 65.621,223.669 -1.027,1.063 -0.106,0.109 -0.09,0.121 -0.086,0.145 -0.07,0.14 -0.054,0.141 -0.036,0.141 -0.019,0.16 v 11.746 l 0.109,0.25 0.086,0.105 0.106,0.09 0.125,0.051 0.125,0.055 0.16,0.015 0.14,-0.015 0.125,-0.055 0.125,-0.051 0.106,-0.09 0.086,-0.105 0.109,-0.25 v -0.141 z" /><path
         id="path4941"
         style="fill:#000000;fill-opacity:1;fill-rule:evenodd;stroke:none"
         d="m 214.211,217.786 h 12.594 v -6.058 l 11.5,-18.281 0.211,-0.391 0.195,-0.391 0.176,-0.406 0.125,-0.426 0.125,-0.441 0.07,-0.426 0.055,-0.445 v -0.848 l -0.055,-0.41 -0.055,-0.406 -0.086,-0.391 -0.125,-0.371 -0.125,-0.391 -0.16,-0.351 -0.195,-0.356 -0.191,-0.355 -0.231,-0.316 -0.25,-0.321 -0.266,-0.301 -0.281,-0.285 -0.304,-0.265 -0.317,-0.246 -0.336,-0.231 -15.769,25.246 0.089,-22.109 v -0.321 l -0.035,-0.335 -0.035,-0.321 -0.055,-0.301 -0.07,-0.32 -0.09,-0.301 -0.105,-0.281 -0.106,-0.301 -0.125,-0.285 -0.14,-0.265 -0.321,-0.532 -0.175,-0.25 -0.196,-0.23 -0.195,-0.227 -0.211,-0.23 -0.215,-0.215 -0.23,-0.195 -0.246,-0.196 -0.25,-0.175 -0.532,-0.321 -0.265,-0.14 -0.281,-0.125 -0.286,-0.106 -0.3,-0.105 -0.301,-0.09 -0.301,-0.07 -0.32,-0.055 -0.321,-0.035 -0.316,-0.016 -0.336,-0.019 z" /><path
         id="path4943"
         style="fill:#000000;fill-opacity:1;fill-rule:evenodd;stroke:none"
         d="m 214.211,219.365 v 6.961 l -4.199,-2.532 -0.321,-0.176 -0.336,-0.16 -0.355,-0.144 -0.355,-0.106 -0.352,-0.086 -0.375,-0.054 -0.371,-0.035 -0.371,-0.02 -0.356,0.02 -0.351,0.015 -0.356,0.074 -0.355,0.071 -0.336,0.105 -0.32,0.125 -0.336,0.141 -0.301,0.16 -0.301,0.195 -0.285,0.196 -0.281,0.211 -0.266,0.246 -0.23,0.25 -0.25,0.285 -0.211,0.281 -0.196,0.301 11.766,7.051 -0.109,7.086 0.019,0.339 0.016,0.317 0.035,0.32 0.055,0.32 0.07,0.301 0.09,0.301 0.105,0.301 0.106,0.281 0.144,0.285 0.141,0.266 0.14,0.285 0.161,0.246 0.195,0.25 0.176,0.246 0.195,0.231 0.215,0.211 0.226,0.214 0.461,0.391 0.25,0.176 0.532,0.32 0.285,0.141 0.265,0.125 0.301,0.121 0.281,0.09 0.301,0.089 0.321,0.071 0.32,0.051 0.316,0.054 0.321,0.02 h 0.726 l 0.813,-0.11 0.39,-0.086 0.391,-0.125 0.371,-0.125 0.355,-0.16 0.356,-0.191 0.351,-0.195 0.321,-0.231 0.32,-0.25 0.301,-0.265 0.281,-0.282 0.266,-0.301 0.25,-0.32 0.23,-0.336 11.145,-17.84 0.191,-0.339 0.18,-0.352 0.14,-0.355 0.125,-0.356 0.086,-0.371 0.075,-0.391 0.035,-0.371 0.015,-0.39 -0.015,-0.352 -0.035,-0.355 -0.055,-0.336 -0.07,-0.356 -0.106,-0.32 -0.125,-0.336 -0.125,-0.32 -0.16,-0.301 -0.176,-0.301 -0.195,-0.281 -0.211,-0.266 -0.231,-0.265 -0.25,-0.25 -0.265,-0.231 -0.281,-0.211 -0.301,-0.195 -8.453,13.465 v -11.871 z" /><path
         id="path4945"
         style="fill:#000000;fill-opacity:1;fill-rule:evenodd;stroke:none"
         d="m 210.152,254.814 v 0.34 l 0.036,0.316 0.035,0.32 0.054,0.301 0.071,0.32 0.09,0.301 0.105,0.301 0.105,0.281 0.125,0.285 0.141,0.266 0.32,0.531 0.176,0.246 0.195,0.231 0.196,0.25 0.426,0.426 0.23,0.195 0.246,0.195 0.25,0.176 0.531,0.32 0.266,0.141 0.281,0.125 0.285,0.105 0.301,0.106 0.301,0.09 0.301,0.07 0.32,0.051 0.316,0.035 0.321,0.039 h 0.656 l 0.336,-0.039 0.301,-0.035 0.32,-0.051 0.316,-0.07 0.301,-0.09 0.285,-0.106 0.301,-0.105 0.266,-0.125 0.285,-0.141 0.531,-0.32 0.246,-0.176 0.461,-0.39 0.231,-0.215 0.215,-0.211 0.191,-0.25 0.195,-0.231 0.18,-0.246 0.16,-0.265 0.156,-0.266 0.125,-0.266 0.141,-0.285 0.109,-0.281 0.106,-0.301 0.086,-0.301 0.074,-0.32 0.051,-0.301 0.035,-0.32 0.019,-0.316 0.016,-0.34 -0.016,-0.317 -0.019,-0.336 -0.035,-0.32 -0.051,-0.301 -0.074,-0.32 -0.086,-0.301 -0.106,-0.281 -0.109,-0.305 -0.141,-0.281 -0.125,-0.266 -0.156,-0.265 -0.16,-0.266 -0.18,-0.25 -0.195,-0.23 -0.191,-0.231 -0.215,-0.23 -0.231,-0.211 -0.461,-0.391 -0.246,-0.176 -0.531,-0.32 -0.285,-0.14 -0.266,-0.125 -0.301,-0.106 -0.285,-0.105 -0.301,-0.09 -0.316,-0.071 -0.32,-0.054 -0.301,-0.035 -0.336,-0.016 -0.32,-0.02 -0.336,0.02 -0.321,0.016 -0.316,0.035 -0.32,0.054 -0.301,0.071 -0.301,0.09 -0.301,0.105 -0.285,0.106 -0.281,0.125 -0.266,0.14 -0.531,0.32 -0.25,0.176 -0.246,0.196 -0.23,0.195 -0.215,0.211 -0.211,0.23 -0.391,0.461 -0.176,0.25 -0.32,0.531 -0.141,0.266 -0.125,0.281 -0.105,0.305 -0.105,0.281 -0.09,0.301 -0.071,0.32 -0.054,0.301 -0.035,0.32 -0.036,0.336 z" /><path
         id="path4947"
         style="fill:#000000;fill-opacity:1;fill-rule:evenodd;stroke:none"
         d="m 56.055,102.404 h 12.597 v -6.078 l 11.461,-18.231 0.231,-0.391 0.195,-0.39 0.16,-0.406 0.141,-0.426 0.105,-0.426 0.09,-0.441 0.035,-0.442 0.02,-0.445 -0.02,-0.406 -0.035,-0.407 -0.055,-0.39 -0.105,-0.407 -0.105,-0.375 -0.141,-0.371 -0.16,-0.371 -0.176,-0.355 -0.195,-0.336 -0.231,-0.336 -0.25,-0.32 -0.265,-0.301 -0.282,-0.285 -0.3,-0.266 -0.34,-0.246 -0.336,-0.215 -15.75,25.176 0.09,-22.055 -0.02,-0.32 -0.016,-0.32 -0.035,-0.317 -0.054,-0.32 -0.071,-0.301 -0.09,-0.301 -0.105,-0.3 -0.105,-0.286 -0.141,-0.281 -0.125,-0.285 -0.16,-0.266 -0.16,-0.246 -0.176,-0.25 -0.196,-0.246 -0.195,-0.23 -0.211,-0.231 -0.23,-0.195 -0.231,-0.215 -0.23,-0.176 -0.25,-0.175 -0.266,-0.18 -0.265,-0.141 -0.282,-0.14 -0.265,-0.141 -0.301,-0.109 -0.285,-0.106 -0.301,-0.07 -0.32,-0.071 -0.317,-0.07 -0.32,-0.035 -0.32,-0.02 -0.317,-0.015 z" /><path
         id="path4949"
         style="fill:#000000;fill-opacity:1;fill-rule:evenodd;stroke:none"
         d="m 56.055,103.978 v 6.945 l -4.215,-2.621 -0.32,-0.18 -0.356,-0.156 -0.336,-0.125 -0.351,-0.125 -0.356,-0.09 -0.371,-0.05 -0.375,-0.036 -0.371,-0.019 -0.371,0.019 -0.356,0.036 -0.355,0.05 -0.672,0.18 -0.336,0.125 -0.32,0.141 -0.301,0.16 -0.301,0.195 -0.301,0.191 -0.531,0.461 -0.25,0.25 -0.23,0.282 -0.211,0.285 -0.196,0.301 11.782,7.156 -0.125,7.14 v 0.321 l 0.039,0.316 0.035,0.321 0.051,0.32 0.07,0.301 0.09,0.3 0.105,0.301 0.106,0.285 0.125,0.282 0.14,0.285 0.161,0.265 0.16,0.246 0.176,0.25 0.195,0.247 0.195,0.23 0.426,0.426 0.23,0.211 0.25,0.179 0.246,0.176 0.266,0.176 0.266,0.145 0.265,0.14 0.285,0.125 0.282,0.125 0.301,0.086 0.3,0.09 0.305,0.07 0.316,0.055 0.321,0.051 0.316,0.019 0.34,0.016 0.406,-0.016 0.406,-0.035 0.391,-0.07 0.391,-0.09 0.39,-0.106 0.371,-0.144 0.372,-0.156 0.355,-0.18 0.336,-0.211 0.336,-0.23 0.32,-0.231 0.281,-0.266 0.286,-0.3 0.265,-0.301 0.246,-0.32 0.231,-0.336 11.164,-17.84 0.195,-0.336 0.156,-0.34 0.161,-0.352 0.105,-0.375 0.09,-0.371 0.07,-0.371 0.035,-0.39 0.02,-0.391 v -0.352 l -0.035,-0.355 -0.055,-0.336 -0.086,-0.336 -0.09,-0.34 -0.125,-0.316 -0.14,-0.32 -0.161,-0.317 -0.175,-0.285 -0.196,-0.301 -0.214,-0.265 -0.231,-0.266 -0.246,-0.23 -0.531,-0.461 -0.301,-0.196 -8.434,13.43 v -11.871 z" /><path
         id="path4951"
         style="fill:#000000;fill-opacity:1;fill-rule:evenodd;stroke:none"
         d="m 52.105,139.322 0.016,0.336 0.02,0.32 0.05,0.32 0.055,0.317 0.07,0.3 0.09,0.305 0.09,0.301 0.121,0.281 0.125,0.285 0.141,0.266 0.144,0.281 0.176,0.25 0.176,0.246 0.18,0.25 0.211,0.231 0.214,0.211 0.211,0.214 0.231,0.196 0.246,0.191 0.25,0.18 0.246,0.16 0.266,0.156 0.285,0.145 0.285,0.121 0.281,0.125 0.602,0.18 0.301,0.07 0.32,0.051 0.32,0.054 0.317,0.016 h 0.656 l 0.32,-0.016 0.317,-0.054 0.32,-0.051 0.301,-0.07 0.601,-0.18 0.285,-0.125 0.285,-0.121 0.282,-0.145 0.265,-0.156 0.25,-0.16 0.246,-0.18 0.25,-0.191 0.231,-0.196 0.211,-0.214 0.211,-0.211 0.215,-0.231 0.175,-0.25 0.18,-0.246 0.176,-0.25 0.14,-0.281 0.141,-0.266 0.125,-0.285 0.125,-0.281 0.09,-0.301 0.086,-0.305 0.07,-0.3 0.055,-0.317 0.055,-0.32 0.015,-0.32 0.02,-0.336 -0.02,-0.317 -0.015,-0.32 -0.055,-0.32 -0.055,-0.317 -0.07,-0.301 -0.086,-0.304 -0.09,-0.301 -0.125,-0.281 -0.125,-0.285 -0.141,-0.282 -0.14,-0.265 -0.176,-0.25 -0.18,-0.246 -0.175,-0.25 -0.215,-0.231 -0.211,-0.23 -0.211,-0.196 -0.231,-0.211 -0.25,-0.175 -0.246,-0.18 -0.25,-0.176 -0.265,-0.141 -0.282,-0.144 -0.285,-0.121 -0.285,-0.125 -0.301,-0.106 -0.3,-0.074 -0.301,-0.07 -0.32,-0.07 -0.317,-0.036 -0.32,-0.015 -0.336,-0.02 -0.32,0.02 -0.317,0.015 -0.32,0.036 -0.32,0.07 -0.301,0.07 -0.301,0.074 -0.301,0.106 -0.281,0.125 -0.285,0.121 -0.285,0.144 -0.266,0.141 -0.246,0.176 -0.25,0.18 -0.246,0.175 -0.231,0.211 -0.211,0.196 -0.214,0.23 -0.211,0.231 -0.18,0.25 -0.176,0.246 -0.176,0.25 -0.144,0.265 -0.141,0.282 -0.125,0.285 -0.121,0.281 -0.09,0.301 -0.09,0.304 -0.07,0.301 -0.055,0.317 -0.05,0.32 -0.02,0.32 z" /><path
         id="path4953"
         style="fill:#000000;fill-opacity:1;fill-rule:evenodd;stroke:none"
         d="m 230.367,139.466 -0.019,-0.32 -0.016,-0.32 -0.035,-0.317 -0.074,-0.32 -0.141,-0.602 -0.105,-0.301 -0.106,-0.285 -0.144,-0.281 -0.141,-0.285 -0.141,-0.266 -0.175,-0.25 -0.18,-0.246 -0.176,-0.25 -0.215,-0.23 -0.191,-0.227 -0.231,-0.195 -0.23,-0.215 -0.231,-0.176 -0.265,-0.176 -0.25,-0.179 -0.266,-0.141 -0.281,-0.141 -0.57,-0.25 -0.301,-0.105 -0.602,-0.141 -0.32,-0.074 -0.316,-0.035 -0.321,-0.016 -0.316,-0.019 -0.34,0.019 -0.316,0.016 -0.321,0.035 -0.32,0.074 -0.602,0.141 -0.3,0.105 -0.282,0.125 -0.285,0.125 -0.531,0.282 -0.266,0.179 -0.25,0.176 -0.246,0.176 -0.23,0.215 -0.211,0.195 -0.215,0.227 -0.195,0.23 -0.196,0.25 -0.175,0.246 -0.161,0.25 -0.16,0.266 -0.14,0.285 -0.125,0.281 -0.121,0.285 -0.18,0.602 -0.07,0.301 -0.051,0.32 -0.055,0.317 -0.019,0.32 v 0.656 l 0.019,0.316 0.055,0.321 0.051,0.32 0.07,0.301 0.18,0.601 0.121,0.282 0.125,0.285 0.14,0.265 0.16,0.286 0.161,0.246 0.175,0.25 0.196,0.246 0.195,0.23 0.426,0.426 0.23,0.195 0.246,0.196 0.25,0.175 0.532,0.321 0.265,0.14 0.285,0.125 0.282,0.122 0.601,0.179 0.301,0.071 0.32,0.054 0.321,0.051 0.316,0.02 h 0.656 l 0.321,-0.02 0.316,-0.051 0.32,-0.054 0.301,-0.071 0.602,-0.179 0.285,-0.122 0.285,-0.125 0.281,-0.14 0.266,-0.16 0.25,-0.161 0.265,-0.175 0.461,-0.391 0.231,-0.211 0.191,-0.215 0.215,-0.23 0.176,-0.246 0.18,-0.25 0.175,-0.246 0.141,-0.286 0.141,-0.265 0.144,-0.285 0.106,-0.282 0.105,-0.3 0.141,-0.602 0.074,-0.32 0.035,-0.321 0.016,-0.316 z" /><path
         id="path4955"
         style="fill:#000000;fill-opacity:1;fill-rule:evenodd;stroke:none"
         d="m 223.953,90.583 -15.164,0.02 0.086,0.551 0.109,0.547 0.106,0.55 0.105,0.532 0.125,0.531 0.282,1.062 0.32,1.063 0.16,0.515 0.195,0.512 0.176,0.516 0.211,0.511 0.195,0.516 0.231,0.496 0.215,0.496 0.246,0.496 0.23,0.496 0.266,0.477 0.25,0.481 0.281,0.476 0.266,0.481 0.285,0.457 0.601,0.921 0.321,0.461 0.316,0.446 0.321,0.441 0.335,0.442 0.711,0.851 0.352,0.406 -0.086,-0.05 -0.32,0.39 -0.301,0.387 -0.285,0.391 -0.266,0.425 -0.246,0.407 -0.23,0.445 -0.391,0.883 -0.16,0.461 -0.141,0.48 -0.125,0.477 -0.105,0.48 -0.071,0.477 -0.054,0.48 -0.035,0.496 -0.016,0.496 v 6.075 l 0.016,0.566 0.035,0.531 0.07,0.551 0.109,0.531 0.106,0.516 0.16,0.512 0.156,0.496 0.196,0.48 0.214,0.477 0.231,0.461 0.265,0.461 0.282,0.425 0.301,0.426 0.32,0.406 0.336,0.391 0.355,0.371 0.371,0.356 0.391,0.336 0.406,0.316 0.426,0.305 0.426,0.281 0.461,0.265 0.461,0.231 0.476,0.215 0.481,0.191 0.496,0.16 0.511,0.161 0.516,0.105 0.531,0.105 0.547,0.075 0.532,0.035 0.57,0.015 0.547,-0.015 0.55,-0.035 0.532,-0.075 0.531,-0.105 0.512,-0.105 0.515,-0.161 0.496,-0.16 0.497,-0.191 0.476,-0.215 0.461,-0.231 0.445,-0.265 0.442,-0.281 0.426,-0.305 0.39,-0.316 0.387,-0.336 0.375,-0.356 0.371,-0.371 0.336,-0.391 0.32,-0.406 0.301,-0.426 0.266,-0.425 0.265,-0.461 0.231,-0.461 0.211,-0.477 0.195,-0.48 0.18,-0.496 0.14,-0.512 0.125,-0.516 0.086,-0.531 0.071,-0.551 0.035,-0.531 0.019,-0.566 v -6.075 l -0.019,-0.496 -0.016,-0.496 -0.07,-0.48 -0.071,-0.477 -0.109,-0.48 -0.121,-0.477 -0.145,-0.48 -0.156,-0.461 -0.18,-0.442 -0.21,-0.441 -0.231,-0.445 -0.25,-0.407 -0.246,-0.425 -0.301,-0.391 -0.301,-0.387 -0.32,-0.39 -0.09,0.05 0.375,-0.406 0.352,-0.426 0.336,-0.425 0.34,-0.442 0.336,-0.441 0.316,-0.446 0.305,-0.461 0.601,-0.921 0.281,-0.457 0.286,-0.481 0.265,-0.476 0.266,-0.481 0.246,-0.477 0.25,-0.496 0.461,-0.992 0.211,-0.496 0.215,-0.516 0.195,-0.511 0.195,-0.516 0.176,-0.512 0.176,-0.515 0.16,-0.531 0.141,-0.532 0.16,-0.531 0.25,-1.062 0.121,-0.532 0.109,-0.55 0.086,-0.547 0.09,-0.551 z" /><path
         id="path4957"
         style="fill:#000000;fill-opacity:1;fill-rule:evenodd;stroke:none"
         d="m 224.734,89.06 h 4.571 l -0.071,-20.551 -0.019,-0.23 -0.035,-0.231 -0.055,-0.211 -0.07,-0.211 -0.09,-0.195 -0.121,-0.18 -0.125,-0.175 -0.141,-0.161 -0.18,-0.16 -0.156,-0.121 -0.195,-0.109 -0.195,-0.106 -0.215,-0.07 -0.211,-0.055 -0.231,-0.035 -0.23,-0.016 -0.231,0.016 -0.211,0.035 -0.23,0.055 -0.195,0.07 -0.215,0.106 -0.176,0.109 -0.176,0.121 -0.16,0.16 -0.141,0.161 -0.144,0.175 -0.106,0.18 -0.089,0.195 -0.086,0.211 -0.055,0.211 -0.035,0.231 v 0.23 z" /><path
         id="path4959"
         style="fill:#000000;fill-opacity:1;fill-rule:evenodd;stroke:none"
         d="m 218.621,89.06 h 4.57 l -0.035,-16.031 -0.019,-0.231 -0.035,-0.215 -0.051,-0.226 -0.071,-0.196 -0.109,-0.214 -0.105,-0.176 -0.125,-0.18 -0.157,-0.156 -0.16,-0.145 -0.16,-0.14 -0.195,-0.106 -0.196,-0.09 -0.211,-0.086 -0.214,-0.054 -0.231,-0.035 h -0.461 l -0.23,0.035 -0.211,0.054 -0.211,0.086 -0.195,0.09 -0.18,0.106 -0.176,0.14 -0.16,0.145 -0.141,0.156 -0.14,0.18 -0.11,0.176 -0.086,0.214 -0.089,0.196 -0.055,0.226 -0.035,0.215 -0.016,0.231 z" /><path
         id="path4961"
         style="fill:#ffffff;fill-opacity:1;fill-rule:evenodd;stroke:none"
         d="m 230.066,108.283 -1.082,1.097 -0.105,0.125 -0.09,0.125 -0.07,0.125 -0.071,0.141 -0.054,0.14 -0.035,0.145 -0.036,0.156 v 11.465 l 0.02,0.141 0.035,0.125 0.07,0.125 0.086,0.105 0.11,0.086 0.105,0.074 0.141,0.035 0.14,0.016 0.145,-0.016 0.125,-0.035 0.121,-0.074 0.106,-0.086 0.089,-0.105 0.071,-0.125 0.035,-0.125 0.019,-0.141 z" /><path
         id="path4963"
         style="fill:#fefefe;fill-opacity:1;fill-rule:evenodd;stroke:none"
         d="m 217.84,108.283 0.09,13.519 v 0.141 l 0.054,0.125 0.051,0.125 0.09,0.105 0.105,0.086 0.125,0.074 0.125,0.035 0.141,0.016 0.16,-0.016 0.121,-0.035 0.125,-0.074 0.106,-0.086 0.09,-0.105 0.054,-0.125 0.051,-0.125 v -11.606 l -0.016,-0.156 -0.035,-0.145 -0.054,-0.14 -0.071,-0.141 -0.09,-0.144 -0.085,-0.106 -0.11,-0.125 z" /><path
         id="path4965"
         style="fill:#000000;fill-opacity:1;fill-rule:evenodd;stroke:none"
         d="m 84.488,166.181 v 0.301 l 0.02,0.32 0.035,0.281 0.035,0.301 0.055,0.301 0.07,0.301 0.07,0.285 0.09,0.285 0.106,0.281 0.105,0.285 0.125,0.266 0.281,0.531 0.161,0.266 0.16,0.246 0.176,0.25 1.527,1.895 0.387,0.531 0.375,0.531 0.336,0.551 0.336,0.547 0.32,0.57 0.301,0.582 0.3,0.586 0.266,0.586 9.848,22.711 0.215,0.406 0.23,0.41 0.246,0.371 0.285,0.356 0.301,0.316 0.32,0.321 0.336,0.281 0.371,0.25 0.371,0.23 0.411,0.211 0.406,0.18 0.426,0.14 0.441,0.106 0.441,0.09 0.446,0.051 0.461,0.019 31.074,-0.055 v -6.218 l -29.516,0.054 -0.176,-0.019 -0.195,-0.016 -0.179,-0.035 -0.176,-0.035 -0.176,-0.07 -0.18,-0.075 -0.16,-0.07 -0.156,-0.105 -0.145,-0.106 -0.14,-0.105 -0.125,-0.125 -0.121,-0.141 -0.125,-0.145 -0.106,-0.156 -0.09,-0.16 -0.09,-0.18 -8.554,-19.644 h 40.41 v -32.332 l -46.047,-0.055 h -0.316 l -0.641,0.07 -0.301,0.055 -0.601,0.141 -0.282,0.105 -0.285,0.106 -0.285,0.125 -0.266,0.14 -0.246,0.16 -0.265,0.161 -0.231,0.16 -0.25,0.195 -0.211,0.195 -0.23,0.211 -0.195,0.215 -0.196,0.211 -0.195,0.246 -0.176,0.231 -0.16,0.265 -0.141,0.25 -0.14,0.285 -0.125,0.266 -0.106,0.281 -0.105,0.286 -0.074,0.3 -0.071,0.301 -0.051,0.301 -0.054,0.32 -0.016,0.317 v 0.32 l 0.035,16.211 z" /><path
         id="path4967"
         style="fill:#000000;fill-opacity:1;fill-rule:evenodd;stroke:none"
         d="M 90.742,141.29 H 105.68 V 127.4 l -0.02,-0.176 -0.015,-0.195 -0.036,-0.18 -0.035,-0.176 -0.054,-0.176 -0.055,-0.16 -0.07,-0.179 -0.161,-0.317 -0.175,-0.301 -0.211,-0.285 -0.231,-0.265 -0.265,-0.231 -0.286,-0.211 -0.3,-0.18 -0.321,-0.156 -0.175,-0.074 -0.161,-0.051 -0.175,-0.054 -0.18,-0.036 -0.176,-0.035 -0.195,-0.015 -0.176,-0.02 h -7.883 l -0.179,0.02 -0.196,0.015 -0.351,0.071 -0.18,0.054 -0.16,0.051 -0.176,0.074 -0.316,0.156 -0.305,0.18 -0.281,0.211 -0.266,0.231 -0.23,0.265 -0.215,0.285 -0.176,0.301 -0.16,0.317 -0.071,0.179 -0.05,0.16 -0.055,0.176 -0.035,0.176 -0.035,0.18 -0.02,0.195 -0.015,0.176 v 0.195 z" /><path
         id="path4969"
         style="fill:#fefefe;fill-opacity:1;fill-rule:evenodd;stroke:none"
         d="m 105.82,162.513 v -0.391 l -0.035,-0.371 -0.035,-0.39 -0.07,-0.352 -0.09,-0.375 -0.106,-0.351 -0.105,-0.356 -0.145,-0.336 -0.14,-0.32 -0.176,-0.336 -0.18,-0.301 -0.191,-0.32 -0.215,-0.281 -0.211,-0.286 -0.23,-0.265 -0.516,-0.516 -0.281,-0.226 -0.285,-0.231 -0.286,-0.215 -0.3,-0.195 -0.317,-0.176 -0.32,-0.16 -0.336,-0.16 -0.336,-0.121 -0.355,-0.125 -0.356,-0.106 -0.351,-0.074 -0.375,-0.07 -0.372,-0.051 -0.39,-0.02 -0.387,-0.015 -0.375,0.015 -0.387,0.02 -0.375,0.051 -0.371,0.07 -0.355,0.074 -0.352,0.106 -0.355,0.125 -0.336,0.121 -0.336,0.16 -0.32,0.16 -0.321,0.176 -0.3,0.195 -0.301,0.215 -0.282,0.231 -0.265,0.226 -0.266,0.25 -0.25,0.266 -0.23,0.265 -0.211,0.286 -0.215,0.281 -0.195,0.32 -0.176,0.301 -0.176,0.336 -0.144,0.32 -0.141,0.336 -0.105,0.356 -0.106,0.351 -0.09,0.375 -0.07,0.352 -0.035,0.39 -0.035,0.371 v 0.782 l 0.07,0.742 0.07,0.375 0.09,0.371 0.106,0.355 0.105,0.336 0.141,0.352 0.144,0.32 0.176,0.321 0.176,0.316 0.195,0.301 0.215,0.3 0.211,0.286 0.23,0.265 0.25,0.266 0.266,0.25 0.265,0.23 0.282,0.231 0.301,0.211 0.3,0.195 0.321,0.176 0.32,0.16 0.336,0.16 0.336,0.125 0.355,0.121 0.352,0.09 0.355,0.09 0.371,0.07 0.375,0.051 0.387,0.02 0.375,0.019 0.387,-0.019 0.39,-0.02 0.372,-0.051 0.375,-0.07 0.351,-0.09 0.356,-0.09 0.355,-0.121 0.336,-0.125 0.336,-0.16 0.32,-0.16 0.317,-0.176 0.3,-0.195 0.286,-0.211 0.285,-0.231 0.281,-0.23 0.516,-0.516 0.23,-0.265 0.211,-0.286 0.215,-0.3 0.191,-0.301 0.18,-0.316 0.176,-0.321 0.14,-0.336 0.145,-0.336 0.105,-0.336 0.106,-0.355 0.09,-0.371 0.07,-0.375 0.07,-0.742 z" /><path
         id="path4971"
         style="fill:#000000;fill-opacity:1;fill-rule:evenodd;stroke:none"
         d="m 146.711,203.454 h 0.406 l 30.668,0.055 0.461,-0.019 0.442,-0.051 0.441,-0.09 0.445,-0.106 0.426,-0.14 0.406,-0.18 0.406,-0.211 0.376,-0.23 0.371,-0.25 0.336,-0.281 0.32,-0.321 0.301,-0.316 0.281,-0.356 0.25,-0.371 0.23,-0.41 0.211,-0.406 9.727,-22.625 0.265,-0.602 0.286,-0.586 0.316,-0.582 0.32,-0.566 0.336,-0.551 0.356,-0.551 0.355,-0.547 0.387,-0.531 1.648,-1.949 0.176,-0.25 0.16,-0.246 0.16,-0.266 0.141,-0.25 0.145,-0.281 0.121,-0.266 0.109,-0.285 0.106,-0.281 0.089,-0.285 0.071,-0.285 0.07,-0.301 0.051,-0.301 0.035,-0.301 0.039,-0.281 0.016,-0.32 v -16.867 l -0.016,-0.317 -0.055,-0.32 -0.054,-0.301 -0.141,-0.601 -0.105,-0.286 -0.106,-0.281 -0.125,-0.266 -0.141,-0.285 -0.144,-0.25 -0.156,-0.246 -0.18,-0.246 -0.195,-0.25 -0.196,-0.211 -0.195,-0.215 -0.226,-0.211 -0.215,-0.195 -0.246,-0.195 -0.231,-0.16 -0.266,-0.161 -0.25,-0.156 -0.265,-0.144 -0.281,-0.125 -0.571,-0.211 -0.601,-0.141 -0.301,-0.055 -0.32,-0.035 -0.317,-0.035 h -0.32 l -45.902,0.055 h -0.141 v 32.332 h 40.41 l -8.559,19.644 -0.085,0.18 -0.09,0.16 -0.106,0.156 -0.125,0.145 -0.125,0.141 -0.121,0.125 -0.144,0.105 -0.141,0.106 -0.16,0.105 -0.16,0.07 -0.176,0.075 -0.176,0.07 -0.18,0.035 -0.175,0.035 -0.176,0.016 -0.195,0.019 -29.125,-0.054 h -0.391 z" /><path
         id="path4973"
         style="fill:#fefefe;fill-opacity:1;fill-rule:evenodd;stroke:none"
         d="m 192.754,162.372 v -0.39 l -0.035,-0.371 -0.055,-0.375 -0.051,-0.371 -0.09,-0.372 -0.105,-0.355 -0.106,-0.336 -0.144,-0.355 -0.141,-0.317 -0.175,-0.336 -0.176,-0.301 -0.196,-0.32 -0.214,-0.285 -0.211,-0.281 -0.25,-0.266 -0.246,-0.265 -0.25,-0.25 -0.282,-0.231 -0.285,-0.23 -0.281,-0.211 -0.305,-0.196 -0.316,-0.175 -0.32,-0.161 -0.336,-0.16 -0.336,-0.125 -0.356,-0.125 -0.355,-0.105 -0.352,-0.071 -0.371,-0.07 -0.375,-0.055 -0.391,-0.015 -0.371,-0.02 -0.39,0.02 -0.387,0.015 -0.375,0.055 -0.371,0.07 -0.356,0.071 -0.351,0.105 -0.356,0.125 -0.336,0.125 -0.335,0.16 -0.321,0.161 -0.32,0.175 -0.301,0.196 -0.301,0.211 -0.265,0.23 -0.282,0.231 -0.265,0.25 -0.25,0.265 -0.231,0.266 -0.211,0.281 -0.214,0.285 -0.196,0.32 -0.175,0.301 -0.176,0.336 -0.145,0.317 -0.14,0.355 -0.106,0.336 -0.105,0.355 -0.09,0.372 -0.071,0.371 -0.035,0.375 -0.035,0.371 v 0.781 l 0.07,0.742 0.071,0.371 0.09,0.375 0.105,0.352 0.106,0.336 0.14,0.355 0.145,0.321 0.176,0.316 0.175,0.32 0.196,0.301 0.214,0.301 0.211,0.285 0.231,0.266 0.25,0.265 0.265,0.246 0.282,0.231 0.265,0.23 0.301,0.215 0.301,0.195 0.32,0.176 0.321,0.16 0.335,0.161 0.336,0.121 0.356,0.125 0.351,0.089 0.356,0.086 0.371,0.075 0.375,0.05 0.387,0.02 0.39,0.016 0.371,-0.016 0.391,-0.02 0.375,-0.05 0.371,-0.075 0.352,-0.086 0.355,-0.089 0.356,-0.125 0.336,-0.121 0.336,-0.161 0.32,-0.16 0.316,-0.176 0.305,-0.195 0.281,-0.215 0.285,-0.23 0.282,-0.231 0.25,-0.246 0.246,-0.265 0.25,-0.266 0.211,-0.285 0.214,-0.301 0.196,-0.301 0.176,-0.32 0.175,-0.316 0.141,-0.321 0.144,-0.355 0.106,-0.336 0.105,-0.352 0.09,-0.375 0.051,-0.371 0.055,-0.371 0.035,-0.371 z" /><path
         id="path4975"
         style="fill:#000000;fill-opacity:1;fill-rule:evenodd;stroke:none"
         d="m 177.785,141.29 h 14.934 l -0.106,-13.695 V 127.4 l -0.019,-0.176 -0.016,-0.195 -0.035,-0.18 -0.035,-0.176 -0.055,-0.176 -0.055,-0.16 -0.07,-0.179 -0.16,-0.317 -0.176,-0.301 -0.211,-0.285 -0.23,-0.265 -0.266,-0.231 -0.285,-0.211 -0.301,-0.18 -0.32,-0.156 -0.176,-0.074 -0.16,-0.051 -0.176,-0.054 -0.176,-0.036 -0.179,-0.035 -0.196,-0.015 -0.175,-0.02 h -7.883 l -0.18,0.02 -0.195,0.015 -0.352,0.071 -0.179,0.054 -0.157,0.051 -0.179,0.074 -0.317,0.156 -0.304,0.18 -0.282,0.211 -0.265,0.231 -0.231,0.265 -0.211,0.285 -0.179,0.301 -0.161,0.317 -0.07,0.179 -0.051,0.16 -0.054,0.176 -0.036,0.176 -0.035,0.18 -0.019,0.195 -0.016,0.176 z" /><path
         id="path4977"
         style="fill:#000000;fill-opacity:1;fill-rule:nonzero;stroke:none"
         d="m 7.656,283.462 c -4.097,0.082 -7.511,-3.144 -7.652,-7.242 -0.008,-88.305 0,-175.375 0,-268.977 0.141,-4.097 3.555,-7.328 7.652,-7.242 h 268.153 c 4.093,-0.086 7.507,3.145 7.648,7.242 0.012,87.696 0.008,177.879 0.008,268.567 h -0.004 c 0.086,4.094 -3.145,7.508 -7.238,7.648 -93.262,0.012 -188.645,0.004 -268.567,0.004 z m 268.551,-0.754 c 3.695,-0.136 6.59,-3.203 6.504,-6.898 0.004,-89.516 -0.004,-179.047 -0.004,-268.555 -0.137,-3.691 -3.203,-6.59 -6.902,-6.504 H 7.656 C 3.957,0.665 0.891,3.564 0.758,7.255 c -0.016,89.633 0,179.344 0,268.953 0.133,3.692 3.199,6.586 6.898,6.504 94.289,0.024 186.227,-0.004 268.551,-0.004 z" /><path
         id="path4979"
         style="fill:#000000;fill-opacity:1;fill-rule:nonzero;stroke:none"
         d="m 103.621,22.646 v 24.777 h -2.961 v 4.516 h 2.961 v 3.867 c 0,2.727 0.754,4.73 2.258,6.008 1.508,1.301 3.406,1.949 5.703,1.949 h 3.809 v -5.531 h -3.332 c -1.711,0 -2.567,-0.809 -2.567,-2.426 v -3.867 h 5.899 v -4.516 h -5.899 V 22.646 Z" /><path
         id="path4981"
         style="fill:#000000;fill-opacity:1;fill-rule:nonzero;stroke:none"
         d="m 122.02,22.646 v 29.293 h 5.898 v -3.133 h 0.113 c 1.824,2.312 4.367,3.473 7.621,3.473 2.145,0 4.184,-0.754 6.121,-2.258 l -4.257,-5.082 c -1.282,0.961 -2.578,1.441 -3.895,1.441 -1.449,0 -2.766,-0.492 -3.953,-1.469 -1.164,-0.96 -1.75,-2.511 -1.75,-4.656 V 22.646 Z" /><path
         id="path4983"
         style="fill:#000000;fill-opacity:1;fill-rule:nonzero;stroke:none"
         d="m 168.75,35.064 h -18.23 c 0,-2.41 0.648,-4.215 1.945,-5.422 1.316,-1.203 2.992,-1.805 5.023,-1.805 2.43,0 4.574,0.942 6.434,2.821 l 4.262,-3.641 c -1.45,-1.691 -3.086,-2.906 -4.911,-3.637 -1.804,-0.719 -3.695,-1.074 -5.671,-1.074 -3.012,0 -5.926,0.969 -8.75,2.906 -2.821,1.957 -4.231,5.946 -4.231,11.965 0,5.703 1.297,9.645 3.895,11.824 2.613,2.184 5.343,3.278 8.183,3.278 3.219,0 6.031,-1.121 8.438,-3.36 2.41,-2.222 3.613,-5.222 3.613,-9.004 z m -18.23,4.851 h 12.359 c -0.094,2.203 -0.715,3.887 -1.863,5.051 -1.149,1.168 -2.586,1.75 -4.317,1.75 -1.75,0 -3.207,-0.582 -4.375,-1.75 -1.148,-1.164 -1.75,-2.848 -1.804,-5.051 z" /><path
         id="path4985"
         style="fill:#000000;fill-opacity:1;fill-rule:nonzero;stroke:none"
         d="m 176.777,22.646 v 29.293 h 5.899 V 22.646 Z m 0,35.219 v 5.898 h 5.899 v -5.898 z" /></g></g></svg>