<?xml version="1.0" encoding="UTF-8" standalone="no"?>
<svg
   xmlns:dc="http://purl.org/dc/elements/1.1/"
   xmlns:cc="http://creativecommons.org/ns#"
   xmlns:rdf="http://www.w3.org/1999/02/22-rdf-syntax-ns#"
   xmlns:svg="http://www.w3.org/2000/svg"
   xmlns="http://www.w3.org/2000/svg"
   viewBox="0 0 501.00125 301.00125"
   height="301.00125"
   width="501.00125"
   xml:space="preserve"
   version="1.1"
   id="svg3575"><metadata
     id="metadata3581"><rdf:RDF><cc:Work
         rdf:about=""><dc:format>image/svg+xml</dc:format><dc:type
           rdf:resource="http://purl.org/dc/dcmitype/StillImage" /><dc:title></dc:title></cc:Work></rdf:RDF></metadata><defs
     id="defs3579" /><g
     transform="matrix(1.25,0,0,-1.25,0,301.00124)"
     id="g3583"><g
       id="g3585"><path
         id="path3587"
         style="fill:#ffffff;fill-opacity:1;fill-rule:nonzero;stroke:none"
         d="m 374.375,240.403 c 14.727,0 26.023,-11.184 26.023,-25.872 l 0,-188.261 c 0,-14.688 -11.296,-25.871 -26.023,-25.871 l -347.957,0 c 0,0 -26.02,-0.11 -26.02,25.871 l 0,187.676 c 0,14.683 11.938,26.457 26.664,26.457 l 347.313,0 z" /><path
         id="path3589"
         style="fill:#0071ab;fill-opacity:1;fill-rule:nonzero;stroke:none"
         d="m 374.375,232.399 c 9.949,0 18.02,-7.95 18.02,-17.875 0.007,-61.325 0.003,-125.723 0,-188.246 0,-9.922 -8.071,-17.875 -18.02,-17.879 l -347.957,0 c -17.84,0 -18.02,17.879 -18.02,17.879 l 0,188.246 c 0,9.925 8.071,17.875 18.02,17.875 l 347.957,0 z" /><g
         transform="matrix(-0.999902,0,0,1,0,240.80099)"
         id="g3591"><path
           id="path3593"
           style="fill:#ffffff;fill-opacity:1;fill-rule:nonzero;stroke:#000000;stroke-width:0.738379;stroke-linecap:butt;stroke-linejoin:miter;stroke-miterlimit:4;stroke-dasharray:none;stroke-opacity:1"
           d="m -200.422,-23.574 c 2.453,0 4.434,-1.992 4.434,-4.43 0,-2.441 -1.981,-4.43 -4.434,-4.43 -2.442,0 -4.43,1.989 -4.43,4.43 0,2.438 1.988,4.43 4.43,4.43 z" /></g><g
         transform="matrix(-0.999138,0,0,1,0,240.80099)"
         id="g3595"><path
           id="path3597"
           style="fill:#ffffff;fill-opacity:1;fill-rule:nonzero;stroke:#000000;stroke-width:0.73878902;stroke-linecap:butt;stroke-linejoin:miter;stroke-miterlimit:4;stroke-dasharray:none;stroke-opacity:1"
           d="m -200.575,-207.969 c 2.455,0 4.437,-1.984 4.437,-4.433 0,-2.45 -1.982,-4.43 -4.437,-4.43 -2.444,0 -4.434,1.98 -4.434,4.43 0,2.449 1.99,4.433 4.434,4.433 z" /></g><path
         id="path3599"
         style="fill:#000000;fill-opacity:1;fill-rule:nonzero;stroke:none"
         d="M 27.062,240.801 C 12.121,240.801 0,228.848 0,213.946 L 0,26.27 C 0,13.145 6.633,6.5 13.23,3.235 19.832,-0.031 26.414,0 26.418,0 l 347.957,0 c 14.93,0 26.426,11.375 26.426,26.27 l 0,188.261 c 0,14.891 -11.496,26.27 -26.426,26.27 l -347.313,0 z m 0,-0.398 347.313,0 c 14.727,0 26.023,-11.184 26.023,-25.872 l 0,-188.261 c 0,-14.688 -11.296,-25.867 -26.023,-25.867 l -347.957,0 c 0,0 -26.02,-0.114 -26.02,25.867 l 0,187.676 c 0,14.683 11.938,26.457 26.664,26.457 z" /><path
         id="path3601"
         style="fill:#ffffff;fill-opacity:1;fill-rule:evenodd;stroke:none"
         d="m 55.527,186.094 0,-131.387 24.887,0 0,13.809 -11.082,0 0,103.769 55.984,0 0,-103.769 -9.523,0 0,-13.809 32.797,0 0,13.809 -9.473,0 0,103.769 54.383,0 0,-103.769 -9.527,0 0,-13.809 32.797,0 0,13.809 -9.473,0 0,103.769 54.387,0 0,-103.769 -9.536,0 0,-13.809 32.801,0 0,13.809 -9.469,0 0,103.769 55.985,0 0,-103.769 -11.137,0 0,-13.809 24.945,0 -0.011,131.387 -289.735,0 z" /></g></g></svg>