<?xml version="1.0" encoding="UTF-8" standalone="no"?>
<svg xmlns:svg="http://www.w3.org/2000/svg" xmlns="http://www.w3.org/2000/svg" viewBox="0 0 912.6153 870.96515" height="870.96515" width="912.6153" xml:space="preserve" version="1.1">
  <defs/>
  <g transform="matrix(1.33333 0 0 -1.33333 0 870.96517)">
    <g>
      <g transform="matrix(1 0 0 -1 0 653.22388)">
        <path style="fill:#fff;fill-opacity:1;fill-rule:nonzero;stroke:#000;stroke-width:.75;stroke-linecap:round;stroke-linejoin:round;stroke-miterlimit:4;stroke-dasharray:none;stroke-opacity:1" d="m475.117 7.078 202.977 203.117c9.297 9.297 5.953 21.41-.481 28.203L475.84 440.793c-10.336 10.336-24.867 6.379-31.488-.238L243.781 240.32c-9.617-9.613-9.828-22.465-.48-31.808L444.113 7.32c10.621-9.527 22.891-8.234 31.004-.242z"/>
      </g>
      <g transform="matrix(1 0 0 -1 0 653.22388)">
        <path style="fill:none;stroke:#000;stroke-width:7.47138119;stroke-linecap:round;stroke-linejoin:round;stroke-miterlimit:4;stroke-dasharray:none;stroke-opacity:1" d="m472.547 17.055 195.117 194.988c8.746 8.746 7.031 15.84.981 22.23L471.66 431.32c-9.722 9.723-16.351 6.657-22.582.426L253.746 236.605c-9.047-9.046-9.894-16.05-1.105-24.839l196.992-196.7c9.996-8.964 15.277-5.531 22.914 1.989z"/>
      </g>
      <g transform="matrix(1 1 1 -1 0 653.22388)">
        <path style="fill:#f7ba0b;fill-opacity:1;fill-rule:nonzero;stroke:#000;stroke-width:2.31974912;stroke-linecap:round;stroke-linejoin:miter;stroke-miterlimit:4;stroke-dasharray:none;stroke-opacity:1" d="M54.473 278.348h127.312V405.66H54.473Z"/>
      </g>
      <path style="fill:#fff;fill-opacity:1;fill-rule:evenodd;stroke:none" d="M220.023 463.279 74.102 213.294H367.48l-5.656 9.75z"/>
      <path style="fill:#c63627;fill-opacity:1;fill-rule:evenodd;stroke:none" d="M219.969 575.915S8.105 210.298 3.746 202.591c-9.711-17.164-.242-45.164 24.91-45.16l191.313.066 192.094-.066c19.105-.004 29.16 16.144 28.64 31.43.156 5.367-.957 10.425-3.336 14.254-91.203 155.988-217.398 372.8-217.398 372.8zm.054-112.636 147.555-249.985H74.102Z"/>
      <g transform="matrix(1 0 0 -1 0 653.22388)">
        <path style="fill:#0a0a0d;fill-opacity:1;fill-rule:nonzero;stroke:#000;stroke-width:1.82189703;stroke-linecap:butt;stroke-linejoin:miter;stroke-miterlimit:4;stroke-dasharray:none;stroke-opacity:1" d="m304.281 420.398-168.66.071v6.289h168.66z"/>
      </g>
      <g transform="matrix(1 0 0 -1 0 653.22388)">
        <path style="fill:#000;fill-opacity:1;fill-rule:nonzero;stroke:#000;stroke-width:1.82189703;stroke-linecap:butt;stroke-linejoin:miter;stroke-miterlimit:4;stroke-dasharray:none;stroke-opacity:1" d="M231.195 266.301c-9.996-.039-19.418 7.429-15.507 21.41-9.145.668-13.047 3.535-12.36 13.082-4.152-.188-10.672 1.191-12.043 6.777-7.578-1.371-9.094.368-11.433 4.274-11.047-.52-15.973 2.969-16.922 7.5-.477 2.277-.809 4.797-.754 6.828h-1.817l-.961 1.277 3.399 4.02.891.035-.067 18.836h-16.984v36.676h-4.071v5.617l-4.054-.098-.067-6.055s-4.066 4.278-4.086 7.668c-.023 3.391 4.321 7.536 4.321 7.536l.05-4.493c1.399-.035 2.629-.027 3.836 0v4.239h11.957c-.144.855-.238 1.726-.238 2.625 0 8.621 6.988 15.605 15.61 15.605 8.621 0 15.621-6.984 15.621-15.605 0-.899-.09-1.77-.235-2.625h1.582c-.144.855-.218 1.726-.218 2.625 0 8.621 6.984 15.605 15.605 15.605s15.605-6.984 15.605-15.605c0-.899-.089-1.77-.234-2.625h1.953c-.148.855-.219 1.726-.219 2.625 0 8.621 6.985 15.605 15.606 15.605 8.621 0 15.605-6.984 15.605-15.605 0-.899-.074-1.77-.218-2.625h2.507c-.144.855-.234 1.726-.234 2.625 0 8.621 7 15.605 15.621 15.605s15.606-6.984 15.606-15.605c0-.899-.09-1.77-.235-2.625h14.43v-4.356l3.398-.183v4.925s4.086-4.07 4.102-7.5c.02-3.429-3.852-7.179-3.852-7.179l-.25 4.605-3.398-.082v-4.644h-5.902l.101-36.676h-9.504v5.816h2.86v23.16l-13.051.067-.016-29.043h-8.609l.051-18.031h13.402l.082-5.668-19.824.07v23.629h-21.594v-7.922c2.738-.641 2.621-2.875 2.621-2.875l-.015-.758s-.168-2.012-2.926-2.758c-.004 0 0-.019 0-.019.023-.137.031-.285.031-.438 0-1.187-.875-2.152-1.949-2.152s-1.934.965-1.934 2.152c0 .106.004.207.016.305-3.149.582-3.012 2.91-3.012 2.91l.02.758s.16 1.785 2.691 2.621v8.176c-2.582-.059-10.461-.047-19.207-.02l-.051-12.09c-.183-3.14-2.429-8.019-10.613-7.769-6.277.223-8.461 4.996-8.676 8.742l-.32 10.949c.324.024.476.047.504.067-.68.25-20.746.355-14.883-.067l-.086-17.976.676.031-.153-2.637c3.036-.269 5.254-1.855 6.426-6.562 12.078 5.379 19.629 3.203 22.215-1.949 7.434 7.039 13.996 6.074 16.414-2.575 4.012-.125 7.66-.961 10.293-3.851 3.27-1.852 4.309-4.84 4.824-8.07 7.035 2.296 9.618-1.372 12.125-5.149 2.508-6.359.457-12.754-5.683-13.504 4.133-3.961 2.984-8.222 2.371-12.039-3.516-6.441-10.156-9.547-16.563-9.57z"/>
      </g>
      <path style="fill:#fff;fill-opacity:1;fill-rule:evenodd;stroke:none" d="M646.793 184.447c0-33.86-7.703-62.637-24.641-91.965-16.918-29.317-37.996-50.395-67.312-67.317C525.512 8.232 496.73.529 462.875.529c-33.859 0-62.637 7.703-91.953 24.636-29.328 16.922-50.395 38-67.328 67.317-16.922 29.328-24.637 58.105-24.637 91.965 0 33.859 7.715 62.636 24.637 91.953 16.933 29.328 38 50.39 67.328 67.328 29.316 16.922 58.094 24.637 91.953 24.637 33.855 0 62.637-7.715 91.965-24.637 29.316-16.938 50.394-38 67.312-67.328 16.938-29.317 24.641-58.094 24.641-91.953z"/>
      <path style="fill:#2b2c7c;fill-opacity:1;fill-rule:evenodd;stroke:none" d="M460.773 362.005c-23.699-.297-46.027-4.93-66.914-13.926-21.55-9.281-40.41-22.019-56.586-38.179-16.164-16.192-28.824-35.051-37.957-56.618-9.144-21.585-13.718-44.496-13.718-68.746 0-24.562 4.574-47.621 13.718-69.175 9.133-21.571 21.793-40.442 37.957-56.606 16.161-16.16 35.036-28.851 56.586-37.969 21.571-9.144 44.645-13.703 69.207-13.703 24.266 0 47.161 4.559 68.731 13.703 21.555 9.118 40.441 21.793 56.601 37.969 16.165 16.18 28.915 35.035 38.211 56.606 9.278 21.554 13.926 44.613 13.926 69.175 0 24.25-4.648 47.161-13.926 68.746-9.296 21.567-22.031 40.426-38.211 56.618-16.16 16.16-35.046 28.898-56.601 38.179-21.57 9.278-44.465 13.926-68.731 13.926-.773 0-1.535.016-2.293 0z"/>
      <path style="fill:#fff;fill-opacity:1;fill-rule:evenodd;stroke:none" d="M460.758 275.068c-7.445 0-13.906-.789-21.313-1.715-10.515-1.309-21.488-2.762-34.593-8.102-12.028-4.902-11.68-9.445-13.598-17.101-2.758-11.321-5.609-22.66-8.496-33.907-11.676-3.992-21.289-10.789-21.496-24.105-.223-13.719-.282-22.391-.43-33.551-.027-.058-.035-.129-.035-.203.996-.789 2.594-1.672 5.512-2.328 4.828-1.09 18.828-2.832 28.019-3.055 8.981-.226 44.801-1.269 68.125-1.937 23.328.668 58.68 1.695 67.586 1.918 9.191.222 23.191 1.984 28.02 3.074 2.918.656 4.535 1.519 5.531 2.309 0 .015-.004.042-.02.054h.227c-.152 11.246-.207 19.926-.43 33.719-.222 13.66-10.32 20.457-22.429 24.406-2.063 11.266-4.692 19.113-8.438 33.531-1.977 7.602-1.414 12.075-13.562 17.176-13.051 5.477-24.079 6.793-34.594 8.102-7.403.926-11.938 1.625-21.59 1.715-1.106-.09-2.024.047-1.996 0zm-5.981-8.254c4.59 0 4.379-3.492 4.379-5.903 0-2.414.43-30.886.43-30.886-26.5-1.969-66.793-6.793-68.535-7.657-1.746-.867 3.301 22.551 6.144 29.36 2.848 6.804 12.696 8.551 24.09 11.156 11.395 2.609 28.906 3.93 33.492 3.93zm13.211-.035c4.586 0 22.098-1.344 33.492-3.95 11.395-2.605 21.243-4.351 24.09-11.16 2.844-6.804 7.871-30.203 6.129-29.34-1.746.864-42.039 5.692-68.539 7.657 0 0 .449 28.472.449 30.886 0 2.414-.211 5.907 4.379 5.907zm-84.019-58.625c.234.011.472 0 .711 0 7.593 0 13.41-5.778 13.41-13.375 0-7.598-5.817-13.414-13.41-13.414-7.598 0-13.375 5.816-13.375 13.414 0 7.359 5.418 13.027 12.664 13.375zm155.234-1.977c7.598 0 13.395-5.797 13.395-13.395 0-7.593-5.797-13.39-13.395-13.39-7.594 0-13.39 5.797-13.39 13.39 0 7.598 5.796 13.395 13.39 13.395zm-26.73-25.801c2.91.055 6.57-.472 9.855-5.57 4.379-6.789 3.309-7.77 3.277-9.629-11.335-1.832-49.527-2.262-62.218-2.367-1.996.047-55.098-.192-65.762 1.265.047 1.508-1.082 2.86 3.297 9.653 4.379 6.793 10.414 6.109 13.469 6.109l95.457.445c.761 0 1.656.079 2.625.094z"/>
      <path style="fill:#000;fill-opacity:1;fill-rule:evenodd;stroke:none" d="M272.402 374.95v-.015h-.015z"/>
      <path style="fill:#000;fill-opacity:1;fill-rule:evenodd;stroke:none" d="M272.387 374.95h.016v-.016h-.016z"/>
      <g transform="matrix(1 0 0 -1 0 653.22388)">
        <path style="fill:none;stroke:#000;stroke-width:.75;stroke-linecap:butt;stroke-linejoin:round;stroke-miterlimit:4;stroke-dasharray:none;stroke-opacity:1" d="M646.793 468.777c0 33.86-7.703 62.637-24.641 91.965-16.918 29.317-37.996 50.395-67.312 67.317-29.328 16.933-58.11 24.636-91.965 24.636-33.859 0-62.637-7.703-91.953-24.636-29.328-16.922-50.395-38-67.328-67.317-16.922-29.328-24.637-58.105-24.637-91.965 0-33.859 7.715-62.636 24.637-91.953 16.933-29.328 38-50.39 67.328-67.328 29.316-16.922 58.094-24.637 91.953-24.637 33.855 0 62.637 7.715 91.965 24.637 29.316 16.938 50.394 38 67.312 67.328 16.938 29.317 24.641 58.094 24.641 91.953z"/>
      </g>
      <path style="fill:#fff;fill-opacity:1;fill-rule:evenodd;stroke:none" d="m386.102 144.63.535.461-.535-.476v.015z"/>
      <path style="fill:#fff;fill-opacity:1;fill-rule:evenodd;stroke:none" d="M394.309 118.072c-.059-3.77-5.797-7.461-11.5-7.387-5.707.074-11.352 3.945-11.305 7.715l.027 2.039v18.457c-4.199.386-8.265 1.027-11.543 3.129 0 0-3.351 2.769-3.961 4.812-.836 2.711-.254 5.168 1.325 5.645.058.015.121.027.179.043.492.179.879.09 1.219-.149.746-.312.852-.461 2.043-1.949 1.937-1.238 2.605-1.672 5.527-2.324 4.825-1.09 18.828-2.848 28.02-3.071 8.98-.222 44.789-1.265 68.117-1.937 23.324.672 58.676 1.699 67.582 1.922 9.191.223 23.191 1.98 28.02 3.07 2.918.656 4.527 1.535 5.523 2.324.582.954 1.297 1.637 2.043 1.95.344.238.73.328 1.223.148.058-.012.117-.027.175-.043 1.582-.476 2.161-2.934 1.329-5.644-.614-2.043-3.965-4.813-3.965-4.813-3.602-2.309-8.145-2.859-12.793-3.23v-13.157l.461-.011-.106-7.539c-.058-3.77-5.793-7.461-11.5-7.387-5.703.074-11.347 3.945-11.304 7.715l.031 2.039v16.715l-14.031-.672-51.067-1.219v-.074l-1.578.043-2.203-.059v.102l-51.063 1.222-15.285.731v-11.606l.465-.011z"/>
      <g transform="matrix(1 0 0 -1 0 653.22388)">
        <path style="fill:none;stroke:#fff;stroke-width:.420389;stroke-linecap:butt;stroke-linejoin:round;stroke-miterlimit:4;stroke-dasharray:none;stroke-opacity:1" d="M394.309 535.152c-.059 3.77-5.797 7.461-11.5 7.387-5.707-.074-11.352-3.945-11.305-7.715l.027-2.039v-18.457c-4.199-.387-8.265-1.027-11.543-3.129 0 0-3.351-2.769-3.961-4.812-.836-2.711-.254-5.168 1.325-5.645l.179-.043c.492-.179.879-.09 1.219.149.746.312.852.461 2.043 1.949 1.937 1.238 2.605 1.672 5.527 2.324 4.825 1.09 18.828 2.848 28.02 3.07 8.98.223 44.789 1.266 68.117 1.938 23.324-.672 58.676-1.699 67.582-1.922 9.191-.223 23.191-1.98 28.02-3.07 2.918-.657 4.527-1.535 5.523-2.324.582-.954 1.297-1.637 2.043-1.95.344-.238.73-.328 1.223-.148l.175.043c1.582.476 2.161 2.933 1.329 5.644-.614 2.043-3.965 4.813-3.965 4.813-3.602 2.308-8.145 2.859-12.793 3.23v13.157l.461.011-.106 7.539c-.058 3.77-5.793 7.461-11.5 7.387-5.703-.074-11.347-3.945-11.304-7.715l.031-2.039V516.07l-14.031.672-51.067 1.219v.074l-1.578-.043-2.203.059v-.102l-51.063-1.222-15.285-.731v11.606l.465.011z"/>
      </g>
    </g>
  </g>
</svg>