<?xml version="1.0" standalone="no"?>
<!DOCTYPE svg PUBLIC "-//W3C//DTD SVG 1.1//EN" "http://www.w3.org/Graphics/SVG/1.1/DTD/svg11.dtd">
<svg xmlns="http://www.w3.org/2000/svg" width="150" height="150">
  <path fill="#fff" fill-rule="evenodd" stroke="#000" stroke-width=".25" d="M0 150V0h150v150H0Z"/>
  <path fill-rule="evenodd" d="m73.282 84.8162-7.8699-8.3141-50.37636787 47.65329017a10 10 0 0 0 10.8088777 10.8088777L73.282 84.8162ZM84.4898 72.968l10.1553738-10.73579786a15 15 0 0 1 10.62617018-4.6895565l2.49951204-.04509127a15 15 0 0 0 11.9543667-6.30595327l14.99729955-21.09454099a1.5 1.5 0 0 0-1.08106867-2.3624755 1.5 1.5 0 0 0-1.20211377.43265522l-18.57537966 18.57542034a1.5 1.5 0 0 1-2.5095489-.6724316 1.5 1.5 0 0 1 .38822856-1.44888874l18.57532034-18.57537966a1.5 1.5 0 0 0-.6724316-2.5095489 1.5 1.5 0 0 0-1.44888874.38822856l-18.57527966 18.57532034a1.5 1.5 0 0 1-2.5095489-.6724316 1.5 1.5 0 0 1 .38822856-1.44888874l18.57532034-18.57527966a1.5 1.5 0 0 0-.6724316-2.5095489 1.5 1.5 0 0 0-1.44888874.38822856l-18.57537966 18.57532034a1.5 1.5 0 0 1-2.5095489-.6724316 1.5 1.5 0 0 1 .38822856-1.44888874l18.57542034-18.57537966a1.5 1.5 0 0 0-.6724316-2.5095489 1.5 1.5 0 0 0-1.25738868.22636646L98.8083989 30.27477729a15 15 0 0 0-6.30595327 11.9543667l-.04509126 2.49951203a15 15 0 0 1-4.68955651 10.62617019L76.8161 65.7144l7.6737 7.2536Zm-29.8751-.3203 1.8083661-1.8082339a5 5 0 0 1 7.16787597.09953461l60.5644481 64.02526716a10 10 0 0 0 10.8088777-10.8088777L73.75 66.25 23.9645339 16.4644661a5 5 0 0 0-8.36516303 2.24143867A5 5 0 0 0 15.429 20a32.5 32.5 0 0 0 9.51902961 22.98097039L54.6147 72.6477Z"/>
</svg>