<?xml version="1.0" encoding="UTF-8" standalone="no"?>
<!-- Created with Inkscape (http://www.inkscape.org/) -->

<svg
   version="1.1"
   id="svg2475"
   xml:space="preserve"
   width="567.92798"
   height="567.92798"
   viewBox="0 0 567.92798 567.92798"
   xmlns="http://www.w3.org/2000/svg"
   xmlns:svg="http://www.w3.org/2000/svg"><defs
     id="defs2479" /><g
     id="g2481"
     transform="matrix(1.3333333,0,0,1.3333333,0,1.5531533e-5)"><g
       id="g2483"><g
         id="g2485"><path
           d="M 0.656,0.656 H 425.289 V 425.289 H 0.656 Z"
           style="fill:#ffffff;fill-opacity:1;fill-rule:evenodd;stroke:#000000;stroke-width:1.31601;stroke-linecap:butt;stroke-linejoin:miter;stroke-miterlimit:4;stroke-dasharray:none;stroke-opacity:1"
           id="path2487" /></g><g
         id="g2489"><path
           d="m 200.262,43.477 c -88.75,6.648 -157.367,80.601 -157.367,169.601 0.113,93.856 76.226,169.879 170.078,169.879 93.851,0 169.968,-76.023 170.078,-169.879 0,-47.316 -19.711,-92.492 -54.395,-124.676 C 293.973,56.219 247.445,39.938 200.262,43.477 Z m 2.117,28.234 c 39.324,-2.945 78.101,10.625 107.008,37.449 28.906,26.828 45.328,64.485 45.32,103.918 0.004,37.594 -14.926,73.649 -41.508,100.234 -26.578,26.586 -62.633,41.52 -100.226,41.52 -37.594,0 -73.645,-14.934 -100.227,-41.52 C 86.164,286.727 71.234,250.672 71.242,213.078 71.223,138.898 128.406,77.258 202.379,71.711 Z"
           style="fill:#000000;fill-opacity:1;fill-rule:nonzero;stroke:#000000;stroke-width:0.75;stroke-linecap:butt;stroke-linejoin:miter;stroke-miterlimit:4;stroke-dasharray:none;stroke-opacity:1"
           id="path2491" /></g><g
         id="g2493"><path
           d="m 283.84,213.078 c 0,-39.137 -31.731,-70.867 -70.867,-70.867 -39.137,0 -70.868,31.73 -70.868,70.867 0,39.141 31.731,70.867 70.868,70.867 39.136,0 70.867,-31.726 70.867,-70.867 z"
           style="fill:#000000;fill-opacity:1;fill-rule:nonzero;stroke:#000000;stroke-width:0.75;stroke-linecap:butt;stroke-linejoin:miter;stroke-miterlimit:4;stroke-dasharray:none;stroke-opacity:1"
           id="path2495" /></g></g></g></svg>
