<?xml version="1.0" encoding="UTF-8" standalone="no"?>
<svg xmlns="http://www.w3.org/2000/svg" xml:space="preserve" width="473px" height="230px"  viewBox="-5 -5 473 230">
  <rect x="-5" y="-5" width="473" height="230" style="stroke:none; fill:#ffffff;" />
  <path d="M 140.4043 0 L 83.404297 38.001953 L 132.95312 71.035156 L 99.101562 71.035156 L 94.974609 75.169922 L 20.644531 75.169922 L 20.644531 87.554688 L 28.90625 87.554688 L 0.86328125 143.61719 C 0.28703125 144.77469 0 146.03961 0 147.31836 L 0 174.27344 C 0 183.39844 7.397187 190.78906 16.523438 190.78906 L 445.99219 190.78906 C 455.11844 190.78906 462.51563 183.39844 462.51562 174.27344 L 462.51562 147.31836 C 462.51563 146.03961 462.21211 144.77469 461.63086 143.61719 L 433.59375 87.554688 L 441.85547 87.554688 L 441.85547 75.169922 L 185.83008 75.169922 L 181.69336 71.035156 L 147.83789 71.035156 L 197.40234 38.001953 L 140.4043 0 z M 140.4043 4.9609375 L 189.95703 38.001953 L 140.4043 71.035156 L 90.839844 38.001953 L 140.4043 4.9609375 z M 36.289062 87.554688 L 53.675781 87.554688 L 53.675781 145.36719 L 30.775391 145.36719 C 22.786641 145.36719 16.318359 138.90672 16.318359 130.91797 C 16.318359 128.66672 16.841797 126.46352 17.841797 124.44727 L 36.289062 87.554688 z M 70.195312 87.554688 L 86.71875 87.554688 C 91.27875 87.554688 94.974609 91.249453 94.974609 95.814453 L 94.974609 174.27344 C 94.974609 178.83344 91.27875 182.5293 86.71875 182.5293 L 70.195312 182.5293 C 65.635312 182.5293 61.933594 178.83344 61.933594 174.27344 L 61.933594 95.814453 C 61.933594 91.249453 65.635313 87.554686 70.195312 87.554688 z M 111.49805 87.554688 L 169.31055 87.554688 C 173.8718 87.554688 177.56836 91.249453 177.56836 95.814453 L 177.56836 137.10352 C 177.56836 141.66977 173.8718 145.36719 169.31055 145.36719 L 111.49805 145.36719 C 106.93305 145.36719 103.23828 141.66977 103.23828 137.10352 L 103.23828 95.814453 C 103.23828 91.249453 106.93305 87.554686 111.49805 87.554688 z M 194.07812 87.554688 L 251.90039 87.554688 C 256.46539 87.554688 260.16211 91.249453 260.16211 95.814453 L 260.16211 137.10352 C 260.16211 141.66977 256.46539 145.36719 251.90039 145.36719 L 194.07812 145.36719 C 189.52687 145.36719 185.83008 141.66977 185.83008 137.10352 L 185.83008 95.814453 C 185.83008 91.249453 189.52688 87.554686 194.07812 87.554688 z M 276.66992 87.554688 L 334.48242 87.554688 C 339.04242 87.554688 342.75391 91.249453 342.75391 95.814453 L 342.75391 137.10352 C 342.75391 141.66977 339.04242 145.36719 334.48242 145.36719 L 276.66992 145.36719 C 272.10492 145.36719 268.4082 141.66977 268.4082 137.10352 L 268.4082 95.814453 C 268.4082 91.249453 272.10492 87.554686 276.66992 87.554688 z M 359.26172 87.554688 L 392.30469 87.554688 C 396.86469 87.554688 400.56641 91.249453 400.56641 95.814453 L 400.56641 174.27344 C 400.56641 178.83344 396.86469 182.5293 392.30469 182.5293 L 359.26172 182.5293 C 354.69672 182.5293 351.00195 178.83344 351.00195 174.27344 L 351.00195 95.814453 C 351.00195 91.249453 354.69672 87.554686 359.26172 87.554688 z M 408.81445 87.554688 L 426.21094 87.554688 L 444.6582 124.44727 C 448.23195 131.59102 445.33297 140.27789 438.19922 143.83789 C 436.19172 144.84414 433.97953 145.36719 431.73828 145.36719 L 408.81445 145.36719 L 408.81445 87.554688 z"/>
  <path d="m 169.31125,199.0525 c 0,11.40625 -9.2525,20.64375 -20.64375,20.64375 -11.41125,0 -20.65,-9.2375 -20.65,-20.64375 z m -49.55,0 c 0,4.28625 0.94625,8.52 2.7725,12.3825 H 88.06125 C 89.8925,207.5725 90.84,203.33875 90.84,199.0525 Z m -37.16875,0 c 0,11.40625 -9.2475,20.64375 -20.65875,20.64375 -11.39125,0 -20.645,-9.2375 -20.645,-20.64375 m 379.9225,0 H 379.9225 c 0,11.40625 9.2325,20.64375 20.64375,20.64375 11.39125,0 20.645,-9.2375 20.645,-20.64375 z m -49.56625,0 c 0,4.28625 0.9625,8.52 2.80375,12.3825 h -34.4825 c 1.82625,-3.8625 2.7875,-8.09625 2.7875,-12.3825 z m -37.1625,0 c 0,11.40625 -9.23875,20.64375 -20.65,20.64375 -11.39125,0 -20.64375,-9.2375 -20.64375,-20.64375"/>
</svg>