<?xml version="1.0" encoding="UTF-8" standalone="no"?>
<!-- Created with Inkscape (http://www.inkscape.org/) -->

<svg
   version="1.1"
   id="svg2881"
   xml:space="preserve"
   width="567.26398"
   height="567.26398"
   viewBox="0 0 567.26398 567.26398"
   xmlns="http://www.w3.org/2000/svg"
   xmlns:svg="http://www.w3.org/2000/svg"><defs
     id="defs2885" /><g
     id="g2887"
     transform="matrix(1.3333333,0,0,1.3333333,0,1.6848266e-5)"><g
       id="g2889"><g
         id="g2891"><path
           d="M 0.105,0.105 H 425.269 V 425.269 H 0.105 Z"
           style="fill:#ffffff;fill-opacity:1;fill-rule:evenodd;stroke:#1f1a17;stroke-width:0.212688;stroke-linecap:round;stroke-linejoin:round;stroke-miterlimit:4;stroke-dasharray:none;stroke-opacity:1"
           id="path2893" /></g><path
         d="M 14.277,403.523 V 375.18 l 0.825,0.453 0.796,0.453 0.825,0.426 0.851,0.426 0.824,0.398 0.852,0.398 0.848,0.371 0.851,0.348 0.852,0.371 0.879,0.321 0.847,0.316 1.758,0.586 0.875,0.293 0.906,0.265 0.875,0.239 0.907,0.238 0.902,0.215 0.902,0.187 0.907,0.184 0.902,0.187 0.906,0.161 0.93,0.132 0.902,0.133 0.93,0.106 0.933,0.105 0.903,0.082 0.93,0.078 0.929,0.055 0.934,0.023 0.93,0.028 h 1.859 l 0.93,-0.028 0.933,-0.023 0.93,-0.055 0.93,-0.078 0.929,-0.082 0.934,-0.105 0.902,-0.106 0.93,-0.133 0.906,-0.132 0.902,-0.161 0.93,-0.187 0.906,-0.184 0.903,-0.187 0.879,-0.215 1.804,-0.477 0.879,-0.265 0.879,-0.293 0.875,-0.293 0.879,-0.293 0.875,-0.316 0.852,-0.321 0.878,-0.371 0.852,-0.348 0.848,-0.371 0.824,-0.398 0.852,-0.398 1.648,-0.852 0.824,-0.453 0.797,-0.453 0.824,-0.45 0.824,-0.453 1.649,-0.851 0.824,-0.399 0.852,-0.398 1.703,-0.742 0.847,-0.348 0.879,-0.32 0.879,-0.317 0.848,-0.32 0.879,-0.293 0.902,-0.266 0.879,-0.265 0.902,-0.238 0.879,-0.239 0.903,-0.215 0.906,-0.211 0.902,-0.187 0.907,-0.16 0.929,-0.16 0.903,-0.157 0.929,-0.109 0.906,-0.133 0.93,-0.078 0.93,-0.105 0.93,-0.055 0.906,-0.055 0.93,-0.051 0.929,-0.027 h 1.887 l 0.934,0.027 0.929,0.051 0.903,0.055 0.933,0.055 0.93,0.105 0.929,0.078 0.903,0.133 0.933,0.109 0.903,0.157 0.929,0.16 0.907,0.16 0.902,0.187 0.902,0.211 0.907,0.215 0.875,0.239 0.906,0.238 0.875,0.265 0.879,0.266 0.902,0.293 0.852,0.32 0.879,0.317 0.875,0.32 0.851,0.348 1.703,0.742 0.852,0.398 0.824,0.399 1.649,0.851 0.824,0.453 0.82,0.45 0.801,0.453 0.824,0.453 1.649,0.852 0.847,0.398 0.824,0.398 0.852,0.371 0.851,0.348 0.879,0.371 0.848,0.321 0.879,0.316 0.879,0.293 0.875,0.293 0.879,0.293 0.875,0.265 0.906,0.239 0.902,0.238 0.879,0.215 0.903,0.187 0.906,0.184 0.93,0.187 0.902,0.161 0.906,0.132 0.93,0.133 0.902,0.106 0.93,0.105 0.933,0.082 0.93,0.078 0.93,0.055 0.93,0.023 0.929,0.028 h 1.864 l 0.929,-0.028 0.93,-0.023 0.933,-0.055 0.93,-0.078 0.902,-0.082 0.93,-0.105 0.934,-0.106 0.902,-0.133 0.93,-0.132 0.906,-0.161 0.902,-0.187 0.903,-0.184 0.906,-0.187 0.902,-0.215 0.907,-0.238 0.875,-0.239 0.906,-0.265 0.875,-0.293 0.879,-0.293 0.875,-0.293 0.851,-0.316 0.879,-0.321 0.852,-0.371 0.847,-0.348 0.852,-0.371 0.852,-0.398 0.824,-0.398 0.851,-0.426 0.825,-0.426 0.796,-0.453 0.825,-0.453 0.797,-0.45 0.824,-0.453 1.648,-0.851 1.703,-0.797 0.825,-0.371 0.875,-0.371 0.851,-0.348 0.852,-0.32 0.875,-0.317 0.879,-0.32 0.878,-0.293 0.875,-0.266 0.907,-0.265 0.875,-0.238 0.906,-0.239 0.902,-0.215 0.903,-0.211 0.906,-0.187 0.902,-0.16 0.907,-0.16 0.929,-0.157 0.903,-0.109 0.929,-0.133 0.906,-0.078 0.93,-0.105 1.86,-0.11 0.933,-0.051 0.93,-0.027 h 1.859 l 0.934,0.027 0.929,0.051 1.86,0.11 0.93,0.105 0.906,0.078 0.929,0.133 0.903,0.109 0.933,0.157 1.805,0.32 0.906,0.187 0.903,0.211 0.906,0.215 0.902,0.239 0.879,0.238 0.903,0.265 0.878,0.266 0.875,0.293 0.879,0.32 0.875,0.317 0.852,0.32 0.851,0.348 0.879,0.371 0.825,0.371 0.847,0.398 0.852,0.399 1.648,0.851 0.824,0.453 0.797,0.45 0.825,0.453 0.8,0.453 0.821,0.426 0.851,0.426 0.824,0.398 0.852,0.398 0.852,0.371 0.851,0.348 0.848,0.371 0.879,0.321 0.851,0.316 0.875,0.293 1.758,0.586 0.902,0.265 0.879,0.239 0.903,0.238 0.902,0.215 0.906,0.187 0.903,0.184 0.906,0.187 0.902,0.161 0.93,0.132 0.906,0.133 1.859,0.211 0.907,0.082 0.929,0.078 0.93,0.055 0.93,0.023 0.93,0.028 h 1.863 l 0.929,-0.028 0.93,-0.023 0.93,-0.055 0.933,-0.078 0.93,-0.082 0.93,-0.105 0.902,-0.106 0.934,-0.133 0.902,-0.132 0.902,-0.161 0.934,-0.187 0.902,-0.184 0.903,-0.187 0.879,-0.215 0.902,-0.238 0.906,-0.239 0.875,-0.265 1.758,-0.586 0.875,-0.293 0.879,-0.316 0.852,-0.321 0.874,-0.371 0.852,-0.348 0.852,-0.371 0.824,-0.398 0.851,-0.398 1.649,-0.852 0.824,-0.453 0.797,-0.453 0.824,-0.45 0.824,-0.453 1.649,-0.851 0.824,-0.399 0.848,-0.398 1.703,-0.742 0.851,-0.348 0.875,-0.32 0.879,-0.317 0.852,-0.32 0.875,-0.293 0.906,-0.266 0.875,-0.265 0.906,-0.238 0.875,-0.239 0.907,-0.215 0.902,-0.211 0.906,-0.187 0.903,-0.16 0.929,-0.16 0.906,-0.157 0.93,-0.109 0.902,-0.133 0.934,-0.078 0.93,-0.105 0.929,-0.055 0.903,-0.055 0.933,-0.051 0.93,-0.027 h 1.887 l 0.93,0.027 0.929,0.051 0.906,0.055 0.93,0.055 0.93,0.105 0.929,0.078 0.907,0.133 0.929,0.109 0.903,0.157 0.933,0.16 0.903,0.16 0.902,0.187 0.906,0.211 0.903,0.215 0.879,0.239 0.902,0.238 1.758,0.531 0.902,0.293 0.852,0.32 0.875,0.317 0.879,0.32 0.851,0.348 0.848,0.371 0.851,0.371 0.852,0.398 0.824,0.399 1.649,0.851 0.824,0.453 0.824,0.45 0.797,0.453 0.824,0.453 1.649,0.852 0.851,0.398 0.824,0.398 0.852,0.371 0.851,0.348 0.875,0.371 0.852,0.321 0.875,0.316 1.758,0.586 0.875,0.293 0.879,0.265 0.902,0.239 0.906,0.238 0.875,0.215 0.907,0.187 0.902,0.184 0.93,0.187 0.906,0.161 0.902,0.132 0.93,0.133 0.906,0.106 0.93,0.105 0.929,0.082 0.93,0.078 0.934,0.055 0.929,0.023 0.93,0.028 h 1.86 l 0.933,-0.028 0.93,-0.023 0.929,-0.055 0.93,-0.078 0.906,-0.082 1.86,-0.211 0.902,-0.133 0.934,-0.132 0.902,-0.161 0.906,-0.187 0.903,-0.184 0.902,-0.187 0.906,-0.215 0.903,-0.238 0.878,-0.239 0.903,-0.265 0.879,-0.293 0.875,-0.293 0.879,-0.293 0.851,-0.316 0.875,-0.321 0.852,-0.371 0.851,-0.348 0.852,-0.371 0.848,-0.398 0.824,-0.398 0.851,-0.426 0.825,-0.426 0.796,-0.453 0.825,-0.453 v 28.343 l -0.825,0.45 -0.796,0.453 -0.825,0.426 -0.851,0.425 -0.824,0.399 -0.848,0.398 -0.852,0.371 -0.851,0.375 -0.852,0.344 -0.875,0.32 -0.851,0.317 -0.879,0.32 -0.875,0.293 -0.879,0.266 -0.903,0.265 -0.878,0.239 -0.903,0.242 -0.906,0.211 -0.902,0.215 -0.903,0.183 -0.906,0.16 -0.902,0.16 -0.934,0.161 -0.902,0.105 -0.93,0.133 -0.93,0.078 -0.906,0.082 -0.93,0.078 -0.929,0.055 -0.93,0.027 -0.933,0.024 -0.93,0.027 -0.93,-0.027 -0.93,-0.024 -0.929,-0.027 -0.934,-0.055 -0.93,-0.078 -0.929,-0.082 -0.93,-0.078 -0.906,-0.133 -0.93,-0.105 -0.902,-0.161 -0.906,-0.16 -0.93,-0.16 -0.902,-0.183 -0.907,-0.215 -0.875,-0.211 -0.906,-0.242 -0.902,-0.239 -0.879,-0.265 -0.875,-0.266 -0.879,-0.293 -0.879,-0.32 -0.875,-0.317 -0.852,-0.32 -0.875,-0.344 -0.851,-0.375 -0.852,-0.371 -0.824,-0.398 -0.851,-0.399 -1.649,-0.851 -0.824,-0.453 -0.797,-0.45 -1.648,-0.906 -0.825,-0.426 -0.824,-0.421 -0.824,-0.403 -0.852,-0.398 -0.851,-0.371 -0.848,-0.371 -0.851,-0.348 -0.879,-0.317 -0.875,-0.32 -0.852,-0.32 -0.902,-0.293 -1.758,-0.531 -0.902,-0.239 -0.879,-0.238 -0.903,-0.215 -0.906,-0.211 -0.902,-0.187 -0.903,-0.16 -0.933,-0.157 -0.903,-0.16 -0.929,-0.105 -0.907,-0.137 -0.929,-0.078 -0.93,-0.106 -0.93,-0.054 -0.906,-0.051 -0.929,-0.055 h -0.93 l -0.957,-0.027 -0.93,0.027 h -0.93 l -0.933,0.055 -0.903,0.051 -0.929,0.054 -0.93,0.106 -0.934,0.078 -0.902,0.137 -0.93,0.105 -0.906,0.16 -0.929,0.157 -0.903,0.16 -0.906,0.187 -0.902,0.211 -0.907,0.215 -0.875,0.238 -0.906,0.239 -0.875,0.265 -0.906,0.266 -0.875,0.293 -0.852,0.32 -0.879,0.32 -0.875,0.317 -0.851,0.348 -1.703,0.742 -0.848,0.398 -0.824,0.403 -0.824,0.421 -0.825,0.426 -1.648,0.906 -0.797,0.45 -0.824,0.453 -1.649,0.851 -0.851,0.399 -0.824,0.398 -0.852,0.371 -0.852,0.375 -0.874,0.344 -0.852,0.32 -0.879,0.317 -0.875,0.32 -0.879,0.293 -0.879,0.266 -0.875,0.265 -0.906,0.239 -0.902,0.242 -0.879,0.211 -0.903,0.215 -0.902,0.183 -0.934,0.16 -1.804,0.321 -0.934,0.105 -0.902,0.133 -0.93,0.078 -0.93,0.082 -0.933,0.078 -0.93,0.055 -0.93,0.027 -0.929,0.024 -0.93,0.027 -0.933,-0.027 -0.93,-0.024 -0.93,-0.027 -0.93,-0.055 -0.929,-0.078 -0.907,-0.082 -0.929,-0.078 -0.93,-0.133 -0.906,-0.105 -0.93,-0.161 -0.902,-0.16 -0.906,-0.16 -0.903,-0.183 -0.906,-0.215 -0.902,-0.211 -0.903,-0.242 -0.879,-0.239 -0.902,-0.265 -0.879,-0.266 -0.879,-0.293 -0.875,-0.32 -0.851,-0.317 -0.879,-0.32 -0.848,-0.344 -0.851,-0.375 -0.852,-0.371 -0.852,-0.398 -0.824,-0.399 -0.851,-0.425 -0.821,-0.426 -0.8,-0.453 -0.825,-0.45 -0.797,-0.453 -0.824,-0.453 -0.824,-0.426 -0.824,-0.421 -0.852,-0.403 -0.847,-0.398 -0.825,-0.371 -0.879,-0.371 -0.851,-0.348 -0.852,-0.317 -0.875,-0.32 -0.879,-0.32 -0.875,-0.293 -0.878,-0.266 -0.903,-0.265 -0.879,-0.239 -0.902,-0.238 -0.906,-0.215 -0.903,-0.211 -0.906,-0.187 -0.902,-0.16 -0.903,-0.157 -0.933,-0.16 -0.903,-0.105 -0.929,-0.137 -0.906,-0.078 -0.93,-0.106 -0.93,-0.054 -0.93,-0.051 -0.929,-0.055 h -0.934 l -0.929,-0.027 -0.93,0.027 h -0.93 l -0.933,0.055 -0.93,0.051 -0.93,0.054 -0.93,0.106 -0.906,0.078 -0.929,0.137 -0.903,0.105 -0.929,0.16 -0.907,0.157 -0.902,0.16 -0.906,0.187 -0.903,0.211 -0.902,0.215 -0.906,0.238 -0.875,0.239 -0.907,0.265 -0.875,0.266 -0.878,0.293 -0.879,0.32 -0.875,0.32 -0.852,0.317 -0.851,0.348 -0.875,0.371 -0.825,0.371 -0.851,0.398 -0.852,0.403 -0.824,0.421 -0.824,0.426 -0.824,0.453 -0.797,0.453 -0.825,0.45 -0.796,0.453 -0.825,0.426 -0.851,0.425 -0.824,0.399 -0.852,0.398 -0.852,0.371 -0.847,0.375 -0.852,0.344 -0.879,0.32 -0.851,0.317 -0.875,0.32 -0.879,0.293 -0.875,0.266 -0.906,0.265 -0.875,0.239 -0.907,0.242 -0.902,0.211 -0.906,0.215 -0.903,0.183 -0.902,0.16 -0.906,0.16 -0.93,0.161 -0.902,0.105 -0.934,0.133 -0.93,0.078 -0.902,0.082 -0.93,0.078 -0.933,0.055 -0.93,0.027 -0.929,0.024 -0.93,0.027 -0.934,-0.027 -0.929,-0.024 -0.93,-0.027 -0.93,-0.055 -0.93,-0.078 -0.933,-0.082 -0.93,-0.078 -0.902,-0.133 -0.93,-0.105 -0.906,-0.161 -0.902,-0.16 -0.93,-0.16 -0.906,-0.183 -0.903,-0.215 -0.879,-0.211 -0.902,-0.242 -0.906,-0.239 -0.875,-0.265 -0.879,-0.266 -0.875,-0.293 -0.879,-0.32 -0.879,-0.317 -0.848,-0.32 -0.879,-0.344 -0.851,-0.375 -0.852,-0.371 -0.824,-0.398 -0.847,-0.399 -1.649,-0.851 -0.824,-0.453 -0.801,-0.45 -0.82,-0.453 -0.824,-0.453 -0.825,-0.426 -0.824,-0.421 -0.824,-0.403 -0.852,-0.398 -1.703,-0.742 -0.851,-0.348 -0.875,-0.317 -0.879,-0.32 -0.852,-0.32 -0.902,-0.293 -0.879,-0.266 -0.875,-0.265 -0.906,-0.239 -0.875,-0.238 -0.907,-0.215 -0.902,-0.211 -0.902,-0.187 -0.907,-0.16 -0.929,-0.157 -0.903,-0.16 -0.933,-0.105 -0.903,-0.137 -0.929,-0.078 -0.93,-0.106 -0.933,-0.054 -0.903,-0.051 -0.929,-0.055 h -0.934 l -0.93,-0.027 -0.957,0.027 h -0.929 l -0.93,0.055 -0.906,0.051 -0.93,0.054 -0.93,0.106 -0.93,0.078 -0.906,0.137 -0.929,0.105 -0.903,0.16 -0.929,0.157 -0.907,0.16 -0.902,0.187 -0.906,0.211 -0.903,0.215 -0.879,0.238 -0.902,0.239 -0.879,0.265 -0.902,0.266 -0.879,0.293 -0.848,0.32 -0.879,0.32 -0.879,0.317 -0.847,0.348 -1.703,0.742 -0.852,0.398 -0.824,0.403 -0.824,0.421 -0.825,0.426 -1.648,0.906 -0.797,0.45 -0.824,0.453 -1.648,0.851 -0.852,0.399 -0.824,0.398 -0.848,0.371 -0.852,0.375 -0.878,0.344 -0.852,0.32 -0.875,0.317 -0.879,0.32 -0.875,0.293 -1.758,0.531 -0.902,0.239 -0.902,0.242 -0.879,0.211 -0.903,0.215 -0.906,0.183 -0.93,0.16 -0.902,0.16 -0.906,0.161 -0.93,0.105 -0.902,0.133 -0.934,0.078 -0.929,0.082 -0.93,0.078 -0.93,0.055 -0.933,0.027 -0.93,0.024 -0.93,0.027 -0.929,-0.027 -0.93,-0.024 -0.934,-0.027 -0.929,-0.055 -0.93,-0.078 -0.903,-0.082 -0.933,-0.078 -0.93,-0.133 -0.902,-0.105 -0.93,-0.161 -0.906,-0.16 -0.902,-0.16 -0.907,-0.183 -0.902,-0.215 -0.902,-0.211 -0.907,-0.242 -0.875,-0.239 -0.906,-0.265 -0.875,-0.266 -0.879,-0.293 -0.879,-0.32 -0.847,-0.317 -0.879,-0.32 -0.852,-0.344 -0.851,-0.375 -0.848,-0.371 -0.852,-0.398 -0.824,-0.399 -0.851,-0.425 -0.825,-0.426 -0.796,-0.453 z"
         style="fill:#1f1a17;fill-opacity:1;fill-rule:evenodd;stroke:none"
         id="path2895" /><path
         d="m 14.277,361.012 v -28.34 l 0.825,0.449 0.796,0.453 0.825,0.426 0.851,0.426 0.824,0.398 0.852,0.399 0.848,0.371 0.851,0.347 0.852,0.344 0.879,0.348 0.847,0.316 1.758,0.586 0.875,0.293 0.906,0.238 0.875,0.266 0.907,0.215 0.902,0.238 0.902,0.188 0.907,0.183 0.902,0.188 0.906,0.16 0.93,0.133 0.902,0.133 0.93,0.105 0.933,0.105 0.903,0.082 0.93,0.079 0.929,0.054 0.934,0.028 0.93,0.023 h 1.859 l 0.93,-0.023 0.933,-0.028 0.93,-0.054 0.93,-0.079 0.929,-0.082 0.934,-0.105 0.902,-0.105 0.93,-0.133 0.906,-0.133 0.902,-0.16 0.93,-0.188 0.906,-0.183 0.903,-0.188 0.879,-0.238 0.902,-0.215 0.902,-0.266 0.879,-0.238 0.879,-0.293 0.875,-0.293 0.879,-0.293 0.875,-0.316 0.852,-0.348 0.878,-0.344 0.852,-0.347 0.848,-0.371 0.824,-0.399 0.852,-0.398 1.648,-0.852 0.824,-0.453 0.797,-0.449 0.824,-0.481 0.824,-0.425 0.825,-0.45 0.824,-0.402 0.824,-0.422 0.852,-0.375 1.703,-0.742 0.847,-0.348 0.879,-0.343 0.879,-0.293 0.848,-0.321 0.879,-0.293 0.902,-0.265 0.879,-0.266 0.902,-0.238 0.879,-0.238 0.903,-0.215 0.906,-0.211 0.902,-0.188 0.907,-0.16 0.929,-0.156 0.903,-0.16 0.929,-0.133 0.906,-0.109 0.93,-0.106 0.93,-0.078 0.93,-0.055 0.906,-0.051 0.93,-0.054 0.929,-0.028 h 1.887 l 0.934,0.028 0.929,0.054 0.903,0.051 0.933,0.055 0.93,0.078 0.929,0.106 0.903,0.109 0.933,0.133 0.903,0.16 0.929,0.156 0.907,0.16 0.902,0.188 0.902,0.211 0.907,0.215 0.875,0.238 0.906,0.238 0.875,0.266 0.879,0.265 0.902,0.293 0.852,0.321 0.879,0.293 0.875,0.343 0.851,0.348 1.703,0.742 0.852,0.375 0.824,0.422 0.824,0.402 0.825,0.45 0.824,0.425 0.82,0.481 0.801,0.449 0.824,0.453 1.649,0.852 0.847,0.398 0.824,0.399 0.852,0.371 0.851,0.347 0.879,0.344 0.848,0.348 0.879,0.316 0.879,0.293 0.875,0.293 0.879,0.293 0.875,0.238 0.906,0.266 0.902,0.215 0.879,0.238 0.903,0.188 0.906,0.183 0.93,0.188 0.902,0.16 0.906,0.133 0.93,0.133 0.902,0.105 0.93,0.105 0.933,0.082 0.93,0.079 0.93,0.054 0.93,0.028 0.929,0.023 h 1.864 l 0.929,-0.023 0.93,-0.028 0.933,-0.054 0.93,-0.079 0.902,-0.082 0.93,-0.105 0.934,-0.105 0.902,-0.133 0.93,-0.133 0.906,-0.16 0.902,-0.188 0.903,-0.183 0.906,-0.188 0.902,-0.238 0.907,-0.215 0.875,-0.266 0.906,-0.238 0.875,-0.293 0.879,-0.293 0.875,-0.293 0.851,-0.316 0.879,-0.348 0.852,-0.344 0.847,-0.347 0.852,-0.371 0.852,-0.399 0.824,-0.398 0.851,-0.426 0.825,-0.426 0.796,-0.453 0.825,-0.449 0.797,-0.481 0.824,-0.425 0.824,-0.45 0.824,-0.402 0.852,-0.422 0.851,-0.375 0.825,-0.371 0.875,-0.371 0.851,-0.348 0.852,-0.343 0.875,-0.293 0.879,-0.321 0.878,-0.293 0.875,-0.265 0.907,-0.266 0.875,-0.238 0.906,-0.238 0.902,-0.215 0.903,-0.211 0.906,-0.188 0.902,-0.16 0.907,-0.156 0.929,-0.16 0.903,-0.133 0.929,-0.109 0.906,-0.106 0.93,-0.078 0.93,-0.055 0.93,-0.051 0.933,-0.054 0.93,-0.028 h 1.859 l 0.934,0.028 0.929,0.054 0.93,0.051 0.93,0.055 0.93,0.078 0.906,0.106 0.929,0.109 0.903,0.133 0.933,0.16 0.903,0.156 0.902,0.16 0.906,0.188 0.903,0.211 0.906,0.215 0.902,0.238 0.879,0.238 0.903,0.266 0.878,0.265 0.875,0.293 0.879,0.321 0.875,0.293 0.852,0.343 0.851,0.348 0.879,0.371 0.825,0.371 0.847,0.375 0.852,0.422 0.824,0.402 0.824,0.45 0.824,0.425 0.797,0.481 0.825,0.449 0.8,0.453 0.821,0.426 0.851,0.426 0.824,0.398 0.852,0.399 0.852,0.371 0.851,0.347 0.848,0.344 0.879,0.348 0.851,0.316 0.875,0.293 1.758,0.586 0.902,0.238 0.879,0.266 0.903,0.215 0.902,0.238 0.906,0.188 0.903,0.183 0.906,0.188 0.902,0.16 0.93,0.133 0.906,0.133 1.859,0.21 0.907,0.082 0.929,0.079 0.93,0.054 0.93,0.028 0.93,0.023 h 1.863 l 0.929,-0.023 0.93,-0.028 0.93,-0.054 0.933,-0.079 0.93,-0.082 0.93,-0.105 0.902,-0.105 0.934,-0.133 0.902,-0.133 0.902,-0.16 0.934,-0.188 0.902,-0.183 0.903,-0.188 0.879,-0.238 0.902,-0.215 0.906,-0.266 0.875,-0.238 1.758,-0.586 0.875,-0.293 0.879,-0.316 0.852,-0.348 0.874,-0.344 0.852,-0.347 0.852,-0.371 0.824,-0.399 0.851,-0.398 1.649,-0.852 0.824,-0.453 0.797,-0.449 0.824,-0.481 0.824,-0.425 0.825,-0.45 0.824,-0.402 0.824,-0.422 0.848,-0.375 1.703,-0.742 0.851,-0.348 0.875,-0.343 0.879,-0.293 0.852,-0.321 0.875,-0.293 0.906,-0.265 0.875,-0.266 0.906,-0.238 0.875,-0.238 0.907,-0.215 0.902,-0.211 0.906,-0.188 0.903,-0.16 0.929,-0.156 0.906,-0.16 0.93,-0.133 0.902,-0.109 0.934,-0.106 0.93,-0.078 0.929,-0.055 0.903,-0.051 0.933,-0.054 0.93,-0.028 h 1.887 l 0.93,0.028 0.929,0.054 0.906,0.051 0.93,0.055 0.93,0.078 0.929,0.106 0.907,0.109 0.929,0.133 0.903,0.16 0.933,0.156 0.903,0.16 0.902,0.188 0.906,0.211 0.903,0.215 0.879,0.238 0.902,0.238 1.758,0.531 0.902,0.293 0.852,0.321 0.875,0.293 0.879,0.343 0.851,0.348 0.848,0.371 0.851,0.371 0.852,0.375 0.824,0.422 0.824,0.402 0.825,0.45 0.824,0.425 0.824,0.481 0.797,0.449 0.824,0.453 1.649,0.852 0.851,0.398 0.824,0.399 0.852,0.371 0.851,0.347 0.875,0.344 0.852,0.348 0.875,0.316 1.758,0.586 0.875,0.293 0.879,0.238 0.902,0.266 0.906,0.215 0.875,0.238 0.907,0.188 0.902,0.183 0.93,0.188 0.906,0.16 0.902,0.133 0.93,0.133 0.906,0.105 0.93,0.105 0.929,0.082 0.93,0.079 0.934,0.054 0.929,0.028 0.93,0.023 h 1.86 l 0.933,-0.023 0.93,-0.028 0.929,-0.054 0.93,-0.079 0.906,-0.082 1.86,-0.21 0.902,-0.133 0.934,-0.133 0.902,-0.16 0.906,-0.188 0.903,-0.183 0.902,-0.188 0.906,-0.238 0.903,-0.215 0.878,-0.266 0.903,-0.238 0.879,-0.293 0.875,-0.293 0.879,-0.293 0.851,-0.316 0.875,-0.348 0.852,-0.344 0.851,-0.347 0.852,-0.371 0.848,-0.399 0.824,-0.398 0.851,-0.426 0.825,-0.426 0.796,-0.453 0.825,-0.449 v 28.34 l -0.825,0.453 -0.796,0.449 -0.825,0.426 -0.851,0.426 -0.824,0.398 -0.848,0.398 -0.852,0.376 -0.851,0.343 -0.852,0.348 -0.875,0.344 -0.851,0.32 -0.879,0.293 -0.875,0.289 -0.879,0.293 -0.903,0.266 -0.878,0.242 -0.903,0.238 -0.906,0.211 -1.805,0.375 -0.906,0.184 -0.902,0.16 -0.934,0.133 -0.902,0.132 -0.93,0.106 -0.93,0.109 -0.906,0.078 -0.93,0.078 -0.929,0.055 -0.93,0.027 -0.933,0.028 h -1.86 l -1.859,-0.055 -0.934,-0.055 -1.859,-0.156 -0.93,-0.109 -0.906,-0.106 -0.93,-0.132 -0.902,-0.133 -0.906,-0.16 -0.93,-0.184 -0.902,-0.188 -0.907,-0.187 -0.875,-0.211 -0.906,-0.238 -0.902,-0.242 -0.879,-0.266 -0.875,-0.293 -0.879,-0.289 -0.879,-0.293 -0.875,-0.32 -0.852,-0.344 -0.875,-0.348 -0.851,-0.343 -0.852,-0.376 -0.824,-0.398 -0.851,-0.398 -1.649,-0.852 -0.824,-0.449 -0.797,-0.453 -0.824,-0.481 -0.824,-0.426 -0.825,-0.421 -0.824,-0.426 -0.824,-0.399 -0.852,-0.398 -0.851,-0.375 -0.848,-0.371 -0.851,-0.348 -0.879,-0.316 -0.875,-0.321 -0.852,-0.32 -0.902,-0.289 -0.879,-0.266 -0.879,-0.269 -0.902,-0.238 -0.879,-0.239 -0.903,-0.211 -0.906,-0.214 -0.902,-0.188 -0.903,-0.156 -0.933,-0.16 -0.903,-0.16 -0.929,-0.133 -0.907,-0.106 -0.929,-0.109 -0.93,-0.078 -0.93,-0.055 -0.906,-0.051 -0.929,-0.054 -0.93,-0.028 h -1.887 l -0.93,0.028 -0.933,0.054 -0.903,0.051 -0.929,0.055 -0.93,0.078 -0.934,0.109 -0.902,0.106 -0.93,0.133 -0.906,0.16 -0.929,0.16 -0.903,0.156 -0.906,0.188 -0.902,0.214 -0.907,0.211 -0.875,0.239 -0.906,0.238 -0.875,0.269 -0.906,0.266 -0.875,0.289 -0.852,0.32 -0.879,0.321 -0.875,0.316 -0.851,0.348 -0.852,0.371 -0.851,0.375 -0.848,0.398 -0.824,0.399 -0.824,0.426 -0.825,0.421 -0.824,0.426 -0.824,0.481 -0.797,0.453 -0.824,0.449 -1.649,0.852 -0.851,0.398 -0.824,0.398 -0.852,0.376 -0.852,0.343 -0.874,0.348 -0.852,0.344 -0.879,0.32 -0.875,0.293 -0.879,0.289 -0.879,0.293 -0.875,0.266 -0.906,0.242 -0.902,0.238 -0.879,0.211 -1.805,0.375 -0.934,0.184 -0.902,0.16 -0.902,0.133 -0.934,0.132 -0.902,0.106 -0.93,0.109 -0.93,0.078 -0.933,0.078 -0.93,0.055 -1.859,0.055 h -1.863 l -1.86,-0.055 -0.93,-0.055 -0.929,-0.078 -0.907,-0.078 -0.929,-0.109 -0.93,-0.106 -0.906,-0.132 -0.93,-0.133 -0.902,-0.16 -0.906,-0.184 -0.903,-0.188 -0.906,-0.187 -0.902,-0.211 -0.903,-0.238 -0.879,-0.242 -0.902,-0.266 -0.879,-0.293 -0.879,-0.289 -0.875,-0.293 -0.851,-0.32 -0.879,-0.344 -0.848,-0.348 -0.851,-0.343 -0.852,-0.376 -0.852,-0.398 -0.824,-0.398 -0.851,-0.426 -0.821,-0.426 -0.8,-0.449 -0.825,-0.453 -0.797,-0.481 -0.824,-0.426 -0.824,-0.421 -0.824,-0.426 -0.852,-0.399 -0.847,-0.398 -0.825,-0.375 -0.879,-0.371 -0.851,-0.348 -0.852,-0.316 -0.875,-0.321 -0.879,-0.32 -0.875,-0.289 -0.878,-0.266 -0.903,-0.269 -0.879,-0.238 -0.902,-0.239 -0.906,-0.211 -0.903,-0.214 -0.906,-0.188 -0.902,-0.156 -0.903,-0.16 -0.933,-0.16 -0.903,-0.133 -0.929,-0.106 -0.906,-0.109 -0.93,-0.078 -0.93,-0.055 -0.93,-0.051 -0.929,-0.054 -0.934,-0.028 h -1.859 l -0.93,0.028 -0.933,0.054 -0.93,0.051 -0.93,0.055 -0.93,0.078 -0.906,0.109 -0.929,0.106 -0.903,0.133 -0.929,0.16 -0.907,0.16 -0.902,0.156 -0.906,0.188 -0.903,0.214 -0.902,0.211 -0.906,0.239 -0.875,0.238 -0.907,0.269 -0.875,0.266 -0.878,0.289 -0.879,0.32 -0.875,0.321 -0.852,0.316 -0.851,0.348 -0.875,0.371 -0.825,0.375 -1.703,0.797 -0.824,0.426 -0.824,0.421 -0.824,0.426 -0.797,0.481 -0.825,0.453 -0.796,0.449 -0.825,0.426 -0.851,0.426 -0.824,0.398 -0.852,0.398 -0.852,0.376 -0.847,0.343 -0.852,0.348 -0.879,0.344 -0.851,0.32 -0.875,0.293 -0.879,0.289 -0.875,0.293 -0.906,0.266 -0.875,0.242 -0.907,0.238 -0.902,0.211 -0.906,0.187 -0.903,0.188 -0.902,0.184 -0.906,0.16 -0.93,0.133 -0.902,0.132 -0.934,0.106 -0.93,0.109 -0.902,0.078 -0.93,0.078 -0.933,0.055 -1.859,0.055 h -1.864 l -1.859,-0.055 -0.93,-0.055 -0.93,-0.078 -0.933,-0.078 -0.93,-0.109 -0.902,-0.106 -0.93,-0.132 -0.906,-0.133 -0.902,-0.16 -0.93,-0.184 -0.906,-0.188 -0.903,-0.187 -0.879,-0.211 -0.902,-0.238 -0.906,-0.242 -0.875,-0.266 -0.879,-0.293 -0.875,-0.289 -0.879,-0.293 -0.879,-0.32 -0.848,-0.344 -0.879,-0.348 -0.851,-0.343 -0.852,-0.376 -0.824,-0.398 -0.847,-0.398 -1.649,-0.852 -0.824,-0.449 -0.801,-0.453 -0.82,-0.481 -0.824,-0.426 -0.825,-0.421 -0.824,-0.426 -0.824,-0.399 -0.852,-0.398 -0.851,-0.375 -0.852,-0.371 -0.851,-0.348 -0.875,-0.316 -0.879,-0.321 -0.852,-0.32 -0.902,-0.289 -0.879,-0.266 -0.875,-0.269 -0.906,-0.238 -0.875,-0.239 -0.907,-0.211 -0.902,-0.214 -0.902,-0.188 -0.907,-0.156 -0.929,-0.16 -0.903,-0.16 -0.933,-0.133 -0.903,-0.106 -0.929,-0.109 -0.93,-0.078 -0.933,-0.055 -0.903,-0.051 -0.929,-0.054 -0.934,-0.028 h -1.887 l -0.929,0.028 -0.93,0.054 -0.906,0.051 -0.93,0.055 -0.93,0.078 -0.93,0.109 -0.906,0.106 -0.929,0.133 -0.903,0.16 -0.929,0.16 -0.907,0.156 -0.902,0.188 -0.906,0.214 -0.903,0.211 -0.879,0.239 -0.902,0.238 -0.879,0.269 -0.902,0.266 -0.879,0.289 -0.848,0.32 -0.879,0.321 -0.879,0.316 -0.847,0.348 -0.852,0.371 -0.851,0.375 -0.852,0.398 -0.824,0.399 -0.824,0.426 -0.825,0.421 -0.824,0.426 -0.824,0.481 -0.797,0.453 -0.824,0.449 -1.648,0.852 -0.852,0.398 -0.824,0.398 -0.848,0.376 -0.852,0.343 -0.878,0.348 -0.852,0.344 -0.875,0.32 -0.879,0.293 -0.875,0.289 -0.879,0.293 -0.879,0.266 -0.902,0.242 -0.902,0.238 -0.879,0.211 -0.903,0.187 -0.906,0.188 -0.93,0.184 -0.902,0.16 -0.906,0.133 -0.93,0.132 -0.902,0.106 -0.934,0.109 -1.859,0.156 -0.93,0.055 -0.933,0.027 -0.93,0.028 h -1.859 l -0.93,-0.028 -0.934,-0.027 -0.929,-0.055 -0.93,-0.078 -0.903,-0.078 -0.933,-0.109 -0.93,-0.106 -0.902,-0.132 -0.93,-0.133 -0.906,-0.16 -0.902,-0.184 -0.907,-0.188 -0.902,-0.187 -0.902,-0.211 -0.907,-0.238 -0.875,-0.242 -0.906,-0.266 -0.875,-0.293 -0.879,-0.289 -0.879,-0.293 -0.847,-0.32 -0.879,-0.344 -0.852,-0.348 -0.851,-0.343 -0.848,-0.376 -0.852,-0.398 -0.824,-0.398 -0.851,-0.426 -0.825,-0.426 -0.796,-0.449 z"
         style="fill:#1f1a17;fill-opacity:1;fill-rule:evenodd;stroke:none"
         id="path2897" /><path
         d="m 14.277,318.5 v -28.367 l 0.825,0.48 0.796,0.449 0.825,0.426 0.851,0.399 0.824,0.425 0.852,0.372 0.848,0.375 0.851,0.371 0.852,0.343 0.879,0.348 0.847,0.32 0.879,0.289 0.879,0.293 0.875,0.266 0.906,0.266 0.875,0.242 0.907,0.238 0.902,0.211 0.902,0.215 0.907,0.187 0.902,0.184 0.906,0.16 0.93,0.133 0.902,0.133 0.93,0.105 0.933,0.11 0.903,0.078 0.93,0.078 0.929,0.055 0.934,0.027 0.93,0.027 h 1.859 l 0.93,-0.027 0.933,-0.027 0.93,-0.055 1.859,-0.156 0.934,-0.11 0.902,-0.105 0.93,-0.133 0.906,-0.133 0.902,-0.16 0.93,-0.184 0.906,-0.187 0.903,-0.215 0.879,-0.211 0.902,-0.238 0.902,-0.242 1.758,-0.532 0.875,-0.293 0.879,-0.289 0.875,-0.32 0.852,-0.348 0.878,-0.343 0.852,-0.371 0.848,-0.375 0.824,-0.372 0.852,-0.425 0.824,-0.399 0.824,-0.426 0.824,-0.449 0.797,-0.48 0.824,-0.453 0.824,-0.45 1.649,-0.851 0.824,-0.399 0.852,-0.375 0.851,-0.398 0.852,-0.344 0.847,-0.347 0.879,-0.344 0.879,-0.32 0.848,-0.293 0.879,-0.289 0.902,-0.27 0.879,-0.266 0.902,-0.265 0.879,-0.211 0.903,-0.215 0.906,-0.211 0.902,-0.187 0.907,-0.184 0.929,-0.16 0.903,-0.133 0.929,-0.133 0.906,-0.105 0.93,-0.11 1.86,-0.156 0.906,-0.055 1.859,-0.054 h 1.887 l 0.934,0.027 0.929,0.027 0.903,0.055 0.933,0.078 0.93,0.078 0.929,0.11 0.903,0.105 0.933,0.133 0.903,0.133 0.929,0.16 0.907,0.184 0.902,0.187 0.902,0.211 0.907,0.215 0.875,0.211 0.906,0.265 0.875,0.266 0.879,0.27 0.902,0.289 0.852,0.293 0.879,0.32 0.875,0.344 0.851,0.347 0.852,0.344 0.851,0.398 0.852,0.375 0.824,0.399 1.649,0.851 0.824,0.45 0.82,0.453 0.801,0.48 0.824,0.449 0.824,0.426 0.825,0.399 0.847,0.425 0.824,0.372 0.852,0.375 0.851,0.371 0.879,0.343 0.848,0.348 0.879,0.32 0.879,0.289 0.875,0.293 0.879,0.266 0.875,0.266 0.906,0.242 0.902,0.238 0.879,0.211 0.903,0.215 0.906,0.187 0.93,0.184 0.902,0.16 0.906,0.133 0.93,0.133 0.902,0.105 0.93,0.11 0.933,0.078 0.93,0.078 0.93,0.055 1.859,0.054 h 1.864 l 1.859,-0.054 0.933,-0.055 0.93,-0.078 0.902,-0.078 0.93,-0.11 0.934,-0.105 0.902,-0.133 0.93,-0.133 0.906,-0.16 0.902,-0.184 0.903,-0.187 0.906,-0.215 0.902,-0.211 0.907,-0.238 0.875,-0.242 0.906,-0.266 0.875,-0.266 0.879,-0.293 0.875,-0.289 0.851,-0.32 0.879,-0.348 0.852,-0.343 0.847,-0.371 0.852,-0.375 0.852,-0.372 0.824,-0.425 0.851,-0.399 0.825,-0.426 0.796,-0.449 0.825,-0.48 0.797,-0.453 0.824,-0.45 1.648,-0.851 0.852,-0.399 0.851,-0.375 0.825,-0.398 0.875,-0.344 0.851,-0.347 0.852,-0.344 0.875,-0.32 0.879,-0.293 0.878,-0.289 0.875,-0.27 0.907,-0.266 0.875,-0.265 0.906,-0.211 0.902,-0.215 0.903,-0.211 0.906,-0.187 0.902,-0.184 0.907,-0.16 0.929,-0.133 0.903,-0.133 0.929,-0.105 0.906,-0.11 1.86,-0.156 0.93,-0.055 0.933,-0.027 0.93,-0.027 h 1.859 l 0.934,0.027 0.929,0.027 0.93,0.055 1.86,0.156 0.906,0.11 0.929,0.105 0.903,0.133 0.933,0.133 0.903,0.16 0.902,0.184 0.906,0.187 0.903,0.211 0.906,0.215 0.902,0.211 0.879,0.265 0.903,0.266 0.878,0.27 0.875,0.289 0.879,0.293 0.875,0.32 0.852,0.344 0.851,0.347 0.879,0.344 0.825,0.398 0.847,0.375 0.852,0.399 1.648,0.851 0.824,0.45 0.797,0.453 0.825,0.48 0.8,0.449 0.821,0.426 0.851,0.399 0.824,0.425 0.852,0.372 0.852,0.375 0.851,0.371 0.848,0.343 0.879,0.348 0.851,0.32 0.875,0.289 0.879,0.293 0.879,0.266 0.902,0.266 0.879,0.242 0.903,0.238 0.902,0.211 0.906,0.215 0.903,0.187 0.906,0.184 0.902,0.16 0.93,0.133 0.906,0.133 0.93,0.105 0.929,0.11 0.907,0.078 0.929,0.078 0.93,0.055 1.86,0.054 h 1.863 l 1.859,-0.054 0.93,-0.055 0.933,-0.078 0.93,-0.078 0.93,-0.11 0.902,-0.105 0.934,-0.133 0.902,-0.133 0.902,-0.16 0.934,-0.184 0.902,-0.187 0.903,-0.215 0.879,-0.211 0.902,-0.238 0.906,-0.242 0.875,-0.266 0.879,-0.266 0.879,-0.293 0.875,-0.289 0.879,-0.32 0.852,-0.348 0.874,-0.343 0.852,-0.371 0.852,-0.375 0.824,-0.372 0.851,-0.425 0.825,-0.399 0.824,-0.426 0.824,-0.449 0.797,-0.48 0.824,-0.453 0.824,-0.45 1.649,-0.851 0.824,-0.399 0.848,-0.375 0.851,-0.398 0.852,-0.344 0.851,-0.347 0.875,-0.344 0.879,-0.32 0.852,-0.293 0.875,-0.289 0.906,-0.27 0.875,-0.266 0.906,-0.265 0.875,-0.211 0.907,-0.215 0.902,-0.211 0.906,-0.187 0.903,-0.184 0.929,-0.16 0.906,-0.133 0.93,-0.133 0.902,-0.105 0.934,-0.11 1.859,-0.156 0.903,-0.055 0.933,-0.027 0.93,-0.027 h 1.887 l 1.859,0.054 0.906,0.055 1.86,0.156 0.929,0.11 0.907,0.105 0.929,0.133 0.903,0.133 0.933,0.16 0.903,0.184 0.902,0.187 0.906,0.211 0.903,0.215 0.879,0.211 0.902,0.265 0.879,0.266 0.879,0.27 0.902,0.289 0.852,0.293 0.875,0.32 0.879,0.344 0.851,0.347 0.848,0.344 0.851,0.398 0.852,0.375 0.824,0.399 1.649,0.851 0.824,0.45 0.824,0.453 0.797,0.48 0.824,0.449 0.824,0.426 0.825,0.399 0.851,0.425 0.824,0.372 0.852,0.375 0.851,0.371 0.875,0.343 0.852,0.348 0.875,0.32 0.879,0.289 0.879,0.293 0.875,0.266 0.879,0.266 0.902,0.242 0.906,0.238 0.875,0.211 0.907,0.215 0.902,0.187 0.93,0.184 0.906,0.16 0.902,0.133 0.93,0.133 0.906,0.105 0.93,0.11 1.859,0.156 0.934,0.055 1.859,0.054 h 1.86 l 0.933,-0.027 0.93,-0.027 0.929,-0.055 0.93,-0.078 0.906,-0.078 0.93,-0.11 0.93,-0.105 0.902,-0.133 0.934,-0.133 0.902,-0.16 0.906,-0.184 0.903,-0.187 0.902,-0.215 0.906,-0.211 0.903,-0.238 0.878,-0.242 0.903,-0.266 0.879,-0.266 0.875,-0.293 0.879,-0.289 0.851,-0.32 0.875,-0.348 0.852,-0.343 0.851,-0.371 0.852,-0.375 0.848,-0.372 0.824,-0.425 0.851,-0.399 0.825,-0.426 0.796,-0.449 0.825,-0.48 V 318.5 l -0.825,0.453 -0.796,0.449 -0.825,0.426 -0.851,0.426 -0.824,0.398 -0.848,0.375 -0.852,0.399 -0.851,0.344 -0.852,0.347 -0.875,0.344 -0.851,0.32 -0.879,0.293 -0.875,0.293 -0.879,0.289 -0.903,0.242 -0.878,0.266 -0.903,0.211 -0.906,0.238 -1.805,0.375 -0.906,0.184 -0.902,0.16 -0.934,0.133 -0.902,0.133 -0.93,0.109 -0.93,0.105 -0.906,0.079 -0.93,0.082 -0.929,0.05 -0.93,0.028 -0.933,0.027 h -1.86 l -1.859,-0.055 -0.934,-0.05 -0.93,-0.082 -0.929,-0.079 -0.93,-0.105 -0.906,-0.109 -0.93,-0.133 -0.902,-0.133 -0.906,-0.16 -0.93,-0.184 -0.902,-0.187 -0.907,-0.188 -0.875,-0.238 -0.906,-0.211 -0.902,-0.266 -0.879,-0.242 -0.875,-0.289 -1.758,-0.586 -0.875,-0.32 -0.852,-0.344 -0.875,-0.347 -0.851,-0.344 -0.852,-0.399 -0.824,-0.375 -0.851,-0.398 -1.649,-0.852 -0.824,-0.449 -0.797,-0.453 -0.824,-0.477 -0.824,-0.425 -0.825,-0.453 -0.824,-0.399 -0.824,-0.426 -0.852,-0.371 -0.851,-0.375 -0.848,-0.371 -0.851,-0.344 -0.879,-0.347 -0.875,-0.321 -0.852,-0.289 -0.902,-0.293 -1.758,-0.531 -0.902,-0.242 -0.879,-0.238 -0.903,-0.211 -0.906,-0.215 -0.902,-0.184 -0.903,-0.187 -0.933,-0.16 -0.903,-0.133 -0.929,-0.133 -0.907,-0.105 -0.929,-0.106 -0.93,-0.082 -0.93,-0.051 -0.906,-0.054 -0.929,-0.055 -0.93,-0.024 h -1.887 l -0.93,0.024 -0.933,0.055 -0.903,0.054 -0.929,0.051 -0.93,0.082 -0.934,0.106 -0.902,0.105 -0.93,0.133 -0.906,0.133 -0.929,0.16 -0.903,0.187 -0.906,0.184 -0.902,0.215 -0.907,0.211 -0.875,0.238 -0.906,0.242 -0.875,0.266 -0.906,0.265 -0.875,0.293 -0.852,0.289 -0.879,0.321 -0.875,0.347 -0.851,0.344 -0.852,0.371 -0.851,0.375 -0.848,0.371 -0.824,0.426 -0.824,0.399 -0.825,0.453 -0.824,0.425 -0.824,0.477 -0.797,0.453 -0.824,0.449 -1.649,0.852 -0.851,0.398 -0.824,0.375 -0.852,0.399 -0.852,0.344 -0.874,0.347 -0.852,0.344 -0.879,0.32 -0.875,0.293 -0.879,0.293 -0.879,0.289 -0.875,0.242 -0.906,0.266 -0.902,0.211 -0.879,0.238 -1.805,0.375 -0.934,0.184 -0.902,0.16 -0.902,0.133 -0.934,0.133 -0.902,0.109 -0.93,0.105 -0.93,0.079 -0.933,0.082 -0.93,0.05 -1.859,0.055 h -1.863 l -1.86,-0.055 -0.93,-0.05 -0.929,-0.082 -0.907,-0.079 -0.929,-0.105 -0.93,-0.109 -0.906,-0.133 -0.93,-0.133 -0.902,-0.16 -0.906,-0.184 -0.903,-0.187 -0.906,-0.188 -0.902,-0.238 -0.903,-0.211 -0.879,-0.266 -0.902,-0.242 -0.879,-0.289 -0.879,-0.293 -0.875,-0.293 -0.851,-0.32 -0.879,-0.344 -0.848,-0.347 -0.851,-0.344 -0.852,-0.399 -0.852,-0.375 -0.824,-0.398 -0.851,-0.426 -0.821,-0.426 -0.8,-0.449 -0.825,-0.453 -0.797,-0.477 -0.824,-0.425 -0.824,-0.453 -0.824,-0.399 -0.852,-0.426 -0.847,-0.371 -0.825,-0.375 -0.879,-0.371 -0.851,-0.344 -0.852,-0.347 -0.875,-0.321 -0.879,-0.289 -0.875,-0.293 -0.878,-0.265 -0.903,-0.266 -0.879,-0.242 -0.902,-0.238 -0.906,-0.211 -0.903,-0.215 -0.906,-0.184 -0.902,-0.187 -0.903,-0.16 -0.933,-0.133 -0.903,-0.133 -0.929,-0.105 -0.906,-0.106 -0.93,-0.082 -0.93,-0.051 -1.859,-0.109 -0.934,-0.024 h -1.859 l -0.93,0.024 -0.933,0.055 -0.93,0.054 -0.93,0.051 -0.93,0.082 -0.906,0.106 -0.929,0.105 -0.903,0.133 -0.929,0.133 -0.907,0.16 -0.902,0.187 -0.906,0.184 -0.903,0.215 -0.902,0.211 -0.906,0.238 -0.875,0.242 -0.907,0.266 -0.875,0.265 -0.878,0.293 -0.879,0.289 -0.875,0.321 -0.852,0.347 -0.851,0.344 -0.875,0.371 -0.825,0.375 -0.851,0.371 -0.852,0.426 -0.824,0.399 -0.824,0.453 -0.824,0.425 -0.797,0.477 -0.825,0.453 -0.796,0.449 -0.825,0.426 -0.851,0.426 -0.824,0.398 -0.852,0.375 -0.852,0.399 -0.847,0.344 -0.852,0.347 -0.879,0.344 -0.851,0.32 -0.875,0.293 -0.879,0.293 -0.875,0.289 -0.906,0.242 -0.875,0.266 -0.907,0.211 -0.902,0.238 -0.906,0.188 -0.903,0.187 -0.902,0.184 -0.906,0.16 -0.93,0.133 -0.902,0.133 -0.934,0.109 -0.93,0.105 -0.902,0.079 -0.93,0.082 -0.933,0.05 -1.859,0.055 h -1.864 l -1.859,-0.055 -0.93,-0.05 -0.93,-0.082 -0.933,-0.079 -0.93,-0.105 -0.902,-0.109 -0.93,-0.133 -0.906,-0.133 -0.902,-0.16 -0.93,-0.184 -0.906,-0.187 -0.903,-0.188 -0.879,-0.238 -0.902,-0.211 -0.906,-0.266 -0.875,-0.242 -0.879,-0.289 -0.875,-0.293 -0.879,-0.293 -0.879,-0.32 -0.848,-0.344 -0.879,-0.347 -0.851,-0.344 -0.852,-0.399 -0.824,-0.375 -0.847,-0.398 -1.649,-0.852 -0.824,-0.449 -0.801,-0.453 -0.82,-0.477 -0.824,-0.425 -0.825,-0.453 -0.824,-0.399 -0.824,-0.426 -0.852,-0.371 -0.851,-0.375 -0.852,-0.371 -0.851,-0.344 -0.875,-0.347 -0.879,-0.321 -0.852,-0.289 -0.902,-0.293 -0.879,-0.265 -0.875,-0.266 -0.906,-0.242 -0.875,-0.238 -0.907,-0.211 -0.902,-0.215 -0.902,-0.184 -0.907,-0.187 -0.929,-0.16 -0.903,-0.133 -0.933,-0.133 -0.903,-0.105 -0.929,-0.106 -0.93,-0.082 -0.933,-0.051 -0.903,-0.054 -0.929,-0.055 -0.934,-0.024 h -1.887 l -0.929,0.024 -0.93,0.055 -0.906,0.054 -0.93,0.051 -0.93,0.082 -0.93,0.106 -0.906,0.105 -0.929,0.133 -0.903,0.133 -0.929,0.16 -0.907,0.187 -0.902,0.184 -0.906,0.215 -0.903,0.211 -0.879,0.238 -0.902,0.242 -0.879,0.266 -0.902,0.265 -0.879,0.293 -0.848,0.289 -0.879,0.321 -0.879,0.347 -0.847,0.344 -0.852,0.371 -0.851,0.375 -0.852,0.371 -0.824,0.426 -0.824,0.399 -0.825,0.453 -0.824,0.425 -0.824,0.477 -0.797,0.453 -0.824,0.449 -1.648,0.852 -0.852,0.398 -0.824,0.375 -0.848,0.399 -0.852,0.344 -0.878,0.347 -0.852,0.344 -0.875,0.32 -0.879,0.293 -0.875,0.293 -0.879,0.289 -0.879,0.242 -0.902,0.266 -0.902,0.211 -0.879,0.238 -0.903,0.188 -0.906,0.187 -0.93,0.184 -0.902,0.16 -0.906,0.133 -0.93,0.133 -0.902,0.109 -0.934,0.105 -0.929,0.079 -0.93,0.082 -0.93,0.05 -0.933,0.028 -0.93,0.027 h -1.859 l -0.93,-0.027 -0.934,-0.028 -0.929,-0.05 -0.93,-0.082 -0.903,-0.079 -0.933,-0.105 -0.93,-0.109 -0.902,-0.133 -0.93,-0.133 -0.906,-0.16 -0.902,-0.184 -0.907,-0.187 -0.902,-0.188 -0.902,-0.238 -0.907,-0.211 -0.875,-0.266 -0.906,-0.242 -0.875,-0.289 -1.758,-0.586 -0.847,-0.32 -0.879,-0.344 -0.852,-0.347 -0.851,-0.344 -0.848,-0.399 -0.852,-0.375 -0.824,-0.398 -0.851,-0.426 -0.825,-0.426 -0.796,-0.449 z"
         style="fill:#1f1a17;fill-opacity:1;fill-rule:evenodd;stroke:none"
         id="path2899" /><path
         d="m 239.008,274.848 -1.543,-0.774 -1.539,-0.719 -1.571,-0.664 -1.593,-0.636 -1.621,-0.586 -1.625,-0.531 -1.621,-0.477 -1.649,-0.426 -1.676,-0.398 -1.672,-0.321 -1.675,-0.293 -1.703,-0.238 -1.7,-0.16 -1.703,-0.133 -1.699,-0.078 -1.73,-0.027 h -0.93 l -0.93,0.027 -0.933,0.024 -0.93,0.054 -0.93,0.078 -0.93,0.082 -0.906,0.106 -0.929,0.105 -0.903,0.133 -0.929,0.133 -0.907,0.16 -0.902,0.188 -0.906,0.183 -0.903,0.188 -0.902,0.238 -0.906,0.215 -0.875,0.265 -0.907,0.239 -0.875,0.293 -1.757,0.586 -0.875,0.316 -0.852,0.348 -0.851,0.343 -0.875,0.348 -0.825,0.399 -0.851,0.371 -0.852,0.398 -1.648,0.852 -0.824,0.453 -0.797,0.449 -0.825,0.48 -0.796,0.426 -0.825,0.453 -0.851,0.399 -0.824,0.426 -1.704,0.742 -0.847,0.371 -0.852,0.347 -0.879,0.344 -0.851,0.321 -0.875,0.292 -0.879,0.293 -0.875,0.266 -0.906,0.266 -0.875,0.238 -0.907,0.238 -0.902,0.215 -0.906,0.211 -1.805,0.375 -0.906,0.156 -0.93,0.133 -0.902,0.133 -0.934,0.109 -0.93,0.106 -0.902,0.078 -0.93,0.055 -0.933,0.054 -0.93,0.051 -0.929,0.027 h -1.864 l -0.929,-0.027 -0.93,-0.051 -1.86,-0.109 -0.933,-0.078 -0.93,-0.106 -0.902,-0.109 -0.93,-0.133 -0.906,-0.133 -0.902,-0.156 -0.93,-0.187 -0.906,-0.188 -0.903,-0.211 -0.879,-0.215 -0.902,-0.238 -0.906,-0.238 -0.875,-0.266 -0.879,-0.266 -0.875,-0.293 -0.879,-0.292 -0.879,-0.321 -0.848,-0.344 -0.879,-0.347 -1.703,-0.742 -0.824,-0.371 -0.847,-0.426 -0.825,-0.399 -0.824,-0.453 -0.824,-0.426 -0.801,-0.48 -0.82,-0.449 -0.824,-0.453 -1.649,-0.852 -0.824,-0.398 -0.852,-0.371 -0.851,-0.399 -0.852,-0.348 -0.851,-0.343 -0.875,-0.348 -0.879,-0.316 -0.852,-0.293 -0.902,-0.293 -0.879,-0.293 -0.875,-0.239 -0.906,-0.265 -0.875,-0.215 -0.907,-0.238 -0.902,-0.188 -0.902,-0.183 -0.907,-0.188 -0.929,-0.16 -0.903,-0.133 -0.933,-0.133 -0.903,-0.105 -0.929,-0.106 -0.93,-0.082 -0.933,-0.078 -0.903,-0.054 -0.929,-0.024 -0.934,-0.027 h -1.887 l -0.929,0.027 -0.93,0.024 -0.906,0.054 -0.93,0.078 -0.93,0.082 -0.93,0.106 -0.906,0.105 -0.929,0.133 -0.903,0.133 -0.929,0.16 -0.907,0.188 -0.902,0.183 -0.906,0.188 -0.903,0.238 -0.879,0.215 -0.902,0.265 -0.879,0.239 -0.902,0.293 -0.879,0.293 -0.848,0.293 -0.879,0.316 -0.879,0.348 -0.847,0.343 -0.852,0.348 -0.851,0.399 -0.852,0.371 -0.824,0.398 -1.649,0.852 -0.824,0.453 -0.824,0.449 -14.168,7.605 -2.18,-0.054 -2.156,-0.157 -2.125,-0.269 -2.101,-0.371 -2.047,-0.477 -2.02,-0.586 -1.996,-0.664 -1.914,-0.773 -1.887,-0.848 -1.836,-0.933 -1.781,-1.008 -1.726,-1.117 -1.676,-1.196 -1.594,-1.25 -1.543,-1.332 -1.461,-1.406 -1.41,-1.488 -1.356,-1.543 -1.25,-1.594 -1.195,-1.676 -1.09,-1.73 -1.039,-1.782 -0.929,-1.832 -0.852,-1.89 -0.77,-1.914 -0.664,-1.992 -0.586,-1.993 -0.453,-2.074 -0.371,-2.101 -0.293,-2.125 -0.16,-2.157 -0.051,-2.179 198.411,-0.028 79.171,-79.144 0.508,-0.504 0.504,-0.481 0.531,-0.453 0.532,-0.449 0.531,-0.453 0.558,-0.398 0.559,-0.426 0.586,-0.399 0.586,-0.371 0.582,-0.347 0.613,-0.372 0.586,-0.32 0.61,-0.32 0.64,-0.289 0.637,-0.293 0.613,-0.293 0.664,-0.238 0.637,-0.243 0.664,-0.238 0.641,-0.211 0.664,-0.187 0.691,-0.188 0.664,-0.156 0.664,-0.137 0.692,-0.133 1.382,-0.211 0.692,-0.054 0.691,-0.078 0.715,-0.028 0.692,-0.027 0.691,-0.024 0.719,0.024 0.691,0.027 0.719,0.028 0.691,0.078 0.692,0.054 1.382,0.211 0.665,0.133 0.691,0.137 0.664,0.156 0.664,0.188 0.691,0.187 0.637,0.211 0.668,0.238 0.637,0.243 0.637,0.238 0.64,0.293 0.637,0.293 0.609,0.289 1.227,0.64 0.609,0.372 0.586,0.347 0.586,0.371 0.555,0.399 0.586,0.426 0.558,0.398 0.532,0.453 0.531,0.449 0.531,0.453 0.508,0.481 0.504,0.504 79.172,79.144 -0.77,0.746 -0.769,0.719 -0.774,0.692 -0.797,0.664 -0.824,0.664 -0.852,0.636 -0.824,0.614 -0.875,0.586 -0.879,0.554 -0.875,0.559 -0.906,0.508 -0.902,0.504 -0.93,0.48 -0.933,0.449 -0.93,0.426 -0.957,0.426 -0.957,0.371 -0.985,0.375 -0.984,0.344 -0.98,0.293 -0.985,0.293 -1.012,0.265 -1.007,0.239 -1.039,0.238 -1.012,0.187 -1.035,0.161 -1.035,0.132 -1.04,0.133 -1.035,0.078 -1.066,0.082 -1.035,0.028 -1.063,0.023 -1.062,-0.023 -1.039,-0.028 -1.063,-0.082 -1.039,-0.078 -2.07,-0.265 -1.039,-0.161 -1.008,-0.187 -1.039,-0.238 -1.012,-0.239 -1.008,-0.265 -1.968,-0.586 -0.985,-0.344 -0.98,-0.375 -0.957,-0.371 -0.957,-0.426 -0.934,-0.426 -0.93,-0.449 -0.929,-0.48 -0.907,-0.504 -0.902,-0.508 -0.879,-0.559 -0.875,-0.554 -0.879,-0.586 -0.824,-0.614 -0.848,-0.636 -0.8,-0.664 -0.825,-0.664 -0.769,-0.692 -0.77,-0.719 -0.773,-0.746 -39.082,-39.082 z m -7.285,-90.5 -0.051,2.179 -0.16,2.153 -0.266,2.129 -0.398,2.097 -0.453,2.074 -0.586,1.997 -0.664,1.992 -0.77,1.914 -0.852,1.887 -0.929,1.835 -1.039,1.782 -1.09,1.726 -1.195,1.676 -1.25,1.598 -1.329,1.539 -1.41,1.492 -1.488,1.406 -1.543,1.332 -1.594,1.246 -1.676,1.2 -1.726,1.117 -1.781,1.008 -1.836,0.929 -1.887,0.852 -1.914,0.773 -1.996,0.664 -2.02,0.582 -2.047,0.481 -2.101,0.371 -2.125,0.266 -2.152,0.16 -2.184,0.054 -2.203,-0.054 -2.156,-0.16 -2.125,-0.266 -2.102,-0.371 -2.047,-0.481 -2.019,-0.582 -1.969,-0.664 -1.942,-0.773 -1.886,-0.852 -1.836,-0.929 -1.754,-1.008 -1.727,-1.117 -1.675,-1.2 -1.594,-1.246 -1.543,-1.332 -1.488,-1.406 -1.411,-1.492 -1.328,-1.539 -1.277,-1.598 -1.168,-1.676 -1.117,-1.726 -1.012,-1.782 -0.957,-1.835 -0.852,-1.887 -0.742,-1.914 -0.691,-1.992 -0.559,-1.997 -0.48,-2.074 -0.371,-2.097 -0.266,-2.129 -0.16,-2.153 -0.051,-2.179 0.051,-2.18 0.16,-2.18 0.266,-2.129 0.371,-2.074 0.48,-2.07 0.559,-2.024 0.691,-1.964 0.742,-1.942 0.852,-1.863 0.957,-1.832 1.012,-1.781 1.117,-1.731 1.168,-1.672 1.277,-1.597 1.328,-1.543 1.411,-1.489 1.488,-1.406 1.543,-1.332 1.594,-1.273 1.675,-1.172 1.727,-1.117 1.754,-1.008 1.836,-0.957 1.886,-0.852 1.942,-0.746 1.969,-0.664 2.019,-0.586 2.047,-0.476 2.102,-0.372 2.125,-0.265 2.156,-0.16 2.203,-0.055 2.184,0.055 2.152,0.16 2.125,0.265 2.101,0.372 2.047,0.476 2.02,0.586 1.996,0.664 1.914,0.746 1.887,0.852 1.836,0.957 1.781,1.008 1.726,1.117 1.676,1.172 1.594,1.273 1.543,1.332 1.488,1.406 1.41,1.489 1.329,1.543 1.25,1.597 1.195,1.672 1.09,1.731 1.039,1.781 0.929,1.832 0.852,1.863 0.77,1.942 0.664,1.964 0.586,2.024 0.453,2.07 0.398,2.074 0.266,2.129 0.16,2.18 z"
         style="fill:#1f1a17;fill-opacity:1;fill-rule:evenodd;stroke:none"
         id="path2901" /><path
         d="m 212.688,14.277 198.41,85.047 v 56.684 L 212.688,70.957 14.277,156.008 V 99.324 Z"
         style="fill:#1f1a17;fill-opacity:1;fill-rule:evenodd;stroke:none"
         id="path2903" /></g></g></svg>
