<?xml version="1.0" encoding="UTF-8" standalone="no"?>
<svg xmlns="http://www.w3.org/2000/svg" xmlns:svg="http://www.w3.org/2000/svg" xml:space="preserve" version="1.1"
   width="301" height="229" viewBox="0 0 301 229">
	<defs />
	<rect x="-100" y="-100" width="1000" height="1000" style="stroke:none; fill:#ffffff;" />
	<g transform="matrix(1.23,0,0,-1.23,-145,410)">
		<path style="fill:#000000;fill-opacity:1;fill-rule:nonzero;stroke:none" d="m 168.855,331.981 c -5.695,0 -10.843,-3.371 -13.121,-8.594 l -22.64,-52.02 c -1.598,-3.683 -3.625,-7.144 -6.039,-10.355 l -3.426,-4.582 c -2.227,-2.969 -3.426,-6.59 -3.426,-10.297 v -37.199 c 0,-7.91 6.399,-14.313 14.313,-14.313 h 211.769 c 7.903,0 14.313,6.403 14.313,14.313 v 37.199 c 0,3.707 -1.196,7.328 -3.426,10.297 l -3.445,4.582 c -2.399,3.211 -4.411,6.672 -6.02,10.355 l -22.641,52.02 c -2.265,5.223 -7.425,8.594 -13.117,8.594 z m 3.461,-14.313 h 136.168 c 2.278,0 4.352,-1.328 5.262,-3.426 L 333.395,269.02 H 147.387 l 19.668,45.222 c 0.922,2.098 2.984,3.426 5.261,3.426 z m -20.632,-62.961 c 9.488,0 17.171,-7.683 17.171,-17.168 0,-9.488 -7.683,-17.152 -17.171,-17.152 -9.485,0 -17.168,7.664 -17.168,17.152 0,9.485 7.683,17.168 17.168,17.168 z m 177.433,0 c 9.5,0 17.168,-7.683 17.168,-17.168 0,-9.488 -7.668,-17.152 -17.168,-17.152 -9.472,0 -17.168,7.664 -17.168,17.152 0,9.485 7.696,17.168 17.168,17.168 z m -194.601,-65.82 v -31.481 c 0,-4.75 3.836,-8.574 8.574,-8.574 h 17.168 c 4.75,0 8.597,3.824 8.597,8.574 v 31.481 z m 177.433,0 v -31.481 c 0,-4.75 3.844,-8.574 8.594,-8.574 h 17.168 c 4.75,0 8.574,3.824 8.574,8.574 v 31.481 z" />
	</g>
</svg>
