<?xml version="1.0" encoding="UTF-8"?>
<svg id="Ebene_1" xmlns="http://www.w3.org/2000/svg" xmlns:svg="http://www.w3.org/2000/svg" xmlns:rdf="http://www.w3.org/1999/02/22-rdf-syntax-ns#" xmlns:dc="http://purl.org/dc/elements/1.1/" xmlns:cc="http://creativecommons.org/ns#" version="1.1" viewBox="0 0 601 601">
  <!-- Generator: Adobe Illustrator 29.7.1, SVG Export Plug-In . SVG Version: 2.1.1 Build 8)  -->
  <circle cx="300.8" cy="300.3" r="300.3" fill="#fff"/>
  <g id="g5448">
    <g id="g5450">
      <path id="path5454" d="M300.5,0C134.5,0,0,134.5,0,300.5s134.5,300.5,300.5,300.5,300.5-134.5,300.5-300.5S466.5,0,300.5,0ZM300.5.5c165.7,0,300,134.3,300,300s-134.3,300-300,300S.5,466.2.5,300.5,134.8.5,300.5.5h0Z"/>
      <path id="path5456" d="M300.5,10.5C140.8,10.5,10.5,140.8,10.5,300.5s130.3,290,290,290,290-130.3,290-290S460.2,10.5,300.5,10.5h0ZM300.5,90.9c116.2,0,209.6,93.4,209.6,209.6s-93.4,209.6-209.6,209.6-209.6-93.4-209.6-209.6,93.4-209.6,209.6-209.6h0Z" fill="#c1121c"/>
      <path id="path5458" d="M29.8,30.4h0Z"/>
      <path id="path5460" d="M29.8,30.4h0Z"/>
      <path id="path5462" d="M29.8,30.4h0ZM29.8,30.4h0Z"/>
      <path id="path5464" d="M29.8,30.4h0Z"/>
      <path id="path5466" d="M29.8,30.4h0Z"/>
      <path id="path5468" d="M29.8,30.4h0Z"/>
      <path id="path5470" d="M29.8,30.4h0Z"/>
      <path id="path5472" d="M29.8,30.4h0Z"/>
      <path id="path5474" d="M29.8,30.4h0ZM29.8,30.4h0Z"/>
      <path id="path5476" d="M29.8,30.4h0Z"/>
      <path id="path5478" d="M29.8,30.4h0Z"/>
      <path id="path5480" d="M29.8,30.4h0Z"/>
      <path id="path5482" d="M29.8,30.4h0Z"/>
      <path id="path5484" d="M29.8,30.4h0Z"/>
      <path id="path5486" d="M29.8,30.4h0ZM29.8,30.4h0Z"/>
      <path id="path5488" d="M29.8,30.4h0Z"/>
      <path id="path5490" d="M29.8,30.4h0Z"/>
      <path id="path5492" d="M29.8,30.4h0Z"/>
      <path id="path5494" d="M29.8,30.4h0Z"/>
      <path id="path5496" d="M29.8,30.4h0Z"/>
      <path id="path5498" d="M29.8,30.4h0ZM29.8,30.4h0Z"/>
      <path id="path5500" d="M29.8,30.4h0Z"/>
      <path id="path5502" d="M29.8,30.4h0Z"/>
      <path id="path5504" d="M29.8,30.4h0Z"/>
    </g>
  </g>
  <path d="M215.4,383.1c0-19.4-15.7-35.1-35.1-35.1s-35.1,15.7-35.1,35.1,15.7,35.1,35.1,35.1,35.1-15.7,35.1-35.1h0ZM201.4,383.1c0-11.6-9.4-21-21-21s-21,9.4-21,21,9.4,21,21,21,21-9.4,21-21h0Z" fill="#1a1a18" fill-rule="evenodd"/>
  <path d="M453.2,383.1c0-19.4-15.7-35.1-35.1-35.1s-35.1,15.7-35.1,35.1,15.7,35.1,35.1,35.1,35.1-15.7,35.1-35.1h0ZM439.2,383.1c0-11.6-9.4-21-21-21s-21,9.4-21,21,9.4,21,21,21,21-9.4,21-21h0Z" fill="#1a1a18" fill-rule="evenodd"/>
  <path d="M213.6,193.6l-16.9,120.1,45.4,58.1h58.5c9.7-17.1,27.8-27.6,47.4-27.6h0c4.7,0,9-2.3,11.6-6.1l15.6-22.1c-2-2.5-3.1-5.6-3.1-8.8s.9-5.7,2.6-8.1l9.8-13.8,3.9,2.8,8-11.4c.5-.6,1.2-1,2-1,1.3,0,2.4,1.1,2.4,2.4s-.2,1-.4,1.4l-8.1,11.3,7.5,5.3,8-11.5c.5-.6,1.2-1,2-1,1.3,0,2.4,1.1,2.4,2.4s-.2,1-.4,1.4l-8.1,11.4,3.9,2.8-9.8,13.7c-2.6,3.7-6.9,5.9-11.4,5.9s-3.2-.3-4.7-.8l-15.6,21.9c-4,5.9-10.7,9.5-17.9,9.5-15.3,0-29.6,7.4-38.4,20h59.3l-3.5,4.9h52.9c3.6,0,6.5,2.9,6.5,6.5s-2.9,6.5-6.5,6.5h-61.9l-4.5,6.5h-110.7l-10.3-10.4v-7.4l-36.5-46.7-7.4,52.5c-.4,3.2-3.2,5.6-6.4,5.6s-6.5-2.9-6.5-6.5,0-.5,0-.9l26.6-188.6h-27.9c-3.6,0-6.5-2.9-6.5-6.5s2.9-6.5,6.5-6.5h73.3c3.6,0,6.5,2.9,6.5,6.5s-2.9,6.5-6.5,6.5h-32.4l-.3-.2h0Z" fill-rule="evenodd"/>
</svg>