<?xml version="1.0" encoding="UTF-8" standalone="no"?>
<!-- Created with Inkscape (http://www.inkscape.org/) -->

<svg
   version="1.1"
   id="svg1"
   width="2269.3333"
   height="3404"
   viewBox="0 0 2269.3333 3404"
   sodipodi:docname="442-25.eps"
   xmlns:inkscape="http://www.inkscape.org/namespaces/inkscape"
   xmlns:sodipodi="http://sodipodi.sourceforge.net/DTD/sodipodi-0.dtd"
   xmlns="http://www.w3.org/2000/svg"
   xmlns:svg="http://www.w3.org/2000/svg">
  <defs
     id="defs1" />
  <sodipodi:namedview
     id="namedview1"
     pagecolor="#ffffff"
     bordercolor="#000000"
     borderopacity="0.25"
     inkscape:showpageshadow="2"
     inkscape:pageopacity="0.0"
     inkscape:pagecheckerboard="0"
     inkscape:deskcolor="#d1d1d1">
    <inkscape:page
       x="0"
       y="0"
       inkscape:label="1"
       id="page1"
       width="2269.3333"
       height="3404"
       margin="0"
       bleed="0" />
  </sodipodi:namedview>
  <g
     id="g1"
     inkscape:groupmode="layer"
     inkscape:label="1">
    <path
       id="path1"
       d="M 1143.85,10 C 517.641,10 10,517.641 10,1143.85 V 24387.8 c 0,626.2 507.641,1133.9 1133.85,1133.9 H 15883.9 c 626.2,0 1133.9,-507.7 1133.9,-1133.9 V 1143.85 C 17017.8,517.641 16510.1,10 15883.9,10 H 1143.85"
       style="fill:#f0ca00;fill-opacity:1;fill-rule:nonzero;stroke:#000000;stroke-width:1;stroke-linecap:butt;stroke-linejoin:miter;stroke-miterlimit:4;stroke-dasharray:none;stroke-opacity:1"
       transform="matrix(0.13333333,0,0,-0.13333333,0,3404)" />
    <path
       id="path2"
       d="m 1143.85,293.461 c -469.659,0 -850.389,380.73 -850.389,850.389 V 24387.8 c 0,469.7 380.73,850.4 850.389,850.4 H 15883.9 c 469.7,0 850.4,-380.7 850.4,-850.4 V 1143.85 c 0,-469.659 -380.7,-850.389 -850.4,-850.389 H 1143.85"
       style="fill:#000000;fill-opacity:1;fill-rule:nonzero;stroke:none"
       transform="matrix(0.13333333,0,0,-0.13333333,0,3404)" />
    <path
       id="path3"
       d="m 1143.85,718.66 c -234.83,0 -425.19,190.36 -425.19,425.19 V 24387.8 c 0,234.8 190.36,425.2 425.19,425.2 H 15883.9 c 234.8,0 425.2,-190.4 425.2,-425.2 V 1143.85 c 0,-234.83 -190.4,-425.19 -425.2,-425.19 H 1143.85"
       style="fill:#f0ca00;fill-opacity:1;fill-rule:nonzero;stroke:none"
       transform="matrix(0.13333333,0,0,-0.13333333,0,3404)" />
    <path
       id="path4"
       d="m 5140.68,13899.7 c -109.59,0 -198.43,88.8 -198.43,198.4 v 1984.2 c 0,109.6 88.84,198.5 198.43,198.5 h 595.27 c 109.58,0 198.42,-88.9 198.42,-198.5 v -1984.2 c 0,-109.6 -88.84,-198.4 -198.42,-198.4 z m 1190.54,0 c -109.59,0 -198.42,88.8 -198.42,198.4 v 1984.2 c 0,109.6 88.83,198.5 198.42,198.5 h 595.27 c 109.59,0 198.43,-88.9 198.43,-198.5 v -545.6 c 0,-109.6 88.83,-198.4 198.42,-198.4 h 377 c 101.9,0 199.9,39.1 273.69,109.4 l 129.32,123.2 c 110.68,105.4 257.68,164.2 410.53,164.2 152.85,0 299.85,-58.8 410.53,-164.2 l 129.32,-123.2 c 73.79,-70.3 171.79,-109.4 273.69,-109.4 h 377 c 109.59,0 198.43,88.8 198.43,198.4 v 545.6 c 0,109.6 88.84,198.5 198.45,198.5 h 595.2 c 109.6,0 198.5,-88.9 198.5,-198.5 v -1984.2 c 0,-109.6 -88.9,-198.4 -198.5,-198.4 h -595.2 c -109.61,0 -198.45,88.8 -198.45,198.4 v 545.7 c 0,109.6 -88.84,198.4 -198.43,198.4 h -377 c -101.9,0 -199.9,-39.2 -273.69,-109.5 l -129.32,-123.1 c -110.68,-105.5 -257.68,-164.3 -410.53,-164.3 -152.85,0 -299.85,58.8 -410.53,164.3 l -129.32,123.1 c -73.79,70.3 -171.79,109.5 -273.69,109.5 h -377 c -109.59,0 -198.42,-88.8 -198.42,-198.4 v -545.7 c 0,-109.6 -88.84,-198.4 -198.43,-198.4 z m 4960.58,0 c -109.6,0 -198.4,88.8 -198.4,198.4 v 1984.2 c 0,109.6 88.8,198.5 198.4,198.5 h 595.3 c 109.6,0 198.4,-88.9 198.4,-198.5 v -1984.2 c 0,-109.6 -88.8,-198.4 -198.4,-198.4 z m -6746.4,2579.5 v 396.8 h 7937 v -396.8 z m 396.85,595.3 V 22928 c 0,383.5 310.93,694.4 694.49,694.4 H 11391 c 383.6,0 694.5,-310.9 694.5,-694.4 V 17074.5 H 4942.25"
       style="fill:#000000;fill-opacity:1;fill-rule:nonzero;stroke:none"
       transform="matrix(0.13333333,0,0,-0.13333333,0,3404)" />
    <path
       id="path5"
       d="m 5934.37,17868.1 v 4960.7 H 11093.4 V 17868.1 H 5934.37"
       style="fill:#ed7d20;fill-opacity:1;fill-rule:nonzero;stroke:none"
       transform="matrix(0.13333333,0,0,-0.13333333,0,3404)" />
    <path
       id="path6"
       d="m 6246.13,4449.78 c 139.68,-30.65 282.25,-46.11 425.25,-46.11 1095.86,0 1984.23,888.38 1984.23,1984.24 0,1095.87 -888.37,1984.24 -1984.23,1984.24 -1095.87,0 -1984.24,-888.37 -1984.24,-1984.24 0,-231.46 40.49,-461.14 119.66,-678.65 l -799.1,-290.85 c -113.1,310.73 -170.95,638.84 -170.95,969.5 0,1565.52 1269.1,2834.63 2834.63,2834.63 1402.67,0 2594.42,-1025.88 2803.08,-2412.95 l 2228.34,3.52 -1488.1,1488.18 h 1063 L 13191,6387.91 11277.7,4474.54 h -1063 l 1488.1,1488.18 -2228.34,3.52 C 9289.37,4735.8 8323.49,3769.92 7093.05,3584.82 l 3.52,-1732.31 h -850.39"
       style="fill:#000000;fill-opacity:1;fill-rule:nonzero;stroke:none"
       transform="matrix(0.13333333,0,0,-0.13333333,0,3404)" />
  </g>
</svg>
