<?xml version="1.0" encoding="UTF-8" standalone="no"?>
<!-- Created with Inkscape (http://www.inkscape.org/) -->

<svg
   version="1.1"
   id="svg1"
   width="7561.3335"
   height="6049.3335"
   viewBox="0 0 7561.3335 6049.3335"
   sodipodi:docname="533-29.eps"
   xmlns:inkscape="http://www.inkscape.org/namespaces/inkscape"
   xmlns:sodipodi="http://sodipodi.sourceforge.net/DTD/sodipodi-0.dtd"
   xmlns="http://www.w3.org/2000/svg"
   xmlns:svg="http://www.w3.org/2000/svg">
  <defs
     id="defs1" />
  <sodipodi:namedview
     id="namedview1"
     pagecolor="#ffffff"
     bordercolor="#000000"
     borderopacity="0.25"
     inkscape:showpageshadow="2"
     inkscape:pageopacity="0.0"
     inkscape:pagecheckerboard="0"
     inkscape:deskcolor="#d1d1d1">
    <inkscape:page
       x="0"
       y="0"
       inkscape:label="1"
       id="page1"
       width="7561.3335"
       height="6049.3335"
       margin="0"
       bleed="0" />
  </sodipodi:namedview>
  <g
     id="g1"
     inkscape:groupmode="layer"
     inkscape:label="1">
    <path
       id="path1"
       d="M 1710.78,10 C 771.461,10 10,771.461 10,1710.78 V 43663.3 c 0,939.3 761.461,1700.7 1700.78,1700.7 H 55001.8 c 939.3,0 1700.8,-761.4 1700.8,-1700.7 V 1710.78 C 56702.6,771.461 55941.1,10 55001.8,10 H 1710.78"
       style="fill:#ffffff;fill-opacity:1;fill-rule:nonzero;stroke:#000000;stroke-width:1;stroke-linecap:butt;stroke-linejoin:miter;stroke-miterlimit:4;stroke-dasharray:none;stroke-opacity:1"
       transform="matrix(0.13333333,0,0,-0.13333333,0,6049.3333)" />
    <path
       id="path2"
       d="m 1710.78,435.191 c -704.49,0 -1275.589,571.099 -1275.589,1275.589 V 43663.3 c 0,704.4 571.029,1275.5 1275.479,1275.5 H 55001.8 c 704.5,0 1275.6,-571 1275.6,-1275.5 V 1710.78 c 0,-704.49 -571.1,-1275.589 -1275.6,-1275.589 H 1710.78"
       style="fill:#000000;fill-opacity:1;fill-rule:nonzero;stroke:none"
       transform="matrix(0.13333333,0,0,-0.13333333,0,6049.3333)" />
    <path
       id="path3"
       d="m 1710.78,1002.12 c -391.38,0 -708.66,317.28 -708.66,708.66 V 43663.3 c 0,391.3 317.28,708.6 708.66,708.6 H 55001.8 c 391.4,0 708.6,-317.3 708.6,-708.6 V 1710.84 c 0,-0.02 0,-0.04 0,-0.06 0,-391.38 -317.2,-708.66 -708.6,-708.66 H 1710.77"
       style="fill:#ffffff;fill-opacity:1;fill-rule:nonzero;stroke:none"
       transform="matrix(0.13333333,0,0,-0.13333333,0,6049.3333)" />
    <path
       id="path4"
       d="M 7491.72,37058.6 V 4403.67 H 5790.94 V 37058.6 l -1275.28,-329.4 c -27.79,-7.1 -56.36,-10.8 -85.06,-10.8 -187.86,0 -340.15,152.3 -340.15,340.2 0,67.4 20.01,133.2 57.5,189.2 l 2493.38,3722.6 2493.94,-3722.6 c 37.49,-56 57.51,-121.8 57.51,-189.2 0,-187.9 -152.3,-340.2 -340.16,-340.2 -28.68,0 -57.25,3.7 -85.02,10.8 l -1275.88,329.4"
       style="fill:#000000;fill-opacity:1;fill-rule:nonzero;stroke:none"
       transform="matrix(0.13333333,0,0,-0.13333333,0,6049.3333)" />
    <path
       id="path5"
       d="M 13444.4,37058.6 V 4403.67 H 11743.7 V 37058.6 l -1275.3,-329.4 c -27.8,-7.1 -56.4,-10.8 -85.1,-10.8 -187.8,0 -340.1,152.3 -340.1,340.2 0,67.4 20,133.2 57.5,189.2 l 2493.4,3722.6 2493.9,-3722.6 c 37.5,-56 57.5,-121.8 57.5,-189.2 0,-187.9 -152.3,-340.2 -340.2,-340.2 -28.6,0 -57.2,3.7 -85,10.8 l -1275.9,329.4"
       style="fill:#000000;fill-opacity:1;fill-rule:nonzero;stroke:none"
       transform="matrix(0.13333333,0,0,-0.13333333,0,6049.3333)" />
    <path
       id="path6"
       d="M 19397.2,37058.6 V 4403.67 H 17696.4 V 37058.6 l -1275.3,-329.4 c -27.8,-7.1 -56.4,-10.8 -85.1,-10.8 -187.8,0 -340.1,152.3 -340.1,340.2 0,67.4 20,133.2 57.5,189.2 l 2493.4,3722.6 2493.9,-3722.6 c 37.5,-56 57.5,-121.8 57.5,-189.2 0,-187.9 -152.3,-340.2 -340.1,-340.2 -28.7,0 -57.3,3.7 -85.1,10.8 l -1275.8,329.4"
       style="fill:#000000;fill-opacity:1;fill-rule:nonzero;stroke:none"
       transform="matrix(0.13333333,0,0,-0.13333333,0,6049.3333)" />
    <path
       id="path7"
       d="M 25349.9,37058.6 V 4403.67 H 23649.1 V 37058.6 l -1275.3,-329.4 c -27.8,-7.1 -56.4,-10.8 -85,-10.8 -187.9,0 -340.2,152.3 -340.2,340.2 0,67.4 20,133.2 57.5,189.2 l 2493.4,3722.6 2493.9,-3722.6 c 37.5,-56 57.5,-121.8 57.5,-189.2 0,-187.9 -152.3,-340.2 -340.1,-340.2 -28.7,0 -57.3,3.7 -85,10.8 l -1275.9,329.4"
       style="fill:#000000;fill-opacity:1;fill-rule:nonzero;stroke:none"
       transform="matrix(0.13333333,0,0,-0.13333333,0,6049.3333)" />
    <path
       id="path8"
       d="M 31302.6,37058.6 V 4403.67 H 29601.8 V 37058.6 l -1275.3,-329.4 c -27.7,-7.1 -56.3,-10.8 -85,-10.8 -187.9,0 -340.2,152.3 -340.2,340.2 0,67.4 20,133.2 57.5,189.2 l 2493.4,3722.6 2493.9,-3722.6 c 37.5,-56 57.5,-121.8 57.5,-189.2 0,-187.9 -152.2,-340.2 -340.1,-340.2 -28.7,0 -57.3,3.7 -85.1,10.8 l -1275.8,329.4"
       style="fill:#000000;fill-opacity:1;fill-rule:nonzero;stroke:none"
       transform="matrix(0.13333333,0,0,-0.13333333,0,6049.3333)" />
    <path
       id="path9"
       d="M 37255.3,23752.8 V 4403.67 H 35554.5 V 23752.8 c 0,902.2 358.4,1767.4 996.3,2405.3 l 4285.5,4285.4 -1134.3,668.4 c -103.7,61.2 -167.4,172.6 -167.4,293 0,162.4 114.8,302.2 274.2,333.7 l 4394.9,869.6 -868.6,-4395.9 c -31.6,-159.3 -171.3,-274.1 -333.7,-274.1 -120.4,0 -231.9,63.6 -293,167.4 l -669.5,1135.3 -4285.5,-4285.4 c -318.9,-319 -498.1,-751.6 -498.1,-1202.7"
       style="fill:#000000;fill-opacity:1;fill-rule:nonzero;stroke:none"
       transform="matrix(0.13333333,0,0,-0.13333333,0,6049.3333)" />
    <path
       id="path10"
       d="m 43208.2,21288.1 -0.2,-0.5 V 4403.67 H 41507.3 V 21288.1 c 0,902.2 358.3,1767.4 996.2,2405.3 l 2542.1,2541.5 -1134.2,669 c -103.7,61.2 -167.3,172.6 -167.3,293 0,162.4 114.8,302.2 274.1,333.7 l 4394.8,869 -868.5,-4395.3 c -31.5,-159.3 -171.3,-274.1 -333.7,-274.1 -120.4,0 -231.9,63.6 -293,167.4 l -669.5,1134.7 -2542.1,-2541.5 c -319,-319 -498.2,-751.6 -498.2,-1202.7"
       style="fill:#000000;fill-opacity:1;fill-rule:nonzero;stroke:none"
       transform="matrix(0.13333333,0,0,-0.13333333,0,6049.3333)" />
    <path
       id="path11"
       d="m 48456.5,21227.3 -0.2,-0.2 798.5,798.6 -1135.4,668.8 c -103.7,61.2 -167.3,172.6 -167.3,293 0,162.4 114.8,302.2 274.1,333.7 l 4396,869.2 -868.3,-4395.5 c -31.5,-159.3 -171.3,-274.2 -333.7,-274.2 -120.4,0 -231.8,63.7 -293,167.4 l -669.7,1135 -798.6,-798.5 c -319,-318.9 -498.1,-751.5 -498.1,-1202.6 V 4403.67 H 47460 V 18822 c 0,902.2 358.4,1767.4 996.3,2405.3"
       style="fill:#000000;fill-opacity:1;fill-rule:nonzero;stroke:none"
       transform="matrix(0.13333333,0,0,-0.13333333,0,6049.3333)" />
  </g>
</svg>
