<?xml version="1.0" encoding="UTF-8" standalone="no"?>
<!-- Created with Inkscape (http://www.inkscape.org/) -->

<svg
   version="1.1"
   id="svg824"
   xml:space="preserve"
   width="600.9726"
   height="901.45892"
   viewBox="0 0 600.9726 901.45892"
   xmlns="http://www.w3.org/2000/svg"
   xmlns:svg="http://www.w3.org/2000/svg"><defs
     id="defs828"><clipPath
       clipPathUnits="userSpaceOnUse"
       id="clipPath3787"><path
         d="M 0,1 536,1 536,805 0,805 0,1 Z"
         id="path3789" /></clipPath></defs><g
     id="g3781"
     transform="matrix(-1.1207014,0,0,-1.1207014,600.455,901.76679)"><g
       id="g3783"><g
         id="g3785"
         clip-path="url(#clipPath3787)"><g
           id="g3791"><path
             d="m 35.75,804.645 c -19.488,0 -35.344,-15.852 -35.344,-35.34 V 36.523 C 0.406,17.035 16.262,1.184 35.75,1.184 h 464.691 c 19.489,0 35.344,15.851 35.344,35.339 v 732.782 c 0,19.488 -15.855,35.34 -35.344,35.34"
             style="fill:#f0c900;fill-opacity:1;fill-rule:nonzero;stroke:none"
             id="path3793" /></g></g></g></g><path
     d="m 39.610071,9.5620038 c -16.596467,0 -30.0482465,13.4517792 -30.0482465,30.0437632 V 860.83447 c 0,16.59198 13.4517795,30.02695 30.0482465,30.02695 H 560.38993 c 16.59647,0 30.03144,-13.43497 30.03144,-30.02695 V 39.605767 c 0,-16.591984 -13.43497,-30.0437632 -30.03144,-30.0437632 z m 0,15.0241232 H 560.38993 c 8.28759,0 15.02524,6.733174 15.02524,15.01964 V 860.83447 c 0,8.28759 -6.73765,15.02524 -15.02524,15.02524 H 39.610071 c -8.304398,0 -15.024123,-6.73765 -15.024123,-15.02524 V 39.605767 c 0,-8.286466 6.719725,-15.01964 15.024123,-15.01964 z"
     style="fill:#000000;fill-opacity:1;fill-rule:nonzero;stroke:none;stroke-width:0.896561"
     id="path3795" /><path
     d="m 237.40882,149.76735 h 26.60882 v 114.22862 c 0,19.89693 16.11792,35.99356 35.99356,35.99356 19.87004,0 35.98909,-16.09663 35.98909,-35.99356 V 149.76735 h 26.59088 v 114.22862 c 0,34.57924 -28.02202,62.60126 -62.57997,62.60126 -34.58036,0 -62.60238,-28.02202 -62.60238,-62.60126"
     style="fill:#000000;fill-opacity:1;fill-rule:nonzero;stroke:none;stroke-width:0.896561"
     id="path3797" /><g
     id="g2280"
     transform="translate(0.49199782)"><path
       d="m 224.82267,579.02667 -90.38,91.01467 90.38,90.40133 h 47.84399 l -68.27066,-70.708 h 84.09333 V 649.74 H 204.396 l 68.27066,-70.71333 z"
       style="fill:#000000;fill-opacity:1;fill-rule:nonzero;stroke:none;stroke-width:1.33333"
       id="path842" /><path
       d="m 363.96933,569.77601 c -55.56267,0 -100.6,45.04133 -100.6,100.59866 0.0373,17.42267 4.59467,34.532 13.22933,49.656 l 34.62,-20.18133 c -5.052,-9.00534 -7.724,-19.14667 -7.74933,-29.47467 0,-33.41067 27.088,-60.5 60.5,-60.5 33.416,0 60.5,27.08933 60.5,60.5 0,33.41733 -27.084,60.5 -60.5,60.5 h -20 v 108.61466 h 40 V 768.984 c 45.97866,-9.276 80.604,-49.896 80.604,-98.60933 0,-55.56267 -45.04267,-100.604 -100.604,-100.59866 z"
       style="fill:#000000;fill-opacity:1;fill-rule:nonzero;stroke:none;stroke-width:1.33333"
       id="path844" /></g></svg>
