<?xml version="1.0" encoding="UTF-8" standalone="no"?>
<!-- Created with Inkscape (http://www.inkscape.org/) -->

<svg
   version="1.1"
   id="svg1"
   width="4726.6665"
   height="6049.3335"
   viewBox="0 0 4726.6665 6049.3335"
   sodipodi:docname="514-23.eps"
   xmlns:inkscape="http://www.inkscape.org/namespaces/inkscape"
   xmlns:sodipodi="http://sodipodi.sourceforge.net/DTD/sodipodi-0.dtd"
   xmlns="http://www.w3.org/2000/svg"
   xmlns:svg="http://www.w3.org/2000/svg">
  <defs
     id="defs1" />
  <sodipodi:namedview
     id="namedview1"
     pagecolor="#ffffff"
     bordercolor="#000000"
     borderopacity="0.25"
     inkscape:showpageshadow="2"
     inkscape:pageopacity="0.0"
     inkscape:pagecheckerboard="0"
     inkscape:deskcolor="#d1d1d1">
    <inkscape:page
       x="0"
       y="0"
       inkscape:label="1"
       id="page1"
       width="4726.6665"
       height="6049.3335"
       margin="0"
       bleed="0" />
  </sodipodi:namedview>
  <g
     id="g1"
     inkscape:groupmode="layer"
     inkscape:label="1">
    <path
       id="path1"
       d="M 33742.1,10 H 1710.78 C 771.461,10 10,771.461 10,1710.78 V 43663.3 c 0,939.3 761.461,1700.7 1700.78,1700.7 H 33742.1 c 939.3,0 1700.7,-761.4 1700.7,-1700.7 V 1710.78 C 35442.8,771.461 34681.4,10 33742.1,10"
       style="fill:#ffffff;fill-opacity:1;fill-rule:nonzero;stroke:#000000;stroke-width:1;stroke-linecap:butt;stroke-linejoin:miter;stroke-miterlimit:4;stroke-dasharray:none;stroke-opacity:1"
       transform="matrix(0.13333333,0,0,-0.13333333,0,6049.3333)" />
    <path
       id="path2"
       d="M 33742.1,435.191 H 1710.78 c -704.49,0 -1275.589,571.099 -1275.589,1275.589 V 43663.3 c 0,704.5 571.099,1275.5 1275.589,1275.5 H 33742.1 c 704.5,0 1275.5,-571 1275.5,-1275.5 V 1710.78 c 0,-704.49 -571,-1275.589 -1275.5,-1275.589 z m 0,566.929 c 391.3,0 708.6,317.28 708.6,708.66 V 43663.3 c 0,391.3 -317.3,708.6 -708.6,708.6 H 1710.78 c -391.38,0 -708.66,-317.3 -708.66,-708.6 V 1710.78 c 0,-391.38 317.28,-708.66 708.66,-708.66 H 33742.1"
       style="fill:#000000;fill-opacity:1;fill-rule:nonzero;stroke:none"
       transform="matrix(0.13333333,0,0,-0.13333333,0,6049.3333)" />
    <path
       id="path3"
       d="m 10852.4,37568.8 v -3401.5 c 0,-1669.5 453.7,-3307.7 1312.6,-4739.3 l 675.9,-1126.7 c 1017.4,-1696 1554.8,-3636.5 1554.8,-5614.3 0,-1977.7 -537.4,-3918.3 -1554.8,-5614.2 L 12165,15946.1 c -858.9,-1431.7 -1312.6,-3069.8 -1312.6,-4739.3 V 8315.46 l 1275.7,329.36 c 27.7,7.17 56.3,10.79 85,10.79 187.8,0 340.1,-152.29 340.1,-340.15 0,-67.39 -20,-133.26 -57.5,-189.25 L 10002.1,4403.67 7508.41,8126.21 c -37.5,55.99 -57.51,121.86 -57.51,189.25 0,187.86 152.29,340.15 340.15,340.15 28.69,0 57.25,-3.62 85.03,-10.79 l 1275.59,-329.36 v 2891.34 c 0,1977.7 537.44,3918.3 1554.83,5614.2 l 675.9,1126.7 c 858.9,1431.7 1312.6,3069.8 1312.6,4739.3 0,1669.5 -453.7,3307.7 -1312.6,4739.3 l -675.9,1126.7 c -1017.39,1696 -1554.83,3636.5 -1554.83,5614.3 v 3401.5 h 1700.73"
       style="fill:#000000;fill-opacity:1;fill-rule:nonzero;stroke:none"
       transform="matrix(0.13333333,0,0,-0.13333333,0,6049.3333)" />
    <path
       id="path4"
       d="m 17655.6,37568.8 v -3401.5 c 0,-1669.5 453.6,-3307.7 1312.5,-4739.3 l 675.9,-1126.7 c 1017.4,-1696 1554.8,-3636.5 1554.8,-5614.3 0,-1977.7 -537.4,-3918.3 -1554.8,-5614.2 l -675.9,-1126.7 c -858.9,-1431.7 -1312.5,-3069.8 -1312.5,-4739.3 V 8315.46 l 1275.6,329.36 c 27.7,7.17 56.3,10.79 85,10.79 187.8,0 340.1,-152.29 340.1,-340.15 0,-67.39 -20,-133.26 -57.5,-189.25 L 16805.2,4403.67 14311.5,8126.21 c -37.5,55.99 -57.5,121.86 -57.5,189.25 0,187.86 152.3,340.15 340.2,340.15 28.6,0 57.2,-3.62 85,-10.79 l 1275.6,-329.36 v 2891.34 c 0,1977.7 537.4,3918.3 1554.8,5614.2 l 675.9,1126.7 c 858.9,1431.7 1312.6,3069.8 1312.6,4739.3 0,1669.5 -453.7,3307.7 -1312.6,4739.3 l -675.9,1126.7 c -1017.4,1696 -1554.8,3636.5 -1554.8,5614.3 v 3401.5 h 1700.8"
       style="fill:#000000;fill-opacity:1;fill-rule:nonzero;stroke:none"
       transform="matrix(0.13333333,0,0,-0.13333333,0,6049.3333)" />
    <path
       id="path5"
       d="m 24458.7,7805.23 h -1700.8 v 3401.57 c 0,1977.7 537.4,3918.3 1554.8,5614.2 l 675.9,1126.7 c 858.9,1431.7 1312.6,3069.8 1312.6,4739.3 0,1669.5 -453.7,3307.7 -1312.6,4739.3 l -675.9,1126.7 c -1017.4,1696 -1554.8,3636.5 -1554.8,5614.3 v 2891.3 l -1275.6,-329.4 c -27.8,-7.1 -56.4,-10.8 -85,-10.8 -187.9,0 -340.2,152.3 -340.2,340.2 0,67.4 20,133.2 57.5,189.2 l 2493.7,3722.6 2493.6,-3722.6 c 37.5,-56 57.5,-121.8 57.5,-189.2 0,-187.9 -152.2,-340.2 -340.1,-340.2 -28.7,0 -57.3,3.7 -85,10.8 l -1275.6,329.4 v -2891.3 c 0,-1669.5 453.6,-3307.7 1312.5,-4739.3 l 675.9,-1126.7 c 1017.4,-1696 1554.9,-3636.5 1554.9,-5614.3 0,-1977.7 -537.5,-3918.3 -1554.9,-5614.2 l -675.9,-1126.7 c -858.9,-1431.7 -1312.5,-3069.8 -1312.5,-4739.3 V 7805.23"
       style="fill:#000000;fill-opacity:1;fill-rule:nonzero;stroke:none"
       transform="matrix(0.13333333,0,0,-0.13333333,0,6049.3333)" />
  </g>
</svg>
