<?xml version="1.0" encoding="UTF-8" standalone="no"?>
<!-- Created with Inkscape (http://www.inkscape.org/) -->

<svg
   version="1.1"
   id="svg1"
   width="6049.3335"
   height="6049.3335"
   viewBox="0 0 6049.3335 6049.3335"
   sodipodi:docname="551-29.eps"
   xmlns:inkscape="http://www.inkscape.org/namespaces/inkscape"
   xmlns:sodipodi="http://sodipodi.sourceforge.net/DTD/sodipodi-0.dtd"
   xmlns="http://www.w3.org/2000/svg"
   xmlns:svg="http://www.w3.org/2000/svg">
  <defs
     id="defs1" />
  <sodipodi:namedview
     id="namedview1"
     pagecolor="#ffffff"
     bordercolor="#000000"
     borderopacity="0.25"
     inkscape:showpageshadow="2"
     inkscape:pageopacity="0.0"
     inkscape:pagecheckerboard="0"
     inkscape:deskcolor="#d1d1d1">
    <inkscape:page
       x="0"
       y="0"
       inkscape:label="1"
       id="page1"
       width="6049.3335"
       height="6049.3335"
       margin="0"
       bleed="0" />
  </sodipodi:namedview>
  <g
     id="g1"
     inkscape:groupmode="layer"
     inkscape:label="1">
    <path
       id="path1"
       d="M 1710.78,10 C 771.461,10 10,771.461 10,1710.78 V 43663.3 c 0,939.3 761.461,1700.7 1700.78,1700.7 H 43663.3 c 939.3,0 1700.7,-761.4 1700.7,-1700.7 V 1710.78 C 45364,771.461 44602.6,10 43663.3,10 H 1710.78"
       style="fill:#ffffff;fill-opacity:1;fill-rule:nonzero;stroke:#000000;stroke-width:1;stroke-linecap:butt;stroke-linejoin:miter;stroke-miterlimit:4;stroke-dasharray:none;stroke-opacity:1"
       transform="matrix(0.13333333,0,0,-0.13333333,0,6049.3333)" />
    <path
       id="path2"
       d="m 1710.78,435.191 c -704.49,0 -1275.589,571.099 -1275.589,1275.589 V 43663.3 c 0,704.5 571.099,1275.5 1275.589,1275.5 H 43663.3 c 704.5,0 1275.5,-571 1275.5,-1275.5 V 1710.78 c 0,-704.49 -571,-1275.589 -1275.5,-1275.589 H 1710.78"
       style="fill:#000000;fill-opacity:1;fill-rule:nonzero;stroke:none"
       transform="matrix(0.13333333,0,0,-0.13333333,0,6049.3333)" />
    <path
       id="path3"
       d="m 1710.78,1002.12 c -391.38,0 -708.66,317.28 -708.66,708.66 V 43663.3 c 0,391.3 317.28,708.6 708.66,708.6 H 43663.3 c 391.3,0 708.6,-317.3 708.6,-708.6 V 1710.78 c 0,-391.38 -317.3,-708.66 -708.6,-708.66 H 1710.78"
       style="fill:#ffffff;fill-opacity:1;fill-rule:nonzero;stroke:none"
       transform="matrix(0.13333333,0,0,-0.13333333,0,6049.3333)" />
    <path
       id="path4"
       d="M 38904.6,13481.6 32397.7,6965.51 c -318.9,-318.96 -498.1,-751.56 -498.1,-1202.63 l -5.7,-2493.06 h -1700.7 l -0.1,2493.06 c 0,902.15 358.4,1767.34 996.3,2405.26 l 6512.5,6516.16 -1134.8,668.4 c -103.8,61.2 -167.6,172.6 -167.6,293.1 0,162.4 114.8,302.2 274.1,333.7 l 4395.7,869.5 -869.3,-4395.9 c -31.6,-159.3 -171.3,-274 -333.7,-274 -120.4,0 -231.9,63.6 -293,167.3 l -668.7,1135.2"
       style="fill:#000000;fill-opacity:1;fill-rule:nonzero;stroke:none"
       transform="matrix(0.13333333,0,0,-0.13333333,0,6049.3333)" />
    <path
       id="path5"
       d="M 34695.4,17690.8 26445,9430.22 c -319,-318.96 -498.2,-751.56 -498.2,-1202.63 l -5.6,-4957.77 h -1700.7 l -0.1,4957.77 c 0,902.14 358.4,1767.34 996.3,2405.31 l 8256.1,8260.6 -1135.2,668.6 c -103.8,61.2 -167.5,172.7 -167.5,293.1 0,162.4 114.8,302.2 274.1,333.7 l 4395.9,869.3 -869.6,-4395.6 c -31.5,-159.3 -171.2,-274.1 -333.6,-274.1 -120.5,0 -231.9,63.6 -293,167.4 l -668.5,1134.9"
       style="fill:#000000;fill-opacity:1;fill-rule:nonzero;stroke:none"
       transform="matrix(0.13333333,0,0,-0.13333333,0,6049.3333)" />
    <path
       id="path6"
       d="m 30486.2,21900 -8258.1,-8258 -1202.6,1202.6 8258,8258.1 -1135.4,669 c -103.8,61.1 -167.4,172.6 -167.4,293 0,162.3 114.8,302.1 274.1,333.6 l 4396.1,869.1 -868.4,-4395.4 c -31.5,-159.3 -171.2,-274.1 -333.6,-274.1 -120.5,0 -231.9,63.7 -293.1,167.4 l -669.6,1134.7"
       style="fill:#000000;fill-opacity:1;fill-rule:nonzero;stroke:none"
       transform="matrix(0.13333333,0,0,-0.13333333,0,6049.3333)" />
    <path
       id="path7"
       d="m 25074.3,27311.9 -1134.3,669.2 c -103.7,61.1 -167.3,172.6 -167.3,293 0,162.4 114.8,302.1 274.1,333.7 l 4394.9,868.8 -868.6,-4395.2 c -31.5,-159.3 -171.3,-274.1 -333.7,-274.1 -120.4,0 -231.8,63.7 -293,167.4 l -669.4,1134.5 -8258.1,-8258 -1202.6,1202.6 8258,8258.1"
       style="fill:#000000;fill-opacity:1;fill-rule:nonzero;stroke:none"
       transform="matrix(0.13333333,0,0,-0.13333333,0,6049.3333)" />
    <path
       id="path8"
       d="m 20865.1,31521.1 -1134.5,669.4 c -103.7,61.2 -167.3,172.6 -167.3,293 0,162.4 114.8,302.1 274.1,333.7 l 4395.1,868.6 -868.8,-4395 c -31.5,-159.3 -171.3,-274 -333.7,-274 -120.4,0 -231.8,63.6 -293,167.3 l -669.2,1134.3 -8258.1,-8258 -1202.6,1202.6 8258,8258.1"
       style="fill:#000000;fill-opacity:1;fill-rule:nonzero;stroke:none"
       transform="matrix(0.13333333,0,0,-0.13333333,0,6049.3333)" />
    <path
       id="path9"
       d="m 16655.9,35730.3 -1134.7,669.6 c -103.7,61.2 -167.4,172.6 -167.4,293 0,162.4 114.8,302.1 274.1,333.7 l 4395.4,868.4 -869,-4394.7 c -31.6,-159.3 -171.3,-274.1 -333.7,-274.1 -120.4,0 -231.9,63.6 -293,167.4 l -669,1134 -8258.12,-8258 -1202.63,1202.6 8258.05,8258.1"
       style="fill:#000000;fill-opacity:1;fill-rule:nonzero;stroke:none"
       transform="matrix(0.13333333,0,0,-0.13333333,0,6049.3333)" />
    <path
       id="path10"
       d="m 12446.7,39939.5 -1134.9,668.4 c -103.7,61.2 -167.4,172.6 -167.4,293 0,162.4 114.8,302.2 274.1,333.7 l 4395.6,869.6 -869.3,-4395.9 c -31.5,-159.3 -171.2,-274.1 -333.6,-274.1 -120.4,0 -231.9,63.6 -293,167.4 l -668.9,1135.3 -8258.03,-8258.1 -1202.63,1202.6 8258.06,8258.1"
       style="fill:#000000;fill-opacity:1;fill-rule:nonzero;stroke:none"
       transform="matrix(0.13333333,0,0,-0.13333333,0,6049.3333)" />
  </g>
</svg>
