<?xml version="1.0" encoding="UTF-8" standalone="no"?>
<!-- Created with Inkscape (http://www.inkscape.org/) -->

<svg
   version="1.1"
   id="svg1"
   width="4726.6665"
   height="6049.3335"
   viewBox="0 0 4726.6665 6049.3335"
   sodipodi:docname="527-30.eps"
   xmlns:inkscape="http://www.inkscape.org/namespaces/inkscape"
   xmlns:sodipodi="http://sodipodi.sourceforge.net/DTD/sodipodi-0.dtd"
   xmlns="http://www.w3.org/2000/svg"
   xmlns:svg="http://www.w3.org/2000/svg">
  <defs
     id="defs1" />
  <sodipodi:namedview
     id="namedview1"
     pagecolor="#ffffff"
     bordercolor="#000000"
     borderopacity="0.25"
     inkscape:showpageshadow="2"
     inkscape:pageopacity="0.0"
     inkscape:pagecheckerboard="0"
     inkscape:deskcolor="#d1d1d1">
    <inkscape:page
       x="0"
       y="0"
       inkscape:label="1"
       id="page1"
       width="4726.6665"
       height="6049.3335"
       margin="0"
       bleed="0" />
  </sodipodi:namedview>
  <g
     id="g1"
     inkscape:groupmode="layer"
     inkscape:label="1">
    <path
       id="path1"
       d="M 1710.78,10 C 771.461,10 10,771.461 10,1710.78 V 43663.3 c 0,939.3 761.461,1700.7 1700.78,1700.7 H 33742.1 c 939.3,0 1700.7,-761.4 1700.7,-1700.7 V 1710.78 C 35442.8,771.461 34681.4,10 33742.1,10 H 1710.78"
       style="fill:#ffffff;fill-opacity:1;fill-rule:nonzero;stroke:#000000;stroke-width:1;stroke-linecap:butt;stroke-linejoin:miter;stroke-miterlimit:4;stroke-dasharray:none;stroke-opacity:1"
       transform="matrix(0.13333333,0,0,-0.13333333,0,6049.3333)" />
    <path
       id="path2"
       d="m 1710.78,435.191 c -704.49,0 -1275.589,571.099 -1275.589,1275.589 V 43663.3 c 0,704.5 571.099,1275.5 1275.589,1275.5 H 33742.1 c 704.5,0 1275.5,-571 1275.5,-1275.5 V 1710.78 c 0,-704.49 -571,-1275.589 -1275.5,-1275.589 H 1710.78"
       style="fill:#000000;fill-opacity:1;fill-rule:nonzero;stroke:none"
       transform="matrix(0.13333333,0,0,-0.13333333,0,6049.3333)" />
    <path
       id="path3"
       d="m 1710.78,1002.12 c -391.38,0 -708.66,317.28 -708.66,708.66 V 43663.3 c 0,391.3 317.28,708.6 708.66,708.6 H 33742.1 c 391.3,0 708.6,-317.3 708.6,-708.6 V 1710.78 c 0,-391.38 -317.3,-708.66 -708.6,-708.66 H 1710.78"
       style="fill:#ffffff;fill-opacity:1;fill-rule:nonzero;stroke:none"
       transform="matrix(0.13333333,0,0,-0.13333333,0,6049.3333)" />
    <path
       id="path4"
       d="m 10498.1,37058.6 -1276.18,-329.5 c -27.58,-7.1 -55.94,-10.7 -84.42,-10.7 -187.86,0 -340.15,152.3 -340.15,340.2 0,67.4 20.01,133.2 57.5,189.2 l 2493.65,3722.6 2493.6,-3722.5 c 37.5,-56 57.6,-121.9 57.6,-189.3 0,-187.9 -152.3,-340.2 -340.2,-340.2 -28.4,0 -56.8,3.6 -84.4,10.7 l -1276.2,329.5 V 4403.67 H 10498.1 V 37058.6"
       style="fill:#000000;fill-opacity:1;fill-rule:nonzero;stroke:none"
       transform="matrix(0.13333333,0,0,-0.13333333,0,6049.3333)" />
    <path
       id="path5"
       d="m 22545.3,37058.6 -1275.6,-329.4 c -27.8,-7.1 -56.3,-10.8 -85,-10.8 -187.9,0 -340.2,152.3 -340.2,340.2 0,67.4 20,133.2 57.5,189.2 l 2493.7,3722.6 2493.6,-3722.6 c 37.5,-56 57.5,-121.8 57.5,-189.2 0,-187.9 -152.2,-340.2 -340.1,-340.2 -28.7,0 -57.3,3.7 -85,10.8 l -1275.6,329.4 -0.3,-7478.4 c -282.1,34.4 -566,51.7 -850.1,51.7 -284.2,0 -568.1,-17.3 -850.1,-51.7 z M 24246.1,15794 V 4403.67 h -1700.8 l 0.3,11390.13 c 282,-34.4 565.9,-51.6 850.1,-51.6 284.1,0 568,17.2 850.1,51.6"
       style="fill:#000000;fill-opacity:1;fill-rule:nonzero;stroke:none"
       transform="matrix(0.13333333,0,0,-0.13333333,0,6049.3333)" />
    <path
       id="path6"
       d="m 29993.3,22687 c 0,-3643.7 -2953.9,-6597.6 -6597.6,-6597.6 -3643.8,0 -6597.6,2953.9 -6597.6,6597.6 0,3643.8 2953.8,6597.6 6597.6,6597.6 3643.7,0 6597.6,-2953.8 6597.6,-6597.6 z m -1736.2,0 c 0,2684.9 -2176.5,4861.4 -4861.4,4861.4 -2684.9,0 -4861.4,-2176.5 -4861.4,-4861.4 0,-2684.8 2176.5,-4861.4 4861.4,-4861.4 2684.9,0 4861.4,2176.6 4861.4,4861.4"
       style="fill:#c20a16;fill-opacity:1;fill-rule:nonzero;stroke:none"
       transform="matrix(0.13333333,0,0,-0.13333333,0,6049.3333)" />
    <path
       id="path7"
       d="m 19749.6,21471.7 h 760.7 V 21234 c 0,-210.1 170.2,-380.3 380.3,-380.3 210,0 380.3,170.2 380.3,380.3 v 1283.5 c 0,210.1 -170.3,380.4 -380.3,380.4 -174.5,0 -326.7,-118.8 -369,-288.1 l -676.9,2.8 V 25465 h 2186.8 v -713.1 h -1521.2 v -1433 c 167.4,157.1 388.4,244.5 618,244.5 498.8,0 903.2,-404.4 903.2,-903.3 V 21234 c 0,-630.1 -510.8,-1141 -1140.9,-1141 -630.1,0 -1141,510.9 -1141,1141 v 237.7"
       style="fill:#000000;fill-opacity:1;fill-rule:nonzero;stroke:none"
       transform="matrix(0.13333333,0,0,-0.13333333,0,6049.3333)" />
    <path
       id="path8"
       d="m 22411.8,19694.1 v 1041.8 h 595.3 v -595.3 z m 1041.8,1488.2 h 595.2 v -186 c 0,-164.4 133.3,-297.6 297.7,-297.6 164.3,0 297.6,133.2 297.6,297.6 v 1004.5 c 0,164.4 -133.3,297.6 -297.6,297.6 -136.6,0 -255.7,-92.9 -288.8,-225.4 l -529.7,2.2 v 2232.3 h 1711.4 v -558.1 h -1190.6 v -1121.5 c 131.1,123 304,191.4 483.7,191.4 390.4,0 706.9,-316.5 706.9,-706.9 v -1116.1 c 0,-493.2 -399.8,-892.9 -892.9,-892.9 -493.2,0 -892.9,399.7 -892.9,892.9 z m 3571.6,-1041.7 h -297.6 c -369.9,0 -669.7,299.8 -669.7,669.7 v 1823 h -297.7 v 483.6 h 297.7 v 893 h 595.2 v -893 h 372.1 v -483.6 h -372.1 v -1748.6 c 0,-102.8 83.3,-186 186.1,-186 h 186 v -558.1"
       style="fill:#000000;fill-opacity:1;fill-rule:nonzero;stroke:none"
       transform="matrix(0.13333333,0,0,-0.13333333,0,6049.3333)" />
  </g>
</svg>
