<?xml version="1.0" encoding="UTF-8" standalone="no"?>
<!-- Created with Inkscape (http://www.inkscape.org/) -->

<svg
   version="1.1"
   id="svg1"
   width="4726.6665"
   height="6049.3335"
   viewBox="0 0 4726.6665 6049.3335"
   sodipodi:docname="513-12.eps"
   xmlns:inkscape="http://www.inkscape.org/namespaces/inkscape"
   xmlns:sodipodi="http://sodipodi.sourceforge.net/DTD/sodipodi-0.dtd"
   xmlns="http://www.w3.org/2000/svg"
   xmlns:svg="http://www.w3.org/2000/svg">
  <defs
     id="defs1" />
  <sodipodi:namedview
     id="namedview1"
     pagecolor="#ffffff"
     bordercolor="#000000"
     borderopacity="0.25"
     inkscape:showpageshadow="2"
     inkscape:pageopacity="0.0"
     inkscape:pagecheckerboard="0"
     inkscape:deskcolor="#d1d1d1">
    <inkscape:page
       x="0"
       y="0"
       inkscape:label="1"
       id="page1"
       width="4726.6665"
       height="6049.3335"
       margin="0"
       bleed="0" />
  </sodipodi:namedview>
  <g
     id="g1"
     inkscape:groupmode="layer"
     inkscape:label="1">
    <path
       id="path1"
       d="M 1710.78,10 C 771.461,10 10,771.461 10,1710.78 V 43663.3 c 0,939.3 761.461,1700.7 1700.78,1700.7 H 33742.1 c 939.3,0 1700.7,-761.4 1700.7,-1700.7 V 1710.78 C 35442.8,771.461 34681.4,10 33742.1,10 H 1710.78"
       style="fill:#ffffff;fill-opacity:1;fill-rule:nonzero;stroke:#000000;stroke-width:1;stroke-linecap:butt;stroke-linejoin:miter;stroke-miterlimit:4;stroke-dasharray:none;stroke-opacity:1"
       transform="matrix(0.13333333,0,0,-0.13333333,0,6049.3333)" />
    <path
       id="path2"
       d="m 1710.78,435.191 c -704.49,0 -1275.589,571.099 -1275.589,1275.589 V 43663.3 c 0,704.5 571.099,1275.5 1275.589,1275.5 H 33742.1 c 704.5,0 1275.5,-571 1275.5,-1275.5 V 1710.78 c 0,-704.49 -571,-1275.589 -1275.5,-1275.589 z m 0,566.929 H 33742.1 c 391.3,0 708.6,317.28 708.6,708.66 V 43663.3 c 0,391.3 -317.3,708.6 -708.6,708.6 H 1710.78 c -391.38,0 -708.66,-317.3 -708.66,-708.6 V 1710.78 c 0,-391.38 317.28,-708.66 708.66,-708.66"
       style="fill:#000000;fill-opacity:1;fill-rule:nonzero;stroke:none"
       transform="matrix(0.13333333,0,0,-0.13333333,0,6049.3333)" />
    <path
       id="path3"
       d="m 10994.2,4403.67 v 6803.13 c 0,1669.5 -453.7,3307.6 -1312.56,4739.3 l -675.89,1126.7 C 7988.33,18768.7 7450.9,20709.3 7450.9,22687 c 0,1977.8 537.43,3918.3 1554.85,5614.3 l 675.89,1126.7 c 858.86,1431.6 1312.56,3069.8 1312.56,4739.3 v 2891.3 l -1275.61,-329.4 c -27.78,-7.1 -56.35,-10.8 -85.03,-10.8 -187.86,0 -340.15,152.3 -340.15,340.2 0,67.4 20.01,133.2 57.5,189.2 l 2493.69,3722.6 2493.6,-3722.6 c 37.5,-56 57.5,-121.8 57.5,-189.2 0,-187.9 -152.3,-340.2 -340.1,-340.2 -28.7,0 -57.3,3.7 -85,10.8 l -1275.6,329.4 v -2891.3 c 0,-1977.8 -537.5,-3918.3 -1554.9,-5614.3 l -675.9,-1126.7 C 9605.35,25994.7 9151.67,24356.5 9151.67,22687 c 0,-1669.5 453.68,-3307.6 1312.53,-4739.3 L 11140.1,16821 C 12157.5,15125.1 12695,13184.5 12695,11206.8 V 4403.67 h -1700.8"
       style="fill:#000000;fill-opacity:1;fill-rule:nonzero;stroke:none"
       transform="matrix(0.13333333,0,0,-0.13333333,0,6049.3333)" />
    <path
       id="path4"
       d="m 17797.3,4403.67 v 6803.13 c 0,1669.5 -453.7,3307.6 -1312.5,4739.3 l -675.9,1126.7 C 14791.4,18768.7 14254,20709.3 14254,22687 c 0,1977.8 537.4,3918.3 1554.9,5614.3 l 675.9,1126.7 c 858.8,1431.6 1312.5,3069.8 1312.5,4739.3 v 2891.3 l -1275.6,-329.4 c -27.8,-7.1 -56.3,-10.8 -85,-10.8 -187.9,0 -340.2,152.3 -340.2,340.2 0,67.4 20,133.2 57.5,189.2 l 2493.7,3722.6 2493.6,-3722.6 c 37.5,-56 57.5,-121.8 57.5,-189.2 0,-187.9 -152.2,-340.2 -340.1,-340.2 -28.7,0 -57.3,3.7 -85,10.8 l -1275.6,329.4 v -2891.3 c 0,-1977.8 -537.5,-3918.3 -1554.9,-5614.3 l -675.9,-1126.7 c -858.8,-1431.6 -1312.5,-3069.8 -1312.5,-4739.3 0,-1669.5 453.7,-3307.6 1312.5,-4739.3 l 675.9,-1126.7 c 1017.4,-1695.9 1554.9,-3636.5 1554.9,-5614.2 V 4403.67 h -1700.8"
       style="fill:#000000;fill-opacity:1;fill-rule:nonzero;stroke:none"
       transform="matrix(0.13333333,0,0,-0.13333333,0,6049.3333)" />
    <path
       id="path5"
       d="m 24600.4,4403.67 v 6803.13 c 0,1669.5 -453.7,3307.6 -1312.5,4739.3 l -675.9,1126.7 c -1017.4,1695.9 -1554.9,3636.5 -1554.9,5614.2 0,1977.8 537.5,3918.3 1554.9,5614.3 l 675.9,1126.7 c 858.8,1431.6 1312.5,3069.8 1312.5,4739.3 v 2891.3 l -1275.6,-329.4 c -27.8,-7.1 -56.3,-10.8 -85,-10.8 -187.9,0 -340.2,152.3 -340.2,340.2 0,67.4 20,133.2 57.5,189.2 l 2493.7,3722.6 2493.6,-3722.6 c 37.5,-56 57.6,-121.8 57.6,-189.2 0,-187.9 -152.3,-340.2 -340.2,-340.2 -28.7,0 -57.3,3.7 -85,10.8 l -1275.6,329.4 v -2891.3 c 0,-1977.8 -537.5,-3918.3 -1554.9,-5614.3 l -675.9,-1126.7 c -858.8,-1431.6 -1312.5,-3069.8 -1312.5,-4739.3 0,-1669.5 453.7,-3307.6 1312.5,-4739.3 l 675.9,-1126.7 c 1017.4,-1695.9 1554.9,-3636.5 1554.9,-5614.2 V 4403.67 h -1700.8"
       style="fill:#000000;fill-opacity:1;fill-rule:nonzero;stroke:none"
       transform="matrix(0.13333333,0,0,-0.13333333,0,6049.3333)" />
  </g>
</svg>
