<?xml version="1.0" encoding="UTF-8" standalone="no"?>
<!-- Created with Inkscape (http://www.inkscape.org/) -->

<svg
   version="1.1"
   id="svg824"
   xml:space="preserve"
   width="600.9726"
   height="901.45892"
   viewBox="0 0 600.9726 901.45892"
   xmlns="http://www.w3.org/2000/svg"
   xmlns:svg="http://www.w3.org/2000/svg"><defs
     id="defs828"><clipPath
       clipPathUnits="userSpaceOnUse"
       id="clipPath3787"><path
         d="M 0,1 536,1 536,805 0,805 0,1 Z"
         id="path3789" /></clipPath></defs><g
     id="g3781"
     transform="matrix(-1.1207014,0,0,-1.1207014,600.455,901.76679)"><g
       id="g3783"><g
         id="g3785"
         clip-path="url(#clipPath3787)"><g
           id="g3791"><path
             d="m 35.75,804.645 c -19.488,0 -35.344,-15.852 -35.344,-35.34 V 36.523 C 0.406,17.035 16.262,1.184 35.75,1.184 h 464.691 c 19.489,0 35.344,15.851 35.344,35.339 v 732.782 c 0,19.488 -15.855,35.34 -35.344,35.34"
             style="fill:#f0c900;fill-opacity:1;fill-rule:nonzero;stroke:none"
             id="path3793" /></g></g></g></g><path
     d="m 39.610071,9.5620038 c -16.596467,0 -30.0482465,13.4517792 -30.0482465,30.0437632 V 860.83447 c 0,16.59198 13.4517795,30.02695 30.0482465,30.02695 H 560.38993 c 16.59647,0 30.03144,-13.43497 30.03144,-30.02695 V 39.605767 c 0,-16.591984 -13.43497,-30.0437632 -30.03144,-30.0437632 z m 0,15.0241232 H 560.38993 c 8.28759,0 15.02524,6.733174 15.02524,15.01964 V 860.83447 c 0,8.28759 -6.73765,15.02524 -15.02524,15.02524 H 39.610071 c -8.304398,0 -15.024123,-6.73765 -15.024123,-15.02524 V 39.605767 c 0,-8.286466 6.719725,-15.01964 15.024123,-15.01964 z"
     style="fill:#000000;fill-opacity:1;fill-rule:nonzero;stroke:none;stroke-width:0.896561"
     id="path3795" /><path
     d="m 237.40882,149.76735 h 26.60882 v 114.22862 c 0,19.89693 16.11792,35.99356 35.99356,35.99356 19.87004,0 35.98909,-16.09663 35.98909,-35.99356 V 149.76735 h 26.59088 v 114.22862 c 0,34.57924 -28.02202,62.60126 -62.57997,62.60126 -34.58036,0 -62.60238,-28.02202 -62.60238,-62.60126"
     style="fill:#000000;fill-opacity:1;fill-rule:nonzero;stroke:none;stroke-width:0.896561"
     id="path3797" /><path
     id="path4362"
     style="fill:#000000;fill-opacity:1;fill-rule:nonzero;stroke:none;stroke-width:1.33333"
     d="m 299.69531,441.44336 -90.40039,90.37891 v 47.84375 l 70.70703,-68.26954 v 60.37305 c -45.97834,9.27371 -80.60351,49.89489 -80.60352,98.60547 0.036,17.42267 4.59252,34.53225 13.22852,49.65625 l 34.62109,-20.18164 c -5.052,-9.00534 -7.718,-19.14661 -7.75,-29.47461 0,-33.41067 27.08933,-60.5 60.5,-60.5 33.41733,0 60.5,27.08933 60.5,60.5 0,33.41733 -27.08267,60.5 -60.5,60.5 h -20 v 108.61523 h 40 v -70.50585 c 45.97999,-9.276 80.60352,-49.89605 80.60352,-98.60938 0,-48.71382 -34.62362,-89.33371 -80.60352,-98.60547 v -60.37305 l 70.71289,68.26954 v -47.84375 z" /></svg>
