<?xml version="1.0" encoding="UTF-8" standalone="no"?>
<!-- Created with Inkscape (http://www.inkscape.org/) -->

<svg
   version="1.1"
   id="svg1"
   width="4726.6665"
   height="6049.3335"
   viewBox="0 0 4726.6665 6049.3335"
   sodipodi:docname="551-25.eps"
   xmlns:inkscape="http://www.inkscape.org/namespaces/inkscape"
   xmlns:sodipodi="http://sodipodi.sourceforge.net/DTD/sodipodi-0.dtd"
   xmlns="http://www.w3.org/2000/svg"
   xmlns:svg="http://www.w3.org/2000/svg">
  <defs
     id="defs1" />
  <sodipodi:namedview
     id="namedview1"
     pagecolor="#ffffff"
     bordercolor="#000000"
     borderopacity="0.25"
     inkscape:showpageshadow="2"
     inkscape:pageopacity="0.0"
     inkscape:pagecheckerboard="0"
     inkscape:deskcolor="#d1d1d1">
    <inkscape:page
       x="0"
       y="0"
       inkscape:label="1"
       id="page1"
       width="4726.6665"
       height="6049.3335"
       margin="0"
       bleed="0" />
  </sodipodi:namedview>
  <g
     id="g1"
     inkscape:groupmode="layer"
     inkscape:label="1">
    <path
       id="path1"
       d="M 1710.78,10 C 771.461,10 10,771.461 10,1710.78 V 43663.3 c 0,939.3 761.461,1700.7 1700.78,1700.7 H 33742.1 c 939.3,0 1700.7,-761.4 1700.7,-1700.7 V 1710.78 C 35442.8,771.461 34681.4,10 33742.1,10 H 1710.78"
       style="fill:#ffffff;fill-opacity:1;fill-rule:nonzero;stroke:#000000;stroke-width:1;stroke-linecap:butt;stroke-linejoin:miter;stroke-miterlimit:4;stroke-dasharray:none;stroke-opacity:1"
       transform="matrix(0.13333333,0,0,-0.13333333,0,6049.3333)" />
    <path
       id="path2"
       d="m 1710.78,435.191 c -704.49,0 -1275.589,571.099 -1275.589,1275.589 V 43663.3 c 0,704.5 571.099,1275.5 1275.589,1275.5 H 33742.1 c 704.5,0 1275.5,-571 1275.5,-1275.5 V 1710.78 c 0,-704.49 -571,-1275.589 -1275.5,-1275.589 H 1710.78"
       style="fill:#000000;fill-opacity:1;fill-rule:nonzero;stroke:none"
       transform="matrix(0.13333333,0,0,-0.13333333,0,6049.3333)" />
    <path
       id="path3"
       d="m 1710.78,1002.12 c -391.38,0 -708.66,317.28 -708.66,708.66 V 43663.3 c 0,391.3 317.28,708.6 708.66,708.6 H 33742.1 c 391.3,0 708.6,-317.3 708.6,-708.6 V 1710.78 c 0,-391.38 -317.3,-708.66 -708.6,-708.66 H 1710.78"
       style="fill:#ffffff;fill-opacity:1;fill-rule:nonzero;stroke:none"
       transform="matrix(0.13333333,0,0,-0.13333333,0,6049.3333)" />
    <path
       id="path4"
       d="m 28690.4,21900 -6045.2,-6055 c -319,-319 -498.2,-751.6 -498.2,-1202.6 l -5.9,-11372.58 h -1700.8 l 0.3,11372.58 c 0,902.1 358.4,1767.3 996.3,2405.2 l 6050.9,6055.1 -1135.3,668.9 c -103.8,61.1 -167.5,172.6 -167.5,293.1 0,162.4 114.8,302.1 274.1,333.6 l 4396,869.1 -868.3,-4395.4 c -31.5,-159.3 -171.3,-274.1 -333.7,-274.1 -120.4,0 -231.8,63.7 -293,167.4 l -669.7,1134.7"
       style="fill:#000000;fill-opacity:1;fill-rule:nonzero;stroke:none"
       transform="matrix(0.13333333,0,0,-0.13333333,0,6049.3333)" />
    <path
       id="path5"
       d="M 24481.2,26109.2 18428,20056 l -1202.7,1202.6 6053.3,6053.3 -1134.3,669.2 c -103.7,61.1 -167.3,172.6 -167.3,293 0,162.4 114.7,302.1 274,333.7 l 4394.9,868.8 -868.5,-4395.2 c -31.6,-159.3 -171.3,-274.1 -333.7,-274.1 -120.4,0 -231.9,63.7 -293,167.4 l -669.5,1134.5"
       style="fill:#000000;fill-opacity:1;fill-rule:nonzero;stroke:none"
       transform="matrix(0.13333333,0,0,-0.13333333,0,6049.3333)" />
    <path
       id="path6"
       d="m 19069.4,31521.1 -1134.5,669.4 c -103.7,61.2 -167.4,172.6 -167.4,293 0,162.4 114.8,302.1 274.1,333.7 l 4395.1,868.6 -868.8,-4395 c -31.5,-159.3 -171.2,-274 -333.6,-274 -120.4,0 -231.9,63.6 -293,167.3 l -669.3,1134.3 -6053.2,-6053.2 -1202.7,1202.6 6053.3,6053.3"
       style="fill:#000000;fill-opacity:1;fill-rule:nonzero;stroke:none"
       transform="matrix(0.13333333,0,0,-0.13333333,0,6049.3333)" />
    <path
       id="path7"
       d="m 14860.2,35730.3 -1134.7,669.6 c -103.7,61.2 -167.4,172.6 -167.4,293 0,162.4 114.8,302.1 274.1,333.7 l 4395.3,868.4 -869,-4396.2 c -31.5,-159.3 -171.3,-274 -333.6,-274 -120.5,0 -231.9,63.6 -293.1,167.3 l -669,1135.5 -6053.3,-6053.2 -1202.59,1202.6 6053.29,6053.3"
       style="fill:#000000;fill-opacity:1;fill-rule:nonzero;stroke:none"
       transform="matrix(0.13333333,0,0,-0.13333333,0,6049.3333)" />
    <path
       id="path8"
       d="m 10650.9,39939.5 -1134.86,668.4 c -103.71,61.2 -167.36,172.6 -167.36,293 0,162.4 114.79,302.2 274.09,333.7 l 4395.53,869.6 -869.2,-4395.9 c -31.5,-159.3 -171.3,-274.1 -333.7,-274.1 -120.4,0 -231.8,63.6 -293,167.4 l -668.8,1135.3 -6053.26,-6053.3 -1202.63,1202.7 6053.19,6053.2"
       style="fill:#000000;fill-opacity:1;fill-rule:nonzero;stroke:none"
       transform="matrix(0.13333333,0,0,-0.13333333,0,6049.3333)" />
  </g>
</svg>
