<?xml version="1.0" encoding="UTF-8" standalone="no"?>
<!-- Created with Inkscape (http://www.inkscape.org/) -->

<svg
   version="1.1"
   id="svg1"
   width="4726.6665"
   height="6049.3335"
   viewBox="0 0 4726.6665 6049.3335"
   sodipodi:docname="528-30.eps"
   xmlns:inkscape="http://www.inkscape.org/namespaces/inkscape"
   xmlns:sodipodi="http://sodipodi.sourceforge.net/DTD/sodipodi-0.dtd"
   xmlns="http://www.w3.org/2000/svg"
   xmlns:svg="http://www.w3.org/2000/svg">
  <defs
     id="defs1" />
  <sodipodi:namedview
     id="namedview1"
     pagecolor="#ffffff"
     bordercolor="#000000"
     borderopacity="0.25"
     inkscape:showpageshadow="2"
     inkscape:pageopacity="0.0"
     inkscape:pagecheckerboard="0"
     inkscape:deskcolor="#d1d1d1">
    <inkscape:page
       x="0"
       y="0"
       inkscape:label="1"
       id="page1"
       width="4726.6665"
       height="6049.3335"
       margin="0"
       bleed="0" />
  </sodipodi:namedview>
  <g
     id="g1"
     inkscape:groupmode="layer"
     inkscape:label="1">
    <path
       id="path1"
       d="M 1710.78,10 C 771.461,10 10,771.461 10,1710.78 V 43663.3 c 0,939.3 761.461,1700.7 1700.78,1700.7 H 33742.1 c 939.3,0 1700.7,-761.4 1700.7,-1700.7 V 1710.78 C 35442.8,771.461 34681.4,10 33742.1,10 H 1710.78"
       style="fill:#ffffff;fill-opacity:1;fill-rule:nonzero;stroke:#000000;stroke-width:1;stroke-linecap:butt;stroke-linejoin:miter;stroke-miterlimit:4;stroke-dasharray:none;stroke-opacity:1"
       transform="matrix(0.13333333,0,0,-0.13333333,0,6049.3333)" />
    <path
       id="path2"
       d="m 1710.78,435.191 c -704.49,0 -1275.589,571.099 -1275.589,1275.589 V 43663.3 c 0,704.5 571.099,1275.5 1275.589,1275.5 H 33742.1 c 704.5,0 1275.5,-571 1275.5,-1275.5 V 1710.78 c 0,-704.49 -571,-1275.589 -1275.5,-1275.589 H 1710.78"
       style="fill:#000000;fill-opacity:1;fill-rule:nonzero;stroke:none"
       transform="matrix(0.13333333,0,0,-0.13333333,0,6049.3333)" />
    <path
       id="path3"
       d="m 1710.78,1002.12 c -391.38,0 -708.66,317.28 -708.66,708.66 V 43663.3 c 0,391.3 317.28,708.6 708.66,708.6 H 33742.1 c 391.3,0 708.6,-317.3 708.6,-708.6 V 1710.78 c 0,-391.38 -317.3,-708.66 -708.6,-708.66 H 1710.78"
       style="fill:#ffffff;fill-opacity:1;fill-rule:nonzero;stroke:none"
       transform="matrix(0.13333333,0,0,-0.13333333,0,6049.3333)" />
    <path
       id="path4"
       d="m 10498.1,37058.6 -1276.18,-329.5 c -27.58,-7.1 -55.94,-10.7 -84.42,-10.7 -187.86,0 -340.15,152.3 -340.15,340.2 0,67.4 20.01,133.2 57.5,189.2 l 2493.65,3722.6 2493.6,-3722.5 c 37.5,-56 57.6,-121.9 57.6,-189.3 0,-187.9 -152.3,-340.2 -340.2,-340.2 -28.4,0 -56.8,3.6 -84.4,10.7 l -1276.2,329.5 V 4403.67 H 10498.1 V 37058.6"
       style="fill:#000000;fill-opacity:1;fill-rule:nonzero;stroke:none"
       transform="matrix(0.13333333,0,0,-0.13333333,0,6049.3333)" />
    <path
       id="path5"
       d="m 22545.3,37058.6 -1275.6,-329.4 c -27.8,-7.1 -56.3,-10.8 -85,-10.8 -187.9,0 -340.2,152.3 -340.2,340.2 0,67.4 20,133.2 57.5,189.2 l 2493.7,3722.6 2493.6,-3722.6 c 37.5,-56 57.5,-121.8 57.5,-189.2 0,-187.9 -152.2,-340.2 -340.1,-340.2 -28.7,0 -57.3,3.7 -85,10.8 l -1275.6,329.4 -0.3,-7478.4 c -282.1,34.4 -566,51.7 -850.1,51.7 -284.2,0 -568.1,-17.3 -850.1,-51.7 z M 24246.1,15794 V 4403.67 h -1700.8 l 0.3,11390.13 c 282,-34.4 565.9,-51.6 850.1,-51.6 284.1,0 568,17.2 850.1,51.6"
       style="fill:#000000;fill-opacity:1;fill-rule:nonzero;stroke:none"
       transform="matrix(0.13333333,0,0,-0.13333333,0,6049.3333)" />
    <path
       id="path6"
       d="m 29993.3,22687 c 0,-3643.7 -2953.9,-6597.6 -6597.6,-6597.6 -3643.8,0 -6597.6,2953.9 -6597.6,6597.6 0,3643.8 2953.8,6597.6 6597.6,6597.6 3643.7,0 6597.6,-2953.8 6597.6,-6597.6 z m -1736.2,0 c 0,2684.9 -2176.5,4861.4 -4861.4,4861.4 -2684.9,0 -4861.4,-2176.5 -4861.4,-4861.4 0,-2684.8 2176.5,-4861.4 4861.4,-4861.4 2684.9,0 4861.4,2176.6 4861.4,4861.4"
       style="fill:#c20a16;fill-opacity:1;fill-rule:nonzero;stroke:none"
       transform="matrix(0.13333333,0,0,-0.13333333,0,6049.3333)" />
    <path
       id="path7"
       d="m 20116.2,19793.3 -0.2,1 c -106.4,0 -192.7,86.3 -192.7,192.7 v 1927.6 c 0,106.4 86.3,192.7 192.7,192.7 h 579.7 c 106.5,0 192.7,-86.3 192.7,-192.7 V 19987 c 0,-106.4 -86.2,-192.7 -192.7,-192.7 z m 1157.5,0 0.3,1 c -106.5,0 -192.8,86.3 -192.8,192.7 v 1927.6 c 0,106.4 86.3,192.7 192.8,192.7 h 578.2 c 106.5,0 192.8,-86.3 192.8,-192.7 v -530.1 c 0,-106.4 86.3,-192.7 192.7,-192.7 l 367.1,1.4 c 99,0 194.2,38.1 265.9,106.3 l 126.2,118.2 c 107.5,102.4 250.3,159.6 398.8,159.6 148.5,0 291.3,-57.2 398.8,-159.6 l 126.2,-118.2 c 71.6,-68.2 166.9,-106.3 265.8,-106.3 l 367.1,-1.4 c 106.5,0 192.8,86.3 192.8,192.7 v 530.1 c 0,106.4 86.3,192.7 192.7,192.7 h 578.3 c 106.5,0 192.7,-86.3 192.7,-192.7 V 19987 c 0,-106.4 -86.2,-192.7 -192.7,-192.7 h -578.3 c -106.4,0 -192.7,86.3 -192.7,192.7 v 530.1 c 0,106.5 -86.3,192.8 -192.8,192.8 l -367.1,-1.5 c -98.9,0 -194.2,-38 -265.8,-106.3 l -126.2,-118.2 c -107.5,-102.4 -250.3,-159.5 -398.8,-159.5 -148.5,0 -291.3,57.1 -398.8,159.5 l -126.2,118.2 c -71.7,68.3 -166.9,106.3 -265.9,106.3 l -367.1,1.5 c -106.4,0 -192.7,-86.3 -192.7,-192.8 V 19987 c 0,-106.4 -86.3,-192.7 -192.8,-192.7 z m 4822.7,0 -0.7,1 c -106.5,0 -192.8,86.3 -192.8,192.7 v 1927.6 c 0,106.4 86.3,192.7 192.8,192.7 h 579.6 c 106.5,0 192.8,-86.3 192.8,-192.7 V 19987 c 0,-106.4 -86.3,-192.7 -192.8,-192.7 l -578.9,-1"
       style="fill:#000000;fill-opacity:1;fill-rule:nonzero;stroke:none"
       transform="matrix(0.13333333,0,0,-0.13333333,0,6049.3333)" />
    <path
       id="path8"
       d="m 23395.7,21934.7 -759.6,759.6 v 422 l 590.8,-590.8 v 928.4 h 337.6 v -928.4 l 590.8,590.8 v -422 l -759.6,-759.6"
       style="fill:#000000;fill-opacity:1;fill-rule:nonzero;stroke:none"
       transform="matrix(0.13333333,0,0,-0.13333333,0,6049.3333)" />
    <path
       id="path9"
       d="m 24866.9,23844.5 h -260.4 c -258.9,0 -468.8,209.9 -468.8,468.8 v 1276.1 h -208.4 v 338.5 h 208.4 v 625.1 h 416.7 v -625.1 h 312.5 v -338.5 h -312.5 v -1224 c 0,-72 58.3,-130.3 130.2,-130.3 h 182.3 v -390.6"
       style="fill:#000000;fill-opacity:1;fill-rule:nonzero;stroke:none"
       transform="matrix(0.13333333,0,0,-0.13333333,0,6049.3333)" />
    <path
       id="path10"
       d="m 21991.4,25361.5 c -181.2,143.3 -286.9,361.5 -286.9,592.5 0,460.3 373.2,833.4 833.4,833.4 460.3,0 833.4,-373.1 833.4,-833.4 0,-231 -105.7,-449.2 -286.9,-592.5 v 0 c 212.7,-151.5 339,-396.5 339,-657.6 0,-489 -396.4,-885.5 -885.5,-885.5 -489,0 -885.4,396.5 -885.4,885.5 0,261.1 126.2,506.1 338.9,657.6 z m 77.8,-657.6 c 0,-258.9 209.8,-468.8 468.7,-468.8 258.9,0 468.8,209.9 468.8,468.8 0,258.9 -209.9,468.8 -468.8,468.8 -258.9,0 -468.7,-209.9 -468.7,-468.8 z m 52,1250.1 c 0,-230.1 186.6,-416.7 416.7,-416.7 230.2,0 416.7,186.6 416.7,416.7 0,230.1 -186.5,416.7 -416.7,416.7 -230.1,0 -416.7,-186.6 -416.7,-416.7"
       style="fill:#000000;fill-opacity:1;fill-rule:nonzero;stroke:none"
       transform="matrix(0.13333333,0,0,-0.13333333,0,6049.3333)" />
  </g>
</svg>
