<?xml version="1.0" encoding="UTF-8" standalone="no"?>
<svg
   viewBox="0 0 600.99628 600.99628"
   height="600.99628"
   width="600.99628"
   xml:space="preserve"
   id="svg4824"
   version="1.1"
   sodipodi:docname="Zeichen_277.1_-_Verbot_des_Überholens_von_einspurigen_Fahrzeugen_für_mehrspurige_Kraftfahrzeuge_und_Krafträdern_mit_Beiwagen;_StVO_2020.svg"
   inkscape:version="1.3.2 (091e20e, 2023-11-25)"
   xmlns:inkscape="http://www.inkscape.org/namespaces/inkscape"
   xmlns:sodipodi="http://sodipodi.sourceforge.net/DTD/sodipodi-0.dtd"
   xmlns="http://www.w3.org/2000/svg"
   xmlns:svg="http://www.w3.org/2000/svg"
   xmlns:rdf="http://www.w3.org/1999/02/22-rdf-syntax-ns#"
   xmlns:cc="http://creativecommons.org/ns#"
   xmlns:dc="http://purl.org/dc/elements/1.1/"><sodipodi:namedview
     id="namedview1"
     pagecolor="#ffffff"
     bordercolor="#000000"
     borderopacity="0.25"
     inkscape:showpageshadow="2"
     inkscape:pageopacity="0.0"
     inkscape:pagecheckerboard="0"
     inkscape:deskcolor="#d1d1d1"
     inkscape:zoom="1.384368"
     inkscape:cx="258.60176"
     inkscape:cy="300.49814"
     inkscape:window-width="1392"
     inkscape:window-height="1027"
     inkscape:window-x="0"
     inkscape:window-y="25"
     inkscape:window-maximized="0"
     inkscape:current-layer="svg4824" /><metadata
     id="metadata4830"><rdf:RDF><cc:Work
         rdf:about=""><dc:format>image/svg+xml</dc:format><dc:type
           rdf:resource="http://purl.org/dc/dcmitype/StillImage" /></cc:Work></rdf:RDF></metadata><defs
     id="defs4828" /><path
     id="path4836"
     style="fill:#ffffff;fill-opacity:1;fill-rule:nonzero;stroke:none;stroke-width:1.33333"
     d="m 600.49998,300.50031 c 0,165.68666 -134.31199,299.99999 -299.99999,299.99999 C 134.812,600.5003 0.49999999,466.18697 0.49999999,300.50031 0.49999999,134.81231 134.812,0.50031501 300.49999,0.50031501 c 165.688,0 299.99999,134.31199499 299.99999,299.99999499 z" /><path
     id="path4838"
     style="fill:#000000;fill-opacity:1;fill-rule:nonzero;stroke:none;stroke-width:1.33333"
     d="M 300.49999,3.150249e-4 C 134.54133,3.150249e-4 0,134.54164 0,300.50031 c 0,165.95333 134.54133,300.49466 300.49999,300.49466 165.95333,0 300.49466,-134.54133 300.49466,-300.49466 C 600.99465,134.54164 466.45332,3.150249e-4 300.49999,3.150249e-4 Z m 0,0.4999999851 c 165.688,0 299.99999,134.31199499 299.99999,299.99999499 0,165.68666 -134.31199,299.99999 -299.99999,299.99999 C 134.812,600.5003 0.49999999,466.18697 0.49999999,300.50031 0.49999999,134.81231 134.812,0.50031501 300.49999,0.50031501 Z" /><path
     id="path4840"
     style="fill:#c1121c;fill-opacity:1;fill-rule:nonzero;stroke:none;stroke-width:1.33333"
     d="M 300.49999,10.500315 C 140.812,10.500315 10.5,140.81231 10.5,300.50031 c 0,159.68133 130.312,289.99999 289.99999,289.99999 159.68267,0 289.99466,-130.31866 289.99466,-289.99999 0,-159.688 -130.31199,-289.999995 -289.99466,-289.999995 z m 0,80.401331 c 116.23467,0 209.604,93.358664 209.604,209.598664 0,116.23466 -93.36933,209.60399 -209.604,209.60399 -116.23999,0 -209.598659,-93.36933 -209.598659,-209.60399 0,-116.24 93.358669,-209.598664 209.598659,-209.598664 z" /><path
     id="path4890"
     style="fill:#c1121c;fill-opacity:1;fill-rule:nonzero;stroke:none;stroke-width:1.33333"
     d="m 155.37466,236.44831 c -3.97866,0 -7.58266,2.35867 -9.17733,6.01067 l -15.828,36.38533 c -1.11867,2.572 -2.536,5 -4.21333,7.244 l -2.40667,3.204 c -1.556,2.07733 -2.4,4.604 -2.4,7.20266 v 26.02 c 0,5.532 4.484,10.01067 10.01067,10.01067 h 148.11866 c 5.52667,0 10.01067,-4.47867 10.01067,-10.01067 v -26.02 c 0,-2.59866 -0.844,-5.12533 -2.40134,-7.20266 l -2.40533,-3.204 c -1.67733,-2.244 -3.09467,-4.672 -4.21333,-7.244 l -15.83334,-36.38533 c -1.58933,-3.652 -5.19333,-6.01067 -9.17733,-6.01067 z m 2.40667,10.00533 h 95.276 c 1.59333,0 3.036,0.948 3.672,2.40534 l 13.744,31.62533 H 140.364 l 13.74533,-31.62533 c 0.636,-1.45734 2.07867,-2.40534 3.672,-2.40534 z" /><path
     id="path4892"
     style="fill:#c1121c;fill-opacity:1;fill-rule:nonzero;stroke:none;stroke-width:1.33333"
     d="m 131.36,336.52564 h 24.01466 v 22.02133 c 0,3.31734 -2.68666,6.00534 -6,6.00534 H 137.364 c -3.31734,0 -6.004,-2.688 -6.004,-6.00534 z m 124.09866,0 h 24.02 v 22.02133 c 0,3.31734 -2.68667,6.00534 -6.00533,6.00534 h -12.00934 c -3.31333,0 -6.00533,-2.688 -6.00533,-6.00534 v -22.02133" /><path
     id="path4894"
     style="fill:#000000;fill-opacity:1;fill-rule:nonzero;stroke:none;stroke-width:1.33333"
     d="m 319.51066,295.49497 h 160.13599 v 10.01067 H 319.51066 Z" /><path
     id="path4896"
     style="fill:#000000;fill-opacity:1;fill-rule:nonzero;stroke:none;stroke-width:1.33333"
     d="m 394.66132,376.96831 9.82267,0.0427 c 2.928,0 5.30267,2.37467 5.30267,5.30667 l 0.036,15.95333 h 5.73466 v 27.04133 h -5.73466 l -0.036,16.00534 c 0,2.92666 -2.37467,5.30266 -5.30267,5.30266 h -9.80667 c -2.932,0 -5.308,-2.376 -5.308,-5.30266 l -0.036,-22.15067 h -5.73466 V 404.4163 h 5.73466 l 0.036,-22.09866 c 0,-2.932 2.376,-5.30667 5.308,-5.30667" /><path
     id="path4898"
     style="fill:#000000;fill-opacity:1;fill-rule:nonzero;stroke:none;stroke-width:1.33333"
     d="m 373.76532,358.12031 51.636,-0.0267 c 1.12934,0 2.052,0.92133 2.052,2.052 l -0.016,16 -8.344,31.95866 -1.896,3.688 v -39.73999 h -35.23333 v 39.73999 l -1.90133,-3.688 -8.344,-31.95866 -0.0107,-16 c 0,-1.13067 0.91733,-2.052 2.052,-2.052" /><path
     id="path4900"
     style="fill:#000000;fill-opacity:1;fill-rule:nonzero;stroke:none;stroke-width:1.33333"
     d="m 381.34399,340.50564 h 0.016 l 5.50933,-0.0213 c 0,-2.71334 2.19867,-4.90667 4.90134,-4.90667 h 15.61466 c 2.708,0 4.90667,2.19333 4.90667,4.90667 l 5.50533,0.0467 c 5.30134,0 9.604,4.30267 9.604,9.60934 0,2.81866 -2.28666,5.104 -5.104,5.104 h -45.43733 c -2.81867,0 -5.10533,-2.28534 -5.10533,-5.104 0,-5.30667 4.30266,-9.60934 9.60933,-9.60934" /><path
     id="path4902"
     style="fill:#000000;fill-opacity:1;fill-rule:nonzero;stroke:none;stroke-width:1.33333"
     d="m 389.32266,327.36964 c -5.47334,0 -10.89067,-1.156 -15.89067,-3.39067 v 0.0627 c -0.62,-0.30667 -1.12,-0.536 -2.04667,-0.75467 l -12.78133,-2.98533 1.104,-4.79067 12.78667,2.984 c 1.05733,0.27067 1.964,0.59867 3.00533,1.08267 h 0.005 -0.005 l -0.0213,-0.005 c 3.808,1.69866 7.896,2.67733 12.05733,2.896 l 22.30267,0.0467 c 4.76533,0 9.47866,-1 13.83866,-2.94266 l -0.0213,0.005 c 1.03733,-0.484 1.94267,-0.812 3,-1.08267 l 12.78667,-2.984 1.104,4.79067 -12.78134,2.98533 c -0.92666,0.21867 -1.42666,0.448 -2.04133,0.75467 -4.60933,2.19733 -10.18267,3.328 -15.90133,3.34933 h -2.86934 v 4.916 h -15.57333 v -4.916 h -2.04667" /><path
     id="path4904"
     style="fill:#000000;fill-opacity:1;fill-rule:nonzero;stroke:none;stroke-width:1.33333"
     d="m 397.63066,207.82298 c -1.07867,0 -1.95334,0.87466 -1.95334,1.95333 l 0.02,33.87467 h -5.60933 v 21.56266 h -12.072 v 3.02133 h 12.072 v 1.724 h 3.02133 v -20.26666 h 2.588 l -0.02,33.844 c 0,1.07866 0.87467,1.948 1.95334,1.948 h 3.9 c 1.07866,0 1.95333,-0.86934 1.95333,-1.948 l -0.0253,-33.84933 h 5.60933 v -21.56134 h 12.072 v -3.016 h -12.072 v -1.72933 h -3.02133 v 20.27067 h -2.588 l 0.0253,-33.88 c 0,-1.07867 -0.87467,-1.948 -1.95333,-1.948 l -3.89067,0.0307" /><path
     id="path4906"
     style="fill:#000000;fill-opacity:1;fill-rule:nonzero;stroke:none;stroke-width:1.33333"
     d="m 385.34932,196.64031 28.44267,0.0213 c 1.18667,0 2.15067,0.964 2.15067,2.15067 l 0.0267,4.59333 v 1.86 l -1.29733,37.95334 -3.016,3.45333 v -41.40667 h -24.156 v 41.40667 l -3.016,-3.45333 -1.296,-37.95334 v -1.86 l 0.0253,-4.59333 c 0,-1.18667 0.96934,-2.15067 2.156,-2.15067" /><path
     id="path4908"
     style="fill:#000000;fill-opacity:1;fill-rule:nonzero;stroke:none;stroke-width:1.33333"
     d="m 396.55732,189.74431 h 6.04134 v 6.896 h -6.04134 z" /><path
     id="path4910"
     style="fill:#000000;fill-opacity:1;fill-rule:nonzero;stroke:none;stroke-width:1.33333"
     d="m 392.84932,179.82298 h -0.0107 l 13.448,0.0253 c 2.708,0 4.90133,2.19867 4.90133,4.90667 h 0.052 c 0,1.57333 -1.276,2.84933 -2.85467,2.84933 h -17.61466 c -1.57334,0 -2.84934,-1.276 -2.84934,-2.84933 h 0.048 c 0,-2.708 2.19734,-4.90667 4.90534,-4.90667" /><path
     id="path4912"
     style="fill:#000000;fill-opacity:1;fill-rule:nonzero;stroke:none;stroke-width:1.33333"
     d="m 394.40132,171.62964 h 10.35467 v 6.036 h -10.35467 z" /><path
     id="path4914"
     style="fill:#000000;fill-opacity:1;fill-rule:nonzero;stroke:none;stroke-width:1.33333"
     d="m 433.18799,159.95898 c -1.204,0 -2.35467,0.31733 -3.33867,0.88533 l -0.0213,-0.0213 c -1.01067,0.58266 -1.84933,1.42666 -2.43733,2.43733 l -0.036,-0.0253 c -2.19867,3.80666 -6.26134,6.156 -10.66134,6.156 l -34.24533,0.072 0.016,-0.072 c -4.396,0 -8.45867,-2.34934 -10.65733,-6.156 l -0.0413,0.0253 c -0.58266,-1.01067 -1.42133,-1.85467 -2.43733,-2.43733 l -0.0213,0.0213 c -0.984,-0.568 -2.13467,-0.88533 -3.33734,-0.88533 h -3.808 l -3.81733,-0.0267 c -1.04667,0 -1.90133,-0.84933 -1.90133,-1.90133 v -1.74934 c 0,-1.052 0.85466,-1.90666 1.90133,-1.90666 h 7.62533 l -0.016,0.052 c 4.396,0 8.46267,2.34933 10.66134,6.156 l 0.036,0.0267 c 0.584,1.01067 1.428,1.84934 2.43733,2.43734 l 0.016,-0.036 c 0.98933,0.56666 2.136,0.88 3.344,0.88 l 34.24933,-0.005 c 2.376,0 4.57334,-1.27066 5.76134,-3.328 l 0.0413,0.0253 c 2.19733,-3.80667 6.26,-6.156 10.66133,-6.156 l 3.83867,-0.0467 h 3.812 c 1.052,0 1.90667,0.84933 1.90667,1.90133 v 1.74934 c 0,1.052 -0.85467,1.90133 -1.90667,1.90133 l -3.812,0.0267 h -3.812" /></svg>
