<?xml version="1.0" encoding="UTF-8" standalone="no"?>
<!-- Created with Inkscape (http://www.inkscape.org/) -->

<svg
   version="1.1"
   id="svg1"
   width="7561.3335"
   height="6049.3335"
   viewBox="0 0 7561.3335 6049.3335"
   sodipodi:docname="550-60.eps"
   xmlns:inkscape="http://www.inkscape.org/namespaces/inkscape"
   xmlns:sodipodi="http://sodipodi.sourceforge.net/DTD/sodipodi-0.dtd"
   xmlns="http://www.w3.org/2000/svg"
   xmlns:svg="http://www.w3.org/2000/svg">
  <defs
     id="defs1" />
  <sodipodi:namedview
     id="namedview1"
     pagecolor="#ffffff"
     bordercolor="#000000"
     borderopacity="0.25"
     inkscape:showpageshadow="2"
     inkscape:pageopacity="0.0"
     inkscape:pagecheckerboard="0"
     inkscape:deskcolor="#d1d1d1">
    <inkscape:page
       x="0"
       y="0"
       inkscape:label="1"
       id="page1"
       width="7561.3335"
       height="6049.3335"
       margin="0"
       bleed="0" />
  </sodipodi:namedview>
  <g
     id="g1"
     inkscape:groupmode="layer"
     inkscape:label="1">
    <path
       id="path1"
       d="M 55001.8,10 H 1710.78 C 771.461,10 10,771.461 10,1710.78 V 43663.3 c 0,939.3 761.461,1700.7 1700.78,1700.7 H 55001.8 c 939.3,0 1700.8,-761.4 1700.8,-1700.7 V 1710.78 C 56702.6,771.461 55941.1,10 55001.8,10"
       style="fill:#ffffff;fill-opacity:1;fill-rule:nonzero;stroke:#000000;stroke-width:1;stroke-linecap:butt;stroke-linejoin:miter;stroke-miterlimit:4;stroke-dasharray:none;stroke-opacity:1"
       transform="matrix(0.13333333,0,0,-0.13333333,0,6049.3333)" />
    <path
       id="path2"
       d="M 55001.8,435.191 H 1710.78 c -704.49,0 -1275.589,571.099 -1275.589,1275.589 V 43663.3 c 0,704.5 571.099,1275.5 1275.589,1275.5 H 55001.8 c 704.5,0 1275.6,-571 1275.6,-1275.5 V 1710.78 c 0,-704.49 -571.1,-1275.589 -1275.6,-1275.589"
       style="fill:#000000;fill-opacity:1;fill-rule:nonzero;stroke:none"
       transform="matrix(0.13333333,0,0,-0.13333333,0,6049.3333)" />
    <path
       id="path3"
       d="M 55001.8,1002.12 H 1710.78 c -391.38,0 -708.66,317.28 -708.66,708.66 V 43663.3 c 0,391.3 317.28,708.6 708.66,708.6 H 55001.8 c 391.4,0 708.6,-317.3 708.6,-708.6 V 1710.78 c 0,-391.38 -317.2,-708.66 -708.6,-708.66"
       style="fill:#ffffff;fill-opacity:1;fill-rule:nonzero;stroke:none"
       transform="matrix(0.13333333,0,0,-0.13333333,0,6049.3333)" />
    <path
       id="path4"
       d="m 48340.4,37058.6 v -7608.2 c 0,-451 179.2,-883.6 498.2,-1202.6 l 4604.1,-4602 v -2405.3 l -5806.8,5804.7 c -637.9,637.9 -996.3,1503.1 -996.3,2405.2 v 7608.2 L 45364,36729.2 c -27.8,-7.1 -56.3,-10.8 -85,-10.8 -187.9,0 -340.2,152.3 -340.2,340.2 0,67.4 20.1,133.3 57.6,189.3 l 2493.6,3722.5 2493.7,-3722.5 c 37.5,-56 57.5,-121.9 57.5,-189.3 0,-187.9 -152.3,-340.2 -340.2,-340.2 -28.7,0 -57.2,3.7 -85,10.8 l -1275.6,329.4"
       style="fill:#000000;fill-opacity:1;fill-rule:nonzero;stroke:none"
       transform="matrix(0.13333333,0,0,-0.13333333,0,6049.3333)" />
    <path
       id="path5"
       d="M 42387.7,37058.6 V 26981.5 c 0,-451.1 179.2,-883.7 498.1,-1202.6 L 53442.7,15227.3 V 12822.1 L 41683.2,24576.2 c -637.9,637.9 -996.3,1503.1 -996.3,2405.3 v 10077.1 l -1275.6,-329.4 c -27.8,-7.1 -56.3,-10.8 -85,-10.8 -187.9,0 -340.2,152.3 -340.2,340.2 0,67.4 20,133.3 57.6,189.3 l 2493.6,3722.5 2493.6,-3722.5 c 37.5,-56 57.6,-121.9 57.6,-189.3 0,-187.9 -152.3,-340.2 -340.2,-340.2 -28.7,0 -57.2,3.7 -85,10.8 l -1275.6,329.4"
       style="fill:#000000;fill-opacity:1;fill-rule:nonzero;stroke:none"
       transform="matrix(0.13333333,0,0,-0.13333333,0,6049.3333)" />
    <path
       id="path6"
       d="M 36435,37058.6 V 24518.2 c 0,-451.1 179.2,-883.7 498.1,-1202.6 L 53442.7,6808.92 V 4403.67 L 35730.5,22112.9 c -637.9,638 -996.3,1503.1 -996.3,2405.3 v 12540.4 l -1275.6,-329.4 c -27.8,-7.1 -56.4,-10.8 -85,-10.8 -187.9,0 -340.2,152.3 -340.2,340.2 0,67.4 20,133.3 57.5,189.3 l 2493.7,3722.5 2493.6,-3722.5 c 37.5,-56 57.5,-121.9 57.5,-189.3 0,-187.9 -152.3,-340.2 -340.1,-340.2 -28.7,0 -57.3,3.7 -85,10.8 l -1275.6,329.4"
       style="fill:#000000;fill-opacity:1;fill-rule:nonzero;stroke:none"
       transform="matrix(0.13333333,0,0,-0.13333333,0,6049.3333)" />
    <path
       id="path7"
       d="M 30482.3,37058.6 V 4403.67 H 28781.5 V 37058.6 l -1275.6,-329.4 c -27.8,-7.1 -56.4,-10.8 -85,-10.8 -187.9,0 -340.2,152.3 -340.2,340.2 0,67.4 20,133.3 57.5,189.3 l 2493.7,3722.5 2493.6,-3722.5 c 37.5,-56 57.5,-121.9 57.5,-189.3 0,-187.9 -152.3,-340.2 -340.1,-340.2 -28.7,0 -57.3,3.7 -85,10.8 l -1275.6,329.4"
       style="fill:#000000;fill-opacity:1;fill-rule:nonzero;stroke:none"
       transform="matrix(0.13333333,0,0,-0.13333333,0,6049.3333)" />
    <path
       id="path8"
       d="m 22828.8,37058.6 -1275.7,-329.4 c -27.7,-7.1 -56.3,-10.8 -85,-10.8 -187.8,0 -340.1,152.3 -340.1,340.2 0,67.4 20,133.3 57.5,189.3 l 2493.6,3722.5 2493.7,-3722.5 c 37.5,-56 57.5,-121.9 57.5,-189.3 0,-187.9 -152.3,-340.2 -340.2,-340.2 -28.6,0 -57.2,3.7 -85,10.8 l -1275.6,329.4 V 4403.67 H 22828.8 V 37058.6"
       style="fill:#000000;fill-opacity:1;fill-rule:nonzero;stroke:none"
       transform="matrix(0.13333333,0,0,-0.13333333,0,6049.3333)" />
    <path
       id="path9"
       d="m 16876,37058.6 -1275.6,-329.4 c -27.7,-7.1 -56.3,-10.8 -85,-10.8 -187.8,0 -340.1,152.3 -340.1,340.2 0,67.4 20,133.3 57.5,189.3 l 2493.6,3722.5 2493.7,-3722.5 c 37.5,-56 57.5,-121.9 57.5,-189.3 0,-187.9 -152.3,-340.2 -340.2,-340.2 -28.6,0 -57.2,3.7 -85,10.8 l -1275.6,329.4 V 4403.67 H 16876 V 37058.6"
       style="fill:#000000;fill-opacity:1;fill-rule:nonzero;stroke:none"
       transform="matrix(0.13333333,0,0,-0.13333333,0,6049.3333)" />
    <path
       id="path10"
       d="m 10923.3,37058.6 -1275.61,-329.4 c -27.76,-7.1 -56.32,-10.8 -84.99,-10.8 -187.87,0 -340.16,152.3 -340.16,340.2 0,67.4 20.02,133.3 57.52,189.3 l 2493.64,3722.5 2493.7,-3722.5 c 37.5,-56 57.5,-121.9 57.5,-189.3 0,-187.9 -152.3,-340.2 -340.2,-340.2 -28.7,0 -57.2,3.7 -85,10.8 l -1275.6,329.4 V 4403.67 H 10923.3 V 37058.6"
       style="fill:#000000;fill-opacity:1;fill-rule:nonzero;stroke:none"
       transform="matrix(0.13333333,0,0,-0.13333333,0,6049.3333)" />
    <path
       id="path11"
       d="m 4970.6,37058.6 -1275.63,-329.4 c -27.76,-7.1 -56.32,-10.8 -84.99,-10.8 -187.87,0 -340.16,152.3 -340.16,340.2 0,67.4 20.02,133.3 57.53,189.3 l 2493.64,3722.5 2493.64,-3722.5 c 37.5,-56 57.52,-121.9 57.52,-189.3 0,-187.9 -152.29,-340.2 -340.15,-340.2 -28.69,0 -57.25,3.7 -85.03,10.8 l -1275.59,329.4 V 4403.67 H 4970.6 V 37058.6"
       style="fill:#000000;fill-opacity:1;fill-rule:nonzero;stroke:none"
       transform="matrix(0.13333333,0,0,-0.13333333,0,6049.3333)" />
  </g>
</svg>
