<?xml version="1.0" encoding="UTF-8" standalone="no"?>
<!DOCTYPE svg PUBLIC "-//W3C//DTD SVG 1.1//EN" "http://www.w3.org/Graphics/SVG/1.1/DTD/svg11.dtd">
<svg width="601px" height="601px" version="1.1" xmlns="http://www.w3.org/2000/svg" xmlns:xlink="http://www.w3.org/1999/xlink" xml:space="preserve" xmlns:serif="http://www.serif.com/" style="fill-rule:evenodd;clip-rule:evenodd;stroke-linejoin:round;stroke-miterlimit:2;">
    <g id="g17808">
        <g id="g17810">
            <path id="path17812" d="M560.49,0.5L40.51,0.5C18.406,0.5 0.505,18.396 0.505,40.489L0.505,560.505C0.505,582.599 18.406,600.52 40.51,600.52L560.49,600.52C582.583,600.52 600.495,582.599 600.495,560.505L600.495,40.489C600.495,18.396 582.583,0.5 560.49,0.5" style="fill:#fff;fill-rule:nonzero;"/>
            <path id="path17814" d="M40.51,0C18.14,0 -0,18.124 -0,40.489L-0,560.515C-0,582.875 18.14,601 40.51,601L560.485,601C582.844,601 601,582.88 601,560.515L601,40.489C601,18.124 582.844,0 560.485,0L40.51,0ZM40.51,0.5L560.49,0.5C582.583,0.5 600.495,18.396 600.495,40.489L600.495,560.505C600.495,582.599 582.583,600.52 560.49,600.52L40.51,600.52C18.406,600.52 0.505,582.599 0.505,560.505L0.505,40.489C0.505,18.396 18.406,0.5 40.51,0.5Z" style="fill-rule:nonzero;"/>
            <path id="path17816" d="M40.51,10.489C23.942,10.489 10.5,23.932 10.5,40.489L10.5,560.505C10.5,577.078 23.942,590.51 40.51,590.51L560.506,590.51C577.063,590.51 590.506,577.078 590.506,560.505L590.506,40.489C590.506,23.932 577.063,10.489 560.506,10.489L40.51,10.489ZM40.51,25.489L560.506,25.489C568.777,25.489 575.49,32.202 575.49,40.489L575.49,560.505C575.49,568.791 568.777,575.504 560.506,575.504L40.51,575.504C32.223,575.504 25.5,568.791 25.5,560.505L25.5,40.489C25.5,32.202 32.223,25.489 40.51,25.489Z" style="fill-rule:nonzero;"/>
            <path id="path17818" d="M520.501,75.504C523.261,75.504 525.501,77.743 525.501,80.504L525.501,520.501C525.501,523.267 523.261,525.501 520.501,525.501L80.499,525.501C77.739,525.501 75.499,523.267 75.499,520.501L75.499,80.504C75.499,77.743 77.739,75.504 80.499,75.504L520.501,75.504ZM327.5,116.503L305.5,116.503L308.5,210.502L355.499,210.502L327.5,116.503ZM295.5,116.503L273.5,116.503L245.501,210.502L292.5,210.502L295.5,116.503ZM341.499,227.303L323,227.319L323,238.568L341.499,238.553C346.431,238.553 350.786,241.766 352.25,246.474L356.75,261.067L256.261,261.067L252.042,249.818L275.85,244.125C277.11,243.824 278,242.698 278,241.401C278,239.854 276.746,238.6 275.199,238.6L227.371,238.568L227.371,249.818L240.028,249.818L244.246,261.067L227.933,297.572C222.304,295.739 216.419,294.801 210.502,294.801C179.434,294.801 154.253,319.989 154.253,351.051C154.253,382.117 179.434,407.299 210.502,407.299C237.23,407.299 260.266,388.493 265.615,362.3L289.251,362.3C292.437,362.3 295.475,360.951 297.604,358.582L364.103,284.828L368.577,299.249C347.77,308.057 334.25,328.457 334.25,351.051C334.25,382.117 359.436,407.299 390.498,407.299C421.566,407.299 446.752,382.117 446.752,351.051C446.752,319.989 421.566,294.801 390.498,294.801C386.749,294.801 383.004,295.176 379.321,295.927L362.994,243.146C360.078,233.725 351.364,227.303 341.499,227.303ZM360.228,272.318L289.787,350.467L260.479,272.318L360.228,272.318ZM249.87,276.063L277.995,351.066L266.751,351.051C266.751,330.795 255.855,312.098 238.23,302.115L249.87,276.063ZM390.498,306.052C415.353,306.052 435.498,326.202 435.498,351.051C435.498,375.904 415.353,396.05 390.498,396.05C365.644,396.05 345.499,375.904 345.499,351.051C345.499,333.39 355.832,317.358 371.925,310.066L385.102,352.723C385.837,355.087 388.025,356.702 390.498,356.702C393.618,356.702 396.149,354.175 396.149,351.051C396.149,350.488 396.066,349.926 395.9,349.384L382.665,306.755L382.671,306.739C385.254,306.281 387.873,306.052 390.498,306.052ZM210.502,306.052C214.835,306.052 219.152,306.681 223.313,307.916L202.586,354.42C202.267,355.139 202.1,355.915 202.1,356.702C202.1,359.795 204.606,362.3 207.7,362.3L254.069,362.316C248.933,382.18 231.012,396.05 210.502,396.05C185.647,396.05 165.502,375.904 165.502,351.051C165.502,326.202 185.647,306.052 210.502,306.052ZM233.611,312.442C247.189,320.566 255.501,335.229 255.501,351.051L255.495,351.056L255.495,351.066L216.361,351.066L233.611,312.442ZM423.498,425.503L314.5,425.503L318.5,484.502L443.497,484.502L423.498,425.503ZM286.5,425.503L177.502,425.503L157.503,484.502L282.5,484.502L286.5,425.503Z" style="fill:#8a8a8a;fill-rule:nonzero;"/>
            <path id="path17820" d="M523.527,25.505L25.5,523.532L25.5,508.683L508.679,25.505L523.527,25.505" style="fill-rule:nonzero;"/>
            <path id="path17822" d="M553.225,25.505L25.5,553.229L25.5,538.381L538.376,25.505L553.225,25.505" style="fill-rule:nonzero;"/>
            <path id="path17824" d="M574.151,34.275L34.27,574.146C30.989,572.651 28.354,570.015 26.854,566.734L566.73,26.858C570.017,28.358 572.646,30.989 574.146,34.275" style="fill-rule:nonzero;"/>
            <path id="path17826" d="M575.5,62.623L62.624,575.504L47.775,575.504L575.5,47.775L575.5,62.623" style="fill-rule:nonzero;"/>
            <path id="path17828" d="M575.5,92.326L92.321,575.504L77.472,575.504L575.5,77.472L575.5,92.326" style="fill-rule:nonzero;"/>
        </g>
    </g>
</svg>
