<?xml version="1.0" encoding="UTF-8" standalone="no"?>
<!-- Created with Inkscape (http://www.inkscape.org/) -->

<svg
   version="1.1"
   id="svg1"
   width="6049.3335"
   height="6049.3335"
   viewBox="0 0 6049.3335 6049.3335"
   sodipodi:docname="501-60.eps"
   xmlns:inkscape="http://www.inkscape.org/namespaces/inkscape"
   xmlns:sodipodi="http://sodipodi.sourceforge.net/DTD/sodipodi-0.dtd"
   xmlns="http://www.w3.org/2000/svg"
   xmlns:svg="http://www.w3.org/2000/svg">
  <defs
     id="defs1" />
  <sodipodi:namedview
     id="namedview1"
     pagecolor="#ffffff"
     bordercolor="#000000"
     borderopacity="0.25"
     inkscape:showpageshadow="2"
     inkscape:pageopacity="0.0"
     inkscape:pagecheckerboard="0"
     inkscape:deskcolor="#d1d1d1">
    <inkscape:page
       x="0"
       y="0"
       inkscape:label="1"
       id="page1"
       width="6049.3335"
       height="6049.3335"
       margin="0"
       bleed="0" />
  </sodipodi:namedview>
  <g
     id="g1"
     inkscape:groupmode="layer"
     inkscape:label="1">
    <path
       id="path1"
       d="M 1710.78,10 C 771.461,10 10,771.461 10,1710.78 V 43663.3 c 0,939.3 761.461,1700.7 1700.78,1700.7 H 43663.3 c 939.3,0 1700.7,-761.4 1700.7,-1700.7 V 1710.78 C 45364,771.461 44602.6,10 43663.3,10 H 1710.78"
       style="fill:#ffffff;fill-opacity:1;fill-rule:nonzero;stroke:#000000;stroke-width:1;stroke-linecap:butt;stroke-linejoin:miter;stroke-miterlimit:4;stroke-dasharray:none;stroke-opacity:1"
       transform="matrix(0.13333333,0,0,-0.13333333,0,6049.3333)" />
    <path
       id="path2"
       d="m 1710.78,435.191 c -704.49,0 -1275.589,571.099 -1275.589,1275.589 V 43663.3 c 0,704.5 571.099,1275.5 1275.589,1275.5 H 43663.3 c 704.5,0 1275.5,-571 1275.5,-1275.5 V 1710.78 c 0,-704.49 -571,-1275.589 -1275.5,-1275.589 H 1710.78"
       style="fill:#000000;fill-opacity:1;fill-rule:nonzero;stroke:none"
       transform="matrix(0.13333333,0,0,-0.13333333,0,6049.3333)" />
    <path
       id="path3"
       d="m 1710.78,1002.12 c -391.38,0 -708.66,317.28 -708.66,708.66 V 43663.3 c 0,391.3 317.28,708.6 708.66,708.6 H 43663.3 c 391.3,0 708.6,-317.3 708.6,-708.6 V 1710.78 c 0,-391.38 -317.3,-708.66 -708.6,-708.66 H 1710.78"
       style="fill:#ffffff;fill-opacity:1;fill-rule:nonzero;stroke:none"
       transform="matrix(0.13333333,0,0,-0.13333333,0,6049.3333)" />
    <path
       id="path4"
       d="M 16025.6,35868 C 15738.9,23463.5 7560.97,19102.8 7238.3,6813.26 V 4403.67 H 8939.08 V 6813.26 C 9261.7,19102.8 17439.8,23463.5 17726.4,35868.3 v 1190.3 l 1275.6,-329.4 c 27.8,-7.1 56.4,-10.8 85.1,-10.8 187.8,0 340.1,152.3 340.1,340.2 0,67.4 -20,133.2 -57.5,189.2 L 16876,40970.4 14382.4,37247.8 c -37.5,-56 -57.5,-121.8 -57.5,-189.2 0,-187.9 152.3,-340.2 340.1,-340.2 28.7,0 57.3,3.7 85.1,10.8 l 1275.5,329.4 V 35868"
       style="fill:#000000;fill-opacity:1;fill-rule:nonzero;stroke:none"
       transform="matrix(0.13333333,0,0,-0.13333333,0,6049.3333)" />
    <path
       id="path5"
       d="M 22828.8,35868 C 22542.1,23463.5 14364.1,19102.8 14041.4,6813.26 V 4403.67 h 1700.8 v 2409.59 c 322.6,12289.54 8500.7,16650.24 8787.4,29055.04 l -0.1,1190.3 1275.6,-329.4 c 27.8,-7.1 56.4,-10.8 85,-10.8 187.9,0 340.2,152.3 340.2,340.2 0,67.4 -20,133.2 -57.5,189.2 l -2493.7,3722.6 -2493.6,-3722.6 c -37.5,-56 -57.5,-121.8 -57.5,-189.2 0,-187.9 152.3,-340.2 340.1,-340.2 28.7,0 57.3,3.7 85.1,10.8 l 1275.6,329.4 V 35868"
       style="fill:#000000;fill-opacity:1;fill-rule:nonzero;stroke:none"
       transform="matrix(0.13333333,0,0,-0.13333333,0,6049.3333)" />
    <path
       id="path6"
       d="m 29631.9,37058.6 -1275.6,-329.4 c -27.8,-7.1 -56.4,-10.8 -85.1,-10.8 -187.8,0 -340.1,152.3 -340.1,340.2 0,67.4 20,133.2 57.5,189.2 l 2493.7,3722.6 2493.6,-3722.6 c 37.5,-56 57.5,-121.8 57.5,-189.2 0,-187.9 -152.3,-340.2 -340.1,-340.2 -28.7,0 -57.3,3.7 -85.1,10.8 l -1275.6,329.4 V 4403.67 H 29631.9 V 37058.6"
       style="fill:#000000;fill-opacity:1;fill-rule:nonzero;stroke:none"
       transform="matrix(0.13333333,0,0,-0.13333333,0,6049.3333)" />
    <path
       id="path7"
       d="m 36435,37058.6 -1275.6,-329.4 c -27.8,-7.1 -56.4,-10.8 -85,-10.8 -187.9,0 -340.2,152.3 -340.2,340.2 0,67.4 20,133.2 57.5,189.2 l 2493.7,3722.6 2493.6,-3722.6 c 37.5,-56 57.5,-121.8 57.5,-189.2 0,-187.9 -152.3,-340.2 -340.1,-340.2 -28.7,0 -57.3,3.7 -85.1,10.8 l -1275.6,329.4 V 4403.67 H 36435 V 37058.6"
       style="fill:#000000;fill-opacity:1;fill-rule:nonzero;stroke:none"
       transform="matrix(0.13333333,0,0,-0.13333333,0,6049.3333)" />
    <path
       id="path8"
       d="m 10072.9,43521.5 h 850.4 c 0,-2378.8 -399.2,-4740.7 -1181.08,-6987.4 v 0 c -118.95,-341.8 -441.22,-570.9 -803.14,-570.9 -361.93,0 -684.19,229.1 -803.15,570.9 v 0 c -781.85,2246.7 -1181.09,4608.6 -1181.09,6987.4 h 850.39 c 0,-2283.6 383.27,-4551.1 1133.85,-6707.9 v 0 c 750.57,2156.8 1133.82,4424.3 1133.82,6707.9"
       style="fill:#000000;fill-opacity:1;fill-rule:nonzero;stroke:none"
       transform="matrix(0.13333333,0,0,-0.13333333,0,6049.3333)" />
    <path
       id="path9"
       d="m 23820.9,1852.51 c 0,2283.67 -383.3,4551.15 -1133.9,6707.95 v 0 C 21936.4,6403.66 21553.2,4136.18 21553.2,1852.51 h -850.4 c 0,2378.82 399.2,4740.78 1181.1,6987.45 v -0.01 c 118.9,341.82 441.2,570.89 803.1,570.89 361.9,0 684.2,-229.07 803.2,-570.89 v 0.01 C 24272,6593.29 24671.3,4231.33 24671.3,1852.51 h -850.4"
       style="fill:#000000;fill-opacity:1;fill-rule:nonzero;stroke:none"
       transform="matrix(0.13333333,0,0,-0.13333333,0,6049.3333)" />
  </g>
</svg>
