<?xml version="1.0" encoding="UTF-8" standalone="no"?>
<!-- Created with Inkscape (http://www.inkscape.org/) -->

<svg
   version="1.1"
   id="svg1"
   width="6049.3335"
   height="6049.3335"
   viewBox="0 0 6049.3335 6049.3335"
   sodipodi:docname="Zeichen 551-26 Zusammenführungstafel - an einmündender Strecke.svg"
   inkscape:version="1.3.2 (091e20ef0f, 2023-11-25)"
   xmlns:inkscape="http://www.inkscape.org/namespaces/inkscape"
   xmlns:sodipodi="http://sodipodi.sourceforge.net/DTD/sodipodi-0.dtd"
   xmlns="http://www.w3.org/2000/svg"
   xmlns:svg="http://www.w3.org/2000/svg">
  <defs
     id="defs1" />
  <sodipodi:namedview
     id="namedview1"
     pagecolor="#ffffff"
     bordercolor="#000000"
     borderopacity="0.25"
     inkscape:showpageshadow="2"
     inkscape:pageopacity="0.0"
     inkscape:pagecheckerboard="0"
     inkscape:deskcolor="#d1d1d1"
     inkscape:zoom="0.085877229"
     inkscape:cx="1799.0799"
     inkscape:cy="4698.568"
     inkscape:window-width="1920"
     inkscape:window-height="1243"
     inkscape:window-x="3440"
     inkscape:window-y="0"
     inkscape:window-maximized="0"
     inkscape:current-layer="g1">
    <inkscape:page
       x="0"
       y="0"
       inkscape:label="1"
       id="page1"
       width="6049.3335"
       height="6049.3335"
       margin="0"
       bleed="0" />
  </sodipodi:namedview>
  <g
     id="g1"
     inkscape:groupmode="layer"
     inkscape:label="1">
    <path
       id="path1"
       d="M 1710.78,10 C 771.461,10 10,771.461 10,1710.78 V 43663.3 c 0,939.3 761.461,1700.7 1700.78,1700.7 H 43663.3 c 939.3,0 1700.7,-761.4 1700.7,-1700.7 V 1710.78 C 45364,771.461 44602.6,10 43663.3,10 H 1710.78"
       style="fill:#ffffff;fill-opacity:1;fill-rule:nonzero;stroke:#000000;stroke-width:1;stroke-linecap:butt;stroke-linejoin:miter;stroke-miterlimit:4;stroke-dasharray:none;stroke-opacity:1"
       transform="matrix(0.13333333,0,0,-0.13333333,0,6049.3333)" />
    <path
       id="path2"
       d="m 1710.78,435.191 c -704.49,0 -1275.589,571.099 -1275.589,1275.589 V 43663.3 c 0,704.5 571.099,1275.5 1275.589,1275.5 H 43663.3 c 704.5,0 1275.5,-571 1275.5,-1275.5 V 1710.78 c 0,-704.49 -571,-1275.589 -1275.5,-1275.589 H 1710.78"
       style="fill:#000000;fill-opacity:1;fill-rule:nonzero;stroke:none"
       transform="matrix(0.13333333,0,0,-0.13333333,0,6049.3333)" />
    <path
       id="path3"
       d="m 1710.78,1002.12 c -391.38,0 -708.66,317.28 -708.66,708.66 V 43663.3 c 0,391.3 317.28,708.6 708.66,708.6 H 43663.3 c 391.3,0 708.6,-317.3 708.6,-708.6 V 1710.78 c 0,-391.38 -317.3,-708.66 -708.6,-708.66 H 1710.78"
       style="fill:#ffffff;fill-opacity:1;fill-rule:nonzero;stroke:none"
       transform="matrix(0.13333333,0,0,-0.13333333,0,6049.3333)" />
    <path
       id="path4"
       d="M 36858,17698.4 30351.1,11182 c -318.9,-318.9 -498.1,-751.5 -498.1,-1202.61 l -5.6,-6709.57 h -1700.8 l -0.1,6709.57 c 0,902.11 358.4,1767.31 996.3,2405.21 l 6512.6,6516.4 -1135,669.6 c -103.8,61.2 -167.5,172.7 -167.5,293.1 0,162.4 114.8,302.2 274.2,333.7 l 4395.7,868.3 -869.4,-4394.6 c -31.6,-159.3 -171.3,-274.1 -333.7,-274.1 -120.4,0 -231.9,63.6 -293,167.4 l -668.7,1134"
       style="fill:#000000;fill-opacity:1;fill-rule:nonzero;stroke:none"
       transform="matrix(0.13333333,0,0,-0.13333333,0,6049.3333)" />
    <path
       id="path5"
       d="m 32648.8,21907.6 -8254.4,-8256.9 c -320,-320 -499.8,-754 -499.8,-1206.6 l 0.1,-9174.28 h -1700.8 l -0.1,9175.68 c 0,902.2 358.4,1767.4 996.3,2405.3 l 8256.1,8259.4 -1135.3,668.5 c -103.7,61.2 -167.4,172.6 -167.4,293 0,162.4 114.8,302.2 274.1,333.7 l 4396,869.6 -869.7,-4395.9 c -31.5,-159.3 -171.3,-274.1 -333.6,-274.1 -120.4,0 -231.9,63.7 -293,167.4 l -668.5,1135.2"
       style="display:none;fill:#000000;fill-opacity:1;fill-rule:nonzero;stroke:none"
       transform="matrix(0.13333333,0,0,-0.13333333,0,6049.3333)" />
    <path
       id="path6"
       d="m 28439.6,26116.8 -8258.1,-8258.1 -1202.6,1202.7 8258.1,8258 -1135.6,668.8 c -103.7,61.1 -167.3,172.6 -167.3,293 0,162.4 114.8,302.1 274.1,333.6 l 4396.1,869.4 -868.4,-4395.7 c -31.5,-159.3 -171.2,-274.1 -333.6,-274.1 -120.5,0 -231.9,63.7 -293.1,167.4 l -669.6,1135"
       style="fill:#000000;fill-opacity:1;fill-rule:nonzero;stroke:none"
       transform="matrix(0.13333333,0,0,-0.13333333,0,6049.3333)" />
    <path
       id="path6-3"
       d="m 4353.1733,3128.3201 -1101.08,1101.08 -160.3467,-160.36 1101.08,-1101.0667 -151.4133,-89.1733 c -13.8267,-8.1467 -22.3067,-23.0133 -22.3067,-39.0667 0,-21.6533 15.3067,-40.28 36.5467,-44.48 l 586.1466,-115.92 -115.7866,586.0934 c -4.2,21.2399 -22.8267,36.5466 -44.48,36.5466 -16.0667,0 -30.92,-8.4933 -39.08,-22.32 l -89.28,-151.3333"
       style="fill:#000000;fill-opacity:1;fill-rule:nonzero;stroke:none;stroke-width:0.133333" />
    <path
       id="path7"
       d="m 23027.8,31528.6 -1134.4,669 c -103.7,61.2 -167.3,172.6 -167.3,293 0,162.4 114.8,302.1 274.1,333.7 l 4394.9,869.1 -868.6,-4395.5 c -31.5,-159.3 -171.3,-274.1 -333.7,-274.1 -120.4,0 -231.8,63.7 -293,167.4 l -669.4,1134.8 -8258.1,-8258.1 -1202.6,1202.7 8258.1,8258"
       style="fill:#000000;fill-opacity:1;fill-rule:nonzero;stroke:none"
       transform="matrix(0.13333333,0,0,-0.13333333,0,6049.3333)" />
    <path
       id="path8"
       d="M 18818.6,35737.8 17684,36407 c -103.7,61.2 -167.3,172.6 -167.3,293 0,162.4 114.7,302.1 274.1,333.7 l 4395.1,868.9 -868.8,-4395.3 c -31.5,-159.3 -171.3,-274 -333.7,-274 -120.4,0 -231.8,63.6 -293,167.3 l -669.2,1134.6 -8258.1,-8258.1 -1202.6,1202.7 8258.1,8258"
       style="fill:#000000;fill-opacity:1;fill-rule:nonzero;stroke:none"
       transform="matrix(0.13333333,0,0,-0.13333333,0,6049.3333)" />
    <path
       id="path9"
       d="m 14609.4,39947 -1134.8,669.4 c -103.7,61.2 -167.4,172.6 -167.4,293 0,162.4 114.8,302.2 274.1,333.7 l 4395.4,868.7 -869,-4395 c -31.6,-159.3 -171.3,-274.1 -333.7,-274.1 -120.4,0 -231.9,63.6 -293,167.4 l -669,1134.3 -8258.08,-8258 -1202.63,1202.6 8258.11,8258"
       style="fill:#000000;fill-opacity:1;fill-rule:nonzero;stroke:none"
       transform="matrix(0.13333333,0,0,-0.13333333,0,6049.3333)" />
  </g>
</svg>
