<?xml version="1.0" encoding="UTF-8" standalone="no"?>
<!-- Created with Inkscape (http://www.inkscape.org/) -->

<svg
   version="1.1"
   id="svg1"
   width="6049.3335"
   height="6049.3335"
   viewBox="0 0 6049.3335 6049.3335"
   sodipodi:docname="501-52.eps"
   xmlns:inkscape="http://www.inkscape.org/namespaces/inkscape"
   xmlns:sodipodi="http://sodipodi.sourceforge.net/DTD/sodipodi-0.dtd"
   xmlns="http://www.w3.org/2000/svg"
   xmlns:svg="http://www.w3.org/2000/svg">
  <defs
     id="defs1" />
  <sodipodi:namedview
     id="namedview1"
     pagecolor="#ffffff"
     bordercolor="#000000"
     borderopacity="0.25"
     inkscape:showpageshadow="2"
     inkscape:pageopacity="0.0"
     inkscape:pagecheckerboard="0"
     inkscape:deskcolor="#d1d1d1">
    <inkscape:page
       x="0"
       y="0"
       inkscape:label="1"
       id="page1"
       width="6049.3335"
       height="6049.3335"
       margin="0"
       bleed="0" />
  </sodipodi:namedview>
  <g
     id="g1"
     inkscape:groupmode="layer"
     inkscape:label="1">
    <path
       id="path1"
       d="M 1710.78,10 C 771.461,10 10,771.461 10,1710.78 V 43663.3 c 0,939.3 761.461,1700.7 1700.78,1700.7 H 43663.3 c 939.3,0 1700.7,-761.4 1700.7,-1700.7 V 1710.78 C 45364,771.461 44602.6,10 43663.3,10 H 1710.78"
       style="fill:#ffffff;fill-opacity:1;fill-rule:nonzero;stroke:#000000;stroke-width:1;stroke-linecap:butt;stroke-linejoin:miter;stroke-miterlimit:4;stroke-dasharray:none;stroke-opacity:1"
       transform="matrix(0.13333333,0,0,-0.13333333,0,6049.3333)" />
    <path
       id="path2"
       d="m 1710.78,435.191 c -704.49,0 -1275.589,571.099 -1275.589,1275.589 V 43663.3 c 0,704.5 571.099,1275.5 1275.589,1275.5 H 43663.3 c 704.5,0 1275.5,-571 1275.5,-1275.5 V 1710.78 c 0,-704.49 -571,-1275.589 -1275.5,-1275.589 H 1710.78"
       style="fill:#000000;fill-opacity:1;fill-rule:nonzero;stroke:none"
       transform="matrix(0.13333333,0,0,-0.13333333,0,6049.3333)" />
    <path
       id="path3"
       d="m 1710.78,1002.12 c -391.38,0 -708.66,317.28 -708.66,708.66 V 43663.3 c 0,391.3 317.28,708.6 708.66,708.6 H 43663.3 c 391.3,0 708.6,-317.3 708.6,-708.6 V 1710.78 c 0,-391.38 -317.3,-708.66 -708.6,-708.66 H 1710.78"
       style="fill:#ffffff;fill-opacity:1;fill-rule:nonzero;stroke:none"
       transform="matrix(0.13333333,0,0,-0.13333333,0,6049.3333)" />
    <path
       id="path4"
       d="m 6387.91,37058.6 -1275.59,-329.4 c -27.78,-7.1 -56.35,-10.8 -85.03,-10.8 -187.86,0 -340.15,152.3 -340.15,340.2 0,67.4 20.01,133.2 57.5,189.2 l 2493.66,3722.6 2493.66,-3722.6 c 37.49,-56 57.51,-121.8 57.51,-189.2 0,-187.9 -152.3,-340.2 -340.16,-340.2 -28.68,0 -57.25,3.7 -85.02,10.8 l -1275.6,329.4 V 35868 c 0,-5442.5 2562.41,-10567.4 6916.51,-13832.9 l 340.2,-255.2 c 4710.9,-3533.2 7483.4,-9078.1 7483.4,-14966.79 V 4403.67 H 21128 v 2409.44 c 0,5353.29 -2520.5,10394.19 -6803.1,13606.19 l -340.2,255.2 C 9202.41,24261.2 6387.91,29890.2 6387.91,35868 v 1190.6"
       style="fill:#000000;fill-opacity:1;fill-rule:nonzero;stroke:none"
       transform="matrix(0.13333333,0,0,-0.13333333,0,6049.3333)" />
    <path
       id="path5"
       d="m 19994.1,35868 v 1190.6 l 1275.6,-329.4 c 27.8,-7.1 56.4,-10.8 85.1,-10.8 187.8,0 340.1,152.3 340.1,340.2 0,67.4 -20,133.2 -57.5,189.2 l -2493.7,3722.6 -2493.6,-3722.6 c -37.5,-56 -57.5,-121.8 -57.5,-189.2 0,-187.9 152.3,-340.2 340.1,-340.2 28.7,0 57.3,3.7 85.1,10.8 l 1275.6,329.4 -0.1,-1190.3 C 18580,23463.5 26758.1,19102.8 27080.7,6813.26 V 4403.67 h 1700.8 V 6813.26 C 28458.8,19102.8 20280.8,23463.5 19994.1,35868"
       style="fill:#000000;fill-opacity:1;fill-rule:nonzero;stroke:none"
       transform="matrix(0.13333333,0,0,-0.13333333,0,6049.3333)" />
    <path
       id="path6"
       d="m 25946.8,35868 v 1190.6 l 1275.6,-329.4 c 27.8,-7.1 56.4,-10.8 85.1,-10.8 187.8,0 340.1,152.3 340.1,340.2 0,67.4 -20,133.2 -57.5,189.2 l -2493.6,3722.6 -2493.7,-3722.6 c -37.5,-56 -57.5,-121.8 -57.5,-189.2 0,-187.9 152.3,-340.2 340.1,-340.2 28.7,0 57.3,3.7 85.1,10.8 l 1275.6,329.4 -0.1,-1190.3 C 24532.7,23463.5 32710.8,19102.8 33033.4,6813.26 V 4403.67 h 1700.8 V 6813.26 C 34411.5,19102.8 26233.6,23463.5 25946.8,35868"
       style="fill:#000000;fill-opacity:1;fill-rule:nonzero;stroke:none"
       transform="matrix(0.13333333,0,0,-0.13333333,0,6049.3333)" />
    <path
       id="path7"
       d="m 31899.6,35868 v 1190.6 l 1275.6,-329.4 c 27.7,-7.1 56.3,-10.8 85,-10.8 187.9,0 340.1,152.3 340.1,340.2 0,67.4 -20,133.2 -57.5,189.2 l -2493.6,3722.6 -2493.7,-3722.6 c -37.5,-56 -57.5,-121.8 -57.5,-189.2 0,-187.9 152.3,-340.2 340.2,-340.2 28.7,0 57.2,3.7 85,10.8 l 1275.6,329.4 V 35868.3 C 30485.4,23463.5 38663.5,19102.8 38986.1,6813.26 V 4403.67 h 1700.8 V 6813.26 C 40364.2,19102.8 32186.3,23463.5 31899.6,35868"
       style="fill:#000000;fill-opacity:1;fill-rule:nonzero;stroke:none"
       transform="matrix(0.13333333,0,0,-0.13333333,0,6049.3333)" />
    <path
       id="path8"
       d="m 14324.9,43521.5 h 850.4 c 0,-2378.8 -399.3,-4740.7 -1181.1,-6987.4 v 0 c -119,-341.8 -441.3,-570.9 -803.2,-570.9 -361.9,0 -684.2,229.1 -803.1,570.9 v 0 c -781.9,2246.7 -1181.1,4608.6 -1181.1,6987.4 h 850.4 c 0,-2283.6 383.2,-4551.1 1133.8,-6707.9 v 0 c 750.6,2156.8 1133.9,4424.3 1133.9,6707.9"
       style="fill:#000000;fill-opacity:1;fill-rule:nonzero;stroke:none"
       transform="matrix(0.13333333,0,0,-0.13333333,0,6049.3333)" />
    <path
       id="path9"
       d="m 14324.9,1852.51 c 0,2283.67 -383.3,4551.15 -1133.9,6707.95 v 0 C 12440.4,6403.66 12057.2,4136.18 12057.2,1852.51 h -850.4 c 0,2378.82 399.2,4740.78 1181.1,6987.45 v -0.01 c 118.9,341.82 441.2,570.89 803.1,570.89 361.9,0 684.2,-229.07 803.2,-570.89 v 0.01 C 14776,6593.29 15175.3,4231.33 15175.3,1852.51 h -850.4"
       style="fill:#000000;fill-opacity:1;fill-rule:nonzero;stroke:none"
       transform="matrix(0.13333333,0,0,-0.13333333,0,6049.3333)" />
  </g>
</svg>
