<?xml version="1.0" encoding="UTF-8" standalone="no"?>
<!-- Created with Inkscape (http://www.inkscape.org/) -->

<svg
   version="1.1"
   id="svg1"
   width="2269.3333"
   height="3404"
   viewBox="0 0 2269.3333 3404"
   sodipodi:docname="442-17.eps"
   xmlns:inkscape="http://www.inkscape.org/namespaces/inkscape"
   xmlns:sodipodi="http://sodipodi.sourceforge.net/DTD/sodipodi-0.dtd"
   xmlns="http://www.w3.org/2000/svg"
   xmlns:svg="http://www.w3.org/2000/svg">
  <defs
     id="defs1" />
  <sodipodi:namedview
     id="namedview1"
     pagecolor="#ffffff"
     bordercolor="#000000"
     borderopacity="0.25"
     inkscape:showpageshadow="2"
     inkscape:pageopacity="0.0"
     inkscape:pagecheckerboard="0"
     inkscape:deskcolor="#d1d1d1">
    <inkscape:page
       x="0"
       y="0"
       inkscape:label="1"
       id="page1"
       width="2269.3333"
       height="3404"
       margin="0"
       bleed="0" />
  </sodipodi:namedview>
  <g
     id="g1"
     inkscape:groupmode="layer"
     inkscape:label="1">
    <path
       id="path1"
       d="M 1143.85,10 C 517.641,10 10,517.641 10,1143.85 V 24387.8 c 0,626.2 507.641,1133.9 1133.85,1133.9 H 15883.9 c 626.2,0 1133.9,-507.7 1133.9,-1133.9 V 1143.85 C 17017.8,517.641 16510.1,10 15883.9,10 H 1143.85"
       style="fill:#f0ca00;fill-opacity:1;fill-rule:nonzero;stroke:#000000;stroke-width:1;stroke-linecap:butt;stroke-linejoin:miter;stroke-miterlimit:4;stroke-dasharray:none;stroke-opacity:1"
       transform="matrix(0.13333333,0,0,-0.13333333,0,3404)" />
    <path
       id="path2"
       d="m 1143.85,293.461 c -469.659,0 -850.389,380.73 -850.389,850.389 V 24387.8 c 0,469.7 380.73,850.4 850.389,850.4 H 15883.9 c 469.7,0 850.4,-380.7 850.4,-850.4 V 1143.85 c 0,-469.659 -380.7,-850.389 -850.4,-850.389 H 1143.85"
       style="fill:#000000;fill-opacity:1;fill-rule:nonzero;stroke:none"
       transform="matrix(0.13333333,0,0,-0.13333333,0,3404)" />
    <path
       id="path3"
       d="m 1143.85,718.66 c -234.83,0 -425.19,190.36 -425.19,425.19 V 24387.8 c 0,234.8 190.36,425.2 425.19,425.2 H 15883.9 c 234.8,0 425.2,-190.4 425.2,-425.2 V 1143.85 c 0,-234.83 -190.4,-425.19 -425.2,-425.19 H 1143.85"
       style="fill:#f0ca00;fill-opacity:1;fill-rule:nonzero;stroke:none"
       transform="matrix(0.13333333,0,0,-0.13333333,0,3404)" />
    <path
       id="path4"
       d="m 7587.18,23014.1 v -463.4 h -761.57 c -203.12,0 -382.56,-132.3 -442.63,-326.3 L 6197.12,21624 h 4138.68 l 173.7,463.4 -980.07,234.9 c -52.1,12.4 -88.84,59 -88.84,112.6 0,64 51.86,115.8 115.84,115.8 h 1969.27 v -463.3 h -521.3 l -173.8,-463.4 672.1,-1504.1 c 231.8,75.6 474.2,114.1 718,114.1 1279.5,0 2316.8,-1037.3 2316.8,-2316.8 0,-1279.5 -1037.3,-2316.8 -2316.8,-2316.8 -1100.9,0 -2049.8,774.8 -2269.95,1853.5 h -973.51 c -131.24,0 -256.31,55.6 -344.18,153.1 l -2738.86,3038.6 -184.13,-594.8 c 856.97,-362.8 1413.76,-1203 1413.76,-2133.6 0,-1279.5 -1037.25,-2316.8 -2316.77,-2316.8 -1279.51,0 -2316.76,1037.3 -2316.76,2316.8 0,1279.5 1037.25,2316.8 2316.76,2316.8 154.62,0 308.85,-15.5 460.38,-46.2 l 672.92,2173.6 c 120.13,388.1 479.01,652.7 885.25,652.7 z M 6053.68,21160.7 8954.99,17941.9 10162,21160.7 Z m -924.13,-1418.3 c -106.47,18.8 -214.37,28.2 -322.49,28.2 -1023.61,0 -1853.41,-829.8 -1853.41,-1853.4 0,-1023.6 829.8,-1853.4 1853.41,-1853.4 1023.61,0 1853.41,829.8 1853.41,1853.4 0,727.6 -425.64,1387.8 -1088.29,1688.1 l -543.8,-1756.6 c -30.04,-97 -119.76,-163.2 -221.32,-163.2 -127.95,0 -231.67,103.8 -231.67,231.7 0,23.2 3.49,46.3 10.36,68.5 z m 4311.04,-1825.2 h 463.35 c 0,834.5 448.76,1604.4 1174.76,2015.8 l -479.6,1073.5 z m 926.71,0 h 1612 l -710.5,1590.3 c -559.2,-334.7 -901.5,-938.6 -901.5,-1590.3 z m 58.9,-463.3 c 211.2,-818.3 949.4,-1390.1 1794.5,-1390.1 1023.6,0 1853.4,829.8 1853.4,1853.4 0,1023.6 -829.8,1853.4 -1853.4,1853.4 -178.7,0 -356.4,-25.8 -527.7,-76.7 l 855.1,-1913.9 c 13.3,-29.7 20.1,-61.9 20.1,-94.5 0,-127.9 -103.7,-231.6 -231.7,-231.6 h -1910.3"
       style="fill:#000000;fill-opacity:1;fill-rule:nonzero;stroke:none"
       transform="matrix(0.13333333,0,0,-0.13333333,0,3404)" />
    <path
       id="path5"
       d="m 8491.82,5709.35 -799.11,-290.94 c -64.21,176.42 -110.73,358.78 -138.89,544.4 L 5324.93,5962.72 6813.11,4474.54 H 5750.12 L 3836.75,6387.91 5750.12,8301.29 H 6813.11 L 5324.93,6813.11 7553.3,6809.59 c 208.66,1387.07 1400.42,2412.95 2803.1,2412.95 1565.5,0 2834.6,-1269.11 2834.6,-2834.63 0,-1403.8 -1027.5,-2596.15 -2415.9,-2803.53 l 6.5,-1731.87 h -850.4 l -0.05,2597.27 c 139.65,-30.65 282.25,-46.11 425.25,-46.11 1095.9,0 1984.2,888.38 1984.2,1984.24 0,1095.87 -888.3,1984.24 -1984.2,1984.24 -1095.87,0 -1984.25,-888.37 -1984.25,-1984.24 0,-231.46 40.5,-461.14 119.67,-678.65"
       style="fill:#000000;fill-opacity:1;fill-rule:nonzero;stroke:none"
       transform="matrix(0.13333333,0,0,-0.13333333,0,3404)" />
  </g>
</svg>
