<?xml version="1.0" encoding="UTF-8" standalone="no"?>
<!-- Created with Inkscape (http://www.inkscape.org/) -->

<svg
   version="1.1"
   id="svg1"
   width="4726.6665"
   height="6049.3335"
   viewBox="0 0 4726.6665 6049.3335"
   sodipodi:docname="529-30.eps"
   xmlns:inkscape="http://www.inkscape.org/namespaces/inkscape"
   xmlns:sodipodi="http://sodipodi.sourceforge.net/DTD/sodipodi-0.dtd"
   xmlns="http://www.w3.org/2000/svg"
   xmlns:svg="http://www.w3.org/2000/svg">
  <defs
     id="defs1" />
  <sodipodi:namedview
     id="namedview1"
     pagecolor="#ffffff"
     bordercolor="#000000"
     borderopacity="0.25"
     inkscape:showpageshadow="2"
     inkscape:pageopacity="0.0"
     inkscape:pagecheckerboard="0"
     inkscape:deskcolor="#d1d1d1">
    <inkscape:page
       x="0"
       y="0"
       inkscape:label="1"
       id="page1"
       width="4726.6665"
       height="6049.3335"
       margin="0"
       bleed="0" />
  </sodipodi:namedview>
  <g
     id="g1"
     inkscape:groupmode="layer"
     inkscape:label="1">
    <path
       id="path1"
       d="M 1710.78,10 C 771.461,10 10,771.461 10,1710.78 V 43663.3 c 0,939.3 761.461,1700.7 1700.78,1700.7 H 33742.1 c 939.3,0 1700.7,-761.4 1700.7,-1700.7 V 1710.78 C 35442.8,771.461 34681.4,10 33742.1,10 H 1710.78"
       style="fill:#ffffff;fill-opacity:1;fill-rule:nonzero;stroke:#000000;stroke-width:1;stroke-linecap:butt;stroke-linejoin:miter;stroke-miterlimit:4;stroke-dasharray:none;stroke-opacity:1"
       transform="matrix(0.13333333,0,0,-0.13333333,0,6049.3333)" />
    <path
       id="path2"
       d="m 1710.78,435.191 c -704.49,0 -1275.589,571.099 -1275.589,1275.589 V 43663.3 c 0,704.5 571.099,1275.5 1275.589,1275.5 H 33742.1 c 704.5,0 1275.5,-571 1275.5,-1275.5 V 1710.78 c 0,-704.49 -571,-1275.589 -1275.5,-1275.589 H 1710.78"
       style="fill:#000000;fill-opacity:1;fill-rule:nonzero;stroke:none"
       transform="matrix(0.13333333,0,0,-0.13333333,0,6049.3333)" />
    <path
       id="path3"
       d="m 1710.78,1002.12 c -391.38,0 -708.66,317.28 -708.66,708.66 V 43663.3 c 0,391.3 317.28,708.6 708.66,708.6 H 33742.1 c 391.3,0 708.6,-317.3 708.6,-708.6 V 1710.78 c 0,-391.38 -317.3,-708.66 -708.6,-708.66 H 1710.78"
       style="fill:#ffffff;fill-opacity:1;fill-rule:nonzero;stroke:none"
       transform="matrix(0.13333333,0,0,-0.13333333,0,6049.3333)" />
    <path
       id="path4"
       d="m 10498.1,37058.6 -1276.18,-329.5 c -27.58,-7.1 -55.94,-10.7 -84.42,-10.7 -187.86,0 -340.15,152.3 -340.15,340.2 0,67.4 20.01,133.2 57.5,189.2 l 2493.65,3722.6 2493.6,-3722.5 c 37.5,-56 57.6,-121.9 57.6,-189.3 0,-187.9 -152.3,-340.2 -340.2,-340.2 -28.4,0 -56.8,3.6 -84.4,10.7 l -1276.2,329.5 V 4403.67 H 10498.1 V 37058.6"
       style="fill:#000000;fill-opacity:1;fill-rule:nonzero;stroke:none"
       transform="matrix(0.13333333,0,0,-0.13333333,0,6049.3333)" />
    <path
       id="path5"
       d="m 22545.3,37058.6 -1275.6,-329.4 c -27.8,-7.1 -56.3,-10.8 -85,-10.8 -187.9,0 -340.2,152.3 -340.2,340.2 0,67.4 20,133.2 57.5,189.2 l 2493.7,3722.6 2493.6,-3722.6 c 37.5,-56 57.5,-121.8 57.5,-189.2 0,-187.9 -152.2,-340.2 -340.1,-340.2 -28.7,0 -57.3,3.7 -85,10.8 l -1275.6,329.4 -0.3,-7478.4 c -282.1,34.4 -566,51.7 -850.1,51.7 -284.2,0 -568.1,-17.3 -850.1,-51.7 z M 24246.1,15794 V 4403.67 h -1700.8 l 0.3,11390.13 c 282,-34.4 565.9,-51.6 850.1,-51.6 284.1,0 568,17.2 850.1,51.6"
       style="fill:#000000;fill-opacity:1;fill-rule:nonzero;stroke:none"
       transform="matrix(0.13333333,0,0,-0.13333333,0,6049.3333)" />
    <path
       id="path6"
       d="m 29993.3,22687 c 0,-3643.7 -2953.9,-6597.6 -6597.6,-6597.6 -3643.8,0 -6597.6,2953.9 -6597.6,6597.6 0,3643.8 2953.8,6597.6 6597.6,6597.6 3643.7,0 6597.6,-2953.8 6597.6,-6597.6 z m -1736.2,0 c 0,2684.9 -2176.5,4861.4 -4861.4,4861.4 -2684.9,0 -4861.4,-2176.5 -4861.4,-4861.4 0,-2684.8 2176.5,-4861.4 4861.4,-4861.4 2684.9,0 4861.4,2176.6 4861.4,4861.4"
       style="fill:#c20a16;fill-opacity:1;fill-rule:nonzero;stroke:none"
       transform="matrix(0.13333333,0,0,-0.13333333,0,6049.3333)" />
    <path
       id="path7"
       d="m 23395.7,19188.5 1717.3,-975.1 c -548.1,-210.4 -1130.2,-318.3 -1717.3,-318.3 -587.1,0 -1169.2,107.9 -1717.3,318.3 l 1717.3,975.1"
       style="fill:#000000;fill-opacity:1;fill-rule:nonzero;stroke:none"
       transform="matrix(0.13333333,0,0,-0.13333333,0,6049.3333)" />
    <path
       id="path8"
       d="m 23395.7,26185.6 -1717.3,975.1 c 548.1,210.4 1130.2,318.3 1717.3,318.3 587.1,0 1169.2,-107.9 1717.3,-318.3 l -1717.3,-975.1"
       style="fill:#000000;fill-opacity:1;fill-rule:nonzero;stroke:none"
       transform="matrix(0.13333333,0,0,-0.13333333,0,6049.3333)" />
    <path
       id="path9"
       d="m 19575.8,21827 h 669.9 v -376.8 c 0,-185 149.9,-334.9 334.9,-334.9 184.9,0 334.9,149.9 334.9,334.9 v 837.3 c 0,184.9 -150,334.9 -334.9,334.9 h -209.3 v 586.1 h 209.3 c 184.9,0 334.9,149.9 334.9,334.9 v 669.8 c 0,185 -150,334.9 -334.9,334.9 -185,0 -334.9,-149.9 -334.9,-334.9 v -376.8 h -669.9 v 376.8 c 0,554.9 449.9,1004.7 1004.8,1004.7 554.9,0 1004.7,-449.8 1004.7,-1004.7 v -627.9 c 0,-282.2 -157.6,-540.6 -408.3,-669.9 v 0 c 250.7,-129.2 408.3,-387.7 408.3,-669.8 v -795.4 c 0,-554.9 -449.8,-1004.7 -1004.7,-1004.7 -554.9,0 -1004.8,449.8 -1004.8,1004.7 v 376.8"
       style="fill:#000000;fill-opacity:1;fill-rule:nonzero;stroke:none"
       transform="matrix(0.13333333,0,0,-0.13333333,0,6049.3333)" />
    <path
       id="path10"
       d="m 21867.8,20134.4 v 824.7 h 471.3 v -471.3 l -471.3,-353.4"
       style="fill:#000000;fill-opacity:1;fill-rule:nonzero;stroke:none"
       transform="matrix(0.13333333,0,0,-0.13333333,0,6049.3333)" />
    <path
       id="path11"
       d="m 23007.8,22225.6 c -148.1,98.2 -237.2,264.1 -237.2,441.8 v 441.8 c 0,390.4 316.5,706.9 706.9,706.9 390.4,0 706.9,-316.5 706.9,-706.9 v -441.8 c 0,-177.7 -89,-343.6 -237.1,-441.8 v 0 c 148.1,-98.2 237.1,-264.1 237.1,-441.8 v -618.5 c 0,-390.4 -316.5,-706.9 -706.9,-706.9 -390.4,0 -706.9,316.5 -706.9,706.9 v 618.5 c 0,177.7 89.1,343.6 237.2,441.8 z m 234.1,-1060.3 c 0,-130.2 105.5,-235.7 235.6,-235.7 130.2,0 235.7,105.5 235.7,235.7 v 647.9 c 0,130.2 -105.5,235.7 -235.7,235.7 -130.1,0 -235.6,-105.5 -235.6,-235.7 z m 0,1472.6 c 0,-130.1 105.5,-235.6 235.6,-235.6 130.2,0 235.7,105.5 235.7,235.6 v 471.3 c 0,130.1 -105.5,235.6 -235.7,235.6 -130.1,0 -235.6,-105.5 -235.6,-235.6 v -471.3"
       style="fill:#000000;fill-opacity:1;fill-rule:nonzero;stroke:none"
       transform="matrix(0.13333333,0,0,-0.13333333,0,6049.3333)" />
    <path
       id="path12"
       d="m 24784.7,20487.8 v 2356.3 h 471.2 v -235.6 c 87,163.1 256.9,265.1 441.8,265.1 173.6,0 334.8,-89.9 426,-237.6 v 0 c 104.8,149 275.5,237.6 457.6,237.6 309.1,0 559.6,-250.6 559.6,-559.7 v -1826.1 h -471.2 v 1678.9 c 0,130.1 -105.5,235.6 -235.6,235.6 -130.2,0 -235.7,-105.5 -235.7,-235.6 v -1678.9 h -471.2 v 1678.9 c 0,130.1 -105.5,235.6 -235.7,235.6 -130.1,0 -235.6,-105.5 -235.6,-235.6 v -1678.9 h -471.2"
       style="fill:#000000;fill-opacity:1;fill-rule:nonzero;stroke:none"
       transform="matrix(0.13333333,0,0,-0.13333333,0,6049.3333)" />
  </g>
</svg>
