<?xml version="1.0" encoding="UTF-8" standalone="no"?>
<svg
   viewBox="0 0 420 630"
   height="630"
   width="420"
   xml:space="preserve"
   version="1.1"
   id="svg1"
   xmlns="http://www.w3.org/2000/svg"
   xmlns:svg="http://www.w3.org/2000/svg"><defs
     id="defs1" /><g
     id="sign"><rect
   id="border"
   width="419.4"
   height="629.4"
   x="0.3"
   y="0.3"
   rx="28"
   ry="28"
   fill="#ffffff"
   fill-rule="evenodd"
   stroke="#000000"
   stroke-width="0.6" /><rect
   style="fill:#154889;fill-opacity:1;stroke:none;paint-order:normal"
   id="frame"
   width="398.83"
   height="608.83"
   x="10.585"
   y="10.585"
   rx="19.6"
   ry="19.6"
   fill="#154889"
   fill-rule="evenodd" /><path
   id="symbol"
   d="m 233.758,226.799 70.422,70.423 c 15.224,-20.36 23.417,-45 23.417,-70.423 0,-25.423 -8.1934,-50.062 -23.417,-70.423 l -70.422,70.423 m -23.758,23.758 -70.422,70.423 c 20.36,15.224 45,23.417 70.422,23.417 25.422,0 50.062,-8.1935 70.422,-23.417 l -70.422,-70.423 m -23.759,-23.758 -70.422,-70.423 c -15.224,20.36 -23.417,45 -23.417,70.423 0,25.423 8.1937,50.062 23.417,70.423 l 70.422,-70.423 m 23.759,-23.758 70.422,-70.423 c -20.36,-15.224 -45,-23.417 -70.422,-23.417 -25.422,0 -50.063,8.1935 -70.422,23.417 l 70.422,70.423 m 159.6,23.758 c 0,-88.188 -71.41,-159.6 -159.6,-159.6 -88.187,0 -159.6,71.41 -159.6,159.6 0,88.19 71.41,159.6 159.6,159.6 88.187,0 159.6,-71.41 159.6,-159.6"
   fill="#c1121c"
   fill-rule="evenodd" />
  <path
   id="text"
   d="m 332.848,501.939 h 12.601 v 37.8 h 15.747 v -37.8 h 12.601 v 88.199 h -12.601 v -39.374 h -15.747 v 39.374 h -12.601 z m -31.5,88.986 c 11.307,0 20.476,-9.1667 20.476,-20.475 v -5.5125 h -12.601 v 5.5125 c 0,4.3494 -3.5263,7.875 -7.8749,7.875 -4.3486,0 -7.8749,-3.5256 -7.8749,-7.875 v -48.824 c 0,-4.3494 3.5263,-7.875 7.8749,-7.875 4.3486,0 7.8749,3.5256 7.8749,7.875 v 5.5122 h 12.601 v -5.5122 c 0,-11.308 -9.1689,-20.475 -20.476,-20.475 -11.3071,0 -20.474,9.167 -20.474,20.475 v 48.824 c 0,11.308 9.1664,20.475 20.474,20.475 z m -45.674,-88.986 h 12.601 v 88.199 h -12.601 z m -50.398,0 h 37.799 v 11.812 h -25.2 v 25.987 h 22.05 v 11.812 h -22.05 v 25.987 h 25.2 v 12.6 h -37.799 z m -42.524,11.812 v 27.5616 h 9.4499 c 4.784,0 8.6622,-3.8782 8.6622,-8.6624 v -10.237 c 0,-4.784 -3.8782,-8.6622 -8.6622,-8.6622 z m -12.6,-11.812 h 22.049 c 11.308,0 20.475,9.167 20.475,20.475 v 9.4499 c 0,7.4421 -4.038,14.298 -10.546,17.906 l 13.696,40.368 h -13.387 l -11.812,-37.799 h -7.8749 v 37.799 h -12.6 z m -50.399,0 h 37.799 v 11.812 h -25.2 v 25.987 h 22.05 v 11.812 h -22.05 v 25.987 h 25.2 v 12.6 h -37.799 z m -40.949,11.812 v 24.4121 h 7.8749 c 4.7839,0 8.6621,-3.8783 8.6621,-8.6625 v -7.0874 c 0,-4.784 -3.8781,-8.6622 -8.6621,-8.6622 z m 0,35.437 v 28.35024 h 7.8749 c 4.7839,0 8.6621,-3.8783 8.6621,-8.6625 v -11.025 c 0,-4.7843 -3.8781,-8.6625 -8.6621,-8.6625 z m 7.875,-47.249 c 11.308,0 20.475,9.167 20.475,20.475 v 7.0874 c 0,6.0375 -3.451,11.543 -8.8846,14.175 5.4337,2.6317 8.8846,8.1375 8.8846,14.175 v 11.812 c 0,11.308 -9.1666,20.475 -20.475,20.475 h -20.475 l 0,-88.1992 z m 226.795,-53.5926 h 37.799 v 12.6 h -37.799 z m -47.248,-47.25 h 37.8 v 11.812 h -25.2 v 25.987 h 22.049 v 11.812 h -22.049 v 25.987 h 25.2 v 12.6 h -37.8 z m -40.949,11.812 v 64.5744 h 7.0872 c 4.7842,0 8.6624,-3.8782 8.6624,-8.6622 v -47.25 c 0,-4.784 -3.8782,-8.6622 -8.6624,-8.6622 z m -12.6,-11.812 h 20.475 c 11.308,0 20.475,9.167 20.475,20.475 v 47.25 c 0,11.308 -9.1669,20.474 -20.475,20.474 h -20.475 z m -34.649,25.2 -6.0545,32.287 h 12.108 z m -5.5124,-25.2 h 11.025 l 19.687,88.199 h -13.387 l -3.5438,-18.9 h -16.537 l -3.5436,18.9 h -13.387 z m -51.186,0 v 75.599 h 25.199 v 12.6 h -37.799 v -88.199 z"
   fill="#ffffff"
   fill-rule="evenodd" />
<path
   id="arrows"
   d="m 254.12,142.797 -25.199,-25.198 h -14 l 19.6,19.6 h -68.637 v 11.199 h 68.637 l -19.6,19.6 h 14 l 25.199,-25.2"
   fill="#ffffff"
   fill-rule="evenodd" /></g></svg>
