<?xml version="1.0" encoding="UTF-8" standalone="no"?>
<!-- Created with Inkscape (http://www.inkscape.org/) -->

<svg
   version="1.1"
   id="svg1"
   width="4726.6665"
   height="6049.3335"
   viewBox="0 0 4726.6665 6049.3335"
   sodipodi:docname="529-31.eps"
   xmlns:inkscape="http://www.inkscape.org/namespaces/inkscape"
   xmlns:sodipodi="http://sodipodi.sourceforge.net/DTD/sodipodi-0.dtd"
   xmlns="http://www.w3.org/2000/svg"
   xmlns:svg="http://www.w3.org/2000/svg">
  <defs
     id="defs1" />
  <sodipodi:namedview
     id="namedview1"
     pagecolor="#ffffff"
     bordercolor="#000000"
     borderopacity="0.25"
     inkscape:showpageshadow="2"
     inkscape:pageopacity="0.0"
     inkscape:pagecheckerboard="0"
     inkscape:deskcolor="#d1d1d1">
    <inkscape:page
       x="0"
       y="0"
       inkscape:label="1"
       id="page1"
       width="4726.6665"
       height="6049.3335"
       margin="0"
       bleed="0" />
  </sodipodi:namedview>
  <g
     id="g1"
     inkscape:groupmode="layer"
     inkscape:label="1">
    <path
       id="path1"
       d="M 1710.78,10 C 771.461,10 10,771.461 10,1710.78 V 43663.3 c 0,939.3 761.461,1700.7 1700.78,1700.7 H 33742.1 c 939.3,0 1700.7,-761.4 1700.7,-1700.7 V 1710.78 C 35442.8,771.461 34681.4,10 33742.1,10 H 1710.78"
       style="fill:#ffffff;fill-opacity:1;fill-rule:nonzero;stroke:#000000;stroke-width:1;stroke-linecap:butt;stroke-linejoin:miter;stroke-miterlimit:4;stroke-dasharray:none;stroke-opacity:1"
       transform="matrix(0.13333333,0,0,-0.13333333,0,6049.3333)" />
    <path
       id="path2"
       d="m 1710.78,435.191 c -704.49,0 -1275.589,571.099 -1275.589,1275.589 V 43663.3 c 0,704.5 571.099,1275.5 1275.589,1275.5 H 33742.1 c 704.5,0 1275.5,-571 1275.5,-1275.5 V 1710.78 c 0,-704.49 -571,-1275.589 -1275.5,-1275.589 H 1710.78"
       style="fill:#000000;fill-opacity:1;fill-rule:nonzero;stroke:none"
       transform="matrix(0.13333333,0,0,-0.13333333,0,6049.3333)" />
    <path
       id="path3"
       d="m 1710.78,1002.12 c -391.38,0 -708.66,317.28 -708.66,708.66 V 43663.3 c 0,391.3 317.28,708.6 708.66,708.6 H 33742.1 c 391.3,0 708.6,-317.3 708.6,-708.6 V 1710.78 c 0,-391.38 -317.3,-708.66 -708.6,-708.66 H 1710.78"
       style="fill:#ffffff;fill-opacity:1;fill-rule:nonzero;stroke:none"
       transform="matrix(0.13333333,0,0,-0.13333333,0,6049.3333)" />
    <path
       id="path4"
       d="m 6246.18,37058.6 -1275.6,-329.4 c -27.77,-7.1 -56.34,-10.8 -85.02,-10.8 -187.86,0 -340.16,152.3 -340.16,340.2 0,67.4 20.02,133.2 57.51,189.2 l 2493.66,3722.6 2493.66,-3722.6 c 37.49,-56 57.5,-121.8 57.5,-189.2 0,-187.9 -152.29,-340.2 -340.15,-340.2 -28.68,0 -57.25,3.7 -85.03,10.8 l -1275.59,329.4 V 4403.67 H 6246.18 V 37058.6"
       style="fill:#000000;fill-opacity:1;fill-rule:nonzero;stroke:none"
       transform="matrix(0.13333333,0,0,-0.13333333,0,6049.3333)" />
    <path
       id="path5"
       d="m 15883.9,37058.6 -1275.6,-329.4 c -27.7,-7.1 -56.3,-10.8 -85,-10.8 -187.9,0 -340.2,152.3 -340.2,340.2 0,67.4 20,133.2 57.5,189.2 l 2493.7,3722.6 2493.7,-3722.6 c 37.5,-56 57.5,-121.8 57.5,-189.2 0,-187.9 -152.3,-340.2 -340.2,-340.2 -28.7,0 -57.2,3.7 -85,10.8 l -1275.6,329.4 -0.3,-3162.6 c -282,34.3 -565.9,51.6 -850.1,51.6 -284.1,0 -568,-17.3 -850.1,-51.6 z M 17584.7,20109.7 V 4403.67 h -1700.8 l 0.3,15705.83 c 282.1,-34.4 566,-51.6 850.1,-51.6 284.2,0 568.1,17.2 850.1,51.6"
       style="fill:#000000;fill-opacity:1;fill-rule:nonzero;stroke:none"
       transform="matrix(0.13333333,0,0,-0.13333333,0,6049.3333)" />
    <path
       id="path6"
       d="m 25521.7,37058.6 -1275.6,-329.4 c -27.8,-7.1 -56.4,-10.8 -85.1,-10.8 -187.8,0 -340.1,152.3 -340.1,340.2 0,67.4 20,133.2 57.5,189.2 l 2493.6,3722.6 2493.7,-3722.6 c 37.5,-56 57.5,-121.8 57.5,-189.2 0,-187.9 -152.3,-340.2 -340.1,-340.2 -28.7,0 -57.3,3.7 -85.1,10.8 l -1275.6,329.4 -0.2,-15273.6 c -282.1,34.4 -566,51.6 -850.2,51.6 -284.1,0 -568,-17.2 -850.1,-51.6 z M 27222.4,7998.78 V 4403.67 h -1700.7 l 0.2,3594.91 c 282.1,-34.38 566,-51.62 850.1,-51.62 284.2,0 568.1,17.24 850.2,51.62"
       style="fill:#000000;fill-opacity:1;fill-rule:nonzero;stroke:none"
       transform="matrix(0.13333333,0,0,-0.13333333,0,6049.3333)" />
    <path
       id="path7"
       d="m 23331.9,27002.7 c 0,-3643.7 -2953.8,-6597.5 -6597.6,-6597.5 -3643.7,0 -6597.6,2953.8 -6597.6,6597.5 0,3643.8 2953.9,6597.6 6597.6,6597.6 3643.8,0 6597.6,-2953.8 6597.6,-6597.6 z m -1736.2,0 c 0,2684.9 -2176.5,4861.4 -4861.4,4861.4 -2684.9,0 -4861.4,-2176.5 -4861.4,-4861.4 0,-2684.8 2176.5,-4861.3 4861.4,-4861.3 2684.9,0 4861.4,2176.5 4861.4,4861.3"
       style="fill:#c20a16;fill-opacity:1;fill-rule:nonzero;stroke:none"
       transform="matrix(0.13333333,0,0,-0.13333333,0,6049.3333)" />
    <path
       id="path8"
       d="m 16734.3,23504.2 1717.3,-975.1 c -548.1,-210.4 -1130.2,-318.3 -1717.3,-318.3 -587.1,0 -1169.2,107.9 -1717.3,318.3 l 1717.3,975.1"
       style="fill:#000000;fill-opacity:1;fill-rule:nonzero;stroke:none"
       transform="matrix(0.13333333,0,0,-0.13333333,0,6049.3333)" />
    <path
       id="path9"
       d="m 16734.3,30501.3 -1717.3,975.1 c 548.1,210.4 1130.2,318.3 1717.3,318.3 587.1,0 1169.2,-107.9 1717.3,-318.3 l -1717.3,-975.1"
       style="fill:#000000;fill-opacity:1;fill-rule:nonzero;stroke:none"
       transform="matrix(0.13333333,0,0,-0.13333333,0,6049.3333)" />
    <path
       id="path10"
       d="m 12914.5,26142.7 h 669.8 v -376.8 c 0,-185 149.9,-334.9 334.9,-334.9 185,0 334.9,149.9 334.9,334.9 v 837.3 c 0,185 -149.9,334.9 -334.9,334.9 h -209.3 v 586.1 h 209.3 c 185,0 334.9,150 334.9,334.9 v 669.8 c 0,185 -149.9,335 -334.9,335 -185,0 -334.9,-150 -334.9,-335 v -376.7 h -669.8 v 376.7 c 0,554.9 449.8,1004.8 1004.7,1004.8 554.9,0 1004.7,-449.9 1004.7,-1004.8 V 27901 c 0,-282.1 -157.5,-540.6 -408.3,-669.8 v 0 c 250.8,-129.3 408.3,-387.8 408.3,-669.9 v -795.4 c 0,-554.9 -449.8,-1004.7 -1004.7,-1004.7 -554.9,0 -1004.7,449.8 -1004.7,1004.7 v 376.8"
       style="fill:#000000;fill-opacity:1;fill-rule:nonzero;stroke:none"
       transform="matrix(0.13333333,0,0,-0.13333333,0,6049.3333)" />
    <path
       id="path11"
       d="m 15206.4,24450.1 v 824.7 h 471.3 v -471.2 l -471.3,-353.5"
       style="fill:#000000;fill-opacity:1;fill-rule:nonzero;stroke:none"
       transform="matrix(0.13333333,0,0,-0.13333333,0,6049.3333)" />
    <path
       id="path12"
       d="m 16346.4,26541.3 c -148.1,98.2 -237.1,264.1 -237.1,441.8 v 441.8 c 0,390.4 316.5,706.9 706.9,706.9 390.4,0 706.8,-316.5 706.8,-706.9 v -441.8 c 0,-177.7 -89,-343.6 -237.1,-441.8 v 0 c 148.1,-98.2 237.1,-264.1 237.1,-441.8 V 25481 c 0,-390.4 -316.4,-706.9 -706.8,-706.9 -390.4,0 -706.9,316.5 -706.9,706.9 v 618.5 c 0,177.7 89,343.6 237.1,441.8 z m 234.1,-1060.3 c 0,-130.2 105.5,-235.6 235.7,-235.6 130.1,0 235.6,105.4 235.6,235.6 v 647.9 c 0,130.2 -105.5,235.7 -235.6,235.7 -130.2,0 -235.7,-105.5 -235.7,-235.7 z m 0,1472.7 c 0,-130.2 105.5,-235.7 235.7,-235.7 130.1,0 235.6,105.5 235.6,235.7 v 471.2 c 0,130.1 -105.5,235.6 -235.6,235.6 -130.2,0 -235.7,-105.5 -235.7,-235.6 v -471.2"
       style="fill:#000000;fill-opacity:1;fill-rule:nonzero;stroke:none"
       transform="matrix(0.13333333,0,0,-0.13333333,0,6049.3333)" />
    <path
       id="path13"
       d="m 18123.3,24803.6 v 2356.2 h 471.2 v -235.6 c 87.1,163.2 256.9,265.1 441.8,265.1 173.6,0 334.8,-89.9 426,-237.5 v 0 c 104.8,148.9 275.5,237.5 457.6,237.5 309.1,0 559.7,-250.6 559.7,-559.6 v -1826.1 h -471.3 v 1678.8 c 0,130.1 -105.5,235.6 -235.6,235.6 -130.2,0 -235.7,-105.5 -235.7,-235.6 v -1678.8 h -471.2 v 1678.8 c 0,130.1 -105.5,235.6 -235.6,235.6 -130.2,0 -235.7,-105.5 -235.7,-235.6 v -1678.8 h -471.2"
       style="fill:#000000;fill-opacity:1;fill-rule:nonzero;stroke:none"
       transform="matrix(0.13333333,0,0,-0.13333333,0,6049.3333)" />
    <path
       id="path14"
       d="m 32969.6,14891.8 c 0,-3643.8 -2953.8,-6597.6 -6597.6,-6597.6 -3643.7,0 -6597.6,2953.8 -6597.6,6597.6 0,3643.8 2953.9,6597.6 6597.6,6597.6 3643.8,0 6597.6,-2953.8 6597.6,-6597.6 z m -1736.2,0 c 0,2684.9 -2176.5,4861.4 -4861.4,4861.4 -2684.8,0 -4861.4,-2176.5 -4861.4,-4861.4 0,-2684.9 2176.6,-4861.4 4861.4,-4861.4 2684.9,0 4861.4,2176.5 4861.4,4861.4"
       style="fill:#c20a16;fill-opacity:1;fill-rule:nonzero;stroke:none"
       transform="matrix(0.13333333,0,0,-0.13333333,0,6049.3333)" />
    <path
       id="path15"
       d="m 26372,11393.3 1717.3,-975.2 c -548.1,-210.4 -1130.2,-318.2 -1717.3,-318.2 -587,0 -1169.1,107.8 -1717.2,318.2 l 1717.2,975.2"
       style="fill:#000000;fill-opacity:1;fill-rule:nonzero;stroke:none"
       transform="matrix(0.13333333,0,0,-0.13333333,0,6049.3333)" />
    <path
       id="path16"
       d="m 26372,18390.3 -1717.2,975.2 c 548.1,210.4 1130.2,318.2 1717.2,318.2 587.1,0 1169.2,-107.8 1717.3,-318.2 L 26372,18390.3"
       style="fill:#000000;fill-opacity:1;fill-rule:nonzero;stroke:none"
       transform="matrix(0.13333333,0,0,-0.13333333,0,6049.3333)" />
    <path
       id="path17"
       d="M 22552.2,14031.8 H 23222 V 13655 c 0,-185 150,-334.9 334.9,-334.9 185,0 334.9,149.9 334.9,334.9 v 837.3 c 0,184.9 -149.9,334.9 -334.9,334.9 h -209.3 v 586.1 h 209.3 c 185,0 334.9,149.9 334.9,334.9 v 669.8 c 0,185 -149.9,334.9 -334.9,334.9 -184.9,0 -334.9,-149.9 -334.9,-334.9 v -376.8 h -669.8 v 376.8 c 0,554.9 449.8,1004.7 1004.7,1004.7 554.9,0 1004.8,-449.8 1004.8,-1004.7 v -628 c 0,-282.1 -157.6,-540.6 -408.4,-669.8 v 0 c 250.8,-129.2 408.4,-387.7 408.4,-669.8 V 13655 c 0,-554.9 -449.9,-1004.8 -1004.8,-1004.8 -554.9,0 -1004.7,449.9 -1004.7,1004.8 v 376.8"
       style="fill:#000000;fill-opacity:1;fill-rule:nonzero;stroke:none"
       transform="matrix(0.13333333,0,0,-0.13333333,0,6049.3333)" />
    <path
       id="path18"
       d="m 24844.2,12339.2 v 824.7 h 471.2 v -471.3 l -471.2,-353.4"
       style="fill:#000000;fill-opacity:1;fill-rule:nonzero;stroke:none"
       transform="matrix(0.13333333,0,0,-0.13333333,0,6049.3333)" />
    <path
       id="path19"
       d="m 25984.1,14430.4 c -148.1,98.2 -237.1,264.1 -237.1,441.8 v 441.8 c 0,390.4 316.5,706.9 706.9,706.9 390.4,0 706.9,-316.5 706.9,-706.9 v -441.8 c 0,-177.7 -89,-343.6 -237.1,-441.8 v 0 c 148.1,-98.3 237.1,-264.1 237.1,-441.8 V 13370 c 0,-390.4 -316.5,-706.9 -706.9,-706.9 -390.4,0 -706.9,316.5 -706.9,706.9 v 618.6 c 0,177.7 89,343.5 237.1,441.8 z m 234.2,-1060.4 c 0,-130.1 105.5,-235.6 235.6,-235.6 130.1,0 235.6,105.5 235.6,235.6 v 648 c 0,130.1 -105.5,235.6 -235.6,235.6 -130.1,0 -235.6,-105.5 -235.6,-235.6 z m 0,1472.7 c 0,-130.1 105.5,-235.6 235.6,-235.6 130.1,0 235.6,105.5 235.6,235.6 v 471.3 c 0,130.1 -105.5,235.6 -235.6,235.6 -130.1,0 -235.6,-105.5 -235.6,-235.6 v -471.3"
       style="fill:#000000;fill-opacity:1;fill-rule:nonzero;stroke:none"
       transform="matrix(0.13333333,0,0,-0.13333333,0,6049.3333)" />
    <path
       id="path20"
       d="m 27761,12692.6 v 2356.3 h 471.3 v -235.6 c 87,163.1 256.9,265 441.8,265 173.5,0 334.7,-89.8 425.9,-237.5 v 0 c 104.9,148.9 275.6,237.5 457.7,237.5 309,0 559.6,-250.5 559.6,-559.6 V 12692.6 H 29646 v 1678.8 c 0,130.2 -105.5,235.7 -235.6,235.7 -130.1,0 -235.6,-105.5 -235.6,-235.7 v -1678.8 h -471.3 v 1678.8 c 0,130.2 -105.5,235.7 -235.6,235.7 -130.1,0 -235.6,-105.5 -235.6,-235.7 V 12692.6 H 27761"
       style="fill:#000000;fill-opacity:1;fill-rule:nonzero;stroke:none"
       transform="matrix(0.13333333,0,0,-0.13333333,0,6049.3333)" />
  </g>
</svg>
