<?xml version="1.0" encoding="UTF-8" standalone="no"?>
<!-- Created with Inkscape (http://www.inkscape.org/) -->

<svg
   version="1.1"
   id="svg824"
   xml:space="preserve"
   width="600.9726"
   height="901.45892"
   viewBox="0 0 600.9726 901.45892"
   sodipodi:docname="Zeichen_460-23_-_Bedarfsumleitung - im Kreisverkehr rechts,_StVO_2021.svg"
   inkscape:version="1.1 (c68e22c387, 2021-05-23)"
   xmlns:inkscape="http://www.inkscape.org/namespaces/inkscape"
   xmlns:sodipodi="http://sodipodi.sourceforge.net/DTD/sodipodi-0.dtd"
   xmlns="http://www.w3.org/2000/svg"
   xmlns:svg="http://www.w3.org/2000/svg"><sodipodi:namedview
     id="namedview2172"
     pagecolor="#ffffff"
     bordercolor="#666666"
     borderopacity="1.0"
     inkscape:pageshadow="2"
     inkscape:pageopacity="0.0"
     inkscape:pagecheckerboard="0"
     showgrid="false"
     inkscape:zoom="0.8353126"
     inkscape:cx="300.48631"
     inkscape:cy="450.72946"
     inkscape:window-width="1920"
     inkscape:window-height="1001"
     inkscape:window-x="-9"
     inkscape:window-y="-9"
     inkscape:window-maximized="1"
     inkscape:current-layer="svg824" /><defs
     id="defs828" /><path
     d="M 40.109332,0.51601986 C 18.276,0.51601986 0.49466665,18.297353 0.49466665,40.130686 V 861.36933 c 0,21.83333 17.78133335,39.60933 39.61466535,39.60933 H 560.87999 c 21.86,0 39.61466,-17.776 39.61466,-39.60933 V 40.130686 c 0,-21.833333 -17.75466,-39.61466614 -39.61466,-39.61466614 z"
     style="fill:#ffffff;fill-opacity:1;fill-rule:nonzero;stroke:none;stroke-width:1.33333"
     id="path834" /><path
     d="M 40.109332,886.40133 C 26.281333,886.40133 15.068,875.19333 15.068,861.364 V 40.125352 c 0,-13.833333 11.213333,-25.037333 25.041332,-25.037333 H 560.87999 c 13.83333,0 25.03733,11.204 25.03733,25.037333 V 861.364 c 0,13.82933 -11.204,25.03733 -25.03733,25.03733 z"
     style="fill:#154889;fill-opacity:1;fill-rule:nonzero;stroke:none;stroke-width:1.33333"
     id="path836" /><path
     d="M 40.109332,1.9869806e-5 C 18,1.9869806e-5 0,18.005353 0,40.109352 V 861.34933 c 0,22.10933 18,40.10933 40.109332,40.10933 H 560.85999 c 22.13466,0 40.10933,-18 40.10933,-40.10933 V 40.109352 C 600.96932,18.005353 582.99465,1.9869806e-5 560.85999,1.9869806e-5 Z m 0,0.515999990194 H 560.87999 c 21.86,0 39.61466,17.78133314 39.61466,39.61466614 V 861.36933 c 0,21.83333 -17.75466,39.60933 -39.61466,39.60933 H 40.109332 c -21.833332,0 -39.61466535,-17.776 -39.61466535,-39.60933 V 40.130686 C 0.49466665,18.297353 18.276,0.51601986 40.109332,0.51601986 Z"
     style="fill:#000000;fill-opacity:1;fill-rule:nonzero;stroke:none;stroke-width:1.33333"
     id="path838" /><path
     d="m 409.75999,325.54135 v -23.692 l 70.292,-88.5 c 8.69333,-10.90667 6.86933,-26.81867 -4.036,-35.48533 -10.93733,-8.68134 -26.844,-6.86934 -35.51067,4.068 -3.552,4.464 -5.47866,10 -5.47866,15.72399 h -25.26667 c 0,-27.91599 22.61467,-50.53599 50.532,-50.53599 27.89066,0 50.536,22.62 50.536,50.53599 0,11.44267 -3.90667,22.59467 -11.068,31.54667 l -56.84267,71.07333 h 67.91067 v 25.26534 z m -132.64533,0 v -23.692 l 70.31733,-88.5 c 8.66133,-10.90667 6.844,-26.81867 -4.06267,-35.48533 -10.93733,-8.68134 -26.81733,-6.86934 -35.50933,4.068 -3.55333,4.464 -5.48533,10 -5.48533,15.72399 h -25.26 c 0,-27.91599 22.61467,-50.53599 50.53067,-50.53599 27.91733,0 50.53733,22.62 50.53733,50.53599 0,11.44267 -3.90667,22.59467 -11.068,31.54667 l -56.82267,71.07333 h 67.89067 v 25.26534 z M 90.161331,148.69735 h 26.843999 v 115.26666 c 0,20.05734 16.25467,36.312 36.30667,36.312 20.084,0 36.344,-16.25466 36.344,-36.312 V 148.69735 h 26.84399 v 115.26666 c 0,34.86934 -28.29199,63.156 -63.18799,63.156 -34.864,0 -63.150669,-28.28666 -63.150669,-63.156 z"
     style="fill:#ffffff;fill-opacity:1;fill-rule:nonzero;stroke:none;stroke-width:1.33333"
     id="path840" /><path
     id="path842"
     style="fill:#ffffff;fill-opacity:1;fill-rule:nonzero;stroke:none;stroke-width:1.33333"
     d="M 236.02734 569.77539 C 180.46467 569.77539 135.42578 614.81767 135.42578 670.375 C 135.46308 687.79767 140.02159 704.90725 148.65625 720.03125 L 183.27539 699.84961 C 178.22339 690.84427 175.55267 680.703 175.52734 670.375 C 175.52734 636.96433 202.61534 609.875 236.02734 609.875 C 269.44334 609.875 296.52734 636.96433 296.52734 670.375 C 296.52734 703.79233 269.44334 730.875 236.02734 730.875 L 216.02734 730.875 L 216.02734 839.49023 L 256.02734 839.49023 L 256.02734 768.98438 C 295.75278 760.96994 326.98063 729.54895 334.74609 689.73438 L 395.60352 689.73438 L 327.33398 760.44336 L 375.17773 760.44336 L 465.55664 670.04102 L 375.17773 579.02734 L 327.33398 579.02734 L 395.60352 649.74023 L 334.50391 649.74023 C 324.98378 604.07717 284.51538 569.77073 236.02734 569.77539 z " /></svg>
