<?xml version="1.0" encoding="UTF-8" standalone="no"?>
<!-- Created with Inkscape (http://www.inkscape.org/) -->

<svg
   version="1.1"
   id="svg1"
   width="2836"
   height="2269.3333"
   viewBox="0 0 2836 2269.3333"
   sodipodi:docname="365-70-verschiedene Tanksorten.eps"
   xmlns:inkscape="http://www.inkscape.org/namespaces/inkscape"
   xmlns:sodipodi="http://sodipodi.sourceforge.net/DTD/sodipodi-0.dtd"
   xmlns="http://www.w3.org/2000/svg"
   xmlns:svg="http://www.w3.org/2000/svg">
  <defs
     id="defs1" />
  <sodipodi:namedview
     id="namedview1"
     pagecolor="#ffffff"
     bordercolor="#000000"
     borderopacity="0.25"
     inkscape:showpageshadow="2"
     inkscape:pageopacity="0.0"
     inkscape:pagecheckerboard="0"
     inkscape:deskcolor="#d1d1d1">
    <inkscape:page
       x="0"
       y="0"
       inkscape:label="1"
       id="page1"
       width="2836"
       height="2269.3333"
       margin="0"
       bleed="0" />
  </sodipodi:namedview>
  <g
     id="g1"
     inkscape:groupmode="layer"
     inkscape:label="1">
    <path
       id="path1"
       d="M 1143.85,17017.8 H 20135.9 c 626.2,0 1133.8,-507.7 1133.8,-1133.9 V 1143.85 C 21269.7,517.641 20762.1,10 20135.9,10 H 1143.85 C 517.641,10 10,517.641 10,1143.85 V 15883.9 c 0,626.2 507.641,1133.9 1133.85,1133.9"
       style="fill:#ffffff;fill-opacity:1;fill-rule:nonzero;stroke:none"
       transform="matrix(0.13333333,0,0,-0.13333333,0,2269.3333)" />
    <path
       id="path2"
       d="M 1143.85,17017.8 H 20135.9 c 626.2,0 1133.8,-507.7 1133.8,-1133.9 V 1143.85 C 21269.7,517.641 20762.1,10 20135.9,10 H 1143.85 C 517.641,10 10,517.641 10,1143.85 V 15883.9 c 0,626.2 507.641,1133.9 1133.85,1133.9 z"
       style="fill:none;stroke:#000000;stroke-width:1;stroke-linecap:butt;stroke-linejoin:miter;stroke-miterlimit:4;stroke-dasharray:none;stroke-opacity:1"
       transform="matrix(0.13333333,0,0,-0.13333333,0,2269.3333)" />
    <path
       id="path3"
       d="M 1143.85,16592.6 H 20135.9 c 391.3,0 708.6,-317.3 708.6,-708.7 V 1143.85 c 0,-391.381 -317.3,-708.659 -708.6,-708.659 H 1143.85 c -391.381,0 -708.659,317.278 -708.659,708.659 V 15883.9 c 0,391.4 317.278,708.7 708.659,708.7"
       style="fill:#0d468a;fill-opacity:1;fill-rule:nonzero;stroke:none"
       transform="matrix(0.13333333,0,0,-0.13333333,0,2269.3333)" />
    <path
       id="path4"
       d="M 2844.63,14183.1 H 18435.1 V 2844.63 H 2844.63 V 14183.1"
       style="fill:#ffffff;fill-opacity:1;fill-rule:nonzero;stroke:none"
       transform="matrix(0.13333333,0,0,-0.13333333,0,2269.3333)" />
    <path
       id="path5"
       d="m 3553.28,11065.1 v 2381 h 361.42 v -2040.9 h 1169.28 v -340.1 z m 1870.86,0 v 2381 h 935.43 c 399.2,0 722.83,-323.6 722.83,-722.8 0,-399.2 -323.63,-722.8 -722.83,-722.8 h -574.02 v -935.4 z m 361.41,1275.5 h 552.76 c 211.34,0 382.67,171.4 382.67,382.7 0,211.3 -171.33,382.7 -382.67,382.7 h -552.76 z m 3337.78,42.5 v -488.9 c 0,-469.7 -380.73,-850.4 -850.39,-850.4 -469.66,0 -850.39,380.7 -850.39,850.4 v 722.8 c 0,469.7 380.73,850.4 850.39,850.4 412.25,0 765.12,-295.7 837.27,-701.6 h -371.49 c -64.74,202.6 -253.06,340.2 -465.78,340.2 -270.05,0 -488.97,-218.9 -488.97,-489 v -722.8 c 0,-270.1 218.92,-489 488.97,-489 270.05,0 488.97,218.9 488.97,489 v 148.8 h -488.97 v 340.1 h 850.39"
       style="fill:#000000;fill-opacity:1;fill-rule:nonzero;stroke:none"
       transform="matrix(0.13333333,0,0,-0.13333333,0,2269.3333)" />
    <path
       id="path6"
       d="m 5240.94,8336.72 c -72.15,-405.89 -425.02,-701.57 -837.27,-701.57 -469.65,0 -850.39,380.73 -850.39,850.39 v 722.83 c 0,469.65 380.74,850.43 850.39,850.43 412.25,0 765.12,-295.73 837.27,-701.61 l -371.49,-0.01 c -64.74,202.63 -253.06,340.16 -465.78,340.16 -270.05,0 -488.97,-218.92 -488.97,-488.97 v -722.83 c 0,-270.06 218.92,-488.98 488.97,-488.98 212.72,0 401.04,137.53 465.78,340.16 z m 425.19,-680.31 v 2381.09 h 340.16 L 7090.53,8336.72 v 1700.78 h 361.42 V 7656.41 H 7111.79 L 6027.55,9357.19 V 7656.41 Z m 3954.31,1318.1 v -488.97 c 0,-469.66 -380.73,-850.39 -850.39,-850.39 -469.66,0 -850.39,380.73 -850.39,850.39 v 722.83 c 0,469.65 380.73,850.43 850.39,850.43 412.25,0 765.12,-295.73 837.26,-701.61 l -371.48,-0.01 c -64.74,202.63 -253.06,340.16 -465.78,340.16 -270.05,0 -488.97,-218.92 -488.97,-488.97 v -722.83 c 0,-270.06 218.92,-488.98 488.97,-488.98 270.05,0 488.97,218.92 488.97,488.98 v 148.82 h -488.97 v 340.15 h 850.39"
       style="fill:#000000;fill-opacity:1;fill-rule:nonzero;stroke:none"
       transform="matrix(0.13333333,0,0,-0.13333333,0,2269.3333)" />
    <path
       id="path7"
       d="M 3553.28,4261.94 V 6643.03 H 3914.7 V 5622.56 h 977.95 v 1020.47 h 361.41 V 4261.94 H 4892.65 V 5303.67 H 3914.7 V 4261.94 h -361.42"
       style="fill:#000000;fill-opacity:1;fill-rule:nonzero;stroke:none"
       transform="matrix(0.13333333,0,0,-0.13333333,0,2269.3333)" />
    <path
       id="path8"
       d="m 5731.7,3227.3 v 318.9 l 946.64,1191.55 c 47.8,60.16 73.82,134.74 73.82,211.59 0,187.86 -152.29,340.15 -340.15,340.15 -187.87,0 -340.16,-152.29 -340.16,-340.15 H 5731.7 c 0,375.72 304.58,680.31 680.31,680.31 375.72,0 680.31,-304.59 680.31,-680.31 0,-154.42 -52.53,-304.24 -148.96,-424.84 l -765.21,-957.04 h 914.17 V 3227.3 H 5731.7"
       style="fill:#000000;fill-opacity:1;fill-rule:nonzero;stroke:none"
       transform="matrix(0.13333333,0,0,-0.13333333,0,2269.3333)" />
    <path
       id="path9"
       d="m 11708.4,4191.08 v 508.56 h -339.1 V 9361.5 h -339 l 0.7,-4152.79 c 0,-562.02 -455.6,-1017.63 -1017.6,-1017.63 -562.02,0 -1017.63,455.61 -1017.63,1017.63 v 0 c 0,228.5 57.73,453.31 167.83,653.54 l 730.21,1327.98 c 522.89,950.94 797.09,2018.58 797.09,3103.77 l 196.1,469.1 c 52.6,126.2 175.9,208.4 312.7,208.4 l 169.6,0.5 0.5,339.7 c 0,187 151.6,338.7 338.7,338.7 h 3390.2 c 187.1,0 338.8,-151.7 338.8,-338.7 l 0.3,-6612.06 h -339 v -508.56 h -3390.4"
       style="fill:#000000;fill-opacity:1;fill-rule:nonzero;stroke:none"
       transform="matrix(0.13333333,0,0,-0.13333333,0,2269.3333)" />
    <path
       id="path10"
       d="m 10691.8,8176.92 c -130.8,-397.95 -298.2,-782.94 -500,-1150.02 L 9460.38,5698.96 c -82.57,-150.21 -125.87,-318.84 -125.87,-490.25 h 1.42 c 0,-374.16 303.31,-677.48 677.47,-677.48 374.2,0 677.5,303.32 677.5,677.48 l 0.3,2967.83 z M 12386,8769 c -187.1,0 -338.7,151.66 -338.7,338.74 0,0.01 0,0.02 0,0.03 v 1525.03 c 0,187.1 151.6,338.7 338.7,338.7 h 2035.3 c 187,0 338.7,-151.6 338.7,-338.7 V 9107.74 c 0,-187.07 -151.6,-338.72 -338.7,-338.74 l -2034.8,-0.82"
       style="fill:#ffffff;fill-opacity:1;fill-rule:nonzero;stroke:none"
       transform="matrix(0.13333333,0,0,-0.13333333,0,2269.3333)" />
    <path
       id="path11"
       d="m 15437.8,5377.73 v 4577.09 l 1271,0.47 c 187.1,0 338.7,151.61 338.7,338.71 v 1525.1 c 0,187 -151.6,338.7 -338.7,338.7 0,0 0,0 0,0 h -2033.9 c -187,0 -338.7,-151.7 -338.7,-338.7 l -0.3,-169.1 h -1250.2 l 90.3,299.4 c 52.6,126.2 175.9,208.4 312.7,208.4 l 169.2,0.8 0.8,339.3 c 0,187.1 151.7,338.8 338.8,338.8 h 3390.2 c 187.1,0 338.7,-151.7 338.7,-338.8 0,0 0,0 0,-0.1 V 5886.3 h -339.1 v -508.57 h -1949.5"
       style="fill:#0d468a;fill-opacity:1;fill-rule:nonzero;stroke:none"
       transform="matrix(0.13333333,0,0,-0.13333333,0,2269.3333)" />
  </g>
</svg>
