<?xml version="1.0" encoding="UTF-8" standalone="no"?>
<!-- Created with Inkscape (http://www.inkscape.org/) -->

<svg
   version="1.1"
   id="svg1"
   width="2269.3333"
   height="3404"
   viewBox="0 0 2269.3333 3404"
   sodipodi:docname="442-16.eps"
   xmlns:inkscape="http://www.inkscape.org/namespaces/inkscape"
   xmlns:sodipodi="http://sodipodi.sourceforge.net/DTD/sodipodi-0.dtd"
   xmlns="http://www.w3.org/2000/svg"
   xmlns:svg="http://www.w3.org/2000/svg">
  <defs
     id="defs1" />
  <sodipodi:namedview
     id="namedview1"
     pagecolor="#ffffff"
     bordercolor="#000000"
     borderopacity="0.25"
     inkscape:showpageshadow="2"
     inkscape:pageopacity="0.0"
     inkscape:pagecheckerboard="0"
     inkscape:deskcolor="#d1d1d1">
    <inkscape:page
       x="0"
       y="0"
       inkscape:label="1"
       id="page1"
       width="2269.3333"
       height="3404"
       margin="0"
       bleed="0" />
  </sodipodi:namedview>
  <g
     id="g1"
     inkscape:groupmode="layer"
     inkscape:label="1">
    <path
       id="path1"
       d="M 1143.85,10 C 517.641,10 10,517.641 10,1143.85 V 24387.8 c 0,626.2 507.641,1133.9 1133.85,1133.9 H 15883.9 c 626.2,0 1133.9,-507.7 1133.9,-1133.9 V 1143.85 C 17017.8,517.641 16510.1,10 15883.9,10 H 1143.85"
       style="fill:#f0ca00;fill-opacity:1;fill-rule:nonzero;stroke:#000000;stroke-width:1;stroke-linecap:butt;stroke-linejoin:miter;stroke-miterlimit:4;stroke-dasharray:none;stroke-opacity:1"
       transform="matrix(0.13333333,0,0,-0.13333333,0,3404)" />
    <path
       id="path2"
       d="m 1143.85,293.461 c -469.659,0 -850.389,380.73 -850.389,850.389 V 24387.8 c 0,469.7 380.73,850.4 850.389,850.4 H 15883.9 c 469.7,0 850.4,-380.7 850.4,-850.4 V 1143.85 c 0,-469.659 -380.7,-850.389 -850.4,-850.389 H 1143.85"
       style="fill:#000000;fill-opacity:1;fill-rule:nonzero;stroke:none"
       transform="matrix(0.13333333,0,0,-0.13333333,0,3404)" />
    <path
       id="path3"
       d="m 1143.85,718.66 c -234.83,0 -425.19,190.36 -425.19,425.19 V 24387.8 c 0,234.8 190.36,425.2 425.19,425.2 H 15883.9 c 234.8,0 425.2,-190.4 425.2,-425.2 V 1143.85 c 0,-234.83 -190.4,-425.19 -425.2,-425.19 H 1143.85"
       style="fill:#f0ca00;fill-opacity:1;fill-rule:nonzero;stroke:none"
       transform="matrix(0.13333333,0,0,-0.13333333,0,3404)" />
    <path
       id="path4"
       d="m 4545.4,13814.6 v 396.9 l 183.17,76.3 c 193.45,80.6 400.95,122.1 610.53,122.1 209.58,0 417.08,-41.5 610.54,-122.1 l 366.32,-152.6 c 193.45,-80.6 400.95,-122.1 610.53,-122.1 209.58,0 417.08,41.5 610.54,122.1 l 366.32,152.6 c 193.45,80.6 400.96,122.1 610.53,122.1 209.58,0 417.08,-41.5 610.54,-122.1 l 366.32,-152.6 c 193.46,-80.6 400.96,-122.1 610.56,-122.1 209.6,0 417.1,41.5 610.5,122.1 l 366.3,152.6 c 193.5,80.6 401,122.1 610.6,122.1 209.5,0 417,-41.5 610.5,-122.1 l 183.2,-76.3 v -396.9 l -183.2,76.3 c -193.5,80.7 -401,122.2 -610.5,122.2 -209.6,0 -417.1,-41.5 -610.6,-122.2 l -366.3,-152.6 c -193.4,-80.6 -400.9,-122.1 -610.5,-122.1 -209.6,0 -417.1,41.5 -610.56,122.1 l -366.32,152.6 c -193.46,80.7 -400.96,122.2 -610.54,122.2 -209.57,0 -417.08,-41.5 -610.53,-122.2 l -366.32,-152.6 c -193.46,-80.6 -400.96,-122.1 -610.54,-122.1 -209.58,0 -417.08,41.5 -610.53,122.1 l -366.32,152.6 c -193.46,80.7 -400.96,122.2 -610.54,122.2 -209.58,0 -417.08,-41.5 -610.53,-122.2 z m 0,793.7 v 396.9 l 183.17,76.3 c 193.45,80.6 400.95,122.1 610.53,122.1 209.58,0 417.08,-41.5 610.54,-122.1 l 366.32,-152.6 c 193.45,-80.6 400.95,-122.1 610.53,-122.1 209.58,0 417.08,41.5 610.54,122.1 l 366.32,152.6 c 193.45,80.6 400.96,122.1 610.53,122.1 209.58,0 417.08,-41.5 610.54,-122.1 l 366.32,-152.6 c 193.46,-80.6 400.96,-122.1 610.56,-122.1 209.6,0 417.1,41.5 610.5,122.1 l 366.3,152.6 c 193.5,80.6 401,122.1 610.6,122.1 209.5,0 417,-41.5 610.5,-122.1 l 183.2,-76.3 v -396.9 l -183.2,76.3 c -193.5,80.7 -401,122.2 -610.5,122.2 -209.6,0 -417.1,-41.5 -610.6,-122.2 l -366.3,-152.6 c -193.4,-80.6 -400.9,-122.1 -610.5,-122.1 -209.6,0 -417.1,41.5 -610.56,122.1 l -366.32,152.6 c -193.46,80.7 -400.96,122.2 -610.54,122.2 -209.57,0 -417.08,-41.5 -610.53,-122.2 L 7537.03,14532 c -193.46,-80.6 -400.96,-122.1 -610.54,-122.1 -209.58,0 -417.08,41.5 -610.53,122.1 l -366.32,152.6 c -193.46,80.7 -400.96,122.2 -610.54,122.2 -209.58,0 -417.08,-41.5 -610.53,-122.2 l -183.17,-76.3"
       style="fill:#0d468a;fill-opacity:1;fill-rule:nonzero;stroke:none"
       transform="matrix(0.13333333,0,0,-0.13333333,0,3404)" />
    <path
       id="path5"
       d="m 5140.68,15600.4 c -109.59,0 -198.43,88.9 -198.43,198.5 v 1984.2 c 0,109.6 88.84,198.4 198.43,198.4 h 595.27 c 109.58,0 198.42,-88.8 198.42,-198.4 v -1984.2 c 0,-109.6 -88.84,-198.5 -198.42,-198.5 z m 1190.54,0 c -109.59,0 -198.42,88.9 -198.42,198.5 v 1984.2 c 0,109.6 88.83,198.4 198.42,198.4 h 595.27 c 109.59,0 198.43,-88.8 198.43,-198.4 v -545.7 c 0,-109.5 88.83,-198.4 198.42,-198.4 h 377.01 c 101.9,0 199.89,39.2 273.68,109.5 l 129.32,123.2 c 110.69,105.4 257.68,164.2 410.53,164.2 152.86,0 299.85,-58.8 410.54,-164.2 l 129.31,-123.2 c 73.79,-70.3 171.79,-109.5 273.69,-109.5 h 377.01 c 109.58,0 198.42,88.9 198.42,198.4 v 545.7 c 0,109.6 88.84,198.4 198.45,198.4 h 595.3 c 109.5,0 198.4,-88.8 198.4,-198.4 v -1984.2 c 0,-109.6 -88.9,-198.5 -198.4,-198.5 h -595.3 c -109.61,0 -198.45,88.9 -198.45,198.5 v 545.6 c 0,109.6 -88.84,198.5 -198.42,198.5 h -377.01 c -101.9,0 -199.9,-39.2 -273.69,-109.5 l -129.31,-123.2 c -110.69,-105.4 -257.68,-164.2 -410.54,-164.2 -152.85,0 -299.84,58.8 -410.53,164.2 l -129.32,123.2 c -73.79,70.3 -171.78,109.5 -273.68,109.5 h -377.01 c -109.59,0 -198.42,-88.9 -198.42,-198.5 v -545.6 c 0,-109.6 -88.84,-198.5 -198.43,-198.5 z m 4960.58,0 c -109.6,0 -198.4,88.9 -198.4,198.5 v 1984.2 c 0,109.6 88.8,198.4 198.4,198.4 h 595.3 c 109.6,0 198.4,-88.8 198.4,-198.4 v -1984.2 c 0,-109.6 -88.8,-198.5 -198.4,-198.5 z M 4545.4,18180 v 1190.5 h 1052.26 c 1620.12,-1058.3 4212.32,-1058.3 5832.44,0 h 1052.3 V 18180 Z m 7937,3174.7 c 0,-1424.6 -1776.8,-2579.5 -3968.52,-2579.5 -2191.73,0 -3968.48,1154.9 -3968.48,2579.5 0,1424.7 1776.75,2579.6 3968.48,2579.6 2191.72,0 3968.52,-1154.9 3968.52,-2579.6"
       style="fill:#000000;fill-opacity:1;fill-rule:nonzero;stroke:none"
       transform="matrix(0.13333333,0,0,-0.13333333,0,3404)" />
    <path
       id="path6"
       d="m 11887.1,21354.7 c 0,-1150.6 -1510.2,-2083.4 -3373.22,-2083.4 -1862.97,0 -3373.2,932.8 -3373.2,2083.4 0,1150.7 1510.23,2083.5 3373.2,2083.5 1863.02,0 3373.22,-932.8 3373.22,-2083.5"
       style="fill:#ed7d20;fill-opacity:1;fill-rule:nonzero;stroke:none"
       transform="matrix(0.13333333,0,0,-0.13333333,0,3404)" />
    <path
       id="path7"
       d="m 8491.82,5709.35 -799.11,-290.94 c -64.21,176.42 -110.73,358.78 -138.89,544.4 L 5324.93,5962.72 6813.11,4474.54 H 5750.12 L 3836.75,6387.91 5750.12,8301.29 H 6813.11 L 5324.93,6813.11 7553.3,6809.59 c 208.66,1387.07 1400.42,2412.95 2803.1,2412.95 1565.5,0 2834.6,-1269.11 2834.6,-2834.63 0,-1403.8 -1027.5,-2596.15 -2415.9,-2803.53 l 6.5,-1731.87 h -850.4 l -0.05,2597.27 c 139.65,-30.65 282.25,-46.11 425.25,-46.11 1095.9,0 1984.2,888.38 1984.2,1984.24 0,1095.87 -888.3,1984.24 -1984.2,1984.24 -1095.87,0 -1984.25,-888.37 -1984.25,-1984.24 0,-231.46 40.5,-461.14 119.67,-678.65"
       style="fill:#000000;fill-opacity:1;fill-rule:nonzero;stroke:none"
       transform="matrix(0.13333333,0,0,-0.13333333,0,3404)" />
  </g>
</svg>
