<?xml version="1.0" encoding="UTF-8" standalone="no"?>
<!-- Created with Inkscape (http://www.inkscape.org/) -->

<svg
   version="1.1"
   id="svg4706"
   xml:space="preserve"
   width="600.9726"
   height="901.45892"
   viewBox="0 0 600.9726 901.45892"
   xmlns="http://www.w3.org/2000/svg"
   xmlns:svg="http://www.w3.org/2000/svg"><defs
     id="defs4710" /><g
     id="g4712"
     transform="matrix(1.3333333,0,0,1.3333333,0,1.9869806e-5)"><g
       id="g4714"><path
         d="M 30.082,0.387 C 13.707,0.387 0.371,13.723 0.371,30.098 v 615.929 c 0,16.375 13.336,29.707 29.711,29.707 H 420.66 c 16.395,0 29.711,-13.332 29.711,-29.707 V 30.098 c 0,-16.375 -13.316,-29.711 -29.711,-29.711 z"
         style="fill:#ffffff;fill-opacity:1;fill-rule:nonzero;stroke:none"
         id="path4716" /><path
         d="m 30.082,664.801 c -10.371,0 -18.781,-8.406 -18.781,-18.778 V 30.094 c 0,-10.375 8.41,-18.778 18.781,-18.778 H 420.66 c 10.375,0 18.778,8.403 18.778,18.778 v 615.929 c 0,10.372 -8.403,18.778 -18.778,18.778 z"
         style="fill:#154889;fill-opacity:1;fill-rule:nonzero;stroke:none"
         id="path4718" /><path
         d="M 30.082,0 C 13.5,0 0,13.504 0,30.082 v 615.93 c 0,16.582 13.5,30.082 30.082,30.082 h 390.563 c 16.601,0 30.082,-13.5 30.082,-30.082 V 30.082 C 450.727,13.504 437.246,0 420.645,0 Z m 0,0.387 H 420.66 c 16.395,0 29.711,13.336 29.711,29.711 v 615.929 c 0,16.375 -13.316,29.707 -29.711,29.707 H 30.082 c -16.375,0 -29.711,-13.332 -29.711,-29.707 V 30.098 C 0.371,13.723 13.707,0.387 30.082,0.387 Z"
         style="fill:#000000;fill-opacity:1;fill-rule:nonzero;stroke:none"
         id="path4720" /><path
         d="m 307.32,244.156 v -17.769 l 52.719,-66.375 c 6.52,-8.18 5.152,-20.114 -3.027,-26.614 -8.203,-6.511 -20.133,-5.152 -26.633,3.051 -2.664,3.348 -4.109,7.5 -4.109,11.793 h -18.95 c 0,-20.937 16.961,-37.902 37.899,-37.902 20.918,0 37.902,16.965 37.902,37.902 0,8.582 -2.93,16.946 -8.301,23.66 l -42.632,53.305 h 50.933 v 18.949 z m -99.484,0 v -17.769 l 52.738,-66.375 c 6.496,-8.18 5.133,-20.114 -3.047,-26.614 -8.203,-6.511 -20.113,-5.152 -26.632,3.051 -2.665,3.348 -4.114,7.5 -4.114,11.793 h -18.945 c 0,-20.937 16.961,-37.902 37.898,-37.902 20.938,0 37.903,16.965 37.903,37.902 0,8.582 -2.93,16.946 -8.301,23.66 l -42.617,53.305 h 50.918 v 18.949 z M 67.621,111.523 h 20.133 v 86.45 c 0,15.043 12.191,27.234 27.23,27.234 15.063,0 27.258,-12.191 27.258,-27.234 v -86.45 h 20.133 v 86.45 c 0,26.152 -21.219,47.367 -47.391,47.367 -26.148,0 -47.363,-21.215 -47.363,-47.367 z"
         style="fill:#ffffff;fill-opacity:1;fill-rule:nonzero;stroke:none"
         id="path4722" /><path
         d="m 169.359,434.27 -67.789,68.261 67.789,67.801 h 35.879 l -51.203,-53.031 h 63.07 v -29.996 h -63.07 l 51.203,-53.035 z"
         style="fill:#ffffff;fill-opacity:1;fill-rule:nonzero;stroke:none"
         id="path4724" /><path
         d="m 273.719,427.332 c -41.672,0 -75.453,33.781 -75.453,75.449 0.027,13.067 3.445,25.899 9.922,37.242 l 25.968,-15.136 c -3.793,-6.754 -5.793,-14.36 -5.812,-22.106 0,-25.058 20.312,-45.375 45.375,-45.375 25.058,0 45.375,20.317 45.375,45.375 0,25.063 -20.317,45.375 -45.375,45.375 h -15 v 81.461 h 30 v -52.879 c 34.484,-6.957 60.449,-37.422 60.449,-73.957 0.004,-41.672 -33.777,-75.453 -75.449,-75.449 z"
         style="fill:#ffffff;fill-opacity:1;fill-rule:nonzero;stroke:none"
         id="path4726" /></g></g></svg>
