<?xml version="1.0" encoding="UTF-8" standalone="no"?>
<!-- Created with Inkscape (http://www.inkscape.org/) -->

<svg
   version="1.1"
   id="svg1"
   width="6049.3335"
   height="6049.3335"
   viewBox="0 0 6049.3335 6049.3335"
   sodipodi:docname="531-16.eps"
   xmlns:inkscape="http://www.inkscape.org/namespaces/inkscape"
   xmlns:sodipodi="http://sodipodi.sourceforge.net/DTD/sodipodi-0.dtd"
   xmlns="http://www.w3.org/2000/svg"
   xmlns:svg="http://www.w3.org/2000/svg">
  <defs
     id="defs1" />
  <sodipodi:namedview
     id="namedview1"
     pagecolor="#ffffff"
     bordercolor="#000000"
     borderopacity="0.25"
     inkscape:showpageshadow="2"
     inkscape:pageopacity="0.0"
     inkscape:pagecheckerboard="0"
     inkscape:deskcolor="#d1d1d1">
    <inkscape:page
       x="0"
       y="0"
       inkscape:label="1"
       id="page1"
       width="6049.3335"
       height="6049.3335"
       margin="0"
       bleed="0" />
  </sodipodi:namedview>
  <g
     id="g1"
     inkscape:groupmode="layer"
     inkscape:label="1">
    <path
       id="path1"
       d="M 43663.3,10 H 1710.78 C 771.461,10 10,771.461 10,1710.78 V 43663.3 c 0,939.3 761.461,1700.7 1700.78,1700.7 H 43663.3 c 939.3,0 1700.7,-761.4 1700.7,-1700.7 V 1710.78 C 45364,771.461 44602.6,10 43663.3,10"
       style="fill:#ffffff;fill-opacity:1;fill-rule:nonzero;stroke:#000000;stroke-width:1;stroke-linecap:butt;stroke-linejoin:miter;stroke-miterlimit:4;stroke-dasharray:none;stroke-opacity:1"
       transform="matrix(0.13333333,0,0,-0.13333333,0,6049.3333)" />
    <path
       id="path2"
       d="M 43663.3,435.191 H 1710.78 c -704.49,0 -1275.589,571.099 -1275.589,1275.589 V 43663.3 c 0,704.5 571.099,1275.5 1275.589,1275.5 H 43663.3 c 704.5,0 1275.5,-571 1275.5,-1275.5 V 1710.78 c 0,-704.49 -571,-1275.589 -1275.5,-1275.589"
       style="fill:#000000;fill-opacity:1;fill-rule:nonzero;stroke:none"
       transform="matrix(0.13333333,0,0,-0.13333333,0,6049.3333)" />
    <path
       id="path3"
       d="M 43663.3,1002.12 H 1710.78 c -391.38,0 -708.66,317.28 -708.66,708.66 V 43663.3 c 0,391.3 317.28,708.6 708.66,708.6 H 43663.3 c 391.3,0 708.6,-317.3 708.6,-708.6 V 1710.78 c 0,-391.38 -317.3,-708.66 -708.6,-708.66"
       style="fill:#ffffff;fill-opacity:1;fill-rule:nonzero;stroke:none"
       transform="matrix(0.13333333,0,0,-0.13333333,0,6049.3333)" />
    <path
       id="path4"
       d="M 24387.8,37058.6 V 4403.67 H 22687 V 37058.6 l -1275.6,-329.4 c -27.7,-7.1 -56.3,-10.8 -85,-10.8 -187.9,0 -340.1,152.3 -340.1,340.2 0,67.4 20,133.2 57.5,189.2 l 2493.6,3722.6 2493.7,-3722.6 c 37.5,-56 57.5,-121.8 57.5,-189.2 0,-187.9 -152.3,-340.2 -340.2,-340.2 -28.7,0 -57.2,3.7 -85,10.8 l -1275.6,329.4"
       style="fill:#000000;fill-opacity:1;fill-rule:nonzero;stroke:none"
       transform="matrix(0.13333333,0,0,-0.13333333,0,6049.3333)" />
    <path
       id="path5"
       d="M 15883.9,37058.6 V 4403.67 H 14183.1 V 37058.6 l -1275.6,-329.4 c -27.7,-7.1 -56.3,-10.8 -85,-10.8 -187.8,0 -340.1,152.3 -340.1,340.2 0,67.4 20,133.2 57.5,189.2 l 2493.6,3722.6 2493.7,-3722.6 c 37.5,-56 57.5,-121.8 57.5,-189.2 0,-187.9 -152.3,-340.2 -340.2,-340.2 -28.6,0 -57.2,3.7 -85,10.8 l -1275.6,329.4"
       style="fill:#000000;fill-opacity:1;fill-rule:nonzero;stroke:none"
       transform="matrix(0.13333333,0,0,-0.13333333,0,6049.3333)" />
    <path
       id="path6"
       d="M 7380.03,37058.6 V 4403.67 H 5679.26 V 37058.6 l -1275.6,-329.4 c -27.77,-7.1 -56.34,-10.8 -85.03,-10.8 -187.86,0 -340.15,152.3 -340.15,340.2 0,67.4 20.01,133.2 57.51,189.2 l 2493.65,3722.6 2493.66,-3722.6 c 37.49,-56 57.51,-121.8 57.51,-189.2 0,-187.9 -152.29,-340.2 -340.16,-340.2 -28.68,0 -57.25,3.7 -85.02,10.8 l -1275.6,329.4"
       style="fill:#000000;fill-opacity:1;fill-rule:nonzero;stroke:none"
       transform="matrix(0.13333333,0,0,-0.13333333,0,6049.3333)" />
    <path
       id="path7"
       d="m 29455.9,24632.5 2439.5,-2440 c 637.9,-638 996.3,-1503.1 996.3,-2405.3 V 4403.67 H 31190.9 V 19787.2 c 0,451.1 -179.2,883.7 -498.1,1202.6 l -2439.5,2440.1 -668.4,-1135.3 c -61.1,-103.7 -172.6,-167.4 -293,-167.4 -162.4,0 -302.2,114.8 -333.7,274.1 l -869.6,4395.9 4395.9,-869.6 c 159.3,-31.5 274.1,-171.3 274.1,-333.7 0,-120.4 -63.6,-231.8 -167.4,-293 l -1135.3,-668.4"
       style="fill:#000000;fill-opacity:1;fill-rule:nonzero;stroke:none"
       transform="matrix(0.13333333,0,0,-0.13333333,0,6049.3333)" />
    <path
       id="path8"
       d="m 37959.8,16119.2 2439.5,-2439.1 c 637.9,-637.9 996.3,-1503.1 996.3,-2405.3 V 4403.67 h -1700.8 v 6871.13 c 0,451.1 -179.2,883.7 -498.2,1202.6 l -2439.4,2439.1 -668.4,-1134.3 c -61.2,-103.7 -172.6,-167.4 -293,-167.4 -162.4,0 -302.2,114.8 -333.7,274.1 l -869.6,4395 4395.9,-868.7 c 159.3,-31.5 274.1,-171.3 274.1,-333.6 0,-120.5 -63.7,-231.9 -167.4,-293.1 l -1135.3,-669.3"
       style="fill:#000000;fill-opacity:1;fill-rule:nonzero;stroke:none"
       transform="matrix(0.13333333,0,0,-0.13333333,0,6049.3333)" />
  </g>
</svg>
