<?xml version="1.0" encoding="UTF-8" standalone="no"?>
<!-- Created with Inkscape (http://www.inkscape.org/) -->

<svg
   version="1.1"
   id="svg1"
   width="4726.6665"
   height="6049.3335"
   viewBox="0 0 4726.6665 6049.3335"
   sodipodi:docname="512-12.eps"
   xmlns:inkscape="http://www.inkscape.org/namespaces/inkscape"
   xmlns:sodipodi="http://sodipodi.sourceforge.net/DTD/sodipodi-0.dtd"
   xmlns="http://www.w3.org/2000/svg"
   xmlns:svg="http://www.w3.org/2000/svg">
  <defs
     id="defs1" />
  <sodipodi:namedview
     id="namedview1"
     pagecolor="#ffffff"
     bordercolor="#000000"
     borderopacity="0.25"
     inkscape:showpageshadow="2"
     inkscape:pageopacity="0.0"
     inkscape:pagecheckerboard="0"
     inkscape:deskcolor="#d1d1d1">
    <inkscape:page
       x="0"
       y="0"
       inkscape:label="1"
       id="page1"
       width="4726.6665"
       height="6049.3335"
       margin="0"
       bleed="0" />
  </sodipodi:namedview>
  <g
     id="g1"
     inkscape:groupmode="layer"
     inkscape:label="1">
    <path
       id="path1"
       d="M 1710.78,10 C 771.461,10 10,771.461 10,1710.78 V 43663.3 c 0,939.3 761.461,1700.7 1700.78,1700.7 H 33742.1 c 939.3,0 1700.7,-761.4 1700.7,-1700.7 V 1710.78 C 35442.8,771.461 34681.4,10 33742.1,10 H 1710.78"
       style="fill:#ffffff;fill-opacity:1;fill-rule:nonzero;stroke:#000000;stroke-width:1;stroke-linecap:butt;stroke-linejoin:miter;stroke-miterlimit:4;stroke-dasharray:none;stroke-opacity:1"
       transform="matrix(0.13333333,0,0,-0.13333333,0,6049.3333)" />
    <path
       id="path2"
       d="m 1710.78,435.191 c -704.49,0 -1275.589,571.099 -1275.589,1275.589 V 43663.3 c 0,704.5 571.099,1275.5 1275.589,1275.5 H 33742.1 c 704.5,0 1275.5,-571 1275.5,-1275.5 V 1710.78 c 0,-704.49 -571,-1275.589 -1275.5,-1275.589 H 1710.78"
       style="fill:#000000;fill-opacity:1;fill-rule:nonzero;stroke:none"
       transform="matrix(0.13333333,0,0,-0.13333333,0,6049.3333)" />
    <path
       id="path3"
       d="m 1710.78,1002.12 c -391.38,0 -708.66,317.28 -708.66,708.66 V 43663.3 c 0,391.3 317.28,708.6 708.66,708.6 H 33742.1 c 391.3,0 708.6,-317.3 708.6,-708.6 V 1710.78 c 0,-391.38 -317.3,-708.66 -708.6,-708.66 H 1710.78"
       style="fill:#ffffff;fill-opacity:1;fill-rule:nonzero;stroke:none"
       transform="matrix(0.13333333,0,0,-0.13333333,0,6049.3333)" />
    <path
       id="path4"
       d="m 5254.06,38972 v -1757.5 c 0,-7316.2 3444.61,-14205.4 9297.54,-18595.1 l 340.2,-255.2 c 3212,-2409 5102.3,-6189.7 5102.3,-10204.65 l 1275.6,329.36 c 27.8,7.17 56.4,10.8 85.1,10.8 187.8,0 340.1,-152.29 340.1,-340.16 0,-67.38 -20,-133.25 -57.5,-189.25 L 19143.7,4247.77 16650.1,7970.3 c -37.5,56 -57.5,121.87 -57.5,189.25 0,187.87 152.3,340.16 340.1,340.16 28.7,0 57.3,-3.63 85.1,-10.8 l 1275.6,-329.36 c 0,3479.65 -1638.3,6756.25 -4422,8844.05 l -340.3,255.1 C 7249.93,21969.7 3553.28,29363 3553.28,37214.5 V 38972 h 1700.78"
       style="fill:#000000;fill-opacity:1;fill-rule:nonzero;stroke:none"
       transform="matrix(0.13333333,0,0,-0.13333333,0,6049.3333)" />
    <path
       id="path5"
       d="m 11206.8,37214.5 c 0,-5442.5 2562.4,-10567.4 6916.5,-13833 l 340.1,-255.1 c 4711,-3533.2 7483.4,-9078.2 7483.4,-14966.85 V 6402.09 h -1700.7 v 1757.46 c 0,5353.35 -2520.5,10394.25 -6803.1,13606.25 l -340.2,255.1 C 12320.5,25607.6 9506,31236.6 9506,37214.5 l -1275.59,-329.4 c -27.78,-7.1 -56.34,-10.8 -85.03,-10.8 -187.86,0 -340.15,152.3 -340.15,340.2 0,67.4 20.01,133.3 57.5,189.2 l 2493.67,3722.6 2493.7,-3722.6 c 37.4,-55.9 57.5,-121.8 57.5,-189.2 0,-187.9 -152.3,-340.2 -340.2,-340.2 -28.7,0 -57.2,3.7 -85,10.8 l -1275.6,329.4"
       style="fill:#000000;fill-opacity:1;fill-rule:nonzero;stroke:none"
       transform="matrix(0.13333333,0,0,-0.13333333,0,6049.3333)" />
    <path
       id="path6"
       d="m 17159.5,37214.5 c 0,-3568.9 1680.3,-6929.5 4535.4,-9070.8 l 340.2,-255.2 C 28244.9,23231.2 31899.6,15921.9 31899.6,8159.55 V 6402.09 h -1700.8 v 1757.46 c 0,7226.95 -3402.6,14032.15 -9184.2,18368.35 l -340.2,255.2 c -3283.3,2462.5 -5215.7,6327.2 -5215.7,10431.4 l -1275.6,-329.4 c -27.7,-7.1 -56.3,-10.8 -85,-10.8 -187.9,0 -340.2,152.3 -340.2,340.2 0,67.4 20.1,133.3 57.5,189.2 l 2493.7,3722.6 2493.7,-3722.6 c 37.5,-55.9 57.5,-121.8 57.5,-189.2 0,-187.9 -152.3,-340.2 -340.2,-340.2 -28.7,0 -57.2,3.7 -85,10.8 l -1275.6,329.4"
       style="fill:#000000;fill-opacity:1;fill-rule:nonzero;stroke:none"
       transform="matrix(0.13333333,0,0,-0.13333333,0,6049.3333)" />
  </g>
</svg>
