<?xml version="1.0" encoding="UTF-8" standalone="no"?>
<!-- Created with Inkscape (http://www.inkscape.org/) -->

<svg
   version="1.1"
   id="svg1"
   width="4726.6665"
   height="6049.3335"
   viewBox="0 0 4726.6665 6049.3335"
   sodipodi:docname="511-23.eps"
   xmlns:inkscape="http://www.inkscape.org/namespaces/inkscape"
   xmlns:sodipodi="http://sodipodi.sourceforge.net/DTD/sodipodi-0.dtd"
   xmlns="http://www.w3.org/2000/svg"
   xmlns:svg="http://www.w3.org/2000/svg">
  <defs
     id="defs1" />
  <sodipodi:namedview
     id="namedview1"
     pagecolor="#ffffff"
     bordercolor="#000000"
     borderopacity="0.25"
     inkscape:showpageshadow="2"
     inkscape:pageopacity="0.0"
     inkscape:pagecheckerboard="0"
     inkscape:deskcolor="#d1d1d1">
    <inkscape:page
       x="0"
       y="0"
       inkscape:label="1"
       id="page1"
       width="4726.6665"
       height="6049.3335"
       margin="0"
       bleed="0" />
  </sodipodi:namedview>
  <g
     id="g1"
     inkscape:groupmode="layer"
     inkscape:label="1">
    <path
       id="path1"
       d="M 1710.78,10 C 771.461,10 10,771.461 10,1710.78 V 43663.3 c 0,939.3 761.461,1700.7 1700.78,1700.7 H 33742.1 c 939.3,0 1700.7,-761.4 1700.7,-1700.7 V 1710.78 C 35442.8,771.461 34681.4,10 33742.1,10 H 1710.78"
       style="fill:#ffffff;fill-opacity:1;fill-rule:nonzero;stroke:#000000;stroke-width:1;stroke-linecap:butt;stroke-linejoin:miter;stroke-miterlimit:4;stroke-dasharray:none;stroke-opacity:1"
       transform="matrix(0.13333333,0,0,-0.13333333,0,6049.3333)" />
    <path
       id="path2"
       d="m 1710.78,435.191 c -704.49,0 -1275.589,571.099 -1275.589,1275.589 V 43663.3 c 0,704.5 571.099,1275.5 1275.589,1275.5 H 33742.1 c 704.5,0 1275.5,-571 1275.5,-1275.5 V 1710.78 c 0,-704.49 -571,-1275.589 -1275.5,-1275.589 z m 0,566.929 H 33742.1 c 391.3,0 708.6,317.28 708.6,708.66 V 43663.3 c 0,391.3 -317.3,708.6 -708.6,708.6 H 1710.78 c -391.38,0 -708.66,-317.3 -708.66,-708.6 V 1710.78 c 0,-391.38 317.28,-708.66 708.66,-708.66"
       style="fill:#000000;fill-opacity:1;fill-rule:nonzero;stroke:none"
       transform="matrix(0.13333333,0,0,-0.13333333,0,6049.3333)" />
    <path
       id="path3"
       d="m 10214.7,36729.1 1275.5,329.5 V 35867.9 C 11203.5,23463.5 3025.56,19102.8 2702.9,6813.26 V 4403.67 H 4403.67 V 6813.26 C 4726.3,19102.8 12904.4,23463.5 13191.1,35868.3 l -0.1,1190.3 1275.5,-329.3 c 27.8,-7.2 56.4,-10.9 85.1,-10.9 187.9,0 340.2,152.3 340.2,340.2 0,67 -19.8,132.4 -56.8,188.2 l -2494.4,3723.6 -2494.1,-3723.3 c -37.19,-55.8 -57.03,-121.4 -57.03,-188.5 0,-187.9 152.29,-340.2 340.13,-340.2 28.5,0 56.8,3.6 84.4,10.7 h 0.7"
       style="fill:#000000;fill-opacity:1;fill-rule:nonzero;stroke:none"
       transform="matrix(0.13333333,0,0,-0.13333333,0,6049.3333)" />
    <path
       id="path4"
       d="m 16167.4,36729.1 1275.6,329.5 V 35867.9 C 17156.3,23463.5 8978.28,19102.8 8655.62,6813.26 l -0.01,-2409.59 H 10356.4 V 6813.26 C 10679,19102.8 18857.1,23463.5 19143.8,35868.3 l -0.1,1190.3 1275.6,-329.3 c 27.8,-7.2 56.3,-10.9 85.1,-10.9 187.8,0 340.1,152.3 340.1,340.2 0,67 -19.8,132.4 -56.8,188.2 l -2494.3,3723.6 -2494.2,-3723.3 c -37.2,-55.8 -57,-121.4 -57,-188.5 0,-187.9 152.3,-340.2 340.1,-340.2 28.5,0 56.9,3.6 84.4,10.7 h 0.7"
       style="fill:#000000;fill-opacity:1;fill-rule:nonzero;stroke:none"
       transform="matrix(0.13333333,0,0,-0.13333333,0,6049.3333)" />
    <path
       id="path5"
       d="m 22120.1,36729.1 1275.6,329.5 V 35867.9 C 23109,23463.5 14931,19102.8 14608.3,6813.26 V 4403.67 h 1700.8 v 2409.59 c 322.6,12289.54 8500.7,16650.24 8787.4,29055.04 v 1190.3 l 1275.5,-329.3 c 27.8,-7.2 56.4,-10.9 85.1,-10.9 187.8,0 340.1,152.3 340.1,340.2 0,67 -19.7,132.4 -56.8,188.2 l -2494.3,3723.6 -2494.2,-3723.3 c -37.2,-55.8 -57,-121.4 -57,-188.5 0,-187.9 152.3,-340.2 340.2,-340.2 28.4,0 56.8,3.6 84.4,10.7 h 0.6"
       style="fill:#000000;fill-opacity:1;fill-rule:nonzero;stroke:none"
       transform="matrix(0.13333333,0,0,-0.13333333,0,6049.3333)" />
    <path
       id="path6"
       d="m 28072.8,36729.1 1275.6,329.5 V 35867.9 C 29061.7,23463.5 20883.7,19102.8 20561.1,6813.26 V 4403.67 h 1700.7 v 2409.59 c 322.7,12289.54 8500.7,16650.24 8787.4,29055.04 v 1190.3 l 1275.5,-329.3 c 27.8,-7.2 56.4,-10.9 85.1,-10.9 187.9,0 340.2,152.3 340.2,340.2 0,67 -19.8,132.4 -56.9,188.2 l -2494.3,3723.6 -2494.1,-3723.3 c -37.2,-55.8 -57.1,-121.4 -57.1,-188.5 0,-187.9 152.3,-340.2 340.2,-340.2 28.4,0 56.8,3.6 84.4,10.7 h 0.6"
       style="fill:#000000;fill-opacity:1;fill-rule:nonzero;stroke:none"
       transform="matrix(0.13333333,0,0,-0.13333333,0,6049.3333)" />
  </g>
</svg>
