<?xml version="1.0" encoding="UTF-8" standalone="no"?>
<!-- Created with Inkscape (http://www.inkscape.org/) -->

<svg
   version="1.1"
   id="svg1"
   width="4726.6665"
   height="6049.3335"
   viewBox="0 0 4726.6665 6049.3335"
   sodipodi:docname="512-21.eps"
   xmlns:inkscape="http://www.inkscape.org/namespaces/inkscape"
   xmlns:sodipodi="http://sodipodi.sourceforge.net/DTD/sodipodi-0.dtd"
   xmlns="http://www.w3.org/2000/svg"
   xmlns:svg="http://www.w3.org/2000/svg">
  <defs
     id="defs1" />
  <sodipodi:namedview
     id="namedview1"
     pagecolor="#ffffff"
     bordercolor="#000000"
     borderopacity="0.25"
     inkscape:showpageshadow="2"
     inkscape:pageopacity="0.0"
     inkscape:pagecheckerboard="0"
     inkscape:deskcolor="#d1d1d1">
    <inkscape:page
       x="0"
       y="0"
       inkscape:label="1"
       id="page1"
       width="4726.6665"
       height="6049.3335"
       margin="0"
       bleed="0" />
  </sodipodi:namedview>
  <g
     id="g1"
     inkscape:groupmode="layer"
     inkscape:label="1">
    <path
       id="path1"
       d="M 33742.1,10 H 1710.78 C 771.461,10 10,771.461 10,1710.78 V 43663.3 c 0,939.3 761.461,1700.7 1700.78,1700.7 H 33742.1 c 939.3,0 1700.7,-761.4 1700.7,-1700.7 V 1710.78 C 35442.8,771.461 34681.4,10 33742.1,10"
       style="fill:#ffffff;fill-opacity:1;fill-rule:nonzero;stroke:#000000;stroke-width:1;stroke-linecap:butt;stroke-linejoin:miter;stroke-miterlimit:4;stroke-dasharray:none;stroke-opacity:1"
       transform="matrix(0.13333333,0,0,-0.13333333,0,6049.3333)" />
    <path
       id="path2"
       d="M 33742.1,435.191 H 1710.78 c -704.49,0 -1275.589,571.099 -1275.589,1275.589 V 43663.3 c 0,704.5 571.099,1275.5 1275.589,1275.5 H 33742.1 c 704.5,0 1275.5,-571 1275.5,-1275.5 V 1710.78 c 0,-704.49 -571,-1275.589 -1275.5,-1275.589"
       style="fill:#000000;fill-opacity:1;fill-rule:nonzero;stroke:none"
       transform="matrix(0.13333333,0,0,-0.13333333,0,6049.3333)" />
    <path
       id="path3"
       d="M 33742.1,1002.12 H 1710.78 c -391.38,0 -708.66,317.28 -708.66,708.66 V 43663.3 c 0,391.3 317.28,708.6 708.66,708.6 H 33742.1 c 391.3,0 708.6,-317.3 708.6,-708.6 V 1710.78 c 0,-391.38 -317.3,-708.66 -708.6,-708.66"
       style="fill:#ffffff;fill-opacity:1;fill-rule:nonzero;stroke:none"
       transform="matrix(0.13333333,0,0,-0.13333333,0,6049.3333)" />
    <path
       id="path4"
       d="m 19994.1,38972 v -1757.5 c 0,-4104.2 -1932.3,-7968.9 -5215.7,-10431.4 l -340.2,-255.2 C 8656.66,22191.7 5254.06,15386.5 5254.06,8159.55 l 1275.6,329.36 c 27.77,7.17 56.34,10.8 85.02,10.8 187.87,0 340.16,-152.29 340.16,-340.16 0,-67.38 -20.02,-133.25 -57.51,-189.25 L 4403.67,4247.77 1910.02,7970.3 c -37.5,56 -57.51,121.87 -57.51,189.25 0,187.87 152.29,340.16 340.15,340.16 28.69,0 57.25,-3.63 85.03,-10.8 l 1275.59,-329.36 c 0,7762.35 3654.65,15071.65 9864.52,19728.95 l 340.2,255.2 c 2855.1,2141.3 4535.4,5501.9 4535.4,9070.8 V 38972 h 1700.7"
       style="fill:#000000;fill-opacity:1;fill-rule:nonzero;stroke:none"
       transform="matrix(0.13333333,0,0,-0.13333333,0,6049.3333)" />
    <path
       id="path5"
       d="m 25946.8,38972 v -1757.5 c 0,-5977.9 -2814.4,-11606.9 -7596.7,-15193.6 l -340.2,-255.1 c -4282.7,-3212 -6803.1,-8252.9 -6803.1,-13606.25 l 1275.6,329.36 c 27.8,7.17 56.3,10.8 85,10.8 187.9,0 340.2,-152.29 340.2,-340.16 0,-67.38 -20.1,-133.25 -57.5,-189.25 L 10356.4,4247.77 7862.73,7970.3 c -37.49,56 -57.5,121.87 -57.5,189.25 0,187.87 152.29,340.16 340.15,340.16 28.69,0 57.25,-3.63 85.03,-10.8 L 9506,8159.55 c 0,5888.65 2772.5,11433.65 7483.4,14966.85 l 340.2,255.1 c 4354,3265.6 6916.5,8390.5 6916.5,13833 V 38972 h 1700.7"
       style="fill:#000000;fill-opacity:1;fill-rule:nonzero;stroke:none"
       transform="matrix(0.13333333,0,0,-0.13333333,0,6049.3333)" />
    <path
       id="path6"
       d="m 31899.6,37214.5 c 0,-7851.5 -3696.7,-15244.8 -9977.9,-19955.8 l -340.2,-255.1 c -2783.7,-2087.8 -4422,-5364.4 -4422,-8844.05 V 6402.09 h -1700.8 v 1757.46 c 0,4014.95 1890.4,7795.65 5102.3,10204.65 l 340.2,255.2 c 5853,4389.7 9297.6,11278.9 9297.6,18595.1 l -1275.6,-329.4 c -27.8,-7.1 -56.3,-10.8 -85,-10.8 -187.9,0 -340.2,152.3 -340.2,340.2 0,67.4 20,133.3 57.5,189.2 l 2493.7,3722.6 2493.6,-3722.6 c 37.5,-55.9 57.5,-121.8 57.5,-189.2 0,-187.9 -152.2,-340.2 -340.1,-340.2 -28.7,0 -57.3,3.7 -85,10.8 l -1275.6,329.4"
       style="fill:#000000;fill-opacity:1;fill-rule:nonzero;stroke:none"
       transform="matrix(0.13333333,0,0,-0.13333333,0,6049.3333)" />
  </g>
</svg>
