<?xml version="1.0" encoding="UTF-8" standalone="no"?>
<!-- Created with Inkscape (http://www.inkscape.org/) -->

<svg
   version="1.1"
   id="svg1"
   width="6049.3335"
   height="6049.3335"
   viewBox="0 0 6049.3335 6049.3335"
   sodipodi:docname="533-24.eps"
   xmlns:inkscape="http://www.inkscape.org/namespaces/inkscape"
   xmlns:sodipodi="http://sodipodi.sourceforge.net/DTD/sodipodi-0.dtd"
   xmlns="http://www.w3.org/2000/svg"
   xmlns:svg="http://www.w3.org/2000/svg">
  <defs
     id="defs1" />
  <sodipodi:namedview
     id="namedview1"
     pagecolor="#ffffff"
     bordercolor="#000000"
     borderopacity="0.25"
     inkscape:showpageshadow="2"
     inkscape:pageopacity="0.0"
     inkscape:pagecheckerboard="0"
     inkscape:deskcolor="#d1d1d1">
    <inkscape:page
       x="0"
       y="0"
       inkscape:label="1"
       id="page1"
       width="6049.3335"
       height="6049.3335"
       margin="0"
       bleed="0" />
  </sodipodi:namedview>
  <g
     id="g1"
     inkscape:groupmode="layer"
     inkscape:label="1">
    <path
       id="path1"
       d="M 43663.3,10 H 1710.78 C 771.461,10 10,771.461 10,1710.78 V 43663.3 c 0,939.3 761.461,1700.7 1700.78,1700.7 H 43663.3 c 939.3,0 1700.7,-761.4 1700.7,-1700.7 V 1710.78 C 45364,771.461 44602.6,10 43663.3,10"
       style="fill:#ffffff;fill-opacity:1;fill-rule:nonzero;stroke:#000000;stroke-width:1;stroke-linecap:butt;stroke-linejoin:miter;stroke-miterlimit:4;stroke-dasharray:none;stroke-opacity:1"
       transform="matrix(0.13333333,0,0,-0.13333333,0,6049.3333)" />
    <path
       id="path2"
       d="M 43663.3,435.191 H 1710.78 c -704.49,0 -1275.589,571.099 -1275.589,1275.589 V 43663.3 c 0,704.5 571.099,1275.5 1275.589,1275.5 H 43663.3 c 704.5,0 1275.5,-571 1275.5,-1275.5 V 1710.78 c 0,-704.49 -571,-1275.589 -1275.5,-1275.589"
       style="fill:#000000;fill-opacity:1;fill-rule:nonzero;stroke:none"
       transform="matrix(0.13333333,0,0,-0.13333333,0,6049.3333)" />
    <path
       id="path3"
       d="M 43663.3,1002.12 H 1710.78 c -391.38,0 -708.66,317.28 -708.66,708.66 V 43663.3 c 0,391.3 317.28,708.6 708.66,708.6 H 43663.3 c 391.3,0 708.6,-317.3 708.6,-708.6 V 1710.78 c 0,-391.38 -317.3,-708.66 -708.6,-708.66"
       style="fill:#ffffff;fill-opacity:1;fill-rule:nonzero;stroke:none"
       transform="matrix(0.13333333,0,0,-0.13333333,0,6049.3333)" />
    <path
       id="path4"
       d="M 8036.77,37058.6 V 4403.67 H 6335.99 V 37058.6 l -1276.12,-329.4 c -27.77,-7.1 -56.34,-10.8 -85.02,-10.8 -187.86,0 -340.15,152.3 -340.15,340.2 0,67.4 20.01,133.2 57.5,189.2 l 2494.18,3722.6 2493.14,-3722.6 c 37.49,-56 57.51,-121.8 57.51,-189.2 0,-187.9 -152.3,-340.2 -340.16,-340.2 -28.68,0 -57.25,3.7 -85.02,10.8 l -1275.08,329.4"
       style="fill:#000000;fill-opacity:1;fill-rule:nonzero;stroke:none"
       transform="matrix(0.13333333,0,0,-0.13333333,0,6049.3333)" />
    <path
       id="path5"
       d="M 14839.9,37058.6 V 4403.67 H 13139.1 V 37058.6 L 11863,36729.2 c -27.8,-7.1 -56.4,-10.8 -85,-10.8 -187.9,0 -340.2,152.3 -340.2,340.2 0,67.4 20,133.2 57.5,189.2 l 2494.2,3722.6 2493.1,-3722.6 c 37.5,-56 57.5,-121.8 57.5,-189.2 0,-187.9 -152.3,-340.2 -340.1,-340.2 -28.7,0 -57.3,3.7 -85.1,10.8 l -1275,329.4"
       style="fill:#000000;fill-opacity:1;fill-rule:nonzero;stroke:none"
       transform="matrix(0.13333333,0,0,-0.13333333,0,6049.3333)" />
    <path
       id="path6"
       d="M 21643,37058.6 V 4403.67 H 19942.2 V 37058.6 l -1276.1,-329.4 c -27.8,-7.1 -56.3,-10.8 -85,-10.8 -187.9,0 -340.2,152.3 -340.2,340.2 0,67.4 20,133.2 57.5,189.2 l 2494.2,3722.6 2493.1,-3722.6 c 37.5,-56 57.5,-121.8 57.5,-189.2 0,-187.9 -152.3,-340.2 -340.1,-340.2 -28.7,0 -57.3,3.7 -85,10.8 l -1275.1,329.4"
       style="fill:#000000;fill-opacity:1;fill-rule:nonzero;stroke:none"
       transform="matrix(0.13333333,0,0,-0.13333333,0,6049.3333)" />
    <path
       id="path7"
       d="M 28446.1,37058.6 V 4403.67 H 26745.3 V 37058.6 l -1276.1,-329.4 c -27.8,-7.1 -56.3,-10.8 -85,-10.8 -187.9,0 -340.2,152.3 -340.2,340.2 0,67.4 20,133.2 57.5,189.2 l 2494.2,3722.6 2493.1,-3722.6 c 37.5,-56 57.6,-121.8 57.6,-189.2 0,-187.9 -152.3,-340.2 -340.2,-340.2 -28.7,0 -57.3,3.7 -85,10.8 l -1275.1,329.4"
       style="fill:#000000;fill-opacity:1;fill-rule:nonzero;stroke:none"
       transform="matrix(0.13333333,0,0,-0.13333333,0,6049.3333)" />
    <path
       id="path8"
       d="M 35249.2,23752.8 V 4403.67 H 33548.4 V 23752.8 c 0,902.2 358.4,1767.4 996.3,2405.3 l 4285.5,4285.4 -1135.1,668.4 c -103.7,61.2 -167.4,172.6 -167.4,293 0,162.4 114.8,302.2 274.1,333.7 l 4395.7,869.6 -869.4,-4395.9 c -31.5,-159.3 -171.2,-274.1 -333.6,-274.1 -120.4,0 -231.9,63.6 -293.1,167.4 l -668.6,1135.3 -4285.5,-4285.4 c -318.9,-319 -498.1,-751.6 -498.1,-1202.7"
       style="fill:#000000;fill-opacity:1;fill-rule:nonzero;stroke:none"
       transform="matrix(0.13333333,0,0,-0.13333333,0,6049.3333)" />
  </g>
</svg>
