<?xml version="1.0" encoding="UTF-8" standalone="no"?>
<!-- Created with Inkscape (http://www.inkscape.org/) -->

<svg
   version="1.1"
   id="svg1"
   width="4726.6665"
   height="6049.3335"
   viewBox="0 0 4726.6665 6049.3335"
   sodipodi:docname="511-13.eps"
   xmlns:inkscape="http://www.inkscape.org/namespaces/inkscape"
   xmlns:sodipodi="http://sodipodi.sourceforge.net/DTD/sodipodi-0.dtd"
   xmlns="http://www.w3.org/2000/svg"
   xmlns:svg="http://www.w3.org/2000/svg">
  <defs
     id="defs1" />
  <sodipodi:namedview
     id="namedview1"
     pagecolor="#ffffff"
     bordercolor="#000000"
     borderopacity="0.25"
     inkscape:showpageshadow="2"
     inkscape:pageopacity="0.0"
     inkscape:pagecheckerboard="0"
     inkscape:deskcolor="#d1d1d1">
    <inkscape:page
       x="0"
       y="0"
       inkscape:label="1"
       id="page1"
       width="4726.6665"
       height="6049.3335"
       margin="0"
       bleed="0" />
  </sodipodi:namedview>
  <g
     id="g1"
     inkscape:groupmode="layer"
     inkscape:label="1">
    <path
       id="path1"
       d="M 33742.1,10 H 1710.78 C 771.461,10 10,771.461 10,1710.78 V 43663.3 c 0,939.3 761.461,1700.7 1700.78,1700.7 H 33742.1 c 939.3,0 1700.7,-761.4 1700.7,-1700.7 V 1710.78 C 35442.8,771.461 34681.4,10 33742.1,10"
       style="fill:#ffffff;fill-opacity:1;fill-rule:nonzero;stroke:#000000;stroke-width:1;stroke-linecap:butt;stroke-linejoin:miter;stroke-miterlimit:4;stroke-dasharray:none;stroke-opacity:1"
       transform="matrix(0.13333333,0,0,-0.13333333,0,6049.3333)" />
    <path
       id="path2"
       d="M 33742.1,435.191 H 1710.78 c -704.49,0 -1275.589,571.099 -1275.589,1275.589 V 43663.3 c 0,704.5 571.099,1275.5 1275.589,1275.5 H 33742.1 c 704.5,0 1275.5,-571 1275.5,-1275.5 V 1710.78 c 0,-704.49 -571,-1275.589 -1275.5,-1275.589 z m 0,566.929 c 391.3,0 708.6,317.28 708.6,708.66 V 43663.3 c 0,391.3 -317.3,708.6 -708.6,708.6 H 1710.78 c -391.38,0 -708.66,-317.3 -708.66,-708.6 V 1710.78 c 0,-391.38 317.28,-708.66 708.66,-708.66 H 33742.1"
       style="fill:#000000;fill-opacity:1;fill-rule:nonzero;stroke:none"
       transform="matrix(0.13333333,0,0,-0.13333333,0,6049.3333)" />
    <path
       id="path3"
       d="m 7380.03,36729.1 h 0.65 c 27.57,-7.1 55.93,-10.7 84.39,-10.7 187.86,0 340.16,152.3 340.16,340.2 0,67.1 -19.85,132.7 -57.03,188.5 L 5254.06,40970.4 2759.73,37246.8 c -37.06,-55.8 -56.83,-121.2 -56.83,-188.2 0,-187.9 152.29,-340.2 340.15,-340.2 28.71,0 57.31,3.7 85.11,10.9 l 1275.51,329.3 -0.03,-1190.3 C 4690.34,23463.5 12868.4,19102.8 13191,6813.26 V 4403.67 h 1700.8 V 6813.26 C 14569.1,19102.8 6391.15,23463.5 6104.45,35867.9 v 1190.7 l 1275.58,-329.5"
       style="fill:#000000;fill-opacity:1;fill-rule:nonzero;stroke:none"
       transform="matrix(0.13333333,0,0,-0.13333333,0,6049.3333)" />
    <path
       id="path4"
       d="m 13332.8,36729.1 h 0.6 c 27.6,-7.1 55.9,-10.7 84.4,-10.7 187.8,0 340.1,152.3 340.1,340.2 0,67.1 -19.8,132.7 -57,188.5 l -2494.1,3723.3 -2494.35,-3723.6 c -37.06,-55.8 -56.84,-121.2 -56.84,-188.2 0,-187.9 152.3,-340.2 340.16,-340.2 28.71,0 57.31,3.7 85.11,10.9 l 1275.52,329.3 V 35868.3 C 10643.1,23463.5 18821.1,19102.8 19143.7,6813.26 V 4403.67 h 1700.8 V 6813.26 C 20521.9,19102.8 12343.9,23463.5 12057.2,35867.9 v 1190.7 l 1275.6,-329.5"
       style="fill:#000000;fill-opacity:1;fill-rule:nonzero;stroke:none"
       transform="matrix(0.13333333,0,0,-0.13333333,0,6049.3333)" />
    <path
       id="path5"
       d="m 19285.5,36729.1 h 0.6 c 27.6,-7.1 55.9,-10.7 84.4,-10.7 187.9,0 340.2,152.3 340.2,340.2 0,67.1 -19.9,132.7 -57.1,188.5 l -2494.1,3723.3 -2494.3,-3723.6 c -37.1,-55.8 -56.9,-121.2 -56.9,-188.2 0,-187.9 152.3,-340.2 340.2,-340.2 28.7,0 57.3,3.7 85.1,10.9 l 1275.5,329.3 V 35868.3 C 16595.8,23463.5 24773.8,19102.8 25096.5,6813.26 V 4403.67 h 1700.7 V 6813.26 C 26474.6,19102.8 18296.6,23463.5 18009.9,35867.9 v 1190.7 l 1275.6,-329.5"
       style="fill:#000000;fill-opacity:1;fill-rule:nonzero;stroke:none"
       transform="matrix(0.13333333,0,0,-0.13333333,0,6049.3333)" />
    <path
       id="path6"
       d="m 25238.2,36729.1 h 0.6 c 27.6,-7.1 56,-10.7 84.4,-10.7 187.9,0 340.2,152.3 340.2,340.2 0,67.1 -19.9,132.7 -57,188.5 l -2494.2,3723.3 -2494.3,-3723.6 c -37.1,-55.8 -56.8,-121.2 -56.8,-188.2 0,-187.9 152.2,-340.2 340.1,-340.2 28.7,0 57.3,3.7 85.1,10.9 l 1275.5,329.3 V 35868.3 C 22548.5,23463.5 30726.6,19102.8 31049.2,6813.26 V 4403.67 H 32750 V 6813.26 C 32427.3,19102.8 24249.3,23463.5 23962.6,35867.9 v 1190.7 l 1275.6,-329.5"
       style="fill:#000000;fill-opacity:1;fill-rule:nonzero;stroke:none"
       transform="matrix(0.13333333,0,0,-0.13333333,0,6049.3333)" />
  </g>
</svg>
