<?xml version="1.0" encoding="UTF-8" standalone="no"?>
<!-- Created with Inkscape (http://www.inkscape.org/) -->

<svg
   version="1.1"
   id="svg1"
   width="4726.6665"
   height="6049.3335"
   viewBox="0 0 4726.6665 6049.3335"
   sodipodi:docname="538-30.eps"
   xmlns:inkscape="http://www.inkscape.org/namespaces/inkscape"
   xmlns:sodipodi="http://sodipodi.sourceforge.net/DTD/sodipodi-0.dtd"
   xmlns="http://www.w3.org/2000/svg"
   xmlns:svg="http://www.w3.org/2000/svg">
  <defs
     id="defs1" />
  <sodipodi:namedview
     id="namedview1"
     pagecolor="#ffffff"
     bordercolor="#000000"
     borderopacity="0.25"
     inkscape:showpageshadow="2"
     inkscape:pageopacity="0.0"
     inkscape:pagecheckerboard="0"
     inkscape:deskcolor="#d1d1d1">
    <inkscape:page
       x="0"
       y="0"
       inkscape:label="1"
       id="page1"
       width="4726.6665"
       height="6049.3335"
       margin="0"
       bleed="0" />
  </sodipodi:namedview>
  <g
     id="g1"
     inkscape:groupmode="layer"
     inkscape:label="1">
    <path
       id="path1"
       d="M 1710.78,10 C 771.461,10 10,771.461 10,1710.78 V 43663.3 c 0,939.3 761.461,1700.7 1700.78,1700.7 H 33742.1 c 939.3,0 1700.7,-761.4 1700.7,-1700.7 V 1710.78 C 35442.8,771.461 34681.4,10 33742.1,10 H 1710.78"
       style="fill:#ffffff;fill-opacity:1;fill-rule:nonzero;stroke:#000000;stroke-width:1;stroke-linecap:butt;stroke-linejoin:miter;stroke-miterlimit:4;stroke-dasharray:none;stroke-opacity:1"
       transform="matrix(0.13333333,0,0,-0.13333333,0,6049.3333)" />
    <path
       id="path2"
       d="m 1710.78,435.191 c -704.49,0 -1275.589,571.099 -1275.589,1275.589 V 43663.3 c 0,704.5 571.099,1275.5 1275.589,1275.5 H 33742.1 c 704.5,0 1275.5,-571 1275.5,-1275.5 V 1710.78 c 0,-704.49 -571,-1275.589 -1275.5,-1275.589 H 1710.78"
       style="fill:#000000;fill-opacity:1;fill-rule:nonzero;stroke:none"
       transform="matrix(0.13333333,0,0,-0.13333333,0,6049.3333)" />
    <path
       id="path3"
       d="m 1710.78,1002.12 c -391.38,0 -708.66,317.28 -708.66,708.66 V 43663.3 c 0,391.3 317.28,708.6 708.66,708.6 H 33742.1 c 391.3,0 708.6,-317.3 708.6,-708.6 V 1710.78 c 0,-391.38 -317.3,-708.66 -708.6,-708.66 H 1710.78"
       style="fill:#ffffff;fill-opacity:1;fill-rule:nonzero;stroke:none"
       transform="matrix(0.13333333,0,0,-0.13333333,0,6049.3333)" />
    <path
       id="path4"
       d="m 10498.1,37058.6 -1276.18,-329.5 c -27.58,-7.1 -55.94,-10.7 -84.42,-10.7 -187.86,0 -340.15,152.3 -340.15,340.2 0,67.4 20.01,133.2 57.5,189.2 l 2493.65,3722.6 2493.6,-3722.5 c 37.5,-56 57.6,-121.9 57.6,-189.3 0,-187.9 -152.3,-340.2 -340.2,-340.2 -28.4,0 -56.8,3.6 -84.4,10.7 l -1276.2,329.5 V 4403.67 H 10498.1 V 37058.6"
       style="fill:#000000;fill-opacity:1;fill-rule:nonzero;stroke:none"
       transform="matrix(0.13333333,0,0,-0.13333333,0,6049.3333)" />
    <path
       id="path5"
       d="m 22545.3,37058.6 -1275.6,-329.4 c -27.8,-7.1 -56.3,-10.8 -85,-10.8 -187.9,0 -340.2,152.3 -340.2,340.2 0,67.4 20,133.2 57.5,189.2 l 2493.7,3722.6 2493.6,-3722.6 c 37.5,-56 57.5,-121.8 57.5,-189.2 0,-187.9 -152.2,-340.2 -340.1,-340.2 -28.7,0 -57.3,3.7 -85,10.8 l -1275.6,329.4 -0.3,-7478.4 c -282.1,34.4 -566,51.7 -850.1,51.7 -284.2,0 -568.1,-17.3 -850.1,-51.7 z M 24246.1,15794 V 4403.67 h -1700.8 l 0.3,11390.13 c 282,-34.4 565.9,-51.6 850.1,-51.6 284.1,0 568,17.2 850.1,51.6"
       style="fill:#000000;fill-opacity:1;fill-rule:nonzero;stroke:none"
       transform="matrix(0.13333333,0,0,-0.13333333,0,6049.3333)" />
    <path
       id="path6"
       d="m 30109.5,22687 c 0,-3707.9 -3005.9,-6713.8 -6713.8,-6713.8 -3708,0 -6713.8,3005.9 -6713.8,6713.8 0,3708 3005.8,6713.8 6713.8,6713.8 3707.9,0 6713.8,-3005.8 6713.8,-6713.8"
       style="fill:#000000;fill-opacity:1;fill-rule:nonzero;stroke:none"
       transform="matrix(0.13333333,0,0,-0.13333333,0,6049.3333)" />
    <path
       id="path7"
       d="m 26886.2,28010.9 -8814.8,-8814.6 c -680,1037.2 -1042.3,2250.5 -1042.3,3490.7 0,3516.2 2850.4,6366.6 6366.6,6366.6 1240.2,0 2453.5,-362.3 3490.7,-1042.3 l -0.2,-0.4"
       style="fill:#ffffff;fill-opacity:1;fill-rule:nonzero;stroke:none"
       transform="matrix(0.13333333,0,0,-0.13333333,0,6049.3333)" />
    <path
       id="path8"
       d="m 27156.9,27823.2 0.6,-0.2 c 66,-48.3 131,-97.9 195.1,-148.8 l -8944.1,-8944.1 c -50.9,64.1 -100.5,129.1 -148.8,195.1 l 8897.2,8898"
       style="fill:#ffffff;fill-opacity:1;fill-rule:nonzero;stroke:none"
       transform="matrix(0.13333333,0,0,-0.13333333,0,6049.3333)" />
    <path
       id="path9"
       d="m 27601.6,27465.9 0.7,0.8 c 60.9,-53.6 120.7,-108.3 179.5,-164.2 l -9001.6,-9001.6 c -55.9,58.8 -110.6,118.6 -164.2,179.5 l 8985.6,8985.5"
       style="fill:#ffffff;fill-opacity:1;fill-rule:nonzero;stroke:none"
       transform="matrix(0.13333333,0,0,-0.13333333,0,6049.3333)" />
    <path
       id="path10"
       d="m 28174.5,26892.9 -8985.4,-8985.5 c -60.9,53.5 -120.8,108.3 -179.5,164.1 l 9001.6,9001.6 c 55.8,-58.7 110.6,-118.6 164.1,-179.5 l -0.8,-0.7"
       style="fill:#ffffff;fill-opacity:1;fill-rule:nonzero;stroke:none"
       transform="matrix(0.13333333,0,0,-0.13333333,0,6049.3333)" />
    <path
       id="path11"
       d="m 28531.9,26448.2 -8898,-8897.2 c -66,48.4 -131.1,98 -195.2,148.8 l 8944.2,8944.2 c 50.8,-64.1 100.4,-129.2 148.8,-195.2 l 0.2,-0.6"
       style="fill:#ffffff;fill-opacity:1;fill-rule:nonzero;stroke:none"
       transform="matrix(0.13333333,0,0,-0.13333333,0,6049.3333)" />
    <path
       id="path12"
       d="m 19905.2,17363.2 8814.3,8814.3 0.5,0.3 c 680,-1037.2 1042.3,-2250.5 1042.3,-3490.8 0,-3516.1 -2850.5,-6366.6 -6366.6,-6366.6 -1240.3,0 -2453.5,362.3 -3490.8,1042.3"
       style="fill:#ffffff;fill-opacity:1;fill-rule:nonzero;stroke:none"
       transform="matrix(0.13333333,0,0,-0.13333333,0,6049.3333)" />
  </g>
</svg>
