<?xml version="1.0" encoding="UTF-8" standalone="no"?>
<!-- Created with Inkscape (http://www.inkscape.org/) -->

<svg
   version="1.1"
   id="svg1"
   width="3404"
   height="2269.3333"
   viewBox="0 0 3404 2269.3333"
   sodipodi:docname="365-71-alle Tanksorten.eps"
   xmlns:inkscape="http://www.inkscape.org/namespaces/inkscape"
   xmlns:sodipodi="http://sodipodi.sourceforge.net/DTD/sodipodi-0.dtd"
   xmlns="http://www.w3.org/2000/svg"
   xmlns:svg="http://www.w3.org/2000/svg">
  <defs
     id="defs1" />
  <sodipodi:namedview
     id="namedview1"
     pagecolor="#ffffff"
     bordercolor="#000000"
     borderopacity="0.25"
     inkscape:showpageshadow="2"
     inkscape:pageopacity="0.0"
     inkscape:pagecheckerboard="0"
     inkscape:deskcolor="#d1d1d1">
    <inkscape:page
       x="0"
       y="0"
       inkscape:label="1"
       id="page1"
       width="3404"
       height="2269.3333"
       margin="0"
       bleed="0" />
  </sodipodi:namedview>
  <g
     id="g1"
     inkscape:groupmode="layer"
     inkscape:label="1">
    <path
       id="path1"
       d="M 1143.85,17017.8 H 24387.8 c 626.2,0 1133.9,-507.7 1133.9,-1133.9 V 1143.85 C 25521.7,517.641 25014,10 24387.8,10 H 1143.85 C 517.641,10 10,517.641 10,1143.85 V 15883.9 c 0,626.2 507.641,1133.9 1133.85,1133.9"
       style="fill:#ffffff;fill-opacity:1;fill-rule:nonzero;stroke:none"
       transform="matrix(0.13333333,0,0,-0.13333333,0,2269.3333)" />
    <path
       id="path2"
       d="M 1143.85,17017.8 H 24387.8 c 626.2,0 1133.9,-507.7 1133.9,-1133.9 V 1143.85 C 25521.7,517.641 25014,10 24387.8,10 H 1143.85 C 517.641,10 10,517.641 10,1143.85 V 15883.9 c 0,626.2 507.641,1133.9 1133.85,1133.9 z"
       style="fill:none;stroke:#000000;stroke-width:1;stroke-linecap:butt;stroke-linejoin:miter;stroke-miterlimit:4;stroke-dasharray:none;stroke-opacity:1"
       transform="matrix(0.13333333,0,0,-0.13333333,0,2269.3333)" />
    <path
       id="path3"
       d="M 1143.85,16592.6 H 24387.8 c 391.4,0 708.7,-317.3 708.7,-708.7 V 1143.85 c 0,-391.381 -317.3,-708.659 -708.7,-708.659 H 1143.85 c -391.381,0 -708.659,317.278 -708.659,708.659 V 15883.9 c 0,391.4 317.278,708.7 708.659,708.7"
       style="fill:#0d468a;fill-opacity:1;fill-rule:nonzero;stroke:none"
       transform="matrix(0.13333333,0,0,-0.13333333,0,2269.3333)" />
    <path
       id="path4"
       d="M 2844.63,14183.1 H 22687 V 2844.63 H 2844.63 V 14183.1"
       style="fill:#ffffff;fill-opacity:1;fill-rule:nonzero;stroke:none"
       transform="matrix(0.13333333,0,0,-0.13333333,0,2269.3333)" />
    <path
       id="path5"
       d="m 3553.28,11072.1 v 2381.1 h 361.42 v -2040.9 h 1169.29 v -340.2 z m 1870.87,0 v 2381.1 h 935.43 c 399.21,0 722.83,-323.6 722.83,-722.8 0,-399.2 -323.62,-722.8 -722.83,-722.8 h -574.02 v -935.5 z m 361.41,1275.6 h 552.76 c 211.34,0 382.67,171.3 382.67,382.7 0,211.3 -171.33,382.7 -382.67,382.7 h -552.76 z m 3337.79,42.5 v -488.9 c 0,-469.7 -380.73,-850.4 -850.39,-850.4 -469.66,0 -850.39,380.7 -850.39,850.4 v 722.8 c 0,469.7 380.73,850.4 850.39,850.4 412.25,0 765.12,-295.7 837.27,-701.6 h -371.49 c -64.75,202.6 -253.06,340.2 -465.78,340.2 -270.06,0 -488.98,-219 -488.98,-489 v -722.8 c 0,-270.1 218.92,-489 488.98,-489 270.05,0 488.97,218.9 488.97,489 v 148.8 h -488.97 v 340.1 h 850.39"
       style="fill:#000000;fill-opacity:1;fill-rule:nonzero;stroke:none"
       transform="matrix(0.13333333,0,0,-0.13333333,0,2269.3333)" />
    <path
       id="path6"
       d="m 10754.3,11093.4 v 2381.1 h 361.4 V 12454 h 978 v 1020.5 h 361.4 v -2381.1 h -361.4 v 1041.7 h -978 v -1041.7 h -361.4"
       style="fill:#000000;fill-opacity:1;fill-rule:nonzero;stroke:none"
       transform="matrix(0.13333333,0,0,-0.13333333,0,2269.3333)" />
    <path
       id="path7"
       d="m 12932.7,10057.9 v 318.9 l 946.6,1191.6 c 47.8,60.1 73.8,134.7 73.8,211.6 0,187.8 -152.2,340.1 -340.1,340.1 -187.9,0 -340.2,-152.3 -340.2,-340.1 h -340.1 c 0,375.7 304.6,680.3 680.3,680.3 375.7,0 680.3,-304.6 680.3,-680.3 0,-154.5 -52.5,-304.3 -148.9,-424.9 l -765.3,-957 h 914.2 v -340.2 h -1360.6"
       style="fill:#000000;fill-opacity:1;fill-rule:nonzero;stroke:none"
       transform="matrix(0.13333333,0,0,-0.13333333,0,2269.3333)" />
    <path
       id="path8"
       d="M 3553.28,7323.34 V 9704.43 H 3914.7 V 7663.5 h 1169.28 v -340.16 z m 1870.86,0 v 2381.09 h 340.15 L 6848.54,8003.65 v 1700.78 h 361.41 V 7323.34 H 6869.8 L 5785.55,9024.12 V 7323.34 Z m 3954.3,1318.1 v -488.97 c 0,-469.66 -380.73,-850.39 -850.38,-850.39 -469.66,0 -850.39,380.73 -850.39,850.39 v 722.83 c 0,469.65 380.73,850.39 850.39,850.39 412.24,0 765.12,-295.69 837.26,-701.57 h -371.49 c -64.74,202.63 -253.05,340.15 -465.77,340.15 -270.06,0 -488.98,-218.92 -488.98,-488.97 v -722.83 c 0,-270.05 218.92,-488.97 488.98,-488.97 270.05,0 488.97,218.92 488.97,488.97 v 148.82 h -488.97 v 340.15 h 850.38"
       style="fill:#000000;fill-opacity:1;fill-rule:nonzero;stroke:none"
       transform="matrix(0.13333333,0,0,-0.13333333,0,2269.3333)" />
    <path
       id="path9"
       d="m 5240.94,4254.86 c -72.14,-405.89 -425.02,-701.58 -837.26,-701.58 -469.66,0 -850.4,380.74 -850.4,850.4 v 722.83 c 0,469.65 380.74,850.39 850.4,850.39 412.24,0 765.12,-295.69 837.26,-701.57 l -371.49,-0.01 c -64.74,202.63 -253.05,340.16 -465.77,340.16 -270.06,0 -488.98,-218.92 -488.98,-488.97 v -722.83 c 0,-270.06 218.92,-488.98 488.98,-488.98 212.72,0 401.03,137.53 465.77,340.16 z m 425.2,-680.32 v 2381.1 h 340.15 L 7090.54,4254.86 v 1700.78 h 361.42 V 3574.54 H 7111.8 L 6027.55,5275.33 V 3574.54 Z m 3954.31,1318.11 v -488.97 c 0,-469.66 -380.73,-850.4 -850.39,-850.4 -469.66,0 -850.39,380.74 -850.39,850.4 v 722.83 c 0,469.65 380.73,850.39 850.39,850.39 412.25,0 765.13,-295.69 837.27,-701.57 l -371.49,-0.01 c -64.74,202.63 -253.06,340.16 -465.78,340.16 -270.05,0 -488.97,-218.92 -488.97,-488.97 v -722.83 c 0,-270.06 218.92,-488.98 488.97,-488.98 270.05,0 488.98,218.92 488.98,488.98 v 148.81 h -488.98 v 340.16 h 850.39"
       style="fill:#000000;fill-opacity:1;fill-rule:nonzero;stroke:none"
       transform="matrix(0.13333333,0,0,-0.13333333,0,2269.3333)" />
    <path
       id="path10"
       d="m 15960.3,4191.08 v 508.56 h -339 V 9361.5 h -339.1 l 0.8,-4152.79 c 0,-562.02 -455.6,-1017.63 -1017.7,-1017.63 -562,0 -1017.6,455.61 -1017.6,1017.63 0,228.5 57.7,453.31 167.8,653.54 l 730.3,1327.98 c 522.9,950.94 797,2018.58 797,3103.77 l 196.1,469.1 c 52.7,126.2 176,208.4 312.7,208.4 l 169.7,0.5 0.4,339.7 c 0,187 151.7,338.7 338.7,338.7 h 3390.3 c 187.1,0 338.7,-151.7 338.7,-338.7 l 0.4,-6612.06 h -339.1 v -508.56 h -3390.4"
       style="fill:#000000;fill-opacity:1;fill-rule:nonzero;stroke:none"
       transform="matrix(0.13333333,0,0,-0.13333333,0,2269.3333)" />
    <path
       id="path11"
       d="m 14943.7,8176.92 c -130.8,-397.95 -298.1,-782.94 -499.9,-1150.02 l -731.5,-1327.94 c -82.5,-150.21 -125.9,-318.84 -125.9,-490.25 h 1.5 c 0,-374.16 303.3,-677.48 677.4,-677.48 374.2,0 677.5,303.32 677.5,677.48 l 0.4,2967.83 z M 16637.9,8769 c -187,0 -338.7,151.66 -338.7,338.74 0,0.01 0,0.02 0,0.03 v 1525.03 c 0,187.1 151.7,338.7 338.7,338.7 h 2035.3 c 187.1,0 338.7,-151.6 338.7,-338.7 V 9107.74 c 0,-187.07 -151.6,-338.72 -338.7,-338.74 l -2034.8,-0.82"
       style="fill:#ffffff;fill-opacity:1;fill-rule:nonzero;stroke:none"
       transform="matrix(0.13333333,0,0,-0.13333333,0,2269.3333)" />
    <path
       id="path12"
       d="m 19689.8,5377.73 v 4577.09 l 1270.9,0.47 c 187.1,0 338.8,151.61 338.8,338.71 v 1525.1 c 0,187 -151.7,338.7 -338.8,338.7 0,0 0,0 0,0 h -2033.8 c -187.1,0 -338.8,-151.7 -338.8,-338.7 l -0.2,-169.1 h -1250.2 l 90.2,299.4 c 52.6,126.2 176,208.4 312.7,208.4 l 169.2,0.8 0.9,339.3 c 0,187.1 151.6,338.8 338.7,338.8 h 3390.2 c 187.1,0 338.8,-151.7 338.8,-338.8 0,0 0,0 0,-0.1 V 5886.29 h -339.2 v -508.56 h -1949.4"
       style="fill:#0d468a;fill-opacity:1;fill-rule:nonzero;stroke:none"
       transform="matrix(0.13333333,0,0,-0.13333333,0,2269.3333)" />
  </g>
</svg>
