<?xml version="1.0" encoding="UTF-8" standalone="no"?>
<svg
   xmlns:dc="http://purl.org/dc/elements/1.1/"
   xmlns:cc="http://creativecommons.org/ns#"
   xmlns:rdf="http://www.w3.org/1999/02/22-rdf-syntax-ns#"
   xmlns:svg="http://www.w3.org/2000/svg"
   xmlns="http://www.w3.org/2000/svg"
   viewBox="0 0 601 451"
   height="451"
   width="601"
   xml:space="preserve"
   id="svg9332"
   version="1.1"><metadata
     id="metadata9338"><rdf:RDF><cc:Work
         rdf:about=""><dc:format>image/svg+xml</dc:format><dc:type
           rdf:resource="http://purl.org/dc/dcmitype/StillImage" /><dc:title></dc:title></cc:Work></rdf:RDF></metadata><defs
     id="defs9336" /><g
     transform="matrix(1.3333333,0,0,-1.3333333,0,451)"
     id="g9340"><g
       id="g9342"><path
         id="path9344"
         style="fill:#ffffff;fill-opacity:1;fill-rule:nonzero;stroke:none"
         d="m 30.172,337.875 c -16.426,0 -29.797,-13.371 -29.797,-29.809 V 30.18 C 0.375,13.746 13.746,0.375 30.172,0.375 h 390.39 c 16.442,0 29.813,13.371 29.813,29.805 v 277.886 c 0,16.438 -13.371,29.809 -29.813,29.809 z" /><path
         id="path9346"
         style="fill:#000000;fill-opacity:1;fill-rule:nonzero;stroke:none"
         d="m 30.172,330.594 c -12.434,0 -22.516,-10.086 -22.516,-22.528 V 30.18 C 7.656,17.742 17.738,7.652 30.172,7.652 h 390.39 c 12.438,0 22.528,10.09 22.528,22.528 v 277.886 c 0,12.442 -10.09,22.528 -22.528,22.528 z m 0,-11.27 h 390.39 c 6.223,0 11.266,-5.039 11.266,-11.258 V 30.18 c 0,-6.227 -5.043,-11.258 -11.266,-11.258 H 30.172 c -6.207,0 -11.258,5.031 -11.258,11.258 v 277.886 c 0,6.219 5.051,11.258 11.258,11.258 z" /><path
         id="path9348"
         style="fill:#000000;fill-opacity:1;fill-rule:nonzero;stroke:none"
         d="M 30.172,338.25 C 13.543,338.25 0,324.707 0,308.066 V 30.18 C 0,13.547 13.543,0 30.172,0 h 390.39 c 16.641,0 30.188,13.547 30.188,30.18 v 277.886 c 0,16.641 -13.547,30.184 -30.188,30.184 z m 0,-0.375 h 390.39 c 16.442,0 29.813,-13.371 29.813,-29.809 V 30.18 c 0,-16.43 -13.371,-29.805 -29.813,-29.805 H 30.172 C 13.746,0.375 0.375,13.75 0.375,30.18 v 277.886 c 0,16.438 13.371,29.809 29.797,29.809 z" /><path
         id="path9350"
         style="fill:#2b2a29;fill-opacity:1;fill-rule:evenodd;stroke:none"
         d="m 135.691,79.594 -0.027,-1.91 -0.141,-1.914 -0.253,-1.883 -0.336,-1.828 -0.422,-1.829 -0.508,-1.773 -0.563,-1.742 -0.675,-1.688 -0.758,-1.66 -0.817,-1.633 -0.929,-1.574 -0.957,-1.519 -1.039,-1.461 -1.125,-1.407 -1.184,-1.378 -1.238,-1.293 -1.293,-1.239 -1.379,-1.183 -1.41,-1.125 -1.461,-1.039 -1.52,-0.957 -1.578,-0.926 -1.629,-0.817 -1.66,-0.761 -1.691,-0.672 -1.743,-0.594 -1.773,-0.477 -1.828,-0.421 -1.832,-0.336 -1.883,-0.254 -1.914,-0.141 -1.914,-0.027 -1.941,0.027 -1.915,0.141 -1.855,0.254 -1.859,0.336 -1.801,0.421 -1.801,0.477 -1.742,0.594 -1.692,0.672 -1.66,0.761 -1.629,0.817 -1.55,0.926 -1.52,0.957 -1.488,1.039 -1.41,1.125 -1.348,1.183 -1.324,1.239 -1.238,1.293 -1.184,1.378 -1.094,1.407 -1.043,1.461 -0.984,1.519 -0.903,1.574 -0.843,1.633 -0.731,1.66 -0.676,1.688 -0.589,1.742 -0.508,1.773 -0.422,1.829 -0.336,1.828 -0.227,1.883 -0.14,1.914 -0.055,1.91 0.055,1.941 0.14,1.914 0.227,1.856 0.336,1.855 0.422,1.801 0.508,1.801 0.589,1.742 0.676,1.687 0.731,1.661 0.843,1.632 0.903,1.547 0.984,1.547 1.043,1.461 1.094,1.406 1.184,1.352 1.238,1.32 1.324,1.238 1.348,1.184 1.41,1.094 1.488,1.043 1.52,0.984 1.55,0.899 1.629,0.843 1.66,0.735 1.692,0.672 1.742,0.593 1.801,0.504 1.801,0.422 1.859,0.34 1.855,0.223 1.915,0.14 1.941,0.059 1.914,-0.059 1.914,-0.14 1.883,-0.223 1.832,-0.34 1.828,-0.422 1.773,-0.504 1.743,-0.593 1.691,-0.672 1.66,-0.735 1.629,-0.843 1.578,-0.899 1.52,-0.984 1.461,-1.043 1.41,-1.094 1.379,-1.184 1.293,-1.238 1.238,-1.32 1.184,-1.352 1.125,-1.406 1.039,-1.461 0.957,-1.547 0.929,-1.547 0.817,-1.632 0.758,-1.661 0.675,-1.687 0.563,-1.742 0.508,-1.801 0.422,-1.801 0.336,-1.855 0.253,-1.856 0.141,-1.914 z m -14.996,0 -0.027,1.156 -0.086,1.152 -0.141,1.125 -0.195,1.125 -0.254,1.067 -0.308,1.07 -0.34,1.043 -0.422,1.039 -0.449,0.984 -0.481,0.985 -0.535,0.93 -0.59,0.898 -0.648,0.898 -0.645,0.844 -0.703,0.817 -0.762,0.789 -0.789,0.73 -0.812,0.703 -0.848,0.676 -0.871,0.617 -0.93,0.59 -0.925,0.535 -0.985,0.508 -0.988,0.449 -1.012,0.395 -1.07,0.367 -1.039,0.309 -1.098,0.253 -1.125,0.196 -1.125,0.14 -1.129,0.086 -1.152,0.028 -1.152,-0.028 -1.157,-0.086 -1.125,-0.14 -1.097,-0.196 -1.098,-0.253 -1.066,-0.309 -1.043,-0.367 -1.039,-0.395 -0.989,-0.449 -0.984,-0.508 -0.926,-0.535 -0.902,-0.59 -0.899,-0.617 -0.847,-0.676 -0.813,-0.703 -0.789,-0.73 -0.73,-0.789 -0.707,-0.817 -0.672,-0.844 -0.621,-0.898 -0.59,-0.898 -0.535,-0.93 -0.508,-0.985 -0.449,-0.984 -0.395,-1.039 -0.367,-1.043 -0.309,-1.07 -0.254,-1.094 -0.195,-1.098 -0.141,-1.125 -0.085,-1.152 -0.028,-1.156 0.028,-1.153 0.085,-1.125 0.141,-1.125 0.195,-1.125 0.254,-1.097 0.309,-1.039 0.367,-1.071 0.395,-1.011 0.449,-0.985 0.508,-0.984 0.535,-0.93 0.59,-0.926 0.621,-0.871 0.672,-0.843 0.707,-0.817 0.73,-0.789 0.789,-0.758 0.813,-0.703 0.847,-0.648 0.899,-0.645 0.902,-0.594 0.926,-0.531 0.984,-0.48 0.989,-0.449 1.039,-0.422 1.043,-0.336 1.066,-0.313 1.098,-0.25 1.097,-0.199 1.125,-0.141 1.157,-0.086 1.152,-0.027 1.152,0.027 1.129,0.086 1.125,0.141 1.125,0.199 1.098,0.25 1.039,0.313 1.07,0.336 1.012,0.422 0.988,0.449 0.985,0.48 0.925,0.531 0.93,0.594 0.871,0.645 0.848,0.648 0.812,0.703 0.789,0.758 0.762,0.789 0.703,0.817 0.645,0.843 0.648,0.871 0.59,0.926 0.535,0.93 0.481,0.984 0.449,0.985 0.422,1.011 0.34,1.071 0.308,1.039 0.254,1.097 0.195,1.125 0.141,1.125 0.086,1.125 z" /><path
         id="path9352"
         style="fill:#2b2a29;fill-opacity:1;fill-rule:evenodd;stroke:none"
         d="m 390.047,79.594 -0.059,-1.91 -0.14,-1.914 -0.223,-1.883 -0.34,-1.828 -0.422,-1.829 -0.504,-1.773 -0.593,-1.742 -0.676,-1.688 -0.731,-1.66 -0.843,-1.633 -0.903,-1.574 -0.984,-1.519 -1.039,-1.461 -1.098,-1.407 -1.183,-1.378 -1.239,-1.293 -1.32,-1.239 -1.352,-1.183 -1.406,-1.125 -1.492,-1.039 -1.52,-0.957 -1.546,-0.926 -1.633,-0.817 -1.66,-0.761 -1.688,-0.672 -1.746,-0.594 -1.801,-0.477 -1.801,-0.421 -1.855,-0.336 -1.859,-0.254 -1.914,-0.141 -1.942,-0.027 -1.914,0.027 -1.914,0.141 -1.883,0.254 -1.828,0.336 -1.832,0.421 -1.769,0.477 -1.747,0.594 -1.687,0.672 -1.66,0.761 -1.633,0.817 -1.578,0.926 -1.52,0.957 -1.461,1.039 -1.406,1.125 -1.379,1.183 -1.297,1.239 -1.238,1.293 -1.18,1.378 -1.125,1.407 -1.043,1.461 -0.957,1.519 -0.929,1.574 -0.813,1.633 -0.762,1.66 -0.675,1.688 -0.563,1.742 -0.508,1.773 -0.422,1.829 -0.335,1.828 -0.254,1.883 -0.141,1.914 -0.027,1.91 0.027,1.941 0.141,1.914 0.254,1.856 0.335,1.855 0.422,1.801 0.508,1.801 0.563,1.742 0.675,1.687 0.762,1.661 0.813,1.632 0.929,1.547 0.957,1.547 1.043,1.461 1.125,1.406 1.18,1.352 1.238,1.32 1.297,1.238 1.379,1.184 1.406,1.094 1.461,1.043 1.52,0.984 1.578,0.899 1.633,0.843 1.66,0.735 1.687,0.672 1.747,0.593 1.769,0.504 1.832,0.422 1.828,0.34 1.883,0.223 1.914,0.14 1.914,0.059 1.942,-0.059 1.914,-0.14 1.859,-0.223 1.855,-0.34 1.801,-0.422 1.801,-0.504 1.746,-0.593 1.688,-0.672 1.66,-0.735 1.633,-0.843 1.546,-0.899 1.52,-0.984 1.492,-1.043 1.406,-1.094 1.352,-1.184 1.32,-1.238 1.239,-1.32 1.183,-1.352 1.098,-1.406 1.039,-1.461 0.984,-1.547 0.903,-1.547 0.843,-1.632 0.731,-1.661 0.676,-1.687 0.593,-1.742 0.504,-1.801 0.422,-1.801 0.34,-1.855 0.223,-1.856 0.14,-1.914 z m -15,0 -0.027,1.156 -0.086,1.152 -0.141,1.125 -0.195,1.125 -0.254,1.067 -0.309,1.07 -0.367,1.043 -0.395,1.039 -0.449,0.984 -0.508,0.985 -0.531,0.93 -0.594,0.898 -0.617,0.898 -0.676,0.844 -0.703,0.817 -0.734,0.789 -0.785,0.73 -0.817,0.703 -0.843,0.676 -0.903,0.617 -0.898,0.59 -0.957,0.535 -0.957,0.508 -0.985,0.449 -1.043,0.395 -1.039,0.367 -1.07,0.309 -1.098,0.253 -1.097,0.196 -1.125,0.14 -1.153,0.086 -1.156,0.028 -1.152,-0.028 -1.125,-0.086 -1.125,-0.14 -1.129,-0.196 -1.098,-0.253 -1.039,-0.309 -1.07,-0.367 -1.012,-0.395 -0.984,-0.449 -0.985,-0.508 -0.929,-0.535 -0.93,-0.59 -0.871,-0.617 -0.844,-0.676 -0.816,-0.703 -0.789,-0.73 -0.758,-0.789 -0.707,-0.817 -0.645,-0.844 -0.648,-0.898 -0.59,-0.898 -0.535,-0.93 -0.477,-0.985 -0.453,-0.984 -0.422,-1.039 -0.336,-1.043 -0.308,-1.07 -0.254,-1.094 -0.199,-1.098 -0.141,-1.125 -0.082,-1.152 -0.031,-1.156 0.031,-1.153 0.082,-1.125 0.141,-1.125 0.199,-1.125 0.254,-1.097 0.308,-1.039 0.336,-1.071 0.422,-1.011 0.453,-0.985 0.477,-0.984 0.535,-0.93 0.59,-0.926 0.648,-0.871 0.645,-0.843 0.707,-0.817 0.758,-0.789 0.789,-0.758 0.816,-0.703 0.844,-0.648 0.871,-0.645 0.93,-0.594 0.929,-0.531 0.985,-0.48 0.984,-0.449 1.012,-0.422 1.07,-0.336 1.039,-0.313 1.098,-0.25 1.129,-0.199 1.125,-0.141 1.125,-0.086 1.152,-0.027 1.156,0.027 1.153,0.086 1.125,0.141 1.097,0.199 1.098,0.25 1.07,0.313 1.039,0.336 1.043,0.422 0.985,0.449 0.957,0.48 0.957,0.531 0.898,0.594 0.903,0.645 0.843,0.648 0.817,0.703 0.785,0.758 0.734,0.789 0.703,0.817 0.676,0.843 0.617,0.871 0.594,0.926 0.531,0.93 0.508,0.984 0.449,0.985 0.395,1.011 0.367,1.071 0.309,1.039 0.254,1.097 0.195,1.125 0.141,1.125 0.086,1.125 z" /><path
         id="path9354"
         style="fill:#000000;fill-opacity:1;fill-rule:evenodd;stroke:none"
         d="m 133.723,282.273 -18.094,-128.425 48.57,-62.129 h 62.555 l 0.984,1.687 1.067,1.66 1.097,1.602 1.129,1.547 1.207,1.519 1.239,1.461 1.296,1.438 1.321,1.375 1.379,1.324 1.406,1.293 1.437,1.238 1.493,1.18 1.519,1.125 1.574,1.098 1.575,1.039 1.632,0.984 1.661,0.93 1.687,0.871 1.719,0.816 1.746,0.762 1.769,0.703 1.774,0.645 1.828,0.589 1.832,0.536 1.855,0.48 1.887,0.391 1.883,0.367 1.914,0.281 1.914,0.227 1.942,0.168 1.941,0.082 1.969,0.031 0.453,0.027 h 0.476 l 0.45,0.055 0.48,0.031 0.899,0.141 0.902,0.199 0.871,0.254 0.844,0.309 0.847,0.367 0.813,0.387 0.789,0.457 0.762,0.476 0.73,0.563 0.703,0.589 0.649,0.622 0.644,0.667 0.563,0.739 0.281,0.363 0.285,0.367 16.742,23.598 -0.394,0.535 -0.367,0.504 -0.336,0.535 -0.34,0.563 -0.309,0.562 -0.254,0.563 -0.254,0.589 -0.222,0.594 -0.199,0.614 -0.196,0.593 -0.14,0.621 -0.114,0.645 -0.113,0.621 -0.055,0.644 -0.027,0.649 -0.031,0.617 0.031,0.59 0.027,0.594 0.055,0.562 0.059,0.59 0.113,0.563 0.109,0.562 0.141,0.563 0.172,0.535 0.195,0.562 0.195,0.531 0.227,0.536 0.254,0.507 0.281,0.508 0.281,0.504 0.309,0.508 0.309,0.477 10.468,14.738 4.164,-2.953 8.586,12.207 0.196,0.226 0.226,0.223 0.223,0.172 0.254,0.168 0.281,0.113 0.281,0.082 0.309,0.059 0.312,0.027 0.25,-0.027 0.254,-0.032 0.254,-0.054 0.227,-0.086 0.222,-0.113 0.227,-0.141 0.195,-0.141 0.172,-0.168 0.168,-0.168 0.141,-0.195 0.14,-0.199 0.114,-0.223 0.082,-0.254 0.058,-0.226 0.028,-0.254 0.027,-0.281 -0.027,-0.196 v -0.195 l -0.055,-0.172 -0.059,-0.195 -0.054,-0.196 -0.086,-0.171 -0.086,-0.168 -0.11,-0.168 -8.64,-12.153 8.019,-5.679 8.61,12.261 0.199,0.254 0.195,0.199 0.254,0.196 0.254,0.14 0.281,0.141 0.281,0.086 0.309,0.055 h 0.563 l 0.253,-0.032 0.254,-0.086 0.227,-0.082 0.223,-0.109 0.199,-0.113 0.195,-0.141 0.199,-0.172 0.168,-0.195 0.141,-0.195 0.113,-0.2 0.11,-0.222 0.086,-0.227 0.085,-0.25 0.028,-0.258 v -0.445 l -0.028,-0.199 -0.027,-0.195 -0.058,-0.204 -0.055,-0.168 -0.086,-0.195 -0.086,-0.168 -0.109,-0.172 -8.696,-12.207 4.164,-2.953 -10.523,-14.707 -0.535,-0.73 -0.59,-0.672 -0.621,-0.653 -0.676,-0.586 -0.676,-0.566 -0.73,-0.531 -0.731,-0.485 -0.789,-0.418 -0.789,-0.39 -0.844,-0.344 -0.816,-0.277 -0.871,-0.227 -0.871,-0.199 -0.903,-0.141 -0.898,-0.082 -0.902,-0.027 -0.649,0.027 -0.644,0.032 -0.621,0.085 -0.645,0.082 -0.648,0.141 -0.621,0.141 -0.618,0.168 -0.621,0.222 -16.656,-23.457 -0.394,-0.589 -0.422,-0.559 -0.45,-0.567 -0.453,-0.535 -0.476,-0.531 -0.508,-0.512 -0.477,-0.504 -0.535,-0.476 -1.07,-0.899 -0.563,-0.421 -1.125,-0.789 -0.589,-0.391 -0.622,-0.34 -0.589,-0.34 -0.621,-0.34 -0.645,-0.277 -0.648,-0.281 -0.649,-0.25 -0.644,-0.254 -0.649,-0.231 -0.676,-0.191 -0.675,-0.172 -0.704,-0.172 -0.675,-0.136 -0.703,-0.118 -0.704,-0.105 -0.703,-0.086 -0.703,-0.059 -0.73,-0.027 h -0.707 l -1.547,-0.031 -1.52,-0.055 -1.519,-0.141 -1.492,-0.14 -1.52,-0.227 -1.461,-0.222 -1.492,-0.313 -1.461,-0.336 -1.438,-0.367 -1.46,-0.422 -1.411,-0.476 -1.406,-0.508 -1.379,-0.532 -1.379,-0.593 -1.351,-0.645 -1.348,-0.648 -1.297,-0.731 -1.293,-0.73 -1.265,-0.789 -1.266,-0.817 -1.211,-0.871 -1.211,-0.898 -1.152,-0.93 -1.156,-0.957 -1.125,-1.012 -1.071,-1.039 -1.066,-1.07 -1.043,-1.098 -0.985,-1.152 -0.984,-1.18 -0.93,-1.211 -0.898,-1.238 63.508,-0.027 -3.797,-5.176 h 56.898 l 0.364,-0.027 0.339,-0.055 0.336,-0.063 0.34,-0.078 0.336,-0.086 0.309,-0.113 0.312,-0.109 0.309,-0.141 0.308,-0.172 0.563,-0.336 0.281,-0.195 0.254,-0.199 0.254,-0.223 0.254,-0.226 0.223,-0.254 0.226,-0.254 0.199,-0.254 0.196,-0.281 0.336,-0.563 0.171,-0.309 0.141,-0.308 0.106,-0.309 0.117,-0.308 0.086,-0.34 0.082,-0.336 0.054,-0.34 0.059,-0.336 0.027,-0.367 v -0.703 l -0.027,-0.363 -0.059,-0.34 -0.054,-0.336 -0.082,-0.336 -0.086,-0.34 -0.117,-0.309 -0.106,-0.336 -0.141,-0.312 -0.171,-0.281 -0.168,-0.309 -0.168,-0.281 -0.196,-0.254 -0.199,-0.25 -0.226,-0.254 -0.223,-0.254 -0.254,-0.226 -0.254,-0.223 -0.254,-0.199 -0.562,-0.391 -0.282,-0.141 -0.308,-0.171 -0.309,-0.141 -0.312,-0.109 -0.309,-0.114 -0.336,-0.086 -0.34,-0.082 -0.336,-0.058 -0.339,-0.055 -0.364,-0.027 h -0.367 l -66.211,0.027 -4.84,-6.949 H 163.016 l -11,11.14 v 7.903 l -39.059,49.98 -7.879,-56.14 -0.058,-0.309 -0.055,-0.309 -0.086,-0.312 -0.109,-0.309 -0.227,-0.59 -0.254,-0.535 -0.336,-0.535 -0.367,-0.504 -0.395,-0.449 -0.449,-0.422 -0.48,-0.367 -0.504,-0.336 -0.535,-0.312 -0.563,-0.223 -0.59,-0.199 -0.593,-0.141 -0.309,-0.055 -0.336,-0.027 -0.312,-0.027 h -0.676 l -0.364,0.027 -0.339,0.055 -0.336,0.054 -0.34,0.086 -0.336,0.086 -0.309,0.11 -0.308,0.113 -0.313,0.141 -0.308,0.168 -0.282,0.14 -0.281,0.199 -0.281,0.196 -0.254,0.199 -0.254,0.223 -0.254,0.226 -0.223,0.254 -0.226,0.25 -0.195,0.254 -0.2,0.254 -0.168,0.281 -0.168,0.309 -0.167,0.281 -0.141,0.309 -0.113,0.339 -0.114,0.309 -0.086,0.34 -0.082,0.336 -0.058,0.336 -0.055,0.34 -0.027,0.363 v 0.594 l 0.027,0.25 v 0.226 l 0.055,0.254 28.394,201.695 -29.828,-0.027 -0.367,0.027 -0.336,0.028 -0.34,0.027 -0.363,0.063 -0.309,0.082 -0.34,0.085 -0.335,0.11 -0.313,0.14 -0.309,0.141 -0.281,0.141 -0.308,0.172 -0.282,0.168 -0.254,0.191 -0.281,0.23 -0.254,0.196 -0.222,0.254 -0.227,0.222 -0.227,0.254 -0.195,0.25 -0.199,0.281 -0.195,0.286 -0.168,0.277 -0.141,0.313 -0.141,0.308 -0.113,0.313 -0.113,0.336 -0.113,0.308 -0.055,0.336 -0.086,0.336 -0.027,0.367 -0.028,0.336 v 0.734 l 0.055,0.672 0.086,0.371 0.055,0.305 0.113,0.34 0.113,0.336 0.113,0.312 0.141,0.309 0.141,0.281 0.168,0.309 0.195,0.281 0.199,0.254 0.195,0.281 0.227,0.25 0.227,0.227 0.222,0.226 0.254,0.223 0.281,0.199 0.254,0.196 0.282,0.195 0.308,0.172 0.281,0.14 0.309,0.141 0.313,0.109 0.335,0.114 0.34,0.113 0.309,0.055 0.363,0.086 0.34,0.031 0.336,0.027 h 79.187 l 0.336,-0.027 0.368,-0.031 0.336,-0.086 0.339,-0.055 0.336,-0.113 0.309,-0.114 0.312,-0.109 0.618,-0.281 0.281,-0.172 0.562,-0.391 0.254,-0.199 0.254,-0.223 0.254,-0.226 0.223,-0.227 0.199,-0.25 0.223,-0.281 0.199,-0.254 0.168,-0.281 0.168,-0.309 0.14,-0.281 0.141,-0.309 0.141,-0.312 0.113,-0.336 0.086,-0.34 0.082,-0.305 0.058,-0.371 0.055,-0.336 v -0.336 l 0.027,-0.367 -0.027,-0.367 v -0.336 l -0.055,-0.367 -0.058,-0.336 -0.082,-0.336 -0.086,-0.312 -0.113,-0.336 -0.282,-0.617 -0.14,-0.313 -0.336,-0.563 -0.199,-0.281 -0.223,-0.25 -0.199,-0.254 -0.223,-0.226 -0.254,-0.254 -0.254,-0.192 -0.254,-0.23 -0.281,-0.195 -0.562,-0.336 -0.618,-0.282 -0.312,-0.14 -0.309,-0.113 -0.336,-0.086 -0.339,-0.078 -0.336,-0.063 -0.368,-0.027 -0.336,-0.028 -0.367,-0.027 z" /></g></g></svg>