<?xml version="1.0" encoding="UTF-8" standalone="no"?>
<!-- Created with Inkscape (http://www.inkscape.org/) -->

<svg
   version="1.1"
   id="svg1423"
   xml:space="preserve"
   width="600"
   height="330"
   viewBox="0 0 600 330"
   xmlns="http://www.w3.org/2000/svg"
   xmlns:svg="http://www.w3.org/2000/svg"><defs
     id="defs1427"><clipPath
       clipPathUnits="userSpaceOnUse"
       id="clipPath1441"><path
         d="M 0,0 H 450 V 248 H 0 Z"
         id="path1439" /></clipPath></defs><g
     id="g1429"
     transform="matrix(1.3333333,0,0,1.3333333,0,8.25e-6)"><g
       id="g1431"><g
         id="g1433"><g
           id="g1435"><g
             id="g1437"
             clip-path="url(#clipPath1441)"><g
               id="g1443"><path
                 d="M 29.996,0.227 C 13.578,0.227 0.227,13.586 0.227,30.008 v 187.496 c 0,16.418 13.351,29.769 29.769,29.769 h 390.008 c 16.418,0 29.769,-13.351 29.769,-29.769 V 30.008 c 0,-16.422 -13.351,-29.781 -29.769,-29.781"
                 style="fill:#ffffff;fill-opacity:1;fill-rule:nonzero;stroke:none"
                 id="path1445" /><path
                 d="m 29.996,247.059 c -16.297,0 -29.547,-13.258 -29.547,-29.555 V 30.008 c 0,-16.297 13.25,-29.559 29.547,-29.559 h 390.008 c 16.297,0 29.547,13.262 29.547,29.559 v 187.496 c 0,16.297 -13.25,29.555 -29.547,29.555 z M 420.004,0 H 29.996 C 13.426,0 0,13.434 0,30.008 V 217.504 C 0,234.066 13.426,247.5 29.996,247.5 H 420.004 C 436.566,247.5 450,234.066 450,217.504 V 30.008 C 450,13.434 436.566,0 420.004,0"
                 style="fill:#000000;fill-opacity:1;fill-rule:nonzero;stroke:none"
                 id="path1447" /></g></g></g></g><path
         d="m 29.996,228.754 h 390.008 c 6.215,0 11.25,-5.035 11.25,-11.25 V 30.008 c 0,-6.215 -5.035,-11.25 -11.25,-11.25 H 29.996 c -6.215,0 -11.25,5.035 -11.25,11.25 v 187.496 c 0,6.215 5.035,11.25 11.25,11.25 z m 0,11.25 c -12.43,0 -22.5,-10.07 -22.5,-22.5 V 30.008 c 0,-12.43 10.07,-22.5 22.5,-22.5 h 390.008 c 12.43,0 22.5,10.07 22.5,22.5 v 187.496 c 0,12.43 -10.07,22.5 -22.5,22.5"
         style="fill:#000000;fill-opacity:1;fill-rule:nonzero;stroke:none"
         id="path1449" /><path
         d="m 110.652,70.434 h -8.453 L 97.418,95.105 H 97.262 L 93.027,70.434 H 86.762 L 82.293,95.105 H 82.137 L 77.293,70.434 h -8.469 l 9.406,39.718 h 7.047 l 4.391,-23.578 h 0.156 l 4.391,23.578 h 7.047 z"
         style="fill:#000000;fill-opacity:1;fill-rule:nonzero;stroke:none"
         id="path1451" /><path
         d="m 128.672,110.152 h 8 V 82.496 c 0,-8.297 -5.328,-12.531 -11.984,-12.531 -3.61,0 -6.594,1.25 -8.704,3.359 -2.109,2.125 -3.375,5.094 -3.609,8.625 h 7.766 c 0.468,-2.594 2.5,-4 4.547,-4 2.968,0 3.984,2.047 3.984,4.703 v 4.157 c -1.641,-0.079 -2.734,-0.235 -3.828,-0.235 -10.032,0 -12.625,4.391 -12.625,13.469 0,8.781 4.937,10.578 8.625,10.578 3.844,0 5.562,-1.641 7.672,-4.547 h 0.156 z m 0,-11.672 c 0,3.204 -1.641,5.094 -4.297,5.094 -2.594,0 -4.156,-2.047 -4.156,-5.094 0,-4.234 2.812,-5.64 6.265,-5.64 0.704,0 1.328,0.078 2.188,0.234 z M 114.891,64.246 h 7.047 v -8 h -7.047 z m 12.687,0 h 7.047 v -8 h -7.047 z"
         style="fill:#000000;fill-opacity:1;fill-rule:nonzero;stroke:none"
         id="path1453" /><path
         d="m 142.551,110.152 h 7.984 V 83.434 c 0,-3.516 1.016,-5.485 4,-5.485 2.5,0 3.906,1.813 3.906,4.703 v 27.5 h 8 V 79.684 c 0,-7.141 -4.234,-9.719 -8.234,-9.719 -3.672,0 -5.875,1.797 -7.516,4.312 h -0.156 V 54.371 h -7.984 z"
         style="fill:#000000;fill-opacity:1;fill-rule:nonzero;stroke:none"
         id="path1455" /><path
         d="m 173.027,110.152 h 7.985 V 86.574 c 0,-6.5 4.781,-8.625 8.14,-8.625 0.875,0 1.657,0.156 2.438,0.469 v -8.453 c -4.625,0 -7.281,1.797 -10.578,4.703 v -4.234 h -7.985 z"
         style="fill:#000000;fill-opacity:1;fill-rule:nonzero;stroke:none"
         id="path1457" /><path
         d="M 217.914,93.309 V 82.34 c 0,-6.969 -4.547,-12.375 -11.906,-12.375 -4.86,0 -8.547,2.265 -10.422,5.719 -1.094,2.031 -1.5,4.859 -1.5,8.062 V 96.84 c 0,3.203 0.406,6.031 1.5,8.062 1.875,3.453 5.562,5.719 10.422,5.719 3.672,0 6.578,-1.328 8.687,-3.531 2.047,-2.11 3.219,-5.156 3.219,-8.453 h -8 c -0.156,1.718 -0.859,4 -3.906,4 -2.438,0 -3.922,-1.422 -3.922,-3.922 V 93.309 Z M 202.086,82.496 c 0,-2.969 1.484,-4.547 3.922,-4.547 2.422,0 3.906,1.578 3.906,4.547 v 4.547 h -7.828 z"
         style="fill:#000000;fill-opacity:1;fill-rule:nonzero;stroke:none"
         id="path1459" /><path
         d="m 223.793,110.152 h 7.984 V 83.434 c 0,-3.516 1.016,-5.485 4,-5.485 2.5,0 3.907,1.813 3.907,4.703 v 27.5 h 8 V 79.684 c 0,-7.141 -4.235,-9.719 -8.235,-9.719 -3.672,0 -5.875,1.797 -7.515,4.312 h -0.157 v -3.843 h -7.984 z"
         style="fill:#000000;fill-opacity:1;fill-rule:nonzero;stroke:none"
         id="path1461" /><path
         d="m 262.25,82.652 c 0,-2.5 0.859,-4.703 3.922,-4.703 2.266,0 3.984,1.813 3.984,4.313 v 15.437 c 0,2.891 -1.562,4.938 -3.984,4.938 -2.75,0 -3.922,-2.203 -3.922,-5.407 z m 7.906,27.5 h 8 V 54.371 h -8 V 74.043 H 270 c -1.719,-2.594 -4.219,-4.078 -7.359,-4.078 -3.844,0 -5.797,1.484 -7.125,3.594 -1.016,1.656 -1.25,3.921 -1.25,9.64 v 15.125 c 0,4.391 0.39,6.813 1.328,8.531 1.406,2.594 3.75,3.766 6.968,3.766 4,0 5.563,-1.797 7.594,-4.078 z"
         style="fill:#000000;fill-opacity:1;fill-rule:nonzero;stroke:none"
         id="path1463" /><path
         d="m 307.297,82.652 c 0,-2.5 0.859,-4.703 3.922,-4.703 2.265,0 3.984,1.813 3.984,4.313 v 15.437 c 0,2.891 -1.562,4.938 -3.984,4.938 -2.75,0 -3.922,-2.203 -3.922,-5.407 z m 7.906,27.5 h 8 V 54.371 h -8 v 19.672 h -0.156 c -1.719,-2.594 -4.219,-4.078 -7.359,-4.078 -3.844,0 -5.797,1.484 -7.126,3.594 -1.015,1.656 -1.25,3.921 -1.25,9.64 v 15.125 c 0,4.391 0.391,6.813 1.329,8.531 1.406,2.594 3.75,3.766 6.968,3.766 4,0 5.563,-1.797 7.594,-4.078 z"
         style="fill:#000000;fill-opacity:1;fill-rule:nonzero;stroke:none"
         id="path1465" /><path
         d="M 352.898,93.309 V 82.34 c 0,-6.969 -4.546,-12.375 -11.906,-12.375 -4.859,0 -8.547,2.265 -10.422,5.719 -1.093,2.031 -1.5,4.859 -1.5,8.062 V 96.84 c 0,3.203 0.407,6.031 1.5,8.062 1.875,3.453 5.563,5.719 10.422,5.719 3.672,0 6.578,-1.328 8.688,-3.531 2.047,-2.11 3.218,-5.156 3.218,-8.453 h -8 c -0.156,1.718 -0.859,4 -3.906,4 -2.437,0 -3.922,-1.422 -3.922,-3.922 V 93.309 Z M 337.07,82.496 c 0,-2.969 1.485,-4.547 3.922,-4.547 2.422,0 3.906,1.578 3.906,4.547 v 4.547 h -7.828 z"
         style="fill:#000000;fill-opacity:1;fill-rule:nonzero;stroke:none"
         id="path1467" /><path
         d="m 380.793,81.559 c -0.078,-6.579 -4.781,-11.594 -11.281,-11.594 -6.438,0 -11.766,4.859 -11.766,11.594 0,5.328 3.063,9.093 8.078,10.968 l 3.844,1.407 c 3.047,1.171 3.984,2.671 3.984,4.859 0,2.656 -2.187,4.312 -4.468,4.312 -2.969,0 -3.985,-2.281 -4.297,-4.468 h -7.532 c 0.313,7.828 5.641,11.984 11.907,11.984 6.906,0 11.922,-5.406 11.922,-11.984 0,-4.703 -1.891,-8.938 -7.844,-11.203 l -4.703,-1.875 c -2.969,-1.188 -3.36,-2.594 -3.36,-4.079 0,-2.031 1.407,-4 3.907,-4 2.125,0 4,1.407 4.078,4.079 z"
         style="fill:#000000;fill-opacity:1;fill-rule:nonzero;stroke:none"
         id="path1469" /><path
         d="m 56.648,192.156 h 23.813 v -7.984 H 64.633 v -47.797 h -7.985 z"
         style="fill:#000000;fill-opacity:1;fill-rule:nonzero;stroke:none"
         id="path1471" /><path
         d="m 122.137,164.656 c 0,-2.5 0.859,-4.703 3.922,-4.703 2.265,0 3.984,1.813 3.984,4.313 v 15.437 c 0,2.891 -1.563,4.938 -3.984,4.938 -2.75,0 -3.922,-2.203 -3.922,-5.407 z m 7.906,27.5 h 8 v -55.781 h -8 v 19.672 h -0.156 c -1.719,-2.594 -4.219,-4.078 -7.36,-4.078 -3.843,0 -5.797,1.484 -7.125,3.593 -1.015,1.657 -1.25,3.922 -1.25,9.641 v 15.125 c 0,4.391 0.391,6.813 1.328,8.531 1.407,2.594 3.75,3.766 6.969,3.766 4,0 5.563,-1.797 7.594,-4.078 z"
         style="fill:#000000;fill-opacity:1;fill-rule:nonzero;stroke:none"
         id="path1473" /><path
         d="m 167.738,175.312 v -10.968 c 0,-6.969 -4.547,-12.375 -11.906,-12.375 -4.859,0 -8.547,2.265 -10.422,5.719 -1.094,2.031 -1.5,4.859 -1.5,8.062 v 13.094 c 0,3.203 0.406,6.031 1.5,8.062 1.875,3.453 5.563,5.719 10.422,5.719 3.672,0 6.578,-1.328 8.688,-3.531 2.046,-2.11 3.218,-5.156 3.218,-8.453 h -8 c -0.156,1.718 -0.859,4 -3.906,4 -2.437,0 -3.922,-1.422 -3.922,-3.922 v -5.407 z M 151.91,164.5 c 0,-2.969 1.485,-4.547 3.922,-4.547 2.422,0 3.906,1.578 3.906,4.547 v 4.547 h -7.828 z"
         style="fill:#000000;fill-opacity:1;fill-rule:nonzero;stroke:none"
         id="path1475" /><path
         d="m 197.031,152.438 h -8.469 l -5.328,25.374 h -0.156 l -5.328,-25.374 h -8.453 l 10.344,39.718 h 7.047 z"
         style="fill:#000000;fill-opacity:1;fill-rule:nonzero;stroke:none"
         id="path1477" /><path
         d="m 199.062,178.844 c 0,3.203 0.407,6.031 1.5,8.062 1.876,3.453 5.563,5.719 10.422,5.719 4.844,0 8.532,-2.266 10.407,-5.719 1.109,-2.031 1.5,-4.859 1.5,-8.062 V 165.75 c 0,-3.203 -0.391,-6.031 -1.5,-8.062 -1.875,-3.454 -5.563,-5.719 -10.407,-5.719 -4.859,0 -8.546,2.265 -10.422,5.719 -1.093,2.031 -1.5,4.859 -1.5,8.062 z m 8,-14.344 c 0,-2.969 1.485,-4.547 3.922,-4.547 2.422,0 3.907,1.578 3.907,4.547 v 15.594 c 0,2.968 -1.485,4.547 -3.907,4.547 -2.437,0 -3.922,-1.579 -3.922,-4.547 z"
         style="fill:#000000;fill-opacity:1;fill-rule:nonzero;stroke:none"
         id="path1479" /><path
         d="m 228.766,192.156 h 7.984 v -23.578 c 0,-6.5 4.781,-8.625 8.141,-8.625 0.875,0 1.656,0.156 2.437,0.469 v -8.453 c -4.625,0 -7.281,1.797 -10.578,4.703 v -4.234 h -7.984 z"
         style="fill:#000000;fill-opacity:1;fill-rule:nonzero;stroke:none"
         id="path1481" /><path
         d="m 250.547,196.781 c 1.015,9.078 7.047,11.907 11.906,11.907 8.453,0 11.985,-6.266 11.985,-11.672 v -44.578 h -8 v 3.609 c -2.032,-2.281 -3.594,-4.078 -7.516,-4.078 -3.844,0 -5.797,1.484 -7.125,3.593 -1.016,1.657 -1.25,3.922 -1.25,9.641 v 15.125 c 0,4.391 0.391,6.813 1.328,8.531 1.406,2.594 3.75,3.766 6.969,3.766 3.218,0 5.718,-1.484 7.437,-4.078 h 0.157 v 7.844 c 0,2.5 -1.094,4.312 -3.672,4.312 -2.75,0 -4.157,-2.047 -4.235,-3.922 z m 7.984,-31.422 c 0,-3.203 1.172,-5.406 3.922,-5.406 2.422,0 3.985,2.047 3.985,4.938 v 15.437 c 0,2.5 -1.719,4.313 -3.985,4.313 -3.062,0 -3.922,-2.203 -3.922,-4.703 z"
         style="fill:#000000;fill-opacity:1;fill-rule:nonzero;stroke:none"
         id="path1483" /><path
         d="m 296.129,192.156 h 8 V 164.5 c 0,-8.297 -5.328,-12.531 -11.984,-12.531 -3.61,0 -6.594,1.25 -8.704,3.359 -2.109,2.125 -3.375,5.094 -3.609,8.625 h 7.766 c 0.468,-2.594 2.5,-4 4.547,-4 2.968,0 3.984,2.047 3.984,4.703 v 4.156 c -1.641,-0.078 -2.734,-0.234 -3.828,-0.234 -10.031,0 -12.625,4.391 -12.625,13.469 0,8.781 4.937,10.578 8.625,10.578 3.844,0 5.562,-1.641 7.672,-4.547 h 0.156 z m 0,-11.672 c 0,3.204 -1.641,5.094 -4.297,5.094 -2.594,0 -4.156,-2.047 -4.156,-5.094 0,-4.234 2.812,-5.64 6.265,-5.64 0.704,0 1.329,0.078 2.188,0.234 z"
         style="fill:#000000;fill-opacity:1;fill-rule:nonzero;stroke:none"
         id="path1485" /><path
         d="m 310.008,192.156 h 7.984 v -26.718 c 0,-3.516 1.016,-5.485 4,-5.485 2.5,0 3.906,1.813 3.906,4.703 v 27.5 h 8 v -30.468 c 0,-7.141 -4.234,-9.719 -8.234,-9.719 -3.672,0 -5.875,1.797 -7.516,4.312 h -0.156 v -3.843 h -7.984 z"
         style="fill:#000000;fill-opacity:1;fill-rule:nonzero;stroke:none"
         id="path1487" /><path
         d="m 340.484,196.781 c 1.016,9.078 7.047,11.907 11.907,11.907 8.453,0 11.984,-6.266 11.984,-11.672 v -44.578 h -8 v 3.609 c -2.031,-2.281 -3.594,-4.078 -7.516,-4.078 -3.843,0 -5.797,1.484 -7.125,3.593 -1.015,1.657 -1.25,3.922 -1.25,9.641 v 15.125 c 0,4.391 0.391,6.813 1.328,8.531 1.407,2.594 3.75,3.766 6.969,3.766 3.219,0 5.719,-1.484 7.438,-4.078 h 0.156 v 7.844 c 0,2.5 -1.094,4.312 -3.672,4.312 -2.75,0 -4.156,-2.047 -4.234,-3.922 z m 7.985,-31.422 c 0,-3.203 1.172,-5.406 3.922,-5.406 2.421,0 3.984,2.047 3.984,4.938 v 15.437 c 0,2.5 -1.719,4.313 -3.984,4.313 -3.063,0 -3.922,-2.203 -3.922,-4.703 z"
         style="fill:#000000;fill-opacity:1;fill-rule:nonzero;stroke:none"
         id="path1489" /><path
         d="m 392.973,163.562 c -0.078,-6.578 -4.782,-11.593 -11.282,-11.593 -6.437,0 -11.765,4.859 -11.765,11.593 0,5.329 3.062,9.094 8.078,10.969 l 3.844,1.407 c 3.047,1.171 3.984,2.671 3.984,4.859 0,2.656 -2.187,4.312 -4.469,4.312 -2.968,0 -3.984,-2.281 -4.297,-4.468 h -7.531 c 0.313,7.828 5.641,11.984 11.906,11.984 6.907,0 11.922,-5.406 11.922,-11.984 0,-4.703 -1.89,-8.938 -7.843,-11.203 l -4.704,-1.876 c -2.968,-1.187 -3.359,-2.593 -3.359,-4.078 0,-2.031 1.406,-4 3.906,-4 2.125,0 4,1.407 4.078,4.078 z"
         style="fill:#000000;fill-opacity:1;fill-rule:nonzero;stroke:none"
         id="path1491" /><path
         d="m 100.898,192.156 h 8 V 164.5 c 0,-8.297 -5.328,-12.531 -11.984,-12.531 -3.609,0 -6.594,1.25 -8.703,3.359 -2.109,2.125 -3.375,5.094 -3.609,8.625 h 7.765 c 0.469,-2.594 2.5,-4 4.547,-4 2.969,0 3.984,2.047 3.984,4.703 v 4.156 c -1.64,-0.078 -2.734,-0.234 -3.828,-0.234 -10.031,0 -12.625,4.391 -12.625,13.469 0,8.781 4.938,10.578 8.625,10.578 3.844,0 5.563,-1.641 7.672,-4.547 h 0.156 z m 0,-11.672 c 0,3.204 -1.64,5.094 -4.296,5.094 -2.594,0 -4.157,-2.047 -4.157,-5.094 0,-4.234 2.813,-5.64 6.266,-5.64 0.703,0 1.328,0.078 2.187,0.234 z"
         style="fill:#000000;fill-opacity:1;fill-rule:nonzero;stroke:none"
         id="path1493" /></g></g></svg>
