<?xml version="1.0" encoding="UTF-8" standalone="no"?>
<!-- Created with Inkscape (http://www.inkscape.org/) -->

<svg
   version="1.1"
   id="svg12875"
   width="600"
   height="450.005"
   viewBox="0 0 600 450.005"
   xmlns="http://www.w3.org/2000/svg"
   xmlns:svg="http://www.w3.org/2000/svg">
  <defs
     id="defs12879">
    <clipPath
       id="clipPath5362"
       clipPathUnits="userSpaceOnUse">
      <path
         id="path5364"
         d="M 0,0 H 480 V 361 H 0 Z" />
    </clipPath>
  </defs>
  <g
     id="g12881"
     transform="translate(-94.25952,-41.664946)">
    <g
       transform="matrix(1.25,0,0,-1.25,94.25952,492.91495)"
       id="g5356">
      <g
         id="g5358">
        <g
           clip-path="url(#clipPath5362)"
           id="g5360">
          <g
             id="g5366">
            <path
               id="path5368"
               style="fill:#ffffff;fill-opacity:1;fill-rule:nonzero;stroke:none"
               d="M 31.996,360.77 C 14.492,360.77 0.242,346.52 0.242,329.012 V 33.008 C 0.242,15.488 14.492,1.25 31.996,1.25 h 416.008 c 17.516,0 31.766,14.238 31.766,31.758 v 296.004 c 0,17.508 -14.25,31.758 -31.766,31.758" />
            <path
               id="path5370"
               style="fill:#000000;fill-opacity:1;fill-rule:nonzero;stroke:none"
               d="M 31.996,1.48 C 14.613,1.48 0.473,15.621 0.473,33.008 v 295.996 c 0,17.383 14.14,31.535 31.523,31.535 h 416.008 c 17.383,0 31.523,-14.152 31.523,-31.535 V 33.008 C 479.527,15.621 465.387,1.48 448.004,1.48 Z M 448.004,361.012 H 31.996 C 14.328,361.012 0,346.684 0,329.004 V 33.008 C 0,15.324 14.328,0.996 31.996,0.996 H 448.004 C 465.672,0.996 480,15.324 480,33.008 v 295.996 c 0,17.68 -14.328,32.008 -31.996,32.008" />
          </g>
        </g>
      </g>
    </g>
    <path
       id="path5372"
       style="fill:#000000;fill-opacity:1;fill-rule:nonzero;stroke:none;stroke-width:1.25"
       d="m 134.25452,481.65963 c -16.5625,0 -29.99,-13.4425 -29.99,-30.005 V 81.65088 c 0,-16.5625 13.4275,-29.99625 29.99,-29.99625 h 520.01 c 16.5625,0 30.005,13.43375 30.005,29.99625 v 370.00375 c 0,16.5625 -13.4425,30.005 -30.005,30.005" />
    <path
       id="path5374"
       style="fill:#ffffff;fill-opacity:1;fill-rule:nonzero;stroke:none;stroke-width:1.25"
       d="m 134.25452,466.65463 c -8.27125,0 -14.995,-6.70875 -14.995,-15 V 81.65088 c 0,-8.29125 6.72375,-14.99625 14.995,-14.99625 h 520.01 c 8.28625,0 15.005,6.705 15.005,14.99625 v 370.00375 c 0,8.29125 -6.71875,15 -15.005,15" />
    <path
       id="path5376"
       style="fill:#000000;fill-opacity:1;fill-rule:nonzero;stroke:none;stroke-width:1.25"
       d="m 478.25827,346.64588 h -11.99625 v -11.9975 h 11.99625 z m 0,72.01125 h -11.99625 v -59.995 h 11.99625 z m -66.00125,-36.00125 h 25.51375 c 0,-7.05 -5.71875,-12.75375 -12.75875,-12.75375 -7.03625,0 -12.755,5.70375 -12.755,12.75375 z m 37.51,10.50375 h -37.51 v 1.49875 c 0,5.21 3.175,9.8975 8.0275,11.83625 6.665,2.665 14.2975,0.79 18.97,-4.64875 l 9.11125,7.8075 c -8.0275,9.345 -21.1125,12.56375 -32.53375,7.98875 -9.41375,-3.77 -15.57125,-12.86625 -15.57125,-22.98375 v -12.0025 c 0,-13.67125 11.07875,-24.75125 24.75125,-24.75125 13.67625,0 24.755,11.08 24.755,24.75125 z m -96.005,25.4975 v -59.995 h 11.99625 v 6.7625 c 7.03625,-8.70125 19.78,-10.04875 28.48125,-3.0275 h 0.02 l -8.535,10.5175 c -4.94625,-4.41375 -12.53375,-3.97375 -16.93375,0.98625 -1.95375,2.2025 -3.0375,5.035 -3.0375,7.97375 v 36.75375 h -11.99625 z m -37.49625,0 v -50.25375 h -6.005 v -9.74125 h 6.005 v -9.00375 c 0,-8.29125 6.705,-15.01 14.99625,-15.01 h 9.00375 v 11.255 h -8.2475 c -2.075,0 -3.755,1.68 -3.755,3.755 v 9.00375 h 12.0025 v 9.74125 h -12.0025 v 50.25375" />
    <g
       id="g12678"
       transform="matrix(0.88096386,0,0,0.88096386,-37.063655,-319.00583)">
      <g
         id="g3966"
         transform="matrix(14.566642,0,0,-14.566642,340.82533,587.11587)">
        <path
           d="M 0,0 V 0 0 0 C 0,0.316 0.103,0.624 0.293,0.878 L 0.586,1.267 C 0.791,1.54 0.963,1.836 1.099,2.148 l 1.926,4.43 C 3.218,7.023 3.657,7.31 4.142,7.31 h 12.185 c 0.485,0 0.924,-0.287 1.117,-0.732 L 19.37,2.148 C 19.506,1.836 19.678,1.54 19.883,1.267 L 20.176,0.878 C 20.366,0.624 20.469,0.316 20.469,0 v -3.166 c 0,-0.673 -0.545,-1.218 -1.218,-1.218 H 1.218 C 0.545,-4.384 0,-3.839 0,-3.166 Z"
           style="fill:#000000;fill-opacity:1;fill-rule:nonzero;stroke:none"
           id="path3968" />
      </g>
      <g
         id="g3970"
         transform="matrix(14.566642,0,0,-14.566642,358.57471,658.03649)">
        <path
           d="M 0,0 H 2.924 L 2.923,-2.681 c 0,-0.404 -0.327,-0.73 -0.73,-0.73 H 0.729 c -0.403,0 -0.73,0.326 -0.73,0.73 z"
           style="fill:#000000;fill-opacity:1;fill-rule:nonzero;stroke:none"
           id="path3972" />
      </g>
      <g
         id="g3974"
         transform="matrix(14.566642,0,0,-14.566642,578.64317,658.03649)">
        <path
           d="m 0,0 h 2.924 l 10e-4,-2.681 c 0,-0.404 -0.327,-0.73 -0.73,-0.73 H 0.731 c -0.403,0 -0.73,0.326 -0.73,0.73 z"
           style="fill:#000000;fill-opacity:1;fill-rule:nonzero;stroke:none"
           id="path3976" />
      </g>
      <g
         id="g3978"
         transform="matrix(14.566642,0,0,-14.566642,401.20399,597.75826)">
        <path
           d="m 0,0 c 0,-0.808 -0.655,-1.464 -1.464,-1.464 -0.808,0 -1.463,0.656 -1.463,1.464 0,0.808 0.655,1.464 1.463,1.464 C -0.655,1.464 0,0.808 0,0"
           style="fill:#ffffff;fill-opacity:1;fill-rule:nonzero;stroke:none"
           id="path3980" />
      </g>
      <g
         id="g3982"
         transform="matrix(14.566642,0,0,-14.566642,621.24623,597.75826)">
        <path
           d="m 0,0 c 0,-0.808 -0.655,-1.464 -1.464,-1.464 -0.808,0 -1.463,0.656 -1.463,1.464 0,0.808 0.655,1.464 1.463,1.464 C -0.655,1.464 0,0.808 0,0"
           style="fill:#ffffff;fill-opacity:1;fill-rule:nonzero;stroke:none"
           id="path3984" />
      </g>
      <g
         id="g3986"
         transform="matrix(14.566642,0,0,-14.566642,374.54703,558.71966)">
        <path
           d="m 0,0 1.676,3.85 c 0.077,0.178 0.253,0.293 0.447,0.293 h 11.593 c 0.194,0 0.369,-0.115 0.447,-0.293 L 15.839,0 h -1.984 v 1.322 l -0.24,0.002 c -0.336,-0.43 -0.851,-0.681 -1.397,-0.681 -0.546,0 -1.061,0.251 -1.398,0.681 L 10.58,1.322 V 0 H 9.557 V 1.322 L 9.317,1.324 C 8.981,0.894 8.465,0.643 7.919,0.643 7.374,0.643 6.858,0.894 6.522,1.324 L 6.282,1.322 V 0 H 5.258 V 1.322 L 5.018,1.324 C 4.682,0.894 4.167,0.643 3.621,0.643 3.075,0.643 2.56,0.894 2.224,1.324 L 1.983,1.322 V 0 Z"
           style="fill:#ffffff;fill-opacity:1;fill-rule:nonzero;stroke:none"
           id="path3988" />
      </g>
      <g
         id="g3990"
         transform="matrix(14.566642,0,0,-14.566642,447.1691,523.61551)">
        <path
           d="m 0,0 c 0,-0.754 -0.611,-1.365 -1.365,-1.365 -0.753,0 -1.364,0.611 -1.364,1.365 0,0.754 0.611,1.365 1.364,1.365 C -0.611,1.365 0,0.754 0,0"
           style="fill:#000000;fill-opacity:1;fill-rule:nonzero;stroke:none"
           id="path3992" />
      </g>
      <g
         id="g3994"
         transform="matrix(14.566642,0,0,-14.566642,509.78378,523.61551)">
        <path
           d="m 0,0 c 0,-0.754 -0.611,-1.365 -1.365,-1.365 -0.753,0 -1.364,0.611 -1.364,1.365 0,0.754 0.611,1.365 1.364,1.365 C -0.611,1.365 0,0.754 0,0"
           style="fill:#000000;fill-opacity:1;fill-rule:nonzero;stroke:none"
           id="path3996" />
      </g>
      <g
         id="g3998"
         transform="matrix(14.566642,0,0,-14.566642,572.3955,523.61551)">
        <path
           d="m 0,0 c 0,-0.754 -0.611,-1.365 -1.365,-1.365 -0.753,0 -1.364,0.611 -1.364,1.365 0,0.754 0.611,1.365 1.364,1.365 C -0.611,1.365 0,0.754 0,0"
           style="fill:#000000;fill-opacity:1;fill-rule:nonzero;stroke:none"
           id="path4000" />
      </g>
    </g>
  </g>
</svg>
