<?xml version="1.0" encoding="UTF-8" standalone="no"?>
<svg
   xmlns:dc="http://purl.org/dc/elements/1.1/"
   xmlns:cc="http://creativecommons.org/ns#"
   xmlns:rdf="http://www.w3.org/1999/02/22-rdf-syntax-ns#"
   xmlns:svg="http://www.w3.org/2000/svg"
   xmlns="http://www.w3.org/2000/svg"
   viewBox="0 0 2268.2026 2268.2026"
   height="2268.2026"
   width="2268.2026"
   xml:space="preserve"
   id="svg4813"
   version="1.1"><metadata
     id="metadata4819"><rdf:RDF><cc:Work
         rdf:about=""><dc:format>image/svg+xml</dc:format><dc:type
           rdf:resource="http://purl.org/dc/dcmitype/StillImage" /><dc:title></dc:title></cc:Work></rdf:RDF></metadata><defs
     id="defs4817" /><g
     transform="matrix(1.3333333,0,0,-1.3333333,0,2268.2026)"
     id="g4821"><g
       id="g4823"><g
         transform="translate(0,1701.152)"
         id="g4825"><path
           id="path4827"
           style="fill:#ffffff;fill-opacity:1;fill-rule:nonzero;stroke:#231f20;stroke-width:0.375;stroke-linecap:butt;stroke-linejoin:miter;stroke-miterlimit:4;stroke-dasharray:none;stroke-opacity:1"
           d="m 113.574,-1700.965 c -62.621,0 -113.386,50.766 -113.386,113.387 v 1474.004 c 0,62.621 50.765,113.386 113.386,113.386 h 1474.004 c 62.621,0 113.387,-50.765 113.387,-113.386 v -1474.004 c 0,-62.621 -50.766,-113.387 -113.387,-113.387 z" /></g><path
         id="path4829"
         style="fill:#000000;fill-opacity:1;fill-rule:nonzero;stroke:none"
         d="m 113.574,1672.617 c -46.969,0 -85.039,-38.07 -85.039,-85.035 V 113.574 c 0,-46.969 38.07,-85.039 85.039,-85.039 h 1474.004 c 46.965,0 85.039,38.07 85.039,85.039 v 1474.008 c 0,46.965 -38.074,85.035 -85.039,85.035 z m 0,-42.52 h 1474.004 c 23.484,0 42.52,-19.035 42.52,-42.515 V 113.574 c 0,-23.485 -19.036,-42.52 -42.52,-42.52 H 113.574 c -23.484,0 -42.519,19.035 -42.519,42.52 v 1474.008 c 0,23.48 19.035,42.515 42.519,42.515 z" /><path
         id="path4831"
         style="fill:#2b2a29;fill-opacity:1;fill-rule:evenodd;stroke:none"
         d="m 219.992,1500.265 0.106,2.336 0.109,2.34 0.316,2.234 0.426,2.231 0.531,2.234 0.532,2.125 0.746,2.129 0.851,2.02 0.848,2.019 1.066,2.02 1.063,1.808 1.168,1.914 1.277,1.704 1.383,1.804 1.383,1.598 1.488,1.594 1.594,1.488 1.594,1.383 1.808,1.383 1.703,1.273 1.914,1.172 1.805,1.062 2.02,1.063 2.023,0.851 2.02,0.852 2.125,0.742 2.129,0.531 2.23,0.536 2.234,0.421 2.235,0.321 2.336,0.105 2.34,0.106 2.339,-0.106 2.235,-0.105 2.34,-0.321 2.23,-0.421 2.129,-0.536 2.23,-0.531 2.02,-0.742 2.129,-0.852 2.019,-0.851 3.829,-2.125 1.808,-1.172 1.805,-1.273 1.703,-1.383 1.699,-1.383 1.488,-1.488 1.493,-1.594 1.488,-1.598 1.379,-1.804 1.172,-1.704 1.168,-1.914 1.172,-1.808 1.914,-4.039 0.742,-2.02 0.746,-2.129 0.637,-2.125 0.531,-2.234 0.32,-2.231 0.32,-2.234 0.211,-2.34 v -4.676 l -0.211,-2.234 -0.32,-2.34 -0.32,-2.23 -0.531,-2.129 -0.637,-2.231 -0.746,-2.023 -0.742,-2.125 -0.957,-2.02 -0.957,-1.914 -1.172,-1.914 -1.168,-1.808 -1.172,-1.809 -1.379,-1.699 -1.488,-1.594 -1.493,-1.598 -1.488,-1.488 -1.699,-1.488 -1.703,-1.277 -1.805,-1.274 -1.808,-1.172 -1.915,-1.168 -1.914,-0.957 -2.019,-0.957 -2.129,-0.746 -2.02,-0.742 -2.23,-0.637 -2.129,-0.535 -2.23,-0.316 -2.34,-0.321 -2.235,-0.211 h -4.679 l -2.336,0.211 -2.235,0.321 -2.234,0.316 -2.23,0.535 -2.129,0.637 -2.125,0.742 -2.02,0.746 -2.023,0.957 -2.02,0.957 -1.805,1.168 -1.914,1.172 -1.703,1.274 -1.808,1.277 -3.188,2.976 -1.488,1.598 -1.383,1.594 -1.383,1.699 -1.277,1.809 -1.168,1.808 -1.063,1.914 -1.066,1.914 -0.848,2.02 -0.851,2.125 -0.746,2.023 -0.532,2.231 -0.531,2.129 -0.426,2.23 -0.316,2.34 -0.109,2.234 z" /><path
         id="path4833"
         style="fill:#000000;fill-opacity:1;fill-rule:evenodd;stroke:none"
         d="M 265.395,1152.57 H 156.727 l 0.64,3.934 0.637,3.828 0.742,3.828 1.703,7.656 0.957,3.824 1.063,3.828 1.062,3.723 1.172,3.723 1.274,3.722 1.277,3.719 1.383,3.617 1.383,3.719 1.488,3.617 1.594,3.508 1.593,3.617 1.598,3.508 1.805,3.508 1.808,3.402 1.809,3.508 1.914,3.406 2.019,3.293 2.02,3.403 2.129,3.296 2.125,3.297 2.234,3.192 2.34,3.187 2.336,3.192 2.34,3.082 2.445,3.086 2.555,2.976 2.551,2.977 v 0.105 l -2.235,2.66 -2.23,2.762 -2.024,2.871 -1.804,2.871 -1.809,2.977 -1.594,3.086 -1.382,3.187 -1.383,3.192 -1.168,3.191 -0.957,3.402 -0.852,3.293 -0.746,3.407 -0.531,3.402 -0.426,3.508 -0.211,3.508 -0.105,3.507 v 43.809 l 0.105,3.828 0.317,3.934 0.425,3.828 0.746,3.723 0.852,3.613 0.957,3.617 1.273,3.613 1.278,3.403 1.593,3.402 1.598,3.297 1.91,3.191 1.914,3.082 2.129,2.977 2.34,2.871 2.34,2.766 2.551,2.656 2.656,2.449 2.766,2.445 2.871,2.231 2.976,2.129 3.086,2.019 3.188,1.809 3.191,1.699 3.402,1.488 3.508,1.383 3.508,1.168 3.617,1.067 3.723,0.847 3.719,0.641 3.828,0.531 3.828,0.211 3.934,0.105 3.933,-0.105 3.828,-0.211 3.828,-0.531 3.723,-0.641 3.723,-0.847 3.613,-1.067 3.508,-1.168 3.402,-1.383 3.402,-1.488 3.297,-1.699 3.192,-1.809 3.082,-2.019 2.976,-2.129 2.871,-2.231 2.766,-2.445 2.66,-2.449 2.551,-2.656 2.34,-2.766 2.23,-2.871 2.129,-2.977 2.02,-3.082 1.808,-3.191 1.7,-3.297 1.488,-3.402 1.383,-3.403 1.172,-3.613 1.062,-3.617 0.852,-3.613 0.636,-3.723 0.532,-3.828 0.32,-3.934 v -51.144 l -0.641,-7.016 -0.636,-3.402 -0.637,-3.407 -0.852,-3.293 -1.062,-3.296 -1.172,-3.297 -1.274,-3.192 -1.488,-3.187 -1.598,-3.086 -1.699,-2.977 -1.914,-2.871 -2.019,-2.871 -2.129,-2.762 -2.231,-2.66 -0.109,-0.105 2.66,-2.977 2.445,-2.976 2.446,-3.086 2.445,-3.082 2.34,-3.192 2.23,-3.187 2.235,-3.192 2.234,-3.297 2.02,-3.296 2.125,-3.293 1.914,-3.403 1.914,-3.406 1.914,-3.508 1.808,-3.402 1.7,-3.508 1.703,-3.508 1.594,-3.617 1.597,-3.508 1.488,-3.617 1.383,-3.719 1.379,-3.617 1.277,-3.719 1.168,-3.722 1.172,-3.723 1.063,-3.723 1.062,-3.828 0.957,-3.824 0.957,-3.828 0.747,-3.828 0.742,-3.828 0.746,-3.828 0.636,-3.934 z" /><path
         id="path4835"
         style="fill:#000000;fill-opacity:1;fill-rule:evenodd;stroke:none"
         d="M 259.973,1141.722 V 995.203 l -0.106,-1.594 -0.215,-1.598 -0.425,-1.593 -0.532,-1.489 -0.636,-1.488 -0.852,-1.277 -0.957,-1.274 -1.062,-1.172 -1.168,-1.062 -1.172,-0.957 -1.383,-0.746 -1.379,-0.742 -1.598,-0.532 -1.488,-0.425 -1.594,-0.215 -1.703,-0.106 -1.699,0.106 -1.598,0.215 -1.594,0.425 -1.488,0.532 -1.383,0.742 -1.382,0.746 -1.274,0.957 -1.172,1.062 -0.957,1.172 -0.957,1.274 -0.847,1.277 -0.641,1.488 -0.637,1.489 -0.32,1.593 -0.316,1.598 v 148.113 z" /><path
         id="path4837"
         style="fill:#000000;fill-opacity:1;fill-rule:evenodd;stroke:none"
         d="m 303.461,1141.722 v -113.984 l -0.106,-1.699 -0.214,-1.598 -0.426,-1.594 -0.531,-1.488 -0.637,-1.383 -0.852,-1.383 -0.957,-1.273 -1.062,-1.172 -1.168,-1.062 -1.172,-0.852 -1.383,-0.848 -1.379,-0.746 -1.492,-0.531 -1.594,-0.426 -1.593,-0.211 -1.704,-0.109 -1.699,0.109 -1.594,0.211 -1.597,0.426 -1.489,0.531 -1.382,0.746 -1.383,0.848 -1.168,0.852 -1.168,1.062 -1.066,1.172 -0.957,1.273 -0.848,1.383 -0.641,1.383 -0.531,1.488 -0.426,1.594 -0.211,1.598 -0.105,1.699 -0.11,113.984 z" /><path
         id="path4839"
         style="fill:#fefefe;fill-opacity:1;fill-rule:evenodd;stroke:none"
         d="m 221.906,1278.675 0.106,96.758 v 0.531 l 0.109,0.532 0.106,0.531 0.211,0.531 0.531,0.852 0.64,0.851 0.743,0.637 0.957,0.531 0.531,0.215 0.426,0.106 0.531,0.105 h 1.172 l 1.062,-0.211 0.426,-0.215 0.957,-0.531 0.742,-0.637 0.746,-0.851 0.426,-0.852 0.211,-0.531 0.106,-0.531 0.109,-0.532 v -0.531 l 0.211,-81.66 -0.211,-2.125 -0.32,-1.066 -0.321,-0.957 -1.062,-1.914 -0.637,-0.848 -0.746,-0.852 z" /><path
         id="path4841"
         style="fill:#fefefe;fill-opacity:1;fill-rule:evenodd;stroke:none"
         d="m 308.988,1278.675 -7.652,7.336 -0.746,0.852 -0.637,0.848 -0.531,0.957 -0.852,1.914 -0.215,1.066 -0.21,1.063 v 83.253 l 0.21,1.063 0.215,0.531 0.426,0.852 0.637,0.851 0.851,0.637 0.957,0.531 0.426,0.215 1.063,0.211 h 1.062 l 1.063,-0.211 0.531,-0.215 0.957,-0.531 0.746,-0.637 0.637,-0.851 0.531,-0.852 0.215,-0.531 0.211,-1.063 v -0.531 z" /><path
         id="path4843"
         style="fill:#000000;fill-opacity:1;fill-rule:evenodd;stroke:none"
         d="m 1367.387,1236.675 h 89.738 v -43.171 l 81.66,-130.571 0.746,-1.277 0.742,-1.379 0.747,-1.383 0.636,-1.488 0.641,-1.383 1.062,-2.976 0.852,-2.977 0.426,-1.598 0.211,-1.488 0.32,-1.594 0.105,-1.488 0.211,-1.598 0.11,-1.593 v -1.489 l -0.11,-2.976 -0.316,-2.871 -0.426,-2.766 -0.64,-2.766 -0.743,-2.761 -0.957,-2.555 -1.172,-2.656 -1.273,-2.446 -1.488,-2.445 -1.598,-2.34 -1.699,-2.234 -1.914,-2.125 -2.02,-1.914 -2.129,-1.914 -2.23,-1.809 -2.445,-1.594 -112.18,179.59 0.109,-157.047 -0.109,-2.339 -0.106,-2.235 -0.316,-2.23 -0.852,-4.469 -0.636,-2.125 -1.492,-4.039 -0.957,-2.024 -0.957,-1.914 -1.063,-1.914 -1.168,-1.804 -1.277,-1.809 -1.274,-1.703 -1.492,-1.594 -1.488,-1.594 -1.488,-1.488 -1.7,-1.383 -1.703,-1.382 -1.699,-1.168 -1.809,-1.172 -1.914,-1.168 -1.914,-0.957 -4.039,-1.703 -2.129,-0.743 -2.125,-0.531 -2.129,-0.531 -2.23,-0.426 -2.235,-0.215 -2.339,-0.211 -2.231,-0.105 z" /><path
         id="path4845"
         style="fill:#000000;fill-opacity:1;fill-rule:evenodd;stroke:none"
         d="m 1367.387,1247.945 v 49.551 l -30.199,-18.184 -2.34,-1.277 -2.34,-1.168 -2.551,-0.957 -2.445,-0.742 -2.551,-0.641 -2.66,-0.426 -2.656,-0.316 -2.661,-0.11 -2.55,0.11 -2.551,0.211 -2.555,0.426 -2.445,0.636 -2.34,0.641 -2.336,0.957 -2.34,0.957 -2.234,1.168 -2.125,1.277 -2.02,1.489 -2.023,1.593 -1.805,1.594 -1.703,1.914 -1.699,1.914 -1.488,2.02 -1.383,2.129 84,50.503 -0.11,50.508 0.11,2.34 0.105,2.231 0.317,2.234 0.425,2.234 0.426,2.231 0.641,2.129 0.742,2.019 0.746,2.125 1.914,3.828 1.063,1.914 1.168,1.809 1.277,1.809 1.383,1.699 1.383,1.594 1.488,1.597 1.594,1.489 1.593,1.382 1.703,1.383 1.7,1.168 1.914,1.168 1.808,1.172 2.02,0.957 1.914,0.852 2.019,0.847 2.129,0.746 2.125,0.532 2.235,0.531 2.125,0.426 2.234,0.211 2.34,0.214 2.336,0.106 2.871,-0.106 2.871,-0.32 2.766,-0.426 2.765,-0.636 2.766,-0.852 2.656,-0.957 2.551,-1.063 2.445,-1.277 2.446,-1.488 2.339,-1.594 2.235,-1.703 2.125,-1.91 2.019,-2.024 1.809,-2.125 1.809,-2.234 1.593,-2.445 79.215,-126.742 1.383,-2.34 1.172,-2.446 1.062,-2.55 0.852,-2.661 0.637,-2.656 0.531,-2.66 0.211,-2.766 0.109,-2.656 -0.109,-2.551 -0.211,-2.554 -0.426,-2.446 -0.531,-2.445 -0.637,-2.34 -0.851,-2.336 -1.063,-2.234 -1.066,-2.125 -1.274,-2.129 -1.383,-2.02 -1.488,-2.019 -1.703,-1.809 -1.699,-1.699 -1.914,-1.703 -2.02,-1.488 -2.019,-1.383 -59.973,95.695 v -84.531 z" /><path
         id="path4847"
         style="fill:#000000;fill-opacity:1;fill-rule:evenodd;stroke:none"
         d="m 1338.781,1500.265 0.11,2.336 0.211,2.34 0.21,2.234 0.426,2.231 0.532,2.234 0.535,2.125 0.742,2.129 1.703,4.039 1.062,2.02 1.063,1.808 1.168,1.914 1.277,1.704 1.383,1.804 1.383,1.598 1.488,1.594 1.594,1.488 1.703,1.383 1.699,1.383 1.703,1.273 1.915,1.172 3.828,2.125 4.039,1.703 2.125,0.742 2.129,0.531 2.23,0.536 2.234,0.421 2.235,0.321 2.34,0.105 2.336,0.106 2.339,-0.106 2.235,-0.105 2.34,-0.321 2.23,-0.421 2.129,-0.536 2.231,-0.531 2.019,-0.742 2.129,-0.852 2.019,-0.851 3.829,-2.125 1.808,-1.172 1.805,-1.273 3.406,-2.766 1.488,-1.488 1.489,-1.594 1.488,-1.598 1.383,-1.804 1.168,-1.704 1.277,-1.914 1.063,-1.808 1.914,-4.039 0.742,-2.02 0.746,-2.129 0.637,-2.125 0.531,-2.234 0.32,-2.231 0.321,-2.234 0.21,-2.34 v -4.676 l -0.21,-2.234 -0.321,-2.34 -0.32,-2.23 -0.531,-2.129 -0.637,-2.231 -0.746,-2.023 -0.742,-2.125 -0.957,-2.02 -0.957,-1.914 -1.063,-1.914 -1.277,-1.808 -1.168,-1.809 -1.383,-1.699 -1.488,-1.594 -1.489,-1.598 -1.488,-1.488 -1.703,-1.488 -1.703,-1.277 -1.805,-1.274 -1.808,-1.172 -1.914,-1.168 -1.915,-0.957 -2.019,-0.957 -2.129,-0.746 -2.019,-0.742 -2.231,-0.637 -2.129,-0.535 -2.23,-0.316 -2.34,-0.321 -2.235,-0.211 h -4.675 l -2.34,0.211 -2.235,0.321 -2.234,0.316 -2.23,0.535 -2.129,0.637 -2.125,0.742 -2.02,0.746 -2.019,0.957 -1.914,0.957 -1.914,1.168 -1.915,1.172 -1.703,1.274 -1.699,1.277 -1.703,1.488 -1.594,1.488 -1.488,1.598 -1.383,1.594 -1.383,1.699 -1.277,1.809 -1.168,1.808 -2.125,3.828 -0.852,2.02 -0.851,2.125 -0.742,2.023 -0.535,2.231 -0.532,2.129 -0.426,2.23 -0.21,2.34 -0.211,2.234 z" /><path
         id="path4849"
         style="fill:#000000;fill-opacity:1;fill-rule:evenodd;stroke:none"
         d="m 240.832,414.754 h 89.742 v -43.168 l 81.555,-130.465 0.851,-1.383 0.743,-1.383 0.746,-1.383 0.636,-1.488 0.637,-1.383 0.535,-1.488 0.532,-1.488 0.425,-1.489 0.422,-1.488 0.321,-1.488 0.32,-1.594 0.211,-1.492 0.215,-1.594 0.211,-3.187 v -4.469 l -0.321,-2.762 -0.422,-2.871 -0.64,-2.766 -0.852,-2.66 -0.957,-2.656 -1.062,-2.66 -1.383,-2.445 -1.379,-2.446 -1.598,-2.34 -1.699,-2.23 -1.914,-2.129 -2.019,-1.914 -2.129,-1.91 -2.34,-1.809 -2.34,-1.597 -112.176,179.589 0.106,-157.046 -0.106,-2.34 -0.211,-2.231 -0.215,-2.234 -0.425,-2.235 -0.532,-2.23 -0.531,-2.129 -0.742,-2.019 -1.703,-4.04 -0.957,-1.914 -1.063,-1.914 -1.168,-1.808 -1.277,-1.809 -1.383,-1.699 -1.383,-1.594 -1.488,-1.597 -1.594,-1.489 -1.593,-1.383 -1.704,-1.378 -1.808,-1.172 -1.805,-1.168 -1.809,-1.067 -2.019,-1.062 -1.914,-0.852 -2.129,-0.847 -2.02,-0.641 -2.125,-0.637 -2.234,-0.531 -2.125,-0.426 -2.34,-0.211 -2.234,-0.215 h -2.34 z" /><path
         id="path4851"
         style="fill:#000000;fill-opacity:1;fill-rule:evenodd;stroke:none"
         d="m 240.832,426.027 v 49.547 l -30.195,-18.18 -2.34,-1.277 -2.445,-1.172 -2.446,-0.957 -2.551,-0.742 -2.554,-0.637 -2.551,-0.426 -2.656,-0.32 -2.66,-0.106 -2.551,0.106 -2.555,0.215 -2.551,0.422 -2.445,0.64 -2.445,0.637 -2.34,0.957 -2.231,0.957 -2.234,1.168 -2.125,1.277 -2.023,1.489 -2.02,1.593 -1.809,1.704 -1.804,1.808 -1.598,1.914 -1.594,2.02 -1.382,2.125 84.105,50.508 V 571.8 l 0.109,2.34 0.106,2.235 0.316,2.23 0.852,4.469 0.64,2.125 0.743,2.019 0.746,2.129 0.957,1.914 0.957,2.02 1.062,1.808 1.168,1.805 1.278,1.809 1.382,1.703 1.383,1.594 1.489,1.593 1.593,1.489 1.594,1.382 1.703,1.383 1.699,1.168 1.914,1.172 1.809,1.168 2.02,0.957 1.914,0.852 2.019,0.851 2.129,0.742 2.125,0.532 2.234,0.535 2.125,0.422 2.235,0.215 2.34,0.211 2.336,0.105 2.871,-0.105 2.871,-0.317 2.765,-0.426 2.766,-0.64 2.766,-0.848 2.656,-0.957 2.551,-1.066 2.445,-1.274 2.445,-1.488 2.34,-1.598 2.235,-1.699 2.125,-1.914 2.019,-2.02 1.809,-2.128 1.808,-2.231 1.594,-2.445 79.109,-126.746 1.383,-2.34 1.168,-2.446 1.067,-2.55 0.847,-2.657 0.641,-2.66 0.422,-2.656 0.32,-2.66 0.106,-2.766 -0.106,-2.551 -0.211,-2.55 -0.426,-2.446 -0.531,-2.339 -0.746,-2.446 -0.852,-2.34 -0.957,-2.234 -1.062,-2.125 -1.274,-2.125 -1.382,-2.023 -1.598,-2.02 -1.594,-1.809 -1.808,-1.699 -1.805,-1.703 -2.024,-1.488 -2.124,-1.383 -59.864,95.699 v -84.531 z" /><path
         id="path4853"
         style="fill:#000000;fill-opacity:1;fill-rule:evenodd;stroke:none"
         d="m 210.105,680.683 0.106,2.34 0.105,2.231 0.321,2.339 0.425,2.235 0.426,2.125 0.637,2.234 0.742,2.02 0.852,2.125 0.851,2.023 0.957,1.91 1.168,1.914 1.172,1.809 1.274,1.809 1.277,1.699 1.488,1.597 1.489,1.594 1.597,1.488 1.594,1.489 1.699,1.277 1.809,1.277 1.808,1.168 1.914,1.168 2.02,0.957 1.914,0.957 2.125,0.746 2.129,0.743 2.125,0.64 2.234,0.532 2.231,0.316 2.234,0.32 2.34,0.215 h 4.57 l 2.34,-0.215 2.234,-0.32 2.231,-0.316 2.234,-0.532 2.125,-0.64 2.129,-0.743 2.02,-0.746 4.039,-1.914 1.914,-1.168 1.808,-1.168 1.809,-1.277 1.699,-1.277 1.598,-1.489 1.594,-1.488 1.488,-1.594 1.488,-1.597 1.278,-1.699 1.273,-1.809 1.172,-1.809 1.062,-1.914 1.063,-1.91 0.852,-2.023 0.851,-2.125 0.742,-2.02 0.641,-2.234 0.426,-2.125 0.422,-2.235 0.32,-2.339 0.105,-2.231 0.11,-2.34 -0.11,-2.34 -0.105,-2.339 -0.32,-2.235 -0.422,-2.23 -0.426,-2.235 -0.641,-2.125 -0.742,-2.129 -1.703,-4.039 -1.063,-2.019 -1.062,-1.809 -1.172,-1.914 -1.273,-1.699 -1.278,-1.809 -1.488,-1.593 -1.488,-1.598 -1.594,-1.488 -1.598,-1.383 -1.699,-1.379 -1.809,-1.277 -1.808,-1.172 -1.914,-1.063 -2.02,-1.062 -2.019,-0.852 -2.02,-0.847 -2.129,-0.747 -2.125,-0.531 -2.234,-0.531 -2.231,-0.426 -2.234,-0.32 -2.34,-0.106 -2.336,-0.105 -2.234,0.105 -2.34,0.106 -2.234,0.32 -2.231,0.426 -2.234,0.531 -2.125,0.531 -2.129,0.747 -2.125,0.847 -1.914,0.852 -2.02,1.062 -1.914,1.063 -1.808,1.172 -1.809,1.277 -1.699,1.379 -1.594,1.383 -1.597,1.488 -1.489,1.598 -1.488,1.593 -1.277,1.809 -1.274,1.699 -1.172,1.914 -1.168,1.809 -0.957,2.019 -1.703,4.039 -0.742,2.129 -0.637,2.125 -0.426,2.235 -0.425,2.23 -0.321,2.235 z" /><path
         id="path4855"
         style="fill:#2b2a29;fill-opacity:1;fill-rule:evenodd;stroke:none"
         d="m 1482.219,680.683 -0.211,-4.679 -0.32,-2.235 -0.426,-2.23 -0.426,-2.235 -0.637,-2.125 -0.742,-2.129 -0.746,-2.019 -1.914,-4.039 -1.168,-1.809 -1.172,-1.914 -1.273,-1.699 -1.278,-1.809 -1.488,-1.593 -1.488,-1.598 -1.598,-1.488 -1.594,-1.383 -1.699,-1.379 -1.809,-1.277 -1.808,-1.172 -1.914,-1.063 -2.02,-1.062 -1.914,-0.852 -2.125,-0.847 -2.129,-0.747 -2.125,-0.531 -2.129,-0.531 -2.23,-0.426 -2.34,-0.32 -2.234,-0.106 -2.336,-0.105 -4.68,0.211 -2.234,0.32 -2.231,0.426 -2.234,0.531 -2.125,0.531 -2.129,0.747 -2.02,0.847 -2.019,0.852 -2.02,1.062 -1.914,1.063 -1.808,1.172 -1.809,1.277 -1.699,1.379 -1.598,1.383 -1.594,1.488 -1.488,1.598 -1.488,1.593 -1.277,1.809 -1.274,1.699 -1.172,1.914 -1.062,1.809 -1.063,2.019 -1.703,4.039 -0.742,2.129 -0.531,2.125 -0.532,2.235 -0.425,2.23 -0.321,2.235 -0.211,4.679 0.106,2.34 0.105,2.231 0.321,2.339 0.425,2.235 0.532,2.125 0.531,2.234 0.742,2.02 0.852,2.125 0.851,2.023 1.063,1.91 1.062,1.914 1.172,1.809 1.274,1.809 1.277,1.699 1.488,1.597 1.488,1.594 1.594,1.488 1.598,1.489 1.699,1.277 1.809,1.277 1.808,1.168 1.914,1.168 4.039,1.914 2.02,0.746 2.129,0.743 2.125,0.64 2.234,0.532 2.231,0.316 2.234,0.32 2.34,0.215 h 4.676 l 2.234,-0.215 2.34,-0.32 2.23,-0.316 2.129,-0.532 2.125,-0.64 2.129,-0.743 2.125,-0.746 1.914,-0.957 2.02,-0.957 1.914,-1.168 1.808,-1.168 1.809,-1.277 1.699,-1.277 1.594,-1.489 1.598,-1.488 1.488,-1.594 1.488,-1.597 1.278,-1.699 1.273,-1.809 1.172,-1.809 1.168,-1.914 0.957,-1.91 0.957,-2.023 0.746,-2.125 0.742,-2.02 0.637,-2.234 0.426,-2.125 0.426,-2.235 0.32,-2.339 0.105,-2.231 z" /><path
         id="path4857"
         style="fill:#000000;fill-opacity:1;fill-rule:evenodd;stroke:none"
         d="m 1436.816,330.754 -108.668,-0.211 0.641,3.828 0.742,3.933 0.746,3.828 0.852,3.934 0.848,3.723 0.957,3.828 1.062,3.828 1.066,3.719 1.168,3.828 1.172,3.722 1.274,3.614 1.383,3.722 1.488,3.618 1.488,3.613 1.488,3.617 1.598,3.508 1.699,3.613 1.703,3.403 1.805,3.511 1.914,3.403 1.914,3.507 2.02,3.297 2.023,3.403 2.125,3.296 2.125,3.188 2.235,3.297 2.234,3.191 2.34,3.188 2.445,3.086 2.445,3.082 5.102,5.953 v 2.765 l -2.34,2.661 -2.125,2.761 -2.019,2.871 -1.809,2.977 -1.809,2.98 -1.593,3.083 -1.489,3.082 -1.277,3.191 -1.168,3.297 -0.957,3.297 -0.852,3.402 -0.742,3.402 -0.535,3.403 -0.422,3.402 -0.215,3.508 -0.105,3.508 v 40.832 l 0.105,3.933 0.321,3.828 0.426,3.829 0.636,3.722 0.852,3.719 1.062,3.617 1.168,3.508 1.383,3.508 1.488,3.297 1.704,3.297 1.808,3.191 2.02,3.082 2.125,2.977 2.234,2.871 2.445,2.765 2.446,2.657 2.656,2.554 2.766,2.336 2.871,2.235 2.976,2.125 3.086,2.023 3.188,1.805 3.296,1.703 3.403,1.488 3.402,1.383 3.617,1.168 3.614,1.062 3.617,0.852 3.828,0.637 3.719,0.535 3.933,0.316 3.938,0.106 3.824,-0.106 3.938,-0.316 3.828,-0.535 3.718,-0.637 3.618,-0.852 3.613,-1.062 3.617,-1.168 3.402,-1.383 3.403,-1.488 3.297,-1.703 3.187,-1.805 3.086,-2.023 2.977,-2.125 2.871,-2.235 2.761,-2.336 2.661,-2.554 2.445,-2.657 2.445,-2.765 2.235,-2.871 2.125,-2.977 2.019,-3.082 1.809,-3.191 1.703,-3.297 1.488,-3.297 1.379,-3.508 1.172,-3.508 1.062,-3.617 0.852,-3.719 0.637,-3.722 0.531,-3.829 0.215,-3.828 0.105,-3.933 v -43.489 l -0.105,-3.507 -0.215,-3.512 -0.426,-3.508 -0.531,-3.402 -0.637,-3.403 -1.914,-6.593 -1.168,-3.297 -1.277,-3.188 -1.488,-3.191 -1.594,-3.082 -1.703,-2.977 -1.914,-2.871 -2.02,-2.871 -2.129,-2.766 -2.336,-2.656 v -0.109 l 5.102,-5.953 2.445,-3.082 2.445,-3.086 2.34,-3.188 2.235,-3.191 2.23,-3.192 2.129,-3.293 2.125,-3.296 2.019,-3.297 2.024,-3.403 3.828,-6.804 1.805,-3.508 1.703,-3.512 1.699,-3.508 1.598,-3.613 1.488,-3.512 1.488,-3.613 1.489,-3.723 1.273,-3.613 1.383,-3.723 1.172,-3.722 1.168,-3.719 1.062,-3.723 1.067,-3.828 0.957,-3.828 0.847,-3.722 0.852,-3.934 0.746,-3.828 0.742,-3.828 0.641,-3.934 z" /><path
         id="path4859"
         style="fill:#000000;fill-opacity:1;fill-rule:evenodd;stroke:none"
         d="m 1442.242,319.804 h 32.641 V 173.175 l -0.106,-1.699 -0.215,-1.597 -0.421,-1.489 -0.536,-1.593 -0.742,-1.383 -0.746,-1.383 -0.957,-1.168 -1.062,-1.172 -1.168,-1.062 -1.278,-0.957 -1.273,-0.852 -1.492,-0.637 -1.489,-0.531 -1.593,-0.426 -1.594,-0.211 -1.703,-0.109 -1.594,0.109 -1.594,0.211 -1.597,0.426 -1.489,0.531 -1.488,0.637 -1.273,0.852 -1.278,0.957 -1.172,1.062 -1.062,1.172 -0.957,1.168 -0.742,1.383 -0.746,1.383 -0.532,1.593 -0.425,1.489 -0.211,1.597 -0.106,1.699 z" /><path
         id="path4861"
         style="fill:#000000;fill-opacity:1;fill-rule:evenodd;stroke:none"
         d="m 1398.754,319.804 h 32.641 V 205.82 l -0.106,-1.703 -0.32,-1.594 -0.317,-1.594 -0.535,-1.488 -0.742,-1.383 -0.852,-1.383 -0.851,-1.277 -1.063,-1.168 -1.168,-1.062 -1.277,-0.852 -1.383,-0.852 -1.383,-0.746 -1.488,-0.531 -1.594,-0.316 -1.593,-0.321 -1.703,-0.105 -1.594,0.105 -1.703,0.321 -1.489,0.316 -1.488,0.531 -1.488,0.746 -1.278,0.852 -1.273,0.852 -1.172,1.062 -1.062,1.168 -0.957,1.277 -0.743,1.383 -0.746,1.383 -0.531,1.488 -0.426,1.594 -0.211,1.594 -0.105,1.703 z" /><path
         id="path4863"
         style="fill:#fefefe;fill-opacity:1;fill-rule:evenodd;stroke:none"
         d="m 1480.305,456.754 -7.762,7.335 -0.637,0.852 -0.746,0.852 -0.531,0.957 -0.426,0.957 -0.422,0.957 -0.215,1.062 -0.211,1.063 v 1.172 l 0.106,81.554 v 0.532 l 0.211,1.062 0.215,0.531 0.531,0.957 0.637,0.742 0.746,0.641 0.957,0.531 0.531,0.211 0.531,0.11 0.532,0.105 h 1.062 l 0.531,-0.105 0.532,-0.11 0.425,-0.211 0.957,-0.531 0.852,-0.641 0.637,-0.742 0.425,-0.957 0.215,-0.531 0.211,-1.062 v -0.532 z" /><path
         id="path4865"
         style="fill:#fefefe;fill-opacity:1;fill-rule:evenodd;stroke:none"
         d="m 1393.328,456.754 v 96.761 l 0.11,0.532 v 0.531 l 0.21,0.531 0.106,0.531 0.531,0.957 0.641,0.742 0.847,0.641 0.852,0.531 0.531,0.211 0.532,0.11 0.531,0.105 h 1.066 l 0.531,-0.105 0.532,-0.11 0.531,-0.211 0.851,-0.531 0.848,-0.641 0.641,-0.742 0.531,-0.957 0.105,-0.531 0.215,-0.531 v -0.531 l 0.106,-0.532 v -81.554 l -0.106,-1.172 -0.109,-1.063 -0.316,-1.062 -0.321,-0.957 -1.062,-1.914 -0.641,-0.852 -0.742,-0.852 z" /><path
         id="path4867"
         style="fill:#000000;fill-opacity:1;fill-rule:evenodd;stroke:none"
         d="m 443.602,868.992 0.105,2.125 0.109,2.125 0.211,2.129 0.321,2.125 0.316,2.129 0.531,2.125 0.535,2.019 0.637,2.02 0.742,2.023 0.746,1.914 0.852,2.02 0.957,1.914 1.063,1.804 1.062,1.915 1.277,1.703 1.168,1.808 10.739,14.141 2.66,3.723 2.656,3.828 2.555,3.933 2.34,3.934 2.23,4.039 2.234,4.148 2.02,4.145 1.914,4.254 70.176,160.98 0.64,1.492 0.743,1.379 0.746,1.489 0.847,1.382 0.957,1.383 0.852,1.278 0.957,1.277 1.062,1.273 1.063,1.172 1.066,1.168 1.168,1.063 1.172,1.062 1.168,1.067 1.278,0.957 1.273,0.957 1.277,0.847 2.766,1.703 1.379,0.743 1.383,0.64 1.488,0.742 1.488,0.532 1.492,0.531 1.489,0.535 1.488,0.422 3.188,0.641 1.597,0.316 1.594,0.215 1.594,0.105 1.703,0.106 h 1.594 l 221.484,0.109 v -44.234 H 605.008 l -1.274,-0.106 -1.277,-0.109 -1.277,-0.211 -1.274,-0.32 -1.172,-0.422 -1.168,-0.535 -1.171,-0.532 -1.063,-0.742 -1.062,-0.64 -0.958,-0.848 -0.957,-0.852 -0.851,-0.957 -0.742,-1.062 -0.746,-1.063 -0.637,-1.066 -0.531,-1.168 -61.036,-139.93 H 815.754 V 709.496 l -327.707,-0.106 -2.34,0.106 -2.23,0.109 -2.235,0.317 -2.234,0.425 -2.125,0.426 -2.125,0.637 -2.024,0.746 -2.019,0.742 -1.914,0.852 -1.914,1.062 -1.914,1.067 -1.805,1.062 -1.703,1.277 -1.699,1.379 -1.598,1.383 -1.488,1.383 -1.489,1.594 -1.382,1.597 -1.383,1.7 -1.168,1.703 -1.168,1.804 -1.067,1.914 -1.062,1.914 -0.852,1.915 -0.742,2.023 -0.746,2.02 -0.637,2.125 -0.425,2.128 -0.426,2.231 -0.211,2.234 -0.215,2.231 -0.105,2.234 0.105,115.152 z" /><path
         id="path4869"
         style="fill:#000000;fill-opacity:1;fill-rule:evenodd;stroke:none"
         d="M 488.047,691.742 H 594.27 l 0.105,-97.399 v -1.382 l -0.105,-1.383 -0.106,-1.274 -0.32,-1.277 -0.211,-1.383 -0.426,-1.168 -0.426,-1.277 -0.426,-1.168 -0.531,-1.277 -0.636,-1.063 -0.641,-1.172 -0.637,-1.062 -0.746,-1.063 -0.848,-0.957 -1.703,-1.914 -0.957,-0.851 -0.957,-0.848 -0.957,-0.852 -1.062,-0.746 -1.063,-0.637 -1.172,-0.636 -1.168,-0.641 -1.168,-0.531 -1.171,-0.426 -1.274,-0.426 -1.277,-0.422 -1.278,-0.214 -1.273,-0.321 -1.383,-0.105 -1.277,-0.106 h -55.93 l -1.383,0.106 -1.273,0.105 -1.278,0.321 -1.382,0.214 -1.168,0.422 -1.278,0.426 -1.168,0.426 -1.277,0.531 -1.062,0.641 -1.168,0.636 -1.067,0.637 -1.062,0.746 -0.957,0.852 -0.957,0.848 -0.957,0.851 -0.852,0.957 -0.848,0.957 -0.851,0.957 -0.746,1.063 -0.637,1.062 -0.637,1.172 -0.64,1.063 -0.532,1.277 -0.425,1.168 -0.422,1.277 -0.426,1.168 -0.215,1.383 -0.316,1.277 -0.11,1.274 -0.105,1.383 z" /><path
         id="path4871"
         style="fill:#fefefe;fill-opacity:1;fill-rule:evenodd;stroke:none"
         d="m 595.547,843.578 -0.109,-2.656 -0.211,-2.766 -0.321,-2.66 -0.426,-2.551 -0.636,-2.66 -0.637,-2.446 -0.852,-2.445 -0.957,-2.445 -1.062,-2.34 -1.172,-2.336 -1.273,-2.234 -1.383,-2.125 -1.488,-2.129 -1.594,-2.02 -1.703,-1.914 -1.7,-1.808 -1.914,-1.805 -1.914,-1.598 -2.023,-1.593 -2.02,-1.489 -2.23,-1.383 -2.129,-1.277 -2.34,-1.168 -2.336,-1.062 -2.449,-0.957 -2.445,-0.852 -2.551,-0.746 -2.551,-0.531 -2.66,-0.532 -2.656,-0.316 -2.66,-0.215 h -5.422 l -2.766,0.215 -2.656,0.316 -2.551,0.532 -2.66,0.531 -2.445,0.746 -2.551,0.852 -2.34,0.957 -2.34,1.062 -2.34,1.168 -2.23,1.277 -2.129,1.383 -2.125,1.489 -2.02,1.593 -1.914,1.598 -1.808,1.805 -1.809,1.808 -1.594,1.914 -1.593,2.02 -1.489,2.129 -1.383,2.125 -1.277,2.234 -1.168,2.336 -1.066,2.34 -0.957,2.445 -0.848,2.445 -0.746,2.446 -0.531,2.66 -0.532,2.551 -0.32,2.66 -0.211,2.766 -0.105,2.656 0.105,2.765 0.211,2.657 0.32,2.66 0.532,2.656 0.531,2.555 0.746,2.551 0.848,2.445 0.957,2.445 1.066,2.34 1.168,2.34 1.277,2.23 1.383,2.129 1.489,2.02 1.593,2.019 1.594,1.914 1.809,1.914 1.808,1.7 1.914,1.703 2.02,1.593 2.125,1.489 2.129,1.383 2.23,1.277 2.34,1.168 2.34,1.062 2.34,0.957 2.551,0.852 2.445,0.641 2.66,0.636 2.551,0.426 2.656,0.426 2.766,0.105 2.66,0.106 2.762,-0.106 2.66,-0.105 2.656,-0.426 2.66,-0.426 2.551,-0.636 2.551,-0.641 2.445,-0.852 2.449,-0.957 2.336,-1.062 2.34,-1.168 2.129,-1.277 2.23,-1.383 2.02,-1.489 2.023,-1.593 1.914,-1.703 1.914,-1.7 1.7,-1.914 1.703,-1.914 1.594,-2.019 1.488,-2.02 1.383,-2.129 1.273,-2.23 1.172,-2.34 1.062,-2.34 0.957,-2.445 0.852,-2.445 0.637,-2.551 0.636,-2.555 0.426,-2.656 0.321,-2.66 0.211,-2.657 z" /><path
         id="path4873"
         style="fill:#000000;fill-opacity:1;fill-rule:evenodd;stroke:none"
         d="m 886.566,1134.601 221.375,-0.109 h 1.704 l 1.593,-0.106 1.598,-0.105 1.594,-0.215 1.593,-0.316 1.598,-0.321 1.594,-0.32 1.488,-0.422 1.594,-0.535 1.488,-0.531 1.488,-0.637 1.383,-0.637 1.489,-0.64 1.382,-0.743 1.383,-0.851 1.278,-0.852 1.382,-0.847 1.274,-0.957 1.172,-0.957 1.273,-1.067 1.172,-1.062 1.062,-1.063 1.063,-1.168 1.062,-1.172 1.063,-1.273 1.914,-2.555 1.703,-2.765 0.742,-1.489 0.746,-1.379 0.746,-1.492 70.387,-160.875 1.914,-4.25 2.02,-4.148 2.234,-4.149 2.235,-4.039 2.339,-3.933 2.551,-3.934 2.656,-3.828 2.661,-3.723 10.418,-14.246 1.277,-1.808 1.168,-1.703 1.066,-1.915 1.063,-1.804 0.957,-1.914 0.851,-2.02 0.848,-1.914 0.641,-2.023 0.636,-2.02 0.532,-2.019 0.531,-2.125 0.32,-2.129 0.321,-2.125 0.21,-2.129 0.211,-2.125 v -2.125 l -0.105,-115.262 -0.106,-2.234 -0.21,-2.231 -0.215,-2.234 -0.426,-2.125 -0.426,-2.234 -0.637,-2.02 -0.746,-2.125 -0.742,-1.914 -0.851,-2.024 -1.063,-1.914 -1.062,-1.804 -1.063,-1.809 -1.277,-1.703 -1.278,-1.699 -1.382,-1.594 -1.489,-1.598 -1.593,-1.382 -1.594,-1.379 -1.598,-1.383 -1.805,-1.172 -1.808,-1.168 -1.809,-1.062 -3.828,-1.915 -2.019,-0.746 -2.125,-0.742 -2.024,-0.531 -2.125,-0.535 -2.234,-0.422 -2.231,-0.215 -2.234,-0.211 h -2.231 l -327.707,-0.109 v 230.308 h 287.832 l -60.925,139.93 -0.637,1.168 -0.641,1.066 -0.636,1.063 -0.852,1.062 -0.852,0.957 -0.957,0.852 -0.957,0.848 -1.062,0.64 -1.063,0.742 -1.168,0.532 -1.171,0.535 -1.168,0.422 -1.278,0.32 -1.273,0.211 -1.278,0.109 -1.277,0.106 H 886.566 Z" /><path
         id="path4875"
         style="fill:#000000;fill-opacity:1;fill-rule:evenodd;stroke:none"
         d="m 1107.941,691.742 h 106.332 v -98.781 l -0.109,-1.383 -0.211,-1.274 -0.215,-1.277 -0.316,-1.383 -0.32,-1.168 -0.426,-1.277 -0.531,-1.168 -0.532,-1.277 -0.531,-1.063 -0.637,-1.172 -0.746,-1.062 -0.742,-1.063 -0.746,-0.957 -0.852,-0.957 -0.957,-0.957 -0.847,-0.851 -0.957,-0.848 -1.067,-0.852 -1.062,-0.746 -2.125,-1.273 -1.172,-0.641 -1.168,-0.531 -1.277,-0.426 -1.168,-0.426 -1.278,-0.422 -1.273,-0.214 -1.383,-0.321 -1.277,-0.105 -1.383,-0.106 h -55.82 l -2.766,0.211 -1.277,0.321 -1.274,0.214 -1.277,0.422 -1.278,0.426 -1.168,0.426 -1.167,0.531 -1.172,0.641 -1.063,0.636 -1.172,0.637 -0.957,0.746 -1.062,0.852 -0.957,0.848 -0.957,0.851 -0.848,0.957 -0.852,0.957 -0.746,0.957 -0.742,1.063 -0.746,1.062 -0.637,1.172 -0.531,1.063 -0.531,1.277 -0.531,1.168 -0.426,1.277 -0.32,1.168 -0.321,1.383 -0.211,1.277 -0.215,1.274 -0.105,1.383 v 1.382 z" /><path
         id="path4877"
         style="fill:#fefefe;fill-opacity:1;fill-rule:evenodd;stroke:none"
         d="m 1214.273,843.578 -0.109,-2.656 -0.211,-2.766 -0.32,-2.66 -0.426,-2.551 -0.637,-2.66 -0.742,-2.446 -0.746,-2.445 -0.957,-2.445 -1.063,-2.34 -1.171,-2.336 -1.379,-2.234 -1.383,-2.125 -1.383,-2.129 -1.594,-2.02 -1.703,-1.914 -3.613,-3.613 -1.914,-1.598 -2.024,-1.593 -2.125,-1.489 -2.125,-1.383 -2.234,-1.277 -2.234,-1.168 -2.34,-1.062 -2.445,-0.957 -2.446,-0.852 -2.551,-0.746 -2.55,-0.531 -2.66,-0.532 -2.657,-0.316 -2.66,-0.215 h -5.527 l -2.66,0.215 -2.657,0.316 -2.66,0.532 -2.551,0.531 -2.55,0.746 -2.446,0.852 -2.34,0.957 -2.445,1.062 -2.234,1.168 -2.231,1.277 -2.129,1.383 -2.125,1.489 -2.019,1.593 -1.914,1.598 -1.809,1.805 -1.808,1.808 -1.7,1.914 -1.492,2.02 -1.488,2.129 -1.379,2.125 -1.277,2.234 -1.172,2.336 -1.063,2.34 -0.957,2.445 -0.847,2.445 -0.746,2.446 -0.637,2.66 -0.426,2.551 -0.32,2.66 -0.211,2.766 -0.11,2.656 0.11,2.765 0.211,2.657 0.32,2.66 0.426,2.656 0.637,2.555 0.746,2.551 0.847,2.445 0.957,2.445 1.063,2.34 1.172,2.34 1.277,2.23 1.379,2.129 1.488,2.02 1.492,2.019 1.7,1.914 1.808,1.914 1.809,1.7 1.914,1.703 2.019,1.593 2.125,1.489 2.129,1.383 2.231,1.277 2.234,1.168 2.445,1.062 2.34,0.957 2.446,0.852 2.55,0.641 2.551,0.636 2.66,0.426 2.657,0.426 2.66,0.105 2.765,0.106 2.762,-0.106 2.66,-0.105 2.657,-0.426 2.66,-0.426 2.55,-0.636 2.551,-0.641 2.446,-0.852 2.445,-0.957 2.34,-1.062 2.234,-1.168 2.234,-1.277 2.125,-1.383 2.125,-1.489 2.024,-1.593 1.914,-1.703 1.805,-1.7 1.808,-1.914 1.703,-1.914 1.594,-2.019 1.383,-2.02 1.383,-2.129 1.379,-2.23 1.171,-2.34 1.063,-2.34 1.703,-4.89 0.742,-2.551 0.637,-2.555 0.426,-2.656 0.32,-2.66 0.211,-2.657 z" /></g></g></svg>