<?xml version="1.0" encoding="UTF-8" standalone="no"?>
<!-- Created with Inkscape (http://www.inkscape.org/) -->

<svg
   version="1.1"
   id="svg1"
   width="2269.3333"
   height="1702.6667"
   viewBox="0 0 2269.3333 1702.6667"
   sodipodi:docname="1022-17.eps"
   xmlns:inkscape="http://www.inkscape.org/namespaces/inkscape"
   xmlns:sodipodi="http://sodipodi.sourceforge.net/DTD/sodipodi-0.dtd"
   xmlns="http://www.w3.org/2000/svg"
   xmlns:svg="http://www.w3.org/2000/svg">
  <defs
     id="defs1" />
  <sodipodi:namedview
     id="namedview1"
     pagecolor="#ffffff"
     bordercolor="#000000"
     borderopacity="0.25"
     inkscape:showpageshadow="2"
     inkscape:pageopacity="0.0"
     inkscape:pagecheckerboard="0"
     inkscape:deskcolor="#d1d1d1">
    <inkscape:page
       x="0"
       y="0"
       inkscape:label="1"
       id="page1"
       width="2269.3333"
       height="1702.6667"
       margin="0"
       bleed="0" />
  </sodipodi:namedview>
  <g
     id="g1"
     inkscape:groupmode="layer"
     inkscape:label="1">
    <path
       id="path1"
       d="M 1143.85,10 C 517.641,10 10,517.641 10,1143.85 V 11632 c 0,626.2 507.641,1133.8 1133.85,1133.8 H 15883.9 c 626.2,0 1133.9,-507.6 1133.9,-1133.8 V 1143.85 C 17017.8,517.641 16510.1,10 15883.9,10 H 1143.85"
       style="fill:#ffffff;fill-opacity:1;fill-rule:nonzero;stroke:#000000;stroke-width:1;stroke-linecap:butt;stroke-linejoin:miter;stroke-miterlimit:4;stroke-dasharray:none;stroke-opacity:1"
       transform="matrix(0.13333333,0,0,-0.13333333,0,1702.6667)" />
    <path
       id="path2"
       d="m 1143.85,293.461 c -469.659,0 -850.389,380.73 -850.389,850.389 V 11632 c 0,469.6 380.73,850.4 850.389,850.4 H 15883.9 c 469.7,0 850.4,-380.8 850.4,-850.4 V 1143.85 c 0,-469.659 -380.7,-850.389 -850.4,-850.389 H 1143.85"
       style="fill:#000000;fill-opacity:1;fill-rule:nonzero;stroke:none"
       transform="matrix(0.13333333,0,0,-0.13333333,0,1702.6667)" />
    <path
       id="path3"
       d="m 1143.85,718.66 c -234.83,0 -425.19,190.36 -425.19,425.19 V 11632 c 0,234.8 190.36,425.2 425.19,425.2 H 15883.9 c 234.8,0 425.2,-190.4 425.2,-425.2 V 1143.85 c 0,-234.83 -190.4,-425.19 -425.2,-425.19 H 1143.85"
       style="fill:#ffffff;fill-opacity:1;fill-rule:nonzero;stroke:none"
       transform="matrix(0.13333333,0,0,-0.13333333,0,1702.6667)" />
    <path
       id="path4"
       d="m 4814.81,6756.41 h -0.12 L 3742.64,7930.29 3297.33,6491.43 c -22.96,-74.19 -91.57,-124.78 -169.24,-124.78 -97.84,0 -177.16,79.32 -177.16,177.17 0,17.78 2.67,35.46 7.94,52.45 l 529.79,1711.73 1.36,4.39 25.62,82.79 71.29,230.28 1383.36,-1514.78 h 2507.17 c 341.67,1103.66 711.6,2297.26 1052.56,3398.62 h -0.04 0.04 -0.03 c 91.86,296.7 366.3,499.1 676.96,499.1 h 582.52 V 10654 h -582.52 c -155.32,0 -292.53,-101.1 -338.47,-249.5 l -142,-459.13 -111.49,-354.33 h 1.79 L 9827.62,8247.66 H 11249 c 254.2,687.18 518.3,1367.13 775.2,2052.04 l -750,179.6 c -39.6,9.5 -67.4,44.8 -67.4,85.4 0,48.6 39.3,87.9 87.8,87.9 l 1506.6,1.4 v -354.3 h -398.6 l -132.8,-354.33 513.9,-1150.22 c 177.3,57.79 362.6,87.24 549.1,87.24 978.4,0 1771.6,-793.2 1771.6,-1771.65 0,-978.45 -793.2,-1771.64 -1771.6,-1771.64 -841.9,0 -1567.5,592.4 -1735.9,1417.22 l -510.9,0.09 z m 3032.94,354.33 h 2528.05 l -1880.09,2089.62 -0.99,-3.23 -646.97,-2086.39"
       style="fill:#000000;fill-opacity:1;fill-rule:nonzero;stroke:none"
       transform="matrix(0.13333333,0,0,-0.13333333,0,1702.6667)" />
    <path
       id="path5"
       d="m 3128.09,7748.53 c 61.3,0 122.5,-4.64 183.1,-13.88 L 2958.87,6596.27 c -5.27,-16.99 -7.94,-34.67 -7.94,-52.45 0,-97.85 79.32,-177.17 177.16,-177.17 77.66,0 146.27,50.58 169.24,124.76 l 353.01,1138.04 c 417.18,-200.69 682.47,-622.68 682.47,-1085.63 0,-665.35 -539.37,-1204.72 -1204.72,-1204.72 -665.35,0 -1204.72,539.37 -1204.72,1204.72 0,665.34 539.37,1204.71 1204.72,1204.71"
       style="fill:#000000;fill-opacity:1;fill-rule:nonzero;stroke:none"
       transform="matrix(0.13333333,0,0,-0.13333333,0,1702.6667)" />
    <path
       id="path6"
       d="m 3128.09,7394.21 c 25.63,0 51.25,-1.15 76.78,-3.44 l -246,-794.5 c -5.27,-16.99 -7.94,-34.67 -7.94,-52.45 0,-97.85 79.32,-177.17 177.16,-177.17 77.66,0 146.27,50.58 169.24,124.76 l 246.6,794.19 c 268.37,-150.45 434.55,-434.12 434.55,-741.78 0,-469.66 -380.73,-850.39 -850.39,-850.39 -469.66,0 -850.39,380.73 -850.39,850.39 0,469.65 380.73,850.39 850.39,850.39"
       style="fill:#ffffff;fill-opacity:1;fill-rule:nonzero;stroke:none"
       transform="matrix(0.13333333,0,0,-0.13333333,0,1702.6667)" />
    <path
       id="path7"
       d="M 8140.56,9732.77 7372.61,7252.47 H 5035.48 l -1612.7,1766.42 c 524.04,782.4 2514.05,768.9 4717.78,713.88"
       style="fill:#000000;fill-opacity:1;fill-rule:nonzero;stroke:none"
       transform="matrix(0.13333333,0,0,-0.13333333,0,1702.6667)" />
    <path
       id="path8"
       d="m 10147,7893.33 h 970.9 l -282.5,-763.72 z"
       style="fill:#ffffff;fill-opacity:1;fill-rule:nonzero;stroke:none"
       transform="matrix(0.13333333,0,0,-0.13333333,0,1702.6667)" />
    <path
       id="path9"
       d="m 11206.8,7110.74 885.8,2362.35 366.8,-820.92 c -555.2,-314.55 -898.3,-903.34 -898.3,-1541.43 h -354.3"
       style="fill:#ffffff;fill-opacity:1;fill-rule:nonzero;stroke:none"
       transform="matrix(0.13333333,0,0,-0.13333333,0,1702.6667)" />
    <path
       id="path10"
       d="m 11915.4,7110.74 v 0 c 0,498.41 261.8,960.19 689.5,1216.15 l 543.2,-1216.15 h -1232.7"
       style="fill:#ffffff;fill-opacity:1;fill-rule:nonzero;stroke:none"
       transform="matrix(0.13333333,0,0,-0.13333333,0,1702.6667)" />
    <path
       id="path11"
       d="m 11960.4,6756.41 1460.2,-1.41 c 98.7,0 178.6,79.95 178.6,178.58 0,24.98 -5.2,49.69 -15.4,72.52 l -654.9,1463.2 c 131.1,38.97 267.1,58.76 403.9,58.76 782.7,0 1417.3,-634.56 1417.3,-1417.32 0,-782.76 -634.6,-1417.31 -1417.3,-1417.31 -646.3,0 -1210.7,437.18 -1372.3,1062.92 l -0.1,0.06"
       style="fill:#ffffff;fill-opacity:1;fill-rule:nonzero;stroke:none"
       transform="matrix(0.13333333,0,0,-0.13333333,0,1702.6667)" />
    <path
       id="path12"
       d="M 6302.87,1909.2 V 3333.6 H 6132.8 v 276.38 h 170.07 v 255.11 c 0,234.83 190.37,425.2 425.2,425.2 h 255.11 v -318.9 h -233.85 c -58.71,0 -106.3,-47.59 -106.3,-106.3 v -255.11 h 340.15 V 3333.6 H 6643.03 V 1909.2 Z m 1062.99,0 v 1700.78 h 340.15 v -191.97 c 108.98,134.86 273.08,213.23 446.46,213.23 131.59,0 259.18,-45.22 361.41,-128.07 l -241.6,-298.11 c -62.28,55.41 -142.75,86.02 -226.11,86.02 -187.86,0 -340.16,-152.29 -340.16,-340.15 V 1909.2 Z m 2721.24,722.83 H 9024.12 v -42.52 c 0,-147.78 89.97,-280.68 227.19,-335.56 v 0 c 56.21,-22.49 116.2,-34.04 176.74,-34.04 138.82,0 270.72,60.61 361.13,165.95 l 258.12,-221.54 c -155.04,-180.63 -381.21,-284.57 -619.25,-284.57 -103.82,0 -206.68,19.81 -303.08,58.37 v 0 c -266.35,106.54 -441.01,364.52 -441.01,651.39 v 340.16 c 0,387.46 314.1,701.57 701.57,701.57 387.47,0 701.57,-314.11 701.57,-701.57 z m -1062.98,297.64 h 722.83 c 0,199.6 -161.81,361.41 -361.42,361.41 -199.6,0 -361.41,-161.81 -361.41,-361.41 z M 10554.8,1909.2 V 3609.98 H 10895 V 1909.2 Z m 0,2040.93 v 340.16 h 340.2 v -340.16 h -340.2"
       style="fill:#000000;fill-opacity:1;fill-rule:nonzero;stroke:none"
       transform="matrix(0.13333333,0,0,-0.13333333,0,1702.6667)" />
  </g>
</svg>
