<?xml version="1.0" encoding="UTF-8" standalone="no"?>
<svg
   id="svg1"
   width="600"
   height="330"
   version="1.1"
   viewBox="0 0 600 330"
   xml:space="preserve"
   xmlns="http://www.w3.org/2000/svg"
   xmlns:svg="http://www.w3.org/2000/svg"><defs
     id="defs1" /><g
     id="sign"><rect
       id="border"
       x="0.3"
       y="0.3"
       width="599.4"
       height="329.4"
       rx="40"
       ry="40"
       fill="#ffffff"
       stroke="#000000"
       stroke-width="0.6" /><rect
       id="frame"
       x="17.5"
       y="17.5"
       width="565"
       height="295"
       rx="22.5"
       ry="22.5"
       fill="none"
       stroke="#000000"
       stroke-width="15" /><path
       id="text"
       d="m 122.254,210.563 c 4.9705,0 9,-4.0297 9,-9 v -30.374 c 0,-4.9705 -4.0294,-9 -9,-9 -4.1299,0 -7.7296,2.8108 -8.7311,6.8172 l -16.018,-0.0674 v -67.498 h 51.749 v 16.875 h -36 v 33.911 c 3.9623,-3.7175 9.1914,-5.7868 14.625,-5.7868 11.805,0 21.375,9.5699 21.375,21.374 v 33.749 c 0,14.911 -12.088,26.999 -27,26.999 -14.911,0 -26.999,-12.088 -26.999,-26.999 v -5.6245 h 17.999 v 5.6245 c 0,4.9705 4.0294,9 9,9 z m 120.37,-92.248 H 221.249 V 101.44 h 60.749 v 16.875 h -21.374 v 109.12 h -18 z m 75.373,100.12 v 9 h 18 v -64.123 c 0,-14.911 -12.088,-26.999 -27,-26.999 -14.911,0 -26.999,12.088 -26.999,26.999 h 18 c 0,-4.9701 4.0294,-9 8.9995,-9 4.9706,0 9,4.0297 9,9 v 10.125 h -13.499 c -12.426,0 -22.5,10.073 -22.5,22.499 v 13.499 c 0,10.562 8.5625,19.124 19.124,19.125 7.0632,0 13.551,-3.8928 16.875,-10.125 z m 0,-16.875 v -3e-4 c 0,4.9704 -4.0293,9 -9,9 -4.9701,0 -8.9995,-4.0296 -8.9995,-9 v -4.4999 c 0,-4.9701 4.0293,-9 8.9995,-9 h 9 z m 49.499,-20.249 -21.374,-43.874 h 19.124 l 11.25,25.874 11.25,-25.874 h 19.124 l -21.374,43.874 22.5,46.124 h -19.124 l -12.375,-28.124 -12.375,28.124 h -19.123 z m 51.748,-43.874 h 18.002 v 89.997 h -18.002 z m 0,-35.999 h 18.002 v 18 h -18.002 z m 68.625,100.12 c 0,-4.0053 -2.36,-7.6342 -6.0218,-9.2566 l -14.584,-5.3356 c -9.359,-4.1464 -15.395,-13.42 -15.395,-23.657 0,-14.29 11.585,-25.874 25.876,-25.874 14.291,0 25.876,11.584 25.876,25.874 h -16.877 c 0,-4.9701 -4.0286,-9 -8.9992,-9 -4.9706,0 -8.9992,4.0297 -8.9992,9 0,3.5605 2.099,6.7862 5.3551,8.2283 l 14.58,5.3356 c 9.7682,4.3267 16.065,14.004 16.065,24.685 0,14.911 -12.089,26.999 -27.001,26.999 -14.912,0 -27.001,-12.088 -27.001,-26.999 h 16.877 c 0,5.5917 4.5331,10.125 10.125,10.125 5.5914,0 10.125,-4.5331 10.125,-10.125" /></g></svg>
