<?xml version="1.0" encoding="UTF-8" standalone="no"?>
<svg
   viewBox="0 0 600 330"
   height="330"
   width="600"
   xml:space="preserve"
   id="svg42870"
   version="1.1"
   xmlns="http://www.w3.org/2000/svg"
   xmlns:svg="http://www.w3.org/2000/svg"
   xmlns:rdf="http://www.w3.org/1999/02/22-rdf-syntax-ns#"
   xmlns:cc="http://creativecommons.org/ns#"
   xmlns:dc="http://purl.org/dc/elements/1.1/"><metadata
     id="metadata42876"><rdf:RDF><cc:Work
         rdf:about=""><dc:format>image/svg+xml</dc:format><dc:type
           rdf:resource="http://purl.org/dc/dcmitype/StillImage" /></cc:Work></rdf:RDF></metadata><defs
     id="defs42874"><clipPath
       id="clipPath42892"
       clipPathUnits="userSpaceOnUse"><path
         id="path42890"
         d="M 0,0 H 450 V 248 H 0 Z" /></clipPath></defs><g
     transform="matrix(1.3333333,0,0,-1.3333333,0,330)"
     id="g42878"><g
       id="g42880" /><g
       id="g42882"><g
         transform="translate(0,-0.5)"
         id="g42884"><g
           id="g42886"><g
             clip-path="url(#clipPath42892)"
             id="g42888"><g
               id="g42894"><path
                 id="path42896"
                 style="fill:#ffffff;fill-opacity:1;fill-rule:nonzero;stroke:none;opacity:1"
                 d="M 29.996,247.773 C 13.578,247.773 0.227,234.41 0.227,217.992 V 30.496 C 0.227,14.078 13.578,0.727 29.996,0.727 h 390.008 c 16.418,0 29.769,13.351 29.769,29.769 v 187.496 c 0,16.418 -13.351,29.781 -29.769,29.781" /><path
                 id="path42898"
                 style="fill:#000000;fill-opacity:1;fill-rule:nonzero;stroke:none"
                 d="M 29.996,0.953 C 13.699,0.953 0.453,14.199 0.453,30.496 v 187.496 c 0,16.297 13.246,29.555 29.543,29.555 h 390.008 c 16.297,0 29.543,-13.258 29.543,-29.555 V 30.496 c 0,-16.297 -13.246,-29.543 -29.543,-29.543 z M 420.004,248 H 29.996 C 13.426,248 0,234.566 0,217.992 V 30.496 C 0,13.934 13.426,0.5 29.996,0.5 H 420.004 C 436.566,0.5 450,13.934 450,30.496 V 217.992 C 450,234.566 436.566,248 420.004,248" /></g></g></g></g><path
         id="path42900"
         style="fill:#000000;fill-opacity:1;fill-rule:nonzero;stroke:none"
         d="m 29.996,18.746 h 390.008 c 6.215,0 11.25,5.035 11.25,11.25 v 187.496 c 0,6.215 -5.035,11.25 -11.25,11.25 H 29.996 c -6.215,0 -11.25,-5.035 -11.25,-11.25 V 29.996 c 0,-6.215 5.035,-11.25 11.25,-11.25 z m 0,-11.25 c -12.43,0 -22.5,10.07 -22.5,22.5 v 187.496 c 0,12.43 10.07,22.5 22.5,22.5 h 390.008 c 12.43,0 22.5,-10.07 22.5,-22.5 V 29.996 c 0,-12.43 -10.07,-22.5 -22.5,-22.5" /></g></g><g
     id="g12678"
     transform="matrix(1.0788694,0,0,1.0788694,-228.54636,-476.04101)"><g
       id="g3966"
       transform="matrix(14.566642,0,0,-14.566642,340.82533,587.11587)"><path
         d="M 0,0 V 0 0 0 C 0,0.316 0.103,0.624 0.293,0.878 L 0.586,1.267 C 0.791,1.54 0.963,1.836 1.099,2.148 l 1.926,4.43 C 3.218,7.023 3.657,7.31 4.142,7.31 h 12.185 c 0.485,0 0.924,-0.287 1.117,-0.732 L 19.37,2.148 C 19.506,1.836 19.678,1.54 19.883,1.267 L 20.176,0.878 C 20.366,0.624 20.469,0.316 20.469,0 v -3.166 c 0,-0.673 -0.545,-1.218 -1.218,-1.218 H 1.218 C 0.545,-4.384 0,-3.839 0,-3.166 Z"
         style="fill:#000000;fill-opacity:1;fill-rule:nonzero;stroke:none"
         id="path3968" /></g><g
       id="g3970"
       transform="matrix(14.566642,0,0,-14.566642,358.57471,658.03649)"><path
         d="M 0,0 H 2.924 L 2.923,-2.681 c 0,-0.404 -0.327,-0.73 -0.73,-0.73 H 0.729 c -0.403,0 -0.73,0.326 -0.73,0.73 z"
         style="fill:#000000;fill-opacity:1;fill-rule:nonzero;stroke:none"
         id="path3972" /></g><g
       id="g3974"
       transform="matrix(14.566642,0,0,-14.566642,578.64317,658.03649)"><path
         d="m 0,0 h 2.924 l 10e-4,-2.681 c 0,-0.404 -0.327,-0.73 -0.73,-0.73 H 0.731 c -0.403,0 -0.73,0.326 -0.73,0.73 z"
         style="fill:#000000;fill-opacity:1;fill-rule:nonzero;stroke:none"
         id="path3976" /></g><g
       id="g3978"
       transform="matrix(14.566642,0,0,-14.566642,401.20399,597.75826)"><path
         d="m 0,0 c 0,-0.808 -0.655,-1.464 -1.464,-1.464 -0.808,0 -1.463,0.656 -1.463,1.464 0,0.808 0.655,1.464 1.463,1.464 C -0.655,1.464 0,0.808 0,0"
         style="fill:#ffffff;fill-opacity:1;fill-rule:nonzero;stroke:none"
         id="path3980" /></g><g
       id="g3982"
       transform="matrix(14.566642,0,0,-14.566642,621.24623,597.75826)"><path
         d="m 0,0 c 0,-0.808 -0.655,-1.464 -1.464,-1.464 -0.808,0 -1.463,0.656 -1.463,1.464 0,0.808 0.655,1.464 1.463,1.464 C -0.655,1.464 0,0.808 0,0"
         style="fill:#ffffff;fill-opacity:1;fill-rule:nonzero;stroke:none"
         id="path3984" /></g><g
       id="g3986"
       transform="matrix(14.566642,0,0,-14.566642,374.54703,558.71966)"><path
         d="m 0,0 1.676,3.85 c 0.077,0.178 0.253,0.293 0.447,0.293 h 11.593 c 0.194,0 0.369,-0.115 0.447,-0.293 L 15.839,0 h -1.984 v 1.322 l -0.24,0.002 c -0.336,-0.43 -0.851,-0.681 -1.397,-0.681 -0.546,0 -1.061,0.251 -1.398,0.681 L 10.58,1.322 V 0 H 9.557 V 1.322 L 9.317,1.324 C 8.981,0.894 8.465,0.643 7.919,0.643 7.374,0.643 6.858,0.894 6.522,1.324 L 6.282,1.322 V 0 H 5.258 V 1.322 L 5.018,1.324 C 4.682,0.894 4.167,0.643 3.621,0.643 3.075,0.643 2.56,0.894 2.224,1.324 L 1.983,1.322 V 0 Z"
         style="fill:#ffffff;fill-opacity:1;fill-rule:nonzero;stroke:none"
         id="path3988" /></g><g
       id="g3990"
       transform="matrix(14.566642,0,0,-14.566642,447.1691,523.61551)"><path
         d="m 0,0 c 0,-0.754 -0.611,-1.365 -1.365,-1.365 -0.753,0 -1.364,0.611 -1.364,1.365 0,0.754 0.611,1.365 1.364,1.365 C -0.611,1.365 0,0.754 0,0"
         style="fill:#000000;fill-opacity:1;fill-rule:nonzero;stroke:none"
         id="path3992" /></g><g
       id="g3994"
       transform="matrix(14.566642,0,0,-14.566642,509.78378,523.61551)"><path
         d="m 0,0 c 0,-0.754 -0.611,-1.365 -1.365,-1.365 -0.753,0 -1.364,0.611 -1.364,1.365 0,0.754 0.611,1.365 1.364,1.365 C -0.611,1.365 0,0.754 0,0"
         style="fill:#000000;fill-opacity:1;fill-rule:nonzero;stroke:none"
         id="path3996" /></g><g
       id="g3998"
       transform="matrix(14.566642,0,0,-14.566642,572.3955,523.61551)"><path
         d="m 0,0 c 0,-0.754 -0.611,-1.365 -1.365,-1.365 -0.753,0 -1.364,0.611 -1.364,1.365 0,0.754 0.611,1.365 1.364,1.365 C -0.611,1.365 0,0.754 0,0"
         style="fill:#000000;fill-opacity:1;fill-rule:nonzero;stroke:none"
         id="path4000" /></g></g></svg>
