<?xml version="1.0" encoding="UTF-8" standalone="no"?>
<svg xmlns:svg="http://www.w3.org/2000/svg" xmlns="http://www.w3.org/2000/svg" version="1.1"
    width="600" height="330" viewBox="0 0 600 330" xml:space="preserve">
	<defs id="defs5025" />
	<g transform="matrix(1.25,0,0,-1.25,0,330)">
		<path style="fill:#ffffff;fill-opacity:1;fill-rule:nonzero;stroke:none" d="M 31.996,263.758 C 14.484,263.758 0.242,249.508 0.242,231.992 L 0.242,31.996 C 0.242,14.484 14.484,0.242 31.996,0.242 L 448.004,0.242 C 465.516,0.242 479.758,14.484 479.758,31.996 L 479.758,231.992 C 479.758,249.508 465.516,263.758 448.004,263.758" />
		<g style="fill:#000000;fill-opacity:1;fill-rule:nonzero;stroke:none">
			<path d="M 31.996,0.469 C 14.613,0.469 0.48,14.613 0.48,31.996 L 0.48,231.992 C 0.48,249.375 14.613,263.52 31.996,263.52 L 448.004,263.52 C 465.387,263.52 479.52,249.375 479.52,231.992 L 479.52,31.996 C 479.52,14.613 465.387,0.469 448.004,0.469 L 31.996,0.469 z M 448.004,264 31.996,264 C 14.32,264 0,249.672 0,231.992 L 0,31.996 C 0,14.328 14.32,0 31.996,0 L 448.004,0 C 465.672,0 480,14.328 480,31.996 L 480,231.992 C 480,249.672 465.672,264 448.004,264" />
			<path d="M 31.996,19.996 448.004,19.996 C 454.633,19.996 460.004,25.367 460.004,31.996 L 460.004,231.992 C 460.004,238.621 454.633,243.992 448.004,243.992 L 31.996,243.992 C 25.367,243.992 19.996,238.621 19.996,231.992 L 19.996,31.996 C 19.996,25.367 25.367,19.996 31.996,19.996 z M 31.996,7.996 C 18.738,7.996 7.996,18.738 7.996,31.996 L 7.996,231.992 C 7.996,245.25 18.738,255.992 31.996,255.992 L 448.004,255.992 C 461.262,255.992 472.004,245.25 472.004,231.992 L 472.004,31.996 C 472.004,18.738 461.262,7.996 448.004,7.996" />
			<path d="M 251.648,210.953 C 251.648,202.648 244.926,195.914 236.609,195.914 228.309,195.914 221.574,202.648 221.574,210.953 221.574,219.266 228.309,226 236.609,226 244.926,226 251.648,219.266 251.648,210.953 z M 259.172,166.219 259.172,122.602 229.086,122.602 229.086,158.676 209.559,128.594 C 205.602,122.504 197.445,120.77 191.355,124.723 L 228.367,181.715 C 234.016,190.426 245.656,192.902 254.367,187.242 255.02,186.832 255.621,186.375 256.211,185.879 L 281.461,164.703 C 284.012,162.555 285.484,159.391 285.484,156.066 L 285.484,137.648 C 285.484,130.367 279.598,124.484 272.328,124.484 L 272.328,155.18 259.172,166.219 z M 244.137,111.266 208.621,45.863 C 204.664,38.566 195.531,35.859 188.234,39.832 L 228.18,113.402 C 228.773,114.504 229.086,115.738 229.086,116.988 L 229.086,118.84 259.172,118.84 259.172,116.988 C 259.172,115.738 259.484,114.504 260.09,113.402 L 289.938,58.398 C 293.902,51.09 291.207,41.965 283.906,38.012" />
		</g>
	</g>
</svg>