<?xml version="1.0" encoding="UTF-8" standalone="no"?>
<svg
   xmlns:dc="http://purl.org/dc/elements/1.1/"
   xmlns:cc="http://creativecommons.org/ns#"
   xmlns:rdf="http://www.w3.org/1999/02/22-rdf-syntax-ns#"
   xmlns:svg="http://www.w3.org/2000/svg"
   xmlns="http://www.w3.org/2000/svg"
   viewBox="0 0 600 330"
   height="330"
   width="600"
   xml:space="preserve"
   id="svg4966"
   version="1.1"><metadata
     id="metadata4972"><rdf:RDF><cc:Work
         rdf:about=""><dc:format>image/svg+xml</dc:format><dc:type
           rdf:resource="http://purl.org/dc/dcmitype/StillImage" /><dc:title></dc:title></cc:Work></rdf:RDF></metadata><defs
     id="defs4970"><clipPath
       id="clipPath4988"
       clipPathUnits="userSpaceOnUse"><path
         id="path4986"
         d="M 0,0 H 450 V 248 H 0 Z" /></clipPath></defs><g
     transform="matrix(1.3333333,0,0,-1.3333333,0,330)"
     id="g4974"><g
       id="g4976" /><g
       id="g4978"><g
         transform="translate(0,-0.5)"
         id="g4980"><g
           id="g4982"><g
             clip-path="url(#clipPath4988)"
             id="g4984"><g
               id="g4990"><path
                 id="path4992"
                 style="fill:#ffffff;fill-opacity:1;fill-rule:nonzero;stroke:none"
                 d="M 29.996,0.953 C 13.699,0.953 0.453,14.199 0.453,30.496 v 187.496 c 0,16.297 13.246,29.555 29.543,29.555 h 390.008 c 16.297,0 29.543,-13.258 29.543,-29.555 V 30.496 c 0,-16.297 -13.246,-29.543 -29.543,-29.543 z" /><path
                 id="path4994"
                 style="fill:#000000;fill-opacity:1;fill-rule:nonzero;stroke:none"
                 d="M 29.996,0.953 C 13.699,0.953 0.453,14.199 0.453,30.496 v 187.496 c 0,16.297 13.246,29.555 29.543,29.555 h 390.008 c 16.297,0 29.543,-13.258 29.543,-29.555 V 30.496 c 0,-16.297 -13.246,-29.543 -29.543,-29.543 z M 420.004,248 H 29.996 C 13.426,248 0,234.566 0,217.992 V 30.496 C 0,13.934 13.426,0.5 29.996,0.5 H 420.004 C 436.566,0.5 450,13.934 450,30.496 V 217.992 C 450,234.566 436.566,248 420.004,248" /></g></g></g></g><path
         id="path4996"
         style="fill:#000000;fill-opacity:1;fill-rule:nonzero;stroke:none"
         d="m 29.996,18.746 h 390.008 c 6.215,0 11.25,5.035 11.25,11.25 v 187.496 c 0,6.215 -5.035,11.25 -11.25,11.25 H 29.996 c -6.215,0 -11.25,-5.035 -11.25,-11.25 V 29.996 c 0,-6.215 5.035,-11.25 11.25,-11.25 z m 0,-11.25 c -12.43,0 -22.5,10.07 -22.5,22.5 v 187.496 c 0,12.43 10.07,22.5 22.5,22.5 h 390.008 c 12.43,0 22.5,-10.07 22.5,-22.5 V 29.996 c 0,-12.43 -10.07,-22.5 -22.5,-22.5" /><path
         id="path4998"
         style="fill:#000000;fill-opacity:1;fill-rule:nonzero;stroke:none"
         d="m 73.199,137.828 h -9.511 v 2.145 c 0,2.175 -0.528,4.039 -1.583,5.593 -0.996,1.618 -2.707,2.426 -5.128,2.426 -1.305,0 -2.395,-0.25 -3.266,-0.746 -0.805,-0.5 -1.457,-1.152 -1.957,-1.961 -0.434,-0.746 -0.746,-1.644 -0.93,-2.703 -0.187,-0.992 -0.281,-2.051 -0.281,-3.168 0,-1.305 0.031,-2.426 0.094,-3.359 0.125,-0.867 0.371,-1.645 0.746,-2.328 0.371,-0.622 0.898,-1.184 1.582,-1.68 0.746,-0.496 1.742,-0.992 2.984,-1.492 l 7.274,-2.891 c 2.113,-0.805 3.82,-1.769 5.129,-2.887 1.304,-1.058 2.296,-2.332 2.98,-3.824 0.746,-1.43 1.246,-3.109 1.492,-5.035 0.25,-1.863 0.375,-4.008 0.375,-6.434 0,-2.796 -0.281,-5.406 -0.84,-7.832 C 71.801,99.293 70.867,97.242 69.562,95.5 68.32,93.824 66.641,92.484 64.527,91.492 62.414,90.496 59.836,90 56.789,90 c -2.301,0 -4.445,0.402 -6.434,1.211 -1.988,0.809 -3.699,1.898 -5.125,3.266 -1.429,1.429 -2.582,3.105 -3.453,5.031 -0.804,1.93 -1.211,4.012 -1.211,6.25 v 3.543 h 9.512 v -2.985 c 0,-1.742 0.496,-3.324 1.488,-4.754 1.059,-1.367 2.801,-2.054 5.223,-2.054 1.617,0 2.859,0.219 3.731,0.656 0.929,0.496 1.613,1.148 2.05,1.957 0.496,0.871 0.809,1.926 0.934,3.168 0.121,1.242 0.184,2.613 0.184,4.102 0,1.742 -0.063,3.171 -0.184,4.289 -0.125,1.121 -0.406,2.019 -0.84,2.703 -0.375,0.687 -0.934,1.246 -1.68,1.679 -0.683,0.434 -1.617,0.903 -2.796,1.399 l -6.805,2.797 c -4.102,1.68 -6.867,3.887 -8.297,6.621 -1.371,2.797 -2.055,6.277 -2.055,10.441 0,2.485 0.344,4.848 1.028,7.086 0.683,2.239 1.679,4.164 2.984,5.782 1.367,1.613 3.074,2.886 5.125,3.82 2.055,0.996 4.445,1.492 7.18,1.492 2.363,0 4.507,-0.434 6.433,-1.305 1.989,-0.871 3.668,-2.019 5.035,-3.449 1.43,-1.43 2.516,-3.047 3.262,-4.848 0.746,-1.742 1.121,-3.543 1.121,-5.41 z" /><path
         id="path5000"
         style="fill:#000000;fill-opacity:1;fill-rule:nonzero;stroke:none"
         d="m 85.695,110.605 v -6.433 c 0,-1.492 0.403,-2.641 1.211,-3.449 0.871,-0.809 2.02,-1.215 3.449,-1.215 1.805,0 2.985,0.531 3.543,1.586 0.625,1.058 0.997,2.113 1.122,3.172 h 9.507 c 0,-1.989 -0.339,-3.856 -1.023,-5.594 -0.621,-1.742 -1.555,-3.234 -2.797,-4.477 C 99.461,92.891 97.973,91.863 96.23,91.117 94.492,90.371 92.531,90 90.355,90 c -2.917,0 -5.437,0.621 -7.55,1.863 -2.114,1.246 -3.731,2.891 -4.848,4.942 -0.684,1.246 -1.148,2.675 -1.398,4.289 -0.25,1.617 -0.371,3.386 -0.371,5.316 v 15.57 c 0,1.926 0.121,3.696 0.371,5.313 0.25,1.617 0.714,3.047 1.398,4.289 1.117,2.051 2.734,3.699 4.848,4.941 2.113,1.243 4.633,1.864 7.55,1.864 2.176,0 4.137,-0.371 5.875,-1.117 1.805,-0.747 3.293,-1.805 4.477,-3.172 1.242,-1.305 2.176,-2.86 2.797,-4.66 0.684,-1.805 1.023,-3.731 1.023,-5.782 v -13.051 z m 0,7.457 h 9.325 v 5.407 c 0,1.804 -0.438,3.14 -1.305,4.011 -0.809,0.93 -1.93,1.399 -3.36,1.399 -1.429,0 -2.578,-0.469 -3.449,-1.399 -0.808,-0.871 -1.211,-2.207 -1.211,-4.011 z" /><path
         id="path5002"
         style="fill:#000000;fill-opacity:1;fill-rule:nonzero;stroke:none"
         d="m 108.719,137.828 h 9.508 v -4.57 h 0.187 c 0.996,1.492 2.176,2.707 3.543,3.637 1.43,0.996 3.231,1.492 5.406,1.492 1.184,0 2.364,-0.219 3.543,-0.653 1.184,-0.371 2.239,-1.023 3.172,-1.957 0.93,-0.933 1.676,-2.144 2.238,-3.636 0.559,-1.43 0.836,-3.2 0.836,-5.313 V 90.559 h -9.507 v 32.726 c 0,1.738 -0.407,3.106 -1.211,4.102 -0.809,0.992 -1.961,1.492 -3.45,1.492 -1.804,0 -3.046,-0.559 -3.73,-1.68 -0.684,-1.117 -1.027,-2.734 -1.027,-4.847 V 90.559 h -9.508 z" /><path
         id="path5004"
         style="fill:#000000;fill-opacity:1;fill-rule:nonzero;stroke:none"
         d="m 143.594,137.828 h 9.508 V 90.559 h -9.508 z m 0,19.113 h 9.508 v -9.511 h -9.508 z" /><path
         id="path5006"
         style="fill:#000000;fill-opacity:1;fill-rule:nonzero;stroke:none"
         d="m 157.332,121.98 c 0,1.926 0.121,3.696 0.371,5.313 0.25,1.617 0.715,3.047 1.399,4.289 1.117,2.051 2.734,3.699 4.847,4.941 2.113,1.243 4.633,1.864 7.551,1.864 2.922,0 5.441,-0.621 7.555,-1.864 2.113,-1.242 3.726,-2.89 4.847,-4.941 0.684,-1.242 1.149,-2.672 1.399,-4.289 0.246,-1.617 0.371,-3.387 0.371,-5.313 v -15.57 c 0,-1.93 -0.125,-3.699 -0.371,-5.316 -0.25,-1.614 -0.715,-3.043 -1.399,-4.289 -1.121,-2.051 -2.734,-3.696 -4.847,-4.942 C 176.941,90.621 174.422,90 171.5,90 c -2.918,0 -5.438,0.621 -7.551,1.863 -2.113,1.246 -3.73,2.891 -4.847,4.942 -0.684,1.246 -1.149,2.675 -1.399,4.289 -0.25,1.617 -0.371,3.386 -0.371,5.316 z m 9.508,-17.062 c 0,-1.805 0.402,-3.172 1.211,-4.102 0.871,-0.871 2.019,-1.308 3.449,-1.308 1.43,0 2.551,0.437 3.359,1.308 0.868,0.93 1.305,2.297 1.305,4.102 v 18.551 c 0,1.804 -0.437,3.14 -1.305,4.011 -0.808,0.93 -1.929,1.399 -3.359,1.399 -1.43,0 -2.578,-0.469 -3.449,-1.399 -0.809,-0.871 -1.211,-2.207 -1.211,-4.011 z" /><path
         id="path5008"
         style="fill:#000000;fill-opacity:1;fill-rule:nonzero;stroke:none"
         d="m 189.863,137.828 h 9.508 v -5.035 c 1.93,1.742 3.824,3.109 5.688,4.102 1.867,0.996 4.164,1.492 6.898,1.492 V 128.32 c -0.93,0.371 -1.895,0.559 -2.891,0.559 -0.992,0 -2.082,-0.188 -3.261,-0.559 -1.117,-0.312 -2.176,-0.871 -3.168,-1.679 -0.934,-0.809 -1.711,-1.864 -2.332,-3.172 -0.621,-1.305 -0.934,-2.918 -0.934,-4.848 V 90.559 h -9.508 z" /><path
         id="path5010"
         style="fill:#000000;fill-opacity:1;fill-rule:nonzero;stroke:none"
         d="m 223.027,110.605 v -6.433 c 0,-1.492 0.407,-2.641 1.215,-3.449 0.867,-0.809 2.02,-1.215 3.449,-1.215 1.801,0 2.985,0.531 3.543,1.586 0.621,1.058 0.993,2.113 1.118,3.172 h 9.511 c 0,-1.989 -0.343,-3.856 -1.027,-5.594 -0.621,-1.742 -1.555,-3.234 -2.797,-4.477 -1.242,-1.304 -2.734,-2.332 -4.477,-3.078 C 231.824,90.371 229.867,90 227.691,90 c -2.921,0 -5.437,0.621 -7.55,1.863 -2.114,1.246 -3.731,2.891 -4.852,4.942 -0.684,1.246 -1.148,2.675 -1.398,4.289 -0.246,1.617 -0.371,3.386 -0.371,5.316 v 15.57 c 0,1.926 0.125,3.696 0.371,5.313 0.25,1.617 0.714,3.047 1.398,4.289 1.121,2.051 2.738,3.699 4.852,4.941 2.113,1.243 4.629,1.864 7.55,1.864 2.176,0 4.133,-0.371 5.871,-1.117 1.805,-0.747 3.297,-1.805 4.477,-3.172 1.242,-1.305 2.176,-2.86 2.797,-4.66 0.684,-1.805 1.027,-3.731 1.027,-5.782 v -13.051 z m 0,7.457 h 9.325 v 5.407 c 0,1.804 -0.434,3.14 -1.305,4.011 -0.809,0.93 -1.926,1.399 -3.356,1.399 -1.429,0 -2.582,-0.469 -3.449,-1.399 -0.808,-0.871 -1.215,-2.207 -1.215,-4.011 z" /><path
         id="path5012"
         style="fill:#000000;fill-opacity:1;fill-rule:nonzero;stroke:none"
         d="m 246.051,137.828 h 9.511 v -4.57 h 0.184 c 0.996,1.492 2.176,2.707 3.543,3.637 1.43,0.996 3.234,1.492 5.41,1.492 1.18,0 2.36,-0.219 3.543,-0.653 1.18,-0.371 2.235,-1.023 3.168,-1.957 0.934,-0.933 1.68,-2.144 2.238,-3.636 0.559,-1.43 0.84,-3.2 0.84,-5.313 V 90.559 h -9.511 v 32.726 c 0,1.738 -0.403,3.106 -1.211,4.102 -0.809,0.992 -1.957,1.492 -3.45,1.492 -1.804,0 -3.046,-0.559 -3.73,-1.68 -0.684,-1.117 -1.024,-2.734 -1.024,-4.847 V 90.559 h -9.511 z" /><path
         id="path5014"
         style="fill:#000000;fill-opacity:1;fill-rule:nonzero;stroke:none"
         d="m 280.926,156.941 h 9.512 v -23.683 h 0.183 c 0.996,1.492 2.176,2.707 3.543,3.637 1.43,0.996 3.234,1.492 5.41,1.492 1.18,0 2.36,-0.219 3.543,-0.653 1.18,-0.371 2.235,-1.023 3.168,-1.957 0.934,-0.933 1.68,-2.144 2.238,-3.636 0.559,-1.43 0.84,-3.2 0.84,-5.313 V 90.559 h -9.511 v 32.726 c 0,1.738 -0.403,3.106 -1.211,4.102 -0.809,0.992 -1.957,1.492 -3.45,1.492 -1.8,0 -3.046,-0.559 -3.73,-1.68 -0.684,-1.117 -1.023,-2.734 -1.023,-4.847 V 90.559 h -9.512 z" /><path
         id="path5016"
         style="fill:#000000;fill-opacity:1;fill-rule:nonzero;stroke:none"
         d="m 323.109,110.605 v -6.433 c 0,-1.492 0.407,-2.641 1.215,-3.449 0.871,-0.809 2.02,-1.215 3.449,-1.215 1.801,0 2.985,0.531 3.543,1.586 0.622,1.058 0.993,2.113 1.118,3.172 h 9.511 c 0,-1.989 -0.343,-3.856 -1.027,-5.594 -0.621,-1.742 -1.555,-3.234 -2.797,-4.477 -1.242,-1.304 -2.734,-2.332 -4.476,-3.078 C 331.906,90.371 329.949,90 327.773,90 c -2.921,0 -5.437,0.621 -7.55,1.863 -2.114,1.246 -3.731,2.891 -4.852,4.942 -0.683,1.246 -1.148,2.675 -1.398,4.289 -0.246,1.617 -0.371,3.386 -0.371,5.316 v 15.57 c 0,1.926 0.125,3.696 0.371,5.313 0.25,1.617 0.715,3.047 1.398,4.289 1.121,2.051 2.738,3.699 4.852,4.941 2.113,1.243 4.629,1.864 7.55,1.864 2.176,0 4.133,-0.371 5.872,-1.117 1.804,-0.747 3.296,-1.805 4.476,-3.172 1.242,-1.305 2.176,-2.86 2.797,-4.66 0.684,-1.805 1.027,-3.731 1.027,-5.782 v -13.051 z m 0,7.457 h 9.325 v 5.407 c 0,1.804 -0.434,3.14 -1.305,4.011 -0.809,0.93 -1.926,1.399 -3.356,1.399 -1.429,0 -2.578,-0.469 -3.449,-1.399 -0.808,-0.871 -1.215,-2.207 -1.215,-4.011 z" /><path
         id="path5018"
         style="fill:#000000;fill-opacity:1;fill-rule:nonzero;stroke:none"
         d="m 346.133,137.828 h 9.512 V 90.559 h -9.512 z m 0,19.113 h 9.512 v -9.511 h -9.512 z" /><path
         id="path5020"
         style="fill:#000000;fill-opacity:1;fill-rule:nonzero;stroke:none"
         d="m 362.07,137.828 h 9.512 v -4.57 h 0.184 c 0.996,1.492 2.175,2.707 3.543,3.637 1.429,0.996 3.234,1.492 5.41,1.492 2.051,0 3.758,-0.496 5.125,-1.492 1.367,-0.993 2.488,-2.083 3.359,-3.262 1.18,1.305 2.485,2.422 3.914,3.355 1.43,0.934 3.418,1.399 5.969,1.399 1.18,0 2.391,-0.219 3.633,-0.653 1.246,-0.371 2.363,-1.023 3.359,-1.957 0.992,-0.933 1.801,-2.144 2.422,-3.636 0.621,-1.43 0.934,-3.2 0.934,-5.313 V 90.559 h -9.512 v 32.726 c 0,1.738 -0.402,3.106 -1.211,4.102 -0.809,0.992 -1.957,1.492 -3.449,1.492 -1.801,0 -3.047,-0.559 -3.731,-1.68 -0.683,-1.117 -1.023,-2.734 -1.023,-4.847 V 90.559 h -9.512 v 32.726 c 0,1.738 -0.402,3.106 -1.211,4.102 -0.808,0.992 -1.957,1.492 -3.449,1.492 -1.801,0 -3.047,-0.559 -3.731,-1.68 -0.683,-1.117 -1.023,-2.734 -1.023,-4.847 V 90.559 h -9.512 z" /></g></g></svg>